<?xml version="1.0" encoding="UTF-8"?><svg id="Livello_2" xmlns="http://www.w3.org/2000/svg" viewBox="0 0 445.83 401.11"><g id="Livello_1-2"><path d="m61.57,240.54c0,28.16-.15,56.31-.43,84.47-.04,3.88-.21,7.73-.51,11.6s-.56,7.66-.38,11.5c.1,2.11,1.83,3.2,3.8,2.89,1.68-.26,3.48.07,5.17.19,1.96.13,3.84-.12,5.79-.27,3.27-.25,6.43.26,9.65.81,3.8.65,7.58,1.44,11.29,2.51s7.36,2.44,11.04,3.65c7.54,2.46,15.16,4.68,22.75,6.99,7.42,2.26,14.73,5.08,22.28,6.85,7.3,1.7,14.75,2.59,22.16,3.71s14.51,2.69,21.61,4.96c3.64,1.17,7.27,2.37,10.95,3.42s7.18,1.68,10.77,2.58,7.11,2.17,10.65,3.32,6.93,2,10.51,2.65c4.21.77,8.39,1.65,12.55,2.65,2.16.52,4.32,1.07,6.46,1.64,1.93.51,3.85,1.16,5.82,1.52,3.41.62,6.89.62,10.34.77,3.05.14,6.18.35,8.59,1.78,1.5.89,4.12.16,4.41-1.79.45-3.09.33-6.11.07-9.21s-.35-6.11-.24-9.21c.24-6.59.14-13.18-.14-19.77-.57-13.32-.63-26.66-.1-39.98s.82-26.85.89-40.29c.07-13.47.07-26.94.5-40.41.24-7.38.65-14.76,1.5-22.1.76-6.54,2.68-12.83,3.61-19.33.23-1.6-.39-3.22-2.1-3.69-1.41-.39-3.46.48-3.69,2.1-.84,5.89-2.61,11.6-3.4,17.51-.87,6.49-1.41,13.01-1.71,19.55-.62,13.45-.64,26.92-.69,40.38s-.11,26.9-.66,40.34c-.54,13.33-.79,26.64-.38,39.99.23,7.41.61,14.81.46,22.23-.07,3.57-.3,7.1-.02,10.67.24,3.15.76,6.47.3,9.62l4.41-1.79c-5.47-3.24-12.29-2.4-18.37-2.91-3.03-.26-6.44-1.42-9.67-2.25-3.67-.95-7.36-1.83-11.08-2.61s-7.7-1.34-11.47-2.32-7.08-2.21-10.61-3.34-7.02-1.88-10.58-2.7-7.38-1.96-11.02-3.12-7.37-2.45-11.1-3.48-7.46-1.79-11.24-2.44c-7.39-1.27-14.86-2.08-22.23-3.5s-14.76-4.07-22.11-6.36c-7.73-2.41-15.51-4.65-23.23-7.08-4.18-1.32-8.31-2.79-12.48-4.15s-8.37-2.33-12.65-3.1c-4.01-.72-8.14-1.56-12.23-1.29-2.08.14-4.08.44-6.18.29-2.3-.16-4.46-.33-6.76.03l3.8,2.89c-.31-6.89.79-13.73.86-20.62.08-6.96.14-13.93.19-20.89.11-14.08.19-28.16.23-42.24.02-7.94.03-15.88.03-23.83,0-3.86-6-3.87-6,0h0Z"/><path d="m285.4,400.34c6.84.24,12.52-4.47,17.91-8.01,6.06-3.99,13.03-6.3,19.6-9.28,3.42-1.56,6.78-3.24,10.25-4.69s6.85-2.75,10.29-4.07c7.09-2.72,14.21-5.41,21.03-8.76,3.76-1.85,7.43-3.79,11.3-5.41,3.96-1.66,7.97-3.26,11.77-5.28,1.09-.58,1.81-2.19,1.38-3.39-.96-2.65-.86-5.18-.64-8.22.23-3.21.7-6.07,1.16-9.25,1.16-8.12.79-16.18.6-24.35-.19-8.38-.08-16.73-.81-25.09-.35-4.08-.59-8.04-.31-12.14s.78-7.98,1.01-11.99c.21-3.59.11-7.19.27-10.78.08-1.77.22-3.61.49-5.19.15-.87.34-1.73.58-2.57.26-.9.46-1.41.75-2h-5.18c-.11-.89-.16-1.08-.14-.56.03.37.08.73.17,1.09.35,1.58,2.19,2.51,3.69,2.1,1.63-.45,2.44-2.1,2.1-3.69.22.99-.23-1.4-.07-.76-.11-.44-.3-.84-.57-1.2-1.24-1.64-4.07-2.23-5.18,0-3.07,6.15-2.69,13.46-2.8,20.14-.13,7.87-1.82,15.74-1.19,23.62.33,4.18.74,8.35.91,12.54s.21,8.54.22,12.81c.02,8.48.87,17.01-.2,25.45-.04.35,0,.06,0,0-.04.27-.08.55-.11.82-.06.4-.11.79-.17,1.19-.14.95-.28,1.91-.42,2.86-.28,2.01-.55,4.01-.73,6.03-.31,3.53-.44,7.37.78,10.75l1.38-3.39c-6.55,3.48-13.64,5.77-20.2,9.23-6.4,3.38-13.13,6.04-19.88,8.63-7.14,2.74-14.31,5.43-21.2,8.76s-13.73,5.6-20.2,9.19c-3.01,1.67-5.74,3.8-8.65,5.63s-5.81,3.37-8.98,3.25c-3.86-.13-3.86,5.87,0,6h0Z"/><path d="m288.98,199.98c8.38,4.44,14.94,11.48,21.96,17.71,3.79,3.36,7.83,6.31,11.91,9.3,4.35,3.19,8.6,6.5,12.75,9.95,4.81,3.99,9.47,8.16,13.94,12.53,1.48,1.45,4.63.99,5.01-1.32.06-.36.1-.9.14-1.18l-2.1,2.1c11.35-3.99,23.54-4.9,34.79-9.23,5.62-2.16,11.26-4.19,17-6.02,2.79-.89,5.59-1.75,8.38-2.63s5.63-1.95,8.5-2.66,6.08-.98,8.65-2.69c.66-.44,1.28-.95,1.92-1.43.2-.15.4-.3.61-.43.07-.05.83-.39.45-.27,1.02-.32,2.76-.26,4.07-.97,1.58-.86,2.09-3.49.61-4.71-8.87-7.3-19.33-12.26-28.37-19.3-4.53-3.52-8.53-7.66-12.88-11.39-3.39-2.91-6.7-6-10.32-8.63-1.53-1.11-3.28-2.22-5.17-2.56-2.02-.36-4.1.02-6.1.37s-4.04.83-6.06,1.26c-2.13.45-4.29.73-6.41,1.25-2.73.67-5.42,1.54-8.19,2.05s-5.87.51-8.79.85c-6.25.73-12.43,1.94-18.65,2.91s-12.96,1.03-19.23,2.8c-5.95,1.68-11.63,4.25-17.72,5.45-1.59.31-2.5,2.21-2.1,3.69.46,1.66,2.1,2.41,3.69,2.1,5.32-1.05,10.32-3.13,15.47-4.77,2.51-.8,5.08-1.51,7.69-1.88s5.49-.46,8.23-.81c6.16-.79,12.26-1.98,18.4-2.91,5.72-.87,11.59-.82,17.21-2.22,2.74-.68,5.43-1.54,8.2-2.05,1.88-.34,3.75-.67,5.61-1.07.98-.21,1.96-.43,2.94-.62.48-.1.97-.19,1.45-.27.26-.04.52-.08.78-.13.64-.11-.29.02.38-.05.74-.08,1.45-.1,2.19-.07-.71-.02-.17.04.22.11.71.15-.33-.17.09.03.25.12.49.24.73.38,3.36,1.86,6,4.72,9.05,7.26,4.33,3.62,8.35,7.57,12.65,11.22,9.54,8.11,21.1,13.3,30.74,21.24l.61-4.71c.37-.2-.39.09-.16.05.33-.06-.82.08-.67.06-.6.06-1.23.11-1.82.25-1.33.33-2.38,1.23-3.44,2.03-.89.67-1.72,1.22-2.78,1.55-1.28.39-2.61.63-3.92.91-2.79.58-5.47,1.56-8.19,2.42-2.86.91-5.74,1.79-8.6,2.7-5.65,1.78-11.27,3.63-16.78,5.81-5.65,2.23-11.43,3.77-17.36,5.06-6.47,1.4-12.98,2.68-19.24,4.89-.9.32-1.95,1.05-2.1,2.1-.05.36-.09.91-.14,1.18l5.01-1.32c-8.02-7.85-16.68-15.03-25.66-21.75-3.99-2.99-8.09-5.79-11.86-9.07s-7.25-6.66-10.95-9.92c-4.11-3.63-8.45-7.11-13.31-9.68-1.43-.76-3.26-.36-4.1,1.08-.79,1.36-.36,3.34,1.08,4.1h0Z"/><path d="m77.56,166.99c6.84-.2,13.49,1.13,20.11,2.67,6.53,1.53,13.03,2.9,19.65,4.01,13.58,2.28,27.15,4.9,40.9,6,6.82.55,13.63.86,20.43,1.68,6.92.83,13.8,1.95,20.66,3.18,13.55,2.43,27.02,5.32,40.61,7.57,7.76,1.28,15.55,2.28,23.29,3.68s15.77,3.13,23.58,5.06v-5.79c-4.28,1.22-6.09,5.46-8.04,9.03-1.13,2.07-2.15,3.03-3.76,5.05-1.83,2.3-3.6,4.66-5.28,7.08-1.48,2.13-2.81,4.15-4.76,5.89-1.83,1.63-3.85,3.04-5.7,4.65-2.07,1.81-3.77,3.96-5.69,5.92s-4.08,3.95-6.25,5.77c-4.21,3.55-8.65,6.83-12.93,10.29s-8.42,6.73-13.14,9.33c-4.11,2.27-8.56,3.75-12.46,6.41-.67.46-1.36.89-2.04,1.33s.12-.03-.09.07c.47-.22.36,0,.09-.03-.24-.03-.54,0-.79-.02-.1,0-.57-.06-.06,0-.2-.03-.4-.07-.6-.11-.37-.07-.74-.16-1.11-.26-.99-.25-1.96-.57-2.92-.9-3.69-1.29-7.3-3.12-11.16-3.85-5.95-1.12-11.84-2.44-17.71-3.92-11.65-2.93-23.17-6.34-34.9-8.95-2.9-.65-5.81-1.24-8.73-1.77-1.39-.25-2.81-.41-4.18-.76s-2.71-.95-4.09-1.37c-2.89-.88-5.65-.48-8.59-.38-2.54.09-4.89-.63-7.26-1.46s-4.76-1.7-7.29-2.06c-2.83-.4-5.72-.23-8.56-.48-5.75-.51-11.41-1.72-17.12-2.52-6.19-.87-12.43-1.49-18.64-2.29-5.82-.75-11.67-1.01-17.5-1.6-5.26-.54-10.64-1.24-15.69-2.82-3.66-1.14-7.28-2.98-10.85-5.19-1.61-.99-2.68-1.66-3.86-2.99v4.24c4.5-4.13,10.45-6.03,15.64-9.07,2.83-1.66,5.41-3.74,8.07-5.65s5.43-3.86,8.09-5.85c5.35-4.01,10.47-8.29,14.72-13.49s8-11.05,12.94-15.78c2.5-2.4,5.36-5.09,8.08-6.94,2.38-1.63,5.5-2.98,7.04-5.54,1.99-3.32-3.19-6.34-5.18-3.03-.36.6.46-.39-.16.18-.15.14-.3.28-.46.41-.12.1-.85.59-1.19.82-1.13.74-2.29,1.43-3.39,2.2-2.76,1.94-5.32,4.3-7.8,6.57-5.03,4.6-8.82,10.17-13.01,15.5-3.94,5.01-8.54,9.31-13.61,13.17-2.65,2.02-5.37,3.95-8.08,5.89s-5.17,3.91-7.89,5.64c-5.96,3.79-12.75,5.87-18.04,10.73-1.24,1.14-1.04,3.07,0,4.24,2.7,3.05,6.81,5.08,10.41,6.84,4.3,2.1,8.7,3.55,13.41,4.4,5.68,1.03,11.43,1.62,17.19,2.04,6.16.46,12.25,1.25,18.38,2.04s11.76,1.38,17.63,2.35c2.93.48,5.86.94,8.81,1.28s5.89.32,8.85.49c2.44.14,4.79,1.08,7.07,1.89,2.53.9,5.08,1.66,7.78,1.82s5.4-.67,8.02.04c1.38.37,2.7.97,4.07,1.37s2.94.58,4.4.85c11.99,2.15,23.74,5.46,35.5,8.58,5.85,1.56,11.71,3.07,17.62,4.38,4.69,1.04,9.4,1.69,13.91,3.4,3.86,1.47,7.85,3.38,12.03,3.64,3.65.23,5.89-2.61,8.92-4.1,5.03-2.47,10.06-4.58,14.69-7.8s9.02-6.96,13.46-10.52,8.88-6.8,12.94-10.68c2.03-1.95,3.83-4.1,5.79-6.11,1.81-1.86,3.91-3.38,5.92-5.01,4.4-3.56,7.07-8.42,10.47-12.87,1.55-2.02,3.36-3.88,4.79-5.98,1.09-1.6,1.85-3.41,2.82-5.08.43-.75.86-1.45,1.29-1.9.54-.57.89-.82,1.33-.95,2.79-.79,2.92-5.06,0-5.79-13.91-3.45-27.94-5.82-42.09-7.98-13.78-2.11-27.42-5.01-41.13-7.56-13.8-2.56-27.7-4.76-41.73-5.52-13.59-.73-26.98-3.12-40.37-5.41-7.47-1.28-14.87-2.6-22.25-4.35s-15.38-3.48-23.26-3.25c-3.85.11-3.87,6.11,0,6h0Z"/><path d="m79.41,165.13c7.73.74,14.87-2.4,22.27-3.98,3.14-.67,6.38-.67,9.57-.99,3.68-.38,7.23-1.08,10.51-2.87s.37-7.03-3.03-5.18c-5.62,3.06-12.55,1.95-18.64,3.25-6.89,1.47-13.49,4.45-20.67,3.76-1.62-.15-3,1.49-3,3,0,1.75,1.38,2.84,3,3h0Z"/><path d="m376.46,175.01c-2.9.91-5.84.92-9.2.9s-7.02-.25-10.53-.44c-3.94-.21-7.86-.47-11.78-.94s-8.14-1.09-12.23-1.48c-1.62-.16-3,1.49-3,3,0,1.75,1.38,2.84,3,3,4.09.39,8.15,1,12.23,1.48s8.05.74,12.1.96c3.59.19,7.18.42,10.77.42,3.39,0,6.98-.09,10.24-1.12,3.67-1.15,2.1-6.95-1.6-5.79h0Z"/><path d="m324.63,190.23c10.42-11.03,17.39-24.68,26.54-36.68,9.44-12.38,20.76-23.22,31.06-34.86,10.06-11.36,19.72-23.09,30.22-34.05,5.21-5.44,10.62-10.68,16.34-15.57,2.63-2.25,5.35-4.39,8.1-6.49,1.75-1.33,3.47-2.72,5.02-4.29s3.27-3.53,3.76-5.77c.67-3.01-1.06-5.35-3.81-6.4-6.34-2.42-13.19,1.51-18.31,4.96-1.22.82-2.43,1.68-3.63,2.53l3.64,4.71c1.79-1.49,3.27-3.53,4.45-5.52,1.36-2.29,2.64-5.25,1.83-7.95-.93-3.11-4.29-4.54-7.31-3.85-2.74.62-5.09,2.7-7.08,4.57s-3.72,4.09-5.82,5.86l5.01,2.92c.95-5.34,5.46-10.13,3.3-15.94-1.12-3.01-3.57-5.94-7.05-5.85-3.05.08-5.42,2.38-7.15,4.65s-3.01,5.09-4.18,7.81c-1.34,3.13-2.56,6.3-3.77,9.48-2.31,6.08-4.71,12.06-8.13,17.62-3.47,5.64-7.5,10.9-11.9,15.85-2.24,2.52-4.57,4.96-6.99,7.31s-4.78,4.3-7.08,6.54c-8.95,8.71-14.66,19.92-22.25,29.7-2.12,2.73-4.27,5.44-6.35,8.21s-4.3,5.68-6.73,8.29c-5.01,5.37-11.15,9.51-16.66,14.32-1.22,1.07-1.09,3.15,0,4.24,1.21,1.21,3.02,1.07,4.24,0,4.71-4.11,9.84-7.75,14.39-12.04,4.61-4.34,8.24-9.58,12.06-14.6,3.56-4.68,7.15-9.27,10.44-14.16s6.21-9.46,9.78-13.84c3.83-4.71,8.42-8.5,12.73-12.73,4.75-4.65,9.14-9.65,13.19-14.93s7.44-10.45,10.16-16.26,4.77-11.85,7.14-17.78c1.2-3,2.42-6.11,4.22-8.81.52-.78,1.49-1.93,1.98-2.31.24-.19.51-.35.78-.49-.46.24.21-.07.34-.1-.74.18.49.08-.27-.01.29.09.35.1.17.03-.19-.08-.13-.04.16.11.35.47,1.2,1.83,1.28,2.43.17,1.32-.14,2.23-.63,3.58-.93,2.57-2.5,5.21-3.01,8.09s2.66,4.91,5.01,2.92c1.98-1.67,3.62-3.74,5.48-5.54.52-.5,1.04-.98,1.59-1.45.08-.07.96-.76.54-.46.23-.17.45-.33.69-.49.3-.2.6-.39.91-.56.15-.08.3-.16.45-.23-.35.14-.37.14-.06.02.2-.05.45-.11.64-.19.55-.21-.61.23.23.02-.47-.08-.54-.08-.21-.01.34.11.33.1-.03-.05.28,0,.56.6.08,0,.22.24.19.18-.11-.17.15.28.13.21-.06-.22.03.83-.03-.38.06.16.03.2-.1.85.04.06-.05.31-.12.61-.21.91-.04.12-.41,1.1-.14.47-.1.25-.22.49-.34.73-.33.66-.71,1.3-1.12,1.91-.15.23-.31.46-.47.69-.07.09-.74.97-.33.46-.67.83-1.37,1.65-2.19,2.33-2.59,2.16.84,6.67,3.64,4.71,2.46-1.73,4.9-3.49,7.53-4.95,2.46-1.38,5.11-2.56,7.7-2.41.39.02.91.1,1.47.26.15.04.86.39.23.05.19.1.36.2.54.32l-.32-.23c.22.23.17.16-.15-.22.26.54-.24-.71-.06-.14-.22-.69-.06-.53-.06-.17-.01-.89-.01-.27-.07.05-.1.58.35-.51,0,0-.12.17-.21.38-.32.56-.12.19-.26.37-.38.56-.41.65.41-.43-.12.15-.75.83-1.5,1.65-2.32,2.41-.67.62-1.36,1.21-2.07,1.79-.18.14-1.28,1-.55.45-.54.41-1.08.82-1.62,1.23-3.02,2.3-5.97,4.69-8.84,7.17-5.52,4.78-10.76,9.89-15.8,15.18-10.02,10.51-19.29,21.69-28.88,32.58-9.9,11.23-20.65,21.73-30.02,33.41-10.09,12.58-17.35,27.37-28.46,39.13-2.65,2.81,1.58,7.06,4.24,4.24h0Z"/><path d="m313.5,165.04c8.58-14.87,16.3-30.41,17.88-47.76,1.66-18.23-1.72-36.74-4.94-54.62-.93-5.14-1.87-10.27-2.54-15.45-.34-2.61-.82-5.15-1.39-7.72-.53-2.38-.92-4.7-.69-7.15.14-1.47-1.25-2.79-2.6-2.95-1.6-.19-2.7.73-3.29,2.15-4.16,10.06-10.31,19.7-19.65,25.65-4.67,2.97-9.52,5.05-15.09,5.42-3.17.21-6.4,1.2-9.59.86-2.89-.3-5.62-1.54-8.49-2-7.02-1.13-14.4-1.06-21.5-1.01s-14.31.36-21.46.69c-7.06.33-14.13.66-21.2.76-3.58.05-7.16.03-10.74-.07-2.31-.07-5.27-.05-7.09-.87-1.98-.89-2.99-2.17-4.07-4.06-1.19-2.09-2.11-4.35-2.98-6.59-1.97-5.12-4.28-11.67-2.76-17.17.94-3.4-3.61-5.04-5.48-2.31-1.99,2.91-4.41,5.53-6.24,8.55-1.97,3.24-3.13,6.95-4.55,10.45-3.08,7.63-6.99,14.9-10,22.57-5.65,14.39-10.49,29.64-9.53,45.29.27,4.41.65,8.84,1.08,13.24.45,4.66,1.15,9.29,2.59,13.76l5.79-1.6c-1.39-3.4-3.37-6.37-5.41-9.41-1.92-2.86-3.37-5.99-5.32-8.81-3.82-5.55-9.03-10.11-11.65-16.44-1.35-3.25-2.22-6.69-3.51-9.96-1.38-3.51-3.2-6.73-5.38-9.8s-4.51-5.88-6.8-8.79c-2.06-2.62-3.72-5.44-5.25-8.4-1.63-3.15-3.19-6.33-5.27-9.21-2.24-3.1-4.62-6.09-6.95-9.12-4.34-5.65-8.47-11.51-12.13-17.63-3.08-5.15-5.46-10.64-6.25-16.64-.64-4.87-.38-9.91-2.47-14.48C67.48,1.99,65.32.02,62.54,0s-5.03,1.63-6.25,3.99-1.57,5.22-1.79,7.9c-.1,1.2-.16,2.41-.24,3.61-.04.55-.08,1.1-.13,1.66-.01.17-.03.33-.06.5.11-.82-.04.13-.08.29-.82,3.82,4.44,5.18,5.79,1.6,2.35-6.24-3.01-14.34-8.69-16.71-3.28-1.37-7.23-.63-9.68,2.04s-2.57,6.09-2.03,9.4,2.02,6.61,3.41,9.74l4.71-3.64c-3.33-3.72-9.84-2.75-13.87-.9-2.11.97-4.09,2.57-4.87,4.83-.89,2.57.24,5.1,1.91,7.06,3.57,4.19,9.56,6.09,14.51,8.02s8.66,5.42,11.39,9.91c3.05,5.02,4.99,10.61,7.32,15.97,2.79,6.42,6.53,12.28,10.63,17.94,4.65,6.41,9.69,12.52,14.36,18.92s8.07,13.62,12.85,19.95c2.64,3.49,5.3,6.98,7.52,10.76s3.73,7.91,5.08,12.12,2.62,8.66,4.34,12.84c1.55,3.77,3.55,7.58,3.73,11.72.08,1.94,1.85,3.42,3.8,2.89.45-.12.88-.27,1.32-.42,3.64-1.23,2.08-7.03-1.6-5.79-.44.15-.87.3-1.32.42l3.8,2.89c-.17-3.99-1.51-7.58-3.05-11.21-1.42-3.35-2.64-6.75-3.74-10.22-2.37-7.5-4.73-14.79-9.13-21.4-2.05-3.07-4.35-5.94-6.51-8.92s-4.08-6.29-5.98-9.52c-3.92-6.67-8.57-12.74-13.3-18.84s-9.3-12.03-13.21-18.55c-3-5.01-5.11-10.37-7.38-15.73s-4.62-10.17-8.39-14.33c-1.94-2.13-4.26-3.99-6.8-5.36-2.27-1.23-4.74-2.05-7.13-3.01s-5.32-2.23-7.53-3.98c-.72-.57-1.46-1.26-1.84-2.19.19.46.05.07.02-.03-.07-.34-.07-.3,0,.13.01-.34-.01-.29-.07.16.01,0,.11-.41.1-.41-.51.5.04-.02.2-.25-.5.72.92-.69.32-.26.44-.32.92-.58,1.41-.82.08-.04.52-.22.08-.04.37-.15.74-.27,1.12-.38.58-.17,1.16-.3,1.76-.4-.46.07.87-.06,1.11-.07s.48,0,.71,0c.19,0,.37.02.55.04-.3-.05-.35-.05-.13-.02.21.04.42.08.63.13.1.03.93.34.56.17-.42-.2.23.15.25.17.41.3-.34-.38.21.23.99,1.1,2.83,1.12,3.94.23,1.25-1,1.4-2.46.77-3.87s-.89-1.98-1.44-3.45-1.02-2.98-1.31-4.53c-.06-.34-.13-.87-.13-1.59,0-.35,0-.71.05-1.06-.08.58.07-.23.1-.35.24-.83.54-1.28,1.45-1.66s.67-.32,1.53-.21c-.6-.08.29.11.34.13.33.12.38.13.13.02.14.06.28.13.42.21,1.21.68,2.13,1.47,3.07,2.71.75.99,1.47,2.41,1.82,3.6.09.31.17.63.23.95.07.37.07.42.02.14.02.2.03.41.03.61,0,.13-.08.97.02.37-.06.37-.17.72-.3,1.07l5.79,1.6c.84-3.93.36-8.04,1.35-11.53.05-.17.46-1.27.22-.75.17-.39.38-.78.64-1.12-.37.48-.09.14,0,.05.57-.51-.53.27.14-.11.12-.07.51-.25-.07,0,.22-.09.73-.17.21-.09.11-.02.7-.16.34,0-.53.22.59-.29-.23-.06.27-.08.2.25-.03-.07.13.19.37.35.52.53-.37-.45.17.34.26.52.01.02.38.87.18.37.11.29.21.59.3.89,1.37,4.45,1.01,9.09,1.89,13.92,1.08,5.95,3.61,11.5,6.71,16.65,3.49,5.8,7.39,11.39,11.5,16.77,2.15,2.81,4.34,5.59,6.46,8.43s3.76,5.69,5.34,8.76,2.99,5.9,4.93,8.58,4.15,5.26,6.19,7.91,4.1,5.58,5.64,8.67,2.38,6.27,3.48,9.44c1.28,3.69,2.88,7.19,5.17,10.37,2.11,2.92,4.55,5.55,6.75,8.39s3.71,6.13,5.67,9.16,4.4,6.05,5.8,9.47c.61,1.5,1.99,2.56,3.69,2.1,1.51-.42,2.6-2.14,2.1-3.69-2.37-7.34-2.54-15.02-3.23-22.64s-.21-14.9,1.37-22.25c1.59-7.4,4.05-14.57,6.73-21.63,2.84-7.48,6.46-14.58,9.64-21.91,1.63-3.76,2.8-7.83,4.8-11.42,1.88-3.37,4.56-6.21,6.74-9.39l-5.48-2.31c-1.58,5.72-.05,12.1,1.77,17.59,1.59,4.78,3.47,10.11,6.82,13.97,4,4.59,9.91,4.65,15.55,4.78,7.65.18,15.3-.06,22.94-.38,15.05-.64,30.14-1.65,45.19-.55,1.58.12,3.19.19,4.75.5s3.21.86,4.82,1.28c3.67.95,7.02.8,10.73.24,3.16-.48,6.36-.5,9.49-1.26,2.92-.71,5.73-1.92,8.37-3.35,6.06-3.28,11.36-7.72,15.61-13.15s7.5-11.61,10.16-18.05l-5.89-.8c-.43,4.61,1.19,8.97,1.89,13.47s1.26,9.06,2.06,13.57c1.57,8.84,3.24,17.66,4.39,26.57,1.15,8.96,1.87,18.02,1.49,27.05-.35,8.35-2.13,16.45-5.04,24.28-3.21,8.64-7.7,16.75-12.29,24.72-1.93,3.35,3.25,6.38,5.18,3.03h0Z"/><path d="m170.21,131.16c3.7-1.11,6.74-3.33,9.95-5.39l-4.41-3.39c-.79,2.67-1.58,5.35-1.4,8.17.12,1.88,1.83,3.5,3.8,2.89,2.99-.92,5.35-3.35,8.27-4.11l-3.69-3.69c-.59,2.71-1.6,5.26-1.65,8.08s3.25,3.78,5.12,2.12,3.45-3.85,5.15-5.79c.88-1.01,1.81-2.02,2.86-2.85-.35.27.41-.28.41-.28.21-.14.43-.26.65-.39.13-.07.26-.14.4-.2-.22.09-.24.1-.04.03.32-.11.64-.19.97-.26l-3.8-2.89c.05,3.65-.29,7.9,1.84,11.08,1.14,1.7,3.18,1.91,4.71.61.91-.78,1.77-1.3,2.93-1.24l-2.89-2.2c.2.63.44,1.26.44,1.93-.04,3.86,5.96,3.86,6,0,.01-1.21-.29-2.37-.65-3.52-.42-1.32-1.53-2.14-2.89-2.2-2.79-.13-5.12,1.25-7.18,3l4.71.61c-.66-.99-.84-2.04-.93-3.37-.11-1.56-.07-3.12-.09-4.68-.03-2.05-1.88-3.28-3.8-2.89-6.02,1.21-8.83,7.55-13.04,11.29l5.12,2.12c.04-2.23.96-4.33,1.44-6.48s-1.4-4.29-3.69-3.69c-1.65.43-3.17,1.22-4.6,2.12-1.2.76-2.42,1.61-3.67,1.99l3.8,2.89c-.15-2.31.54-4.39,1.19-6.57.73-2.45-2.2-4.81-4.41-3.39-2.73,1.75-5.36,3.84-8.51,4.79-3.69,1.1-2.12,6.9,1.6,5.79h0Z"/><path d="m267.42,145.7c2.53-1.53,4.52-3.71,6.31-6.02l-5.01-1.32c.3,1.22.28,2.48.42,3.73.19,1.73.56,3.25,1.33,4.83s2.72,1.7,4.1,1.08c3.03-1.35,5.56-3.81,7.78-6.22l-5.12-2.12c.11,2.16-.1,4.38.6,6.47s3.34,2.97,5.01,1.32c1.44-1.41,2.68-3.01,4.05-4.49.68-.73,1.39-1.49,2.19-2.1.44-.33,1.21-.72,1.72-.84l-3.69-3.69c-.8,2.07-1.16,4.32-1.38,6.52s-.24,4.48.49,6.51c.41,1.13,1.24,2,2.49,2.15,1.08.13,2.5-.34,2.99-1.43,1.17-2.6,3.85-4.21,5.48-6.72l-5.59-1.51c.13,1.16.33,2.19.98,3.17.29.43.6.74.95,1.1.08.08.7.78.43.39.94,1.32,2.62,1.95,4.1,1.08,1.31-.76,2.02-2.78,1.08-4.1-.41-.57-.83-1.14-1.36-1.6l-.17-.16c-.22-.24-.22-.21.02.09.01-.22-.06-.29-.02.05-.15-1.33-.82-2.51-2.2-2.89s-2.66.26-3.39,1.38c-.63.98-1.68,1.87-2.63,2.81-1.15,1.14-2.19,2.43-2.85,3.91l5.48.72c-.12-.34-.22-.68-.29-1.03-.12-.52,0,.09-.04-.25-.02-.22-.03-.43-.04-.65-.05-.99,0-1.99.1-2.98.14-1.39.57-3.37,1.17-4.92.86-2.23-1.66-4.2-3.69-3.69-4.72,1.19-7.34,5.77-10.6,8.97l5.01,1.32c-.52-1.56-.3-3.24-.38-4.87-.12-2.46-3.27-4.13-5.12-2.12s-3.95,4.11-6.56,5.28l4.1,1.08c-1.04-2.12-.58-4.85-1.14-7.12-.49-2.01-3.61-3.14-5.01-1.32s-3.03,3.83-5.1,5.08c-3.3,2-.29,7.19,3.03,5.18h0Z"/><path d="m227.27,147.86c6-2.36,10.33-7.1,12.56-13.11l-5.89-.8c-.35,3.37.76,6.91,2.27,9.88s3.85,5.79,7.1,6.81c1.5.47,3.34-.55,3.69-2.1.37-1.63-.49-3.19-2.1-3.69-.11-.03-.24-.06-.33-.11.74.42.3.14.14.04-.22-.13-.43-.25-.64-.39-.5-.33-.02.08.06.06-.04.01-.27-.23-.31-.27-.23-.21-.45-.44-.67-.67-.14-.16-.72-.93-.3-.33-.17-.25-.36-.49-.52-.75-.39-.59-.74-1.22-1.05-1.86-.09-.19-.44-.97-.19-.39-.14-.34-.27-.68-.39-1.02-.22-.64-.41-1.29-.56-1.95-.08-.34-.12-.68-.2-1.02-.1-.41.04.54.02.13,0-.18-.04-.36-.05-.55-.04-.62-.03-1.24.03-1.85.16-1.48-1.26-2.77-2.6-2.95-1.55-.21-2.76.73-3.29,2.15-.04.11-.47,1.13-.21.55-.11.25-.23.49-.35.74-.28.56-.58,1.11-.91,1.64s-.67,1.04-1.05,1.53c.39-.5-.19.22-.27.31-.2.23-.4.46-.61.68-.42.44-.85.85-1.31,1.25-.19.17-.39.33-.59.49.54-.42-.32.22-.42.28-.49.33-1,.64-1.52.92-.22.12-.45.23-.68.34-.15.07-.3.14-.46.21.33-.14.34-.14.02-.02-1.46.57-2.63,2.04-2.1,3.69.46,1.41,2.13,2.71,3.69,2.1h0Z"/><path d="m222.43,96.64c-.03.19-.09.37-.12.56,0,.05-.17.45-.03.14s-.5.64-.07.14c-.1.11-.83.73-.4.42-.3.22-.64.41-.97.58-.17.09-.35.17-.53.25.06-.03.35-.14.03-.02s-.66.24-1,.34c-.76.24-1.54.42-2.32.6-3.74.82-7.49,1.67-11.31,2.05-4.52.44-9.11.36-13.58-.45-4.16-.76-7.67-2.71-11.5-4.38-4.05-1.77-8.65-2.72-12.26-5.38l.61,4.71c2.35-2.43,5.95-3.17,9.35-3.74,4.2-.7,8.46-1.5,12.72-1.77,8.78-.55,17.82,1.12,26.23,3.53.72.21,1.44.43,2.15.69.13.05.26.1.4.15.84.33-.27-.13.2.09.38.18.76.37,1.13.58.16.09.93.67.5.3.26.22.51.45.72.72-.41-.53-.1-.04-.05,0,.4.3-.24-.05.02.07.11.05.02.08,0-.19.02.27,0,.52-.03.79-.17,1.61,1.5,3,3,3,1.76,0,2.83-1.38,3-3,.44-4.22-3.36-6.75-6.77-8.1-3.86-1.53-8.1-2.37-12.17-3.13-5.2-.97-10.5-1.59-15.79-1.59s-10.32,1.06-15.43,1.83c-4.82.73-9.91,1.87-13.43,5.5-1.46,1.5-.94,3.57.61,4.71,3.54,2.61,7.98,3.61,11.99,5.27,4.33,1.79,8.3,4.19,12.96,5.06,5.09.95,10.27,1.22,15.42.71,4.45-.43,8.83-1.34,13.19-2.32,3.87-.88,8.54-2.71,9.31-7.15.28-1.59-.43-3.23-2.1-3.69-1.45-.4-3.41.49-3.69,2.1Z"/><path d="m309.23,107.52c.04.38.07.76.04,1.14s0-.01,0-.07c-.03.13-.06.28-.12.41-.15.31,0-.03.03-.09-.17.41-.13.23.01.07-.13.14-.6.61-.52.55-.91.73-2.5,1.18-4,1.5-3.56.75-7.37.44-10.96-.01-7.13-.89-14.46-2.09-21.14-4.82-3.4-1.39-6.57-3.26-9.35-5.57l.47,3.64c.08-.14.31-.45.32-.59.02-.2.27-.01-.1.1.06-.02-.69.43-.26.27.21-.08.44-.23.64-.34.29-.15-.15.06-.17.07.2-.08.4-.15.61-.22,1.29-.45,2.63-.78,3.96-1.09,3.1-.73,6.21-1.48,9.34-2.06,4.25-.78,8.54-1.52,12.87-.94,2.06.28,4.09.75,6.15,1.03,1.88.25,3.81.47,5.61,1.12,1.47.53,3.41,1.72,4.35,2.52,1.45,1.24,2.01,2.24,2.33,4.2.26,1.6,2.25,2.49,3.69,2.1,1.7-.47,2.36-2.09,2.1-3.69-.71-4.33-3.81-7.26-7.48-9.34-2.03-1.15-4.13-1.93-6.43-2.32s-4.67-.64-6.98-1.1c-2.51-.49-5.09-.79-7.65-.72s-5.12.51-7.65.93c-3.79.63-7.52,1.51-11.27,2.36-3.34.76-7.37,1.44-9.14,4.69-.59,1.08-.56,2.78.47,3.64,6.39,5.3,14.08,8.53,22.2,10.14,4.27.85,8.63,1.55,12.96,2.06s8.84.65,13.09-.48,8.51-4.04,7.98-9.06c-.17-1.61-1.26-3-3-3-1.49,0-3.17,1.38-3,3Z"/><path d="m166.9,109.97c.17-.19.35-.35.53-.52.4-.37-.46.32-.19.15.11-.07.21-.14.32-.21.44-.28.91-.51,1.38-.73.98-.46,2-.84,2.95-1.38,1.14-.66,2.16-1.55,3.07-2.5.39-.4.76-.81,1.16-1.2.2-.2.4-.39.6-.57.1-.09.21-.18.32-.27.41-.36-.55.41-.07.06.65-.47,1.16-.99,1.38-1.79.2-.72.11-1.67-.3-2.31-.81-1.26-2.74-2.06-4.1-1.08-1.13.82-2.09,1.75-3.05,2.75-.39.41-.78.81-1.21,1.18-.11.09-.22.18-.33.28-.28.23.56-.39.12-.1-.25.16-.49.32-.75.47-2.07,1.15-4.42,1.72-6.06,3.56-1.05,1.17-1.24,3.11,0,4.24,1.14,1.05,3.13,1.25,4.24,0h0Z"/><path d="m186.24,115.08c2.87-1.89,3.57-5.46,4.81-8.44l-.3.72c.15-.35.3-.69.51-1.01.86-1.32.31-3.37-1.08-4.1-1.5-.79-3.19-.33-4.1,1.08-.53.81-.84,1.76-1.18,2.66s-.64,1.79-1.01,2.67l.3-.72c-.33.78-.69,1.54-1.2,2.22l.47-.61c-.2.26-.42.5-.69.71l.61-.47c-.06.04-.11.08-.17.12-.65.43-1.17,1.03-1.38,1.79-.2.72-.11,1.67.3,2.31s1.03,1.2,1.79,1.38,1.64.14,2.31-.3h0Z"/><path d="m208.26,115.41c-.18-.68-.3-1.37-.4-2.07l.11.8c-.31-2.39-.3-4.8-.3-7.21,0-1.57-1.38-3.07-3-3s-3,1.32-3,3c0,3.35-.05,6.81.8,10.08.39,1.52,2.16,2.59,3.69,2.1s2.52-2.06,2.1-3.69h0Z"/><path d="m223.26,112c-.12-.1-.22-.22-.33-.32-.29-.26.43.66.24.3-.04-.07-.09-.14-.13-.21-.08-.14-.35-.74-.1-.15s-.03-.1-.08-.27c-.26-.83-.4-1.7-.52-2.56l.11.8c-.33-2.49-.33-5.14-1.5-7.42-.71-1.4-2.8-1.92-4.1-1.08-1.43.92-1.84,2.61-1.08,4.1.15.29.12.6-.12-.3.02.09.07.18.1.28.07.22.13.44.18.66.12.52.2,1.05.27,1.57l-.11-.8c.23,1.73.35,3.47.69,5.18.32,1.6.96,3.38,2.24,4.46.62.52,1.28.88,2.12.88.74,0,1.61-.33,2.12-.88,1.02-1.11,1.28-3.16,0-4.24h0Z"/><path d="m262.88,115.74c0-.07,0-.14.01-.21l-.11.8c.02-.13.06-.25.1-.37l-.3.72c.09-.21.21-.41.35-.59l-.47.61c.39-.5.87-.92,1.37-1.3l-.61.47c2.05-1.57,4.43-2.62,6.42-4.26.56-.46.88-1.43.88-2.12,0-.74-.33-1.61-.88-2.12s-1.32-.91-2.12-.88c-.84.04-1.48.35-2.12.88-.05.04-.09.07-.14.11l.61-.47c-1.45,1.12-3.14,1.94-4.67,2.96-2,1.34-4.33,3.12-4.34,5.79,0,1.57,1.38,3.07,3,3s2.99-1.32,3-3h0Z"/><path d="m280.4,124.19c.07-.17.14-.34.21-.5l-.3.72c1.38-3.26,2.93-6.44,4.27-9.72.27-.67.05-1.72-.3-2.31s-1.08-1.22-1.79-1.38c-.77-.17-1.63-.14-2.31.3s-1.07,1.03-1.38,1.79c-.14.34-.28.67-.42,1l.3-.72c-1.31,3.09-2.77,6.12-4.06,9.22-.28.67-.04,1.72.3,2.31.36.62,1.08,1.22,1.79,1.38.77.17,1.63.14,2.31-.3s1.06-1.03,1.38-1.79h0Z"/><path d="m295.12,128.27c0-1.98-.29-3.95-.37-5.93-.04-1.1-.06-2.2.04-3.3.01-.14.08-.62,0,0s-.01.11.01-.03c.04-.19.08-.38.13-.57.02-.08.06-.17.08-.25-.22.94-.32.67-.17.42.34-.59-.6.6-.14.17,1.15-1.07,1.16-3.17,0-4.24-1.23-1.13-3.01-1.14-4.24,0-.91.84-1.34,2.1-1.51,3.3-.2,1.36-.25,2.7-.21,4.07.06,2.12.37,4.23.38,6.35,0,1.57,1.37,3.07,3,3s3.01-1.32,3-3h0Z"/><path d="m311.48,124.92c-.57-2.94-1.8-5.71-2.22-8.68l.11.8c-.09-.66-.13-1.32-.1-1.99.07-1.57-1.43-3.07-3-3-1.69.08-2.92,1.32-3,3-.18,3.98,1.68,7.64,2.43,11.47.3,1.54,2.23,2.57,3.69,2.1,1.64-.53,2.42-2.04,2.1-3.69h0Z"/><path d="m295.98,98.13c2.87,1.75,2.61,6.78-.12,10.3-2.07,2.66-5.25,6.06-8.83,2.81-3.54-5.58-2.53-11.36,3.94-13.32,2.2-.67,3.86-.49,5.01.21Z"/><path d="m196.75,88.43c-1.19.04-2.31.39-3.23,1.1-4.46,3.48.1,16.36,6.18,13.25,2.65.23,4.85-4.68,5.2-7.12.58-4.08-4.14-7.37-8.16-7.22Z"/></g></svg>