<?xml version="1.0" encoding="UTF-8"?><svg id="Livello_2" xmlns="http://www.w3.org/2000/svg" viewBox="0 0 228.12 280.23"><defs><style>.cls-1{fill:#1d1d1b;}</style></defs><g id="Livello_2-2"><path class="cls-1" d="m39.36,166.6c-8.37-22.12-23.9-43.5-22.2-68.2,1.53-22.29,18.6-39.13,32.91-54.57,8.45-9.12,16.75-18.65,22.16-29.94l-3.43-.45c2.32,13.43,4.65,26.85,6.97,40.28.14.8,1.04,1.38,1.81,1.38,10.45.02,20.9.04,31.35.05s20.6,0,30.83,1.1c8.58.93,18.48,4.25,26.63-.11,7.08-3.78,9.49-12.1,10.83-19.43,2.1-11.42,3.88-22.91,5.81-34.37h-3.62c3.11,11.66,6.39,23.46,12.16,34.13,2.75,5.09,6.12,9.9,10.19,14.03,4.32,4.38,9.8,7.45,14,11.95,4.46,4.79,5.58,11.25,6.51,17.5s1.65,12.79,1.94,19.23c.57,12.69-.48,25.63-5.1,37.57-5.43,14.02-16.27,24.38-27.05,34.41-1.77,1.65.88,4.29,2.65,2.65,9.78-9.09,19.72-18.48,25.66-30.65,5.75-11.79,7.75-24.98,7.73-38-.01-6.55-.52-13.1-1.32-19.6s-1.44-13.51-4.21-19.6-7.89-9.55-12.84-13.42-8.88-8.19-12.19-13.31c-7.39-11.46-11.04-24.84-14.53-37.88-.45-1.68-3.3-1.89-3.62,0-1.7,10.07-3.4,20.14-5.09,30.21-1.16,6.85-2.11,15.65-8.05,20.23-3.24,2.49-7.37,2.92-11.32,2.7-4.53-.25-9-1.24-13.5-1.78-9.89-1.19-19.88-1.27-29.83-1.29-11.35-.02-22.69-.04-34.04-.06l1.81,1.38c-2.32-13.43-4.65-26.85-6.97-40.28-.27-1.55-2.75-1.85-3.43-.45-9.81,20.46-28.59,34.38-41.77,52.42-6.38,8.73-11.65,18.64-13.3,29.44-1.84,12.02.73,24.14,4.94,35.4,4.9,13.1,11.93,25.26,16.88,38.34.85,2.24,4.47,1.27,3.62-1h0Z"/><path class="cls-1" d="m194.34,172.1c-3.98-4.09-10.18-1.48-14.84-.34-6.39,1.56-12.93,2.44-19.5,2.58s-13.14-.61-19.7-1.36-13.3-1.17-20.03-.77c-7.48.45-14.95,1.15-22.42,1.75l1.81,1.38c-1.29-3.81-6.41-5.17-9.31-2.27h2.65c-2.62-3.35-7.33-3.08-11.05-2.26-2.3.51-4.64,1.23-6.99.59s-4.34-1.56-6.8-1.16c-1.91.31-3.64,1.26-5.35,2.11-1.62.8-3.29,1.52-5.11.97-2.15-.64-4.03-2.16-6.08-3.06-2.22-.98-4.52-1.74-6.84-2.42-1.33-.39-2.66-.76-4-1.14-1.15-.33-2.45-.89-3.63-.35-2.86,1.31-.28,5.45,1.97,3.73.62-.48,1.17-1.28.86-2.12l-.04-.11c-.82-2.25-4.44-1.28-3.62,1l.04.11.86-2.12-.08.06.95-.26.93.42.55,1.33v-.14c-.18.44-.36.88-.55,1.33l-.42.15c-.49.08-.56.15-.19.21.12.11.53.15.68.19.53.15,1.06.3,1.59.45,1.03.29,2.06.58,3.09.88,1.94.56,3.88,1.16,5.74,1.95,3.42,1.45,6.52,4.29,10.47,3.81,3.21-.39,5.69-2.77,8.83-3.3,1.79-.3,3.46.64,5.15,1.1,2.02.55,4.04.43,6.08.05,3.17-.59,7.85-2.48,10.3.65.63.8,2,.65,2.65,0,.83-.83,2.65-.56,3.04.62.25.73.97,1.44,1.81,1.38,13-1.04,26.03-2.7,39.07-1.35,6.26.65,12.49,1.56,18.78,1.72s12.83-.36,19.15-1.5c3.36-.61,6.63-1.48,9.93-2.33,2.17-.56,5.15-1.31,6.92.51s4.34-.92,2.65-2.65h0Z"/><path class="cls-1" d="m31.63,156.67c-2.82.64-5.64,1.27-8.46,1.91-2.09.47-4.17.96-6.16,1.76s-3.87,1.83-5.29,3.42c-1.51,1.69-3.09,4.45-1.2,6.44,1.67,1.75,4.32-.9,2.65-2.65l.19.62.07-.27c.09-.12.14-.3.22-.43.16-.29.34-.58.55-.85.43-.54.96-1.02,1.53-1.41,1.36-.93,2.89-1.54,4.46-2.01,4.06-1.23,8.3-1.97,12.43-2.91,2.35-.53,1.36-4.15-1-3.62h0Z"/><path class="cls-1" d="m200.87,168.43c5.52.7,11.67,3.27,13.28,8.97.65,2.32,4.27,1.33,3.62-1-.96-3.41-3.27-6.21-6.17-8.17-3.18-2.15-6.97-3.08-10.72-3.55-1.01-.13-1.88.95-1.88,1.88,0,1.12.87,1.75,1.88,1.88h0Z"/><path class="cls-1" d="m25.48,144.87c-4.59.72-9.04,2.18-13.16,4.33-3.48,1.81-7.17,4.33-8.35,8.29-1.32,4.42,1.29,8.94,4.4,11.92s6.86,4.82,10.72,6.41c9.07,3.71,18.83,5.81,28.38,7.88s19.54,3.85,29.41,5.23c19.74,2.76,39.66,4.1,59.59,3.94,9.88-.08,19.75-.52,29.6-1.33s19.3-1.69,28.75-3.63c4.57-.94,9.09-2.2,13.4-4,3.83-1.59,7.83-3.49,10.72-6.55s4.18-7.01,3.29-11.11-4.03-7.33-8.02-8.51c-1.97-.58-4.02-.6-6.01-.16-2.36.52-1.36,4.13,1,3.62,3.43-.76,7.1.88,8.72,4.02s.81,6.93-1.62,9.48c-2.64,2.77-6.39,4.52-9.89,5.92-3.92,1.57-8.01,2.7-12.14,3.57-8.72,1.83-17.66,2.68-26.52,3.45-9.13.79-18.28,1.26-27.44,1.42-18.4.33-36.82-.61-55.1-2.8-18.17-2.18-36.37-5.48-54.03-10.36-4.25-1.18-8.51-2.5-12.53-4.32-3.4-1.54-6.83-3.49-9.15-6.49-1.2-1.56-2.26-3.54-2.1-5.56.13-1.73,1.21-3.13,2.46-4.26,2.84-2.57,6.81-4.2,10.42-5.35,2.03-.64,4.11-1.12,6.21-1.44,1-.16,1.56-1.41,1.31-2.31-.3-1.07-1.3-1.47-2.31-1.31h0Z"/><path class="cls-1" d="m103.36,147.88c1.73-2.76,3.47-5.53,5.2-8.29l-3.43-1.44c-.08.62-.21,1.23-.39,1.82-.08.27-.17.54-.27.8-.01.04-.24.53-.07.18-.07.15-.14.31-.22.46-.48.97-.21,1.94.67,2.57.13.1.27.19.4.29.04.03.39.29.2.15s.16.13.2.16c.13.1.26.21.38.31.46.39.91.79,1.34,1.21s.85.85,1.25,1.3c.18.2.36.41.54.62.11.13.21.25.31.38.05.06.35.45.11.14.31.41.61.72,1.12.86.45.12,1.05.07,1.44-.19.77-.5,1.31-1.73.67-2.57-1.74-2.28-3.74-4.24-6.08-5.9l.67,2.57c.65-1.32,1.12-2.7,1.32-4.16.13-.94-.15-1.82-1.09-2.21-.87-.37-1.84-.03-2.34.77-1.73,2.76-3.47,5.53-5.2,8.29-.52.83-.2,2.1.67,2.57.92.49,2.01.22,2.57-.67h0Z"/><path class="cls-1" d="m157.01,115.17c-2.16-.1-4.2,1.21-5.19,3.11-1.08,2.08-.8,4.54.34,6.54,2.34,4.1,7.76,5.54,12.11,6.13,2.36.32,4.72.31,7.07-.14,2.12-.41,4.78-1.24,6.27-2.89,1.61-1.79,1.46-4.46.09-6.35s-3.58-3.01-5.63-3.97c-5.06-2.38-10.62-3.52-16.21-3.27-2.4.11-2.42,3.86,0,3.75,3.59-.16,7.14.27,10.58,1.33,1.67.51,3.28,1.17,4.83,1.97,1.23.64,3.04,1.4,3.61,2.76s-1.03,1.95-2.1,2.36c-1.63.62-3.35.9-5.09.93-3.23.04-6.88-.62-9.74-2.18-1.43-.78-2.86-2.03-3.08-3.74-.17-1.32.72-2.66,2.12-2.59,2.41.11,2.41-3.64,0-3.75h0Z"/><path class="cls-1" d="m156.12,124.25c1.82-1.31,3.64-2.61,5.46-3.92l-2.82-1.62c-.24,2.39-.31,4.79-.2,7.18.09,1.97,2.41,2.41,3.49.95,1.65-2.23,3.56-4.25,5.63-6.1l-3.2-1.33c-.11,2.25.21,4.51.94,6.64.45,1.32,2.08,1.86,3.13.83,1.83-1.79,3.66-3.58,5.49-5.37,1.73-1.69-.92-4.34-2.65-2.65-1.83,1.79-3.66,3.58-5.49,5.37l3.13.83c-.63-1.85-.89-3.69-.8-5.64.08-1.72-2.06-2.34-3.2-1.33-2.32,2.06-4.37,4.36-6.21,6.86l3.49.95c-.11-2.4-.04-4.8.2-7.18.14-1.36-1.72-2.41-2.82-1.62-1.82,1.31-3.64,2.61-5.46,3.92-.82.59-1.22,1.63-.67,2.57.47.81,1.74,1.27,2.57.67h0Z"/><path class="cls-1" d="m141.32,94.3c4.4-.51,8.56.9,12.79,1.9,3.81.9,7.73,1.32,11.65,1.09,7.66-.45,15.16-3.05,21.34-7.61,1.15-.85,1.25-2.41,0-3.24-3.7-2.44-7.69-4.42-11.87-5.88s-9.12-2.73-13.73-2.54c-8.6.35-15.45,6.13-21.57,11.59-1.81,1.61.85,4.25,2.65,2.65,5.44-4.85,11.69-10.38,19.4-10.5,4.14-.06,8.37,1.06,12.25,2.42s7.55,3.23,10.98,5.5v-3.24c-5.88,4.33-12.95,6.87-20.26,7.14-3.83.14-7.5-.4-11.21-1.34-4.06-1.02-8.19-2.18-12.42-1.69-1.01.12-1.88.78-1.88,1.88,0,.92.86,1.99,1.88,1.88h0Z"/><path class="cls-1" d="m159.73,81.66c-1.69,2.28-2.23,5.33-1.61,8.08.3,1.36.96,2.8,2.02,3.74,1.21,1.07,2.86,1.56,4.43,1.04,2.89-.94,4.5-3.96,4.58-6.86.04-1.42-.31-2.84-.95-4.1s-1.74-2.5-3.18-2.81c-1.2-.26-2.38.21-3.07,1.23-.45.67-.68,1.53-.83,2.31-.35,1.84-.29,3.73.27,5.52.42,1.35,2.1,1.83,3.13.83,1.99-1.92,3.35-5.31,2.13-7.98-.72-1.58-2.48-2.27-4.05-1.52-.7.33-1.22.96-1.48,1.69-.34.94-.03,1.8.57,2.54s2.01.69,2.65,0c.74-.81.66-1.84,0-2.65.42.51.45,1.11.25,1.47l-.17.21c.14-.13.1-.11-.13.08.31-.21-.37.11-.05.02-.36.09-.69.04-.97-.21.27.25-.2-.31.02.02.2.31-.04-.3,0,.05.02.09.04.18.06.27-.03-.27-.04-.3-.02-.08,0,.14,0,.27,0,.41,0,.07-.08.58,0,.15-.03.19-.07.38-.12.56s-.1.37-.16.55c-.02.06-.24.5-.06.16-.18.34-.36.67-.57.99-.28.42.23-.24-.11.14-.15.16-.3.32-.45.47l3.13.83c-.08-.26-.16-.53-.22-.8-.03-.15-.06-.3-.09-.45-.01-.06-.04-.36,0-.05-.05-.58-.07-1.16-.03-1.74,0-.05.04-.43.02-.21-.03.27.06-.32.05-.29.05-.24.1-.48.17-.71.03-.12.07-.23.11-.35,0-.02.22-.46.07-.21l-.04.09c.11-.18.09-.16-.06.04-.16.1-.28.21-.48.25l-.12.02c-.28-.05-.31-.04-.1.01-.08.01-.34-.2-.06,0s.02.01-.02-.03c.07.07.14.13.21.21.01.01.29.38.13.15s.11.17.11.17c.13.21.24.43.36.65.05.08.11.32-.01-.04.03.09.07.18.1.28.07.21.13.42.18.64.03.12.05.24.07.36.03.15.12.24,0-.06.08.19.04.53.04.74,0,.2-.02.4-.03.59-.03.47.07-.27,0,.02-.03.12-.05.24-.07.36-.05.19-.1.38-.16.57-.03.09-.07.19-.1.28.15-.42,0,0-.05.09-.1.2-.21.39-.34.58-.06.08-.27.34-.02.05-.07.08-.14.16-.21.24-.14.15-.3.3-.46.43.29-.24.02-.03-.07.02-.05.03-.48.26-.25.15s-.07.02-.13.04c-.11.03-.45.08-.02.04-.1,0-.2,0-.3.01-.33.02-.04,0,.05.02-.09-.03-.19-.05-.28-.07.36.08.12.06-.01-.01-.1-.05-.36-.25-.04.01-.09-.08-.18-.16-.27-.25s-.17-.18-.25-.27c.05.06.2.31.03.02-.11-.17-.21-.34-.3-.52,0-.01-.2-.46-.09-.19s-.07-.2-.07-.2c-.08-.25-.15-.51-.21-.77-.02-.1-.04-.21-.06-.31-.1-.51.02.38-.02-.13-.02-.26-.04-.53-.04-.79s.02-.53.04-.79c.03-.36,0-.05,0,.02.03-.16.05-.31.09-.47.06-.26.12-.52.2-.77.04-.13.08-.25.13-.38.06-.16.13-.31.02-.07.25-.53.54-1.03.89-1.5.59-.79.16-2.13-.67-2.57-.98-.52-1.94-.17-2.57.67h0Z"/><path class="cls-1" d="m145.32,101.52c1.19-2.34,2.38-4.68,3.57-7.02.44-.87.26-2.07-.67-2.57-.85-.45-2.09-.26-2.57.67-1.19,2.34-2.38,4.68-3.57,7.02-.44.87-.26,2.07.67,2.57.85.45,2.09.26,2.57-.67h0Z"/><path class="cls-1" d="m155.15,101.55c.94-1.73,1.44-3.68,1.42-5.65,0-.49-.2-.98-.55-1.33-.33-.33-.86-.57-1.33-.55-1,.04-1.89.82-1.88,1.88,0,.48-.02.96-.08,1.43l.07-.5c-.12.84-.34,1.65-.67,2.44l.19-.45c-.12.28-.26.56-.41.84-.24.44-.32.96-.19,1.44.12.43.46.91.86,1.12.88.46,2.06.25,2.57-.67h0Z"/><path class="cls-1" d="m164.69,101.87c.1-.59.18-1.19.18-1.79s-.07-1.17-.16-1.75c-.16-1.03-.54-2.03-1.02-2.94-.46-.87-1.74-1.21-2.57-.67-.88.57-1.17,1.64-.67,2.57.11.2.21.41.3.63l-.19-.45c.27.64.45,1.31.55,2l-.07-.5c.1.72.1,1.44,0,2.16l.07-.5c-.01.09-.03.17-.04.26-.09.51-.08.98.19,1.44.23.39.67.76,1.12.86.48.11,1.02.09,1.44-.19.39-.25.78-.65.86-1.12h0Z"/><path class="cls-1" d="m175.49,99.26c-1.01-1.46-1.86-3.02-2.55-4.66l.19.45c-.06-.14-.12-.29-.18-.43-.19-.47-.41-.85-.86-1.12-.4-.24-.99-.33-1.44-.19s-.89.43-1.12.86-.37.99-.19,1.44c.78,1.95,1.73,3.81,2.92,5.54.28.41.63.73,1.12.86.45.12,1.05.07,1.44-.19s.75-.64.86-1.12.09-1.03-.19-1.44h0Z"/><path class="cls-1" d="m184.47,94.69c-1.14-1.21-2.28-2.42-3.41-3.62-.32-.34-.86-.55-1.33-.55s-1.01.2-1.33.55-.57.83-.55,1.33.2.95.55,1.33c1.14,1.21,2.28,2.42,3.41,3.62.32.34.86.55,1.33.55s1.01-.2,1.33-.55.57-.83.55-1.33-.2-.95-.55-1.33h0Z"/><path class="cls-1" d="m52.01,116.06c-3.66,1.54-7.45,4.77-6.11,9.21,1.41,4.68,6.48,6.19,10.88,5.72,2.4-.26,4.78-.79,7.07-1.55,2.03-.67,4.31-1.41,5.89-2.93s1.98-3.86,1.01-5.9-2.88-3.4-4.77-4.37c-4.27-2.2-9.47-2.54-13.94-.73-.94.38-1.6,1.25-1.31,2.31.24.89,1.36,1.69,2.31,1.31,2.83-1.15,5.87-1.36,8.82-.52,1.42.41,2.78,1.05,3.97,1.93.79.58,2.22,1.82,1.61,2.92-.57,1.03-2.23,1.51-3.25,1.89-1.75.65-3.55,1.17-5.38,1.54-2.8.57-6.74,1.08-8.71-1.55-2.22-2.96,1.48-5.07,3.82-6.06.93-.39,1.14-1.77.67-2.57-.57-.97-1.63-1.07-2.57-.67h0Z"/><path class="cls-1" d="m51.79,126.8c1.85-2.21,3.7-4.43,5.54-6.64l-3.2-1.33c.28,3.18.57,6.35.85,9.53.07.83.53,1.58,1.38,1.81.76.21,1.75-.12,2.12-.86,1.52-3.07,3.26-6.02,5.21-8.83l-3.43-.45c.59,1.72,1.09,3.47,1.5,5.24.31,1.33,2.21,1.87,3.13.83,1.14-1.29,2.29-2.57,3.43-3.86.67-.76.75-1.91,0-2.65-.68-.68-1.98-.76-2.65,0-1.14,1.29-2.29,2.57-3.43,3.86l3.13.83c-.41-1.77-.91-3.52-1.5-5.24-.54-1.58-2.49-1.79-3.43-.45-1.96,2.81-3.7,5.76-5.21,8.83l3.49.95c-.28-3.18-.57-6.35-.85-9.53-.07-.75-.41-1.42-1.15-1.71-.65-.26-1.57-.19-2.05.39-1.85,2.21-3.7,4.43-5.54,6.64-.65.78-.76,1.89,0,2.65.67.67,2,.78,2.65,0h0Z"/><path class="cls-1" d="m49.68,95.9c7.67,2.93,15.93,4.51,24.16,4.3,4.05-.1,8.11-.64,12.03-1.66,1.91-.5,3.79-1.12,5.63-1.86s3.95-2.26,5.96-2.04c.91.1,1.74-.79,1.84-1.63.12-.98-.44-1.72-1.34-2.06-8.17-3.05-14.83-9.73-23.93-10.18-4.54-.22-8.64,1.71-12.65,3.59-4.21,1.98-8.33,4.16-12.35,6.51-2.08,1.22-.2,4.46,1.89,3.24,3.82-2.23,7.72-4.3,11.71-6.2,3.76-1.79,7.56-3.68,11.84-3.36s7.87,2.27,11.36,4.26,7.19,4.29,11.14,5.76l.5-3.68c-2.13-.22-3.97.85-5.84,1.7s-3.64,1.46-5.52,2c-3.85,1.12-7.82,1.72-11.83,1.85-8.06.27-16.06-1.28-23.59-4.15-2.26-.86-3.23,2.76-1,3.62h0Z"/><path class="cls-1" d="m70.46,93.9c-.26-.35-.45-.72-.67-1.08-.15-.24.08.25-.02-.02-.04-.11-.08-.21-.12-.32-.08-.24-.15-.49-.2-.74-.02-.08-.03-.17-.05-.25-.05-.29,0,.28,0,0,0-.2-.02-.4-.02-.6,0-.23.01-.46.04-.68-.05.36,0,.06.01,0,.04-.14.06-.28.1-.41.05-.19.12-.37.19-.56-.13.35.09-.17.15-.28.1-.19.22-.37.34-.55.01-.02.18-.23.05-.07-.15.19.13-.15.16-.18.15-.16.3-.31.46-.46.08-.07.16-.14.25-.21-.02.02-.23.16-.06.05s.36-.24.54-.35c.07-.04.14-.08.21-.12.05-.02.53-.24.14-.08.36-.14.72-.25,1.1-.32s.1,0,.02,0c.12,0,.23-.01.35-.01s.23,0,.35.02c-.28-.02-.05.04.09.04.25,0-.19-.13.03,0,.07.04.15.09.22.13-.24-.12-.07-.07.01.02.08.08.16.16.23.24-.23-.28.12.25.16.32,0,.02.13.27.05.09-.09-.21.08.21.09.25.14.42.25.86.33,1.3,0,.05.06.42.04.2s.01.16.02.2c.02.27.03.55.03.82,0,.21-.03.42-.03.63,0,.3.06-.26,0,.04-.02.09-.03.18-.05.27-.05.23-.11.47-.19.69-.04.11-.08.23-.12.34.1-.25-.02.02-.07.12-.12.22-.25.43-.39.64.02-.03.19-.22.05-.07-.09.09-.17.2-.27.29-.07.08-.15.15-.23.22-.34.34.17-.1-.05.06-.2.13-.39.27-.6.38-.09.05-.19.09-.28.14.24-.11.1-.04-.06.01-.22.07-.45.12-.68.17.4-.07-.11-.01-.27-.02-.1,0-.21,0-.31-.02.34.04.05,0-.11-.05l1.31,1.31c-.09-.25-.17-.5-.24-.76-.03-.12-.05-.23-.08-.35,0-.03-.07-.39-.04-.19.03.23-.02-.24-.02-.28,0-.12-.01-.24-.01-.36,0-.27.03-.53.03-.8,0-.29-.05.26,0-.03.02-.12.04-.23.06-.35.05-.26.12-.52.2-.77.04-.11.08-.22.12-.34.05-.12.1-.22.02-.04.13-.27.27-.53.42-.78l-3.49-.95c-.14,1.18-.46,2.45.12,3.56.82,1.56,2.89,1.56,3.97.3,1.65-1.93,1.54-4.7-.08-6.59-.58-.68-1.54-.62-2.27-.29-1.19.53-1.95,1.89-1.94,3.17.01,1.48,1.04,2.7,2.39,3.19,2.72,1,4.38-2.14,3.75-4.42s-3.31-3.48-5.36-2.1c-1.03.7-1.77,1.84-1.81,3.11-.04,1.17.56,2.35,1.59,2.94,1.94,1.1,5.15.22,5.49-2.25.14-.97-.24-2.06-1.31-2.31-.88-.2-2.16.27-2.31,1.31-.01.07-.06.2-.06.27,0,.2.19-.37.03-.11.07-.12.26-.31.05-.1-.16.16.37-.31.07-.07-.23.18.26-.04.09-.03-.03,0-.26.06-.27.07.04-.06.44-.01.16-.03-.14,0-.49-.06.05.03-.07-.01-.15-.02-.21-.05.5.24.2.1.1.03-.18-.13.3.3.09.06l.16.21c-.07-.13-.08-.13-.02,0,.05.14.06.14,0-.02l.03.24c-.02-.35-.07.28-.02.05,0-.04.02-.08.03-.13.04-.13.02-.08-.07.14,0-.02.24-.42.07-.15-.15.24.11-.09.12-.11-.05.08-.22.23-.06.05.22-.24-.17.04-.03,0,.26-.09.15-.04-.05-.02.39-.03-.26-.07-.04-.01.23.06-.33-.21-.06-.02-.16-.12-.21-.25-.07-.04.12.18-.21-.41-.05-.06l.06.1c.07.14.07.14,0,0-.05-.13-.07-.15-.03-.06.02.06.03.11.05.17.09.29-.06-.12-.02-.14,0,0,0,.36,0,.36-.09-.08.15-.39,0-.15-.21.34.17-.27.04-.06-.21.34.04-.05.07-.04l-.08.09c-.15.13-.11.11.1-.07l.95-.26c-.42.02.19.1-.03.03-.13-.04-.1-.02.1.06l-.13-.08.14.11c-.12-.13-.14-.14-.05-.04.02.06.14.46.07.1.03.16.09.24.03.05-.03.22-.03.27,0,.13.03-.1.03-.1,0,.01-.09.1-.18.35-.04.11l-.14.11c.08-.06.17-.1.27-.14l-2.27-.29c-.27-.31,0,.04.06.11.22.31-.03-.23.05.11.03.15.08.29.11.45-.08-.47-.04.09-.03.19,0,.14,0,.1.03-.12-.01.08-.03.15-.05.22-.02.07-.19.49-.08.28.17-.32-.24.41-.06.11.09-.11.07-.09-.04.05.1-.07.21-.13.32-.2h1c.44.18.72.47.85.87.02.28.03.32.01.11.02-.19.03-.38.05-.57.06-.51.12-1.03.18-1.54.09-.78-.64-1.64-1.38-1.81-.82-.19-1.67.13-2.12.86-.88,1.45-1.35,3.14-1.37,4.83,0,.76.09,1.53.26,2.26.1.42.23.92.45,1.3.45.78,1.27.93,2.08,1.03,3.24.38,6.1-2.04,7.07-4.99.52-1.59.49-3.31.18-4.94s-1.02-3.3-2.44-4.28c-2.72-1.88-6.69-.22-8.59,2.07-2.35,2.83-2.63,7.08-.36,10.07.59.78,1.64,1.27,2.57.67.77-.5,1.31-1.73.67-2.57h0Z"/><path class="cls-1" d="m53.14,102.73l3.94-4.68c.33-.39.55-.8.55-1.33,0-.46-.2-1.01-.55-1.33s-.83-.57-1.33-.55c-.47.02-1.01.17-1.33.55l-3.94,4.68c-.33.39-.55.8-.55,1.33,0,.46.2,1.01.55,1.33s.83.57,1.33.55c.47-.02,1.01-.17,1.33-.55h0Z"/><path class="cls-1" d="m62.99,104.23c.63-1.58,1.25-3.15,1.88-4.73.17-.42.03-1.07-.19-1.44s-.67-.76-1.12-.86c-.48-.11-1.02-.09-1.44.19l-.38.29c-.23.23-.39.51-.48.83-.63,1.58-1.25,3.15-1.88,4.73-.17.42-.03,1.07.19,1.44s.67.76,1.12.86c.48.11,1.02.09,1.44-.19l.38-.29c.23-.23.39-.51.48-.83h0Z"/><path class="cls-1" d="m73.61,105.29c0-2.22,0-4.43,0-6.65,0-.98-.86-1.92-1.88-1.88s-1.87.82-1.88,1.88c0,2.22,0,4.43,0,6.65,0,.98.86,1.92,1.88,1.88s1.87-.82,1.88-1.88h0Z"/><path class="cls-1" d="m84.89,103.23l-1.06-5.11c-.09-.44-.48-.9-.86-1.12-.4-.24-.99-.33-1.44-.19-1.02.33-1.52,1.28-1.31,2.31l1.06,5.11c.09.44.48.9.86,1.12.4.24.99.33,1.44.19,1.02-.33,1.52-1.28,1.31-2.31h0Z"/><path class="cls-1" d="m96.17,100.36c-1.25-1.91-2.49-3.82-3.74-5.73-.54-.82-1.69-1.24-2.57-.67-.82.53-1.25,1.69-.67,2.57,1.25,1.91,2.49,3.82,3.74,5.73.54.82,1.69,1.24,2.57.67.82-.53,1.25-1.69.67-2.57h0Z"/><path class="cls-1" d="m9.11,151.77c-3.96.18-6.95,3.03-8.32,6.61-1.68,4.36-.34,9.24.77,13.57.62,2.43,1.24,4.85,1.86,7.28.5,1.97.96,4.08,2.15,5.78,2.42,3.45,6.96,4.28,10.76,5.35,18.87,5.32,38.08,9.43,57.48,12.28,19.76,2.91,39.7,4.58,59.67,4.88,9.78.15,19.57,0,29.34-.54,8.63-.47,17.26-1.31,25.75-2.94s16.61-4.07,24.32-7.73c1.9-.9,3.76-1.88,5.58-2.94s3.83-2.04,5.2-3.53c1.54-1.68,1.49-3.99,1.52-6.13.04-2.41-.09-4.82-.37-7.22s-.71-4.78-1.28-7.14-4.19-1.35-3.62,1c1.08,4.46,1.6,9.01,1.51,13.6-.02.87.08,1.92-.19,2.76s-1.12,1.22-1.79,1.66c-1.71,1.11-3.47,2.14-5.27,3.1-6.99,3.73-14.54,6.27-22.25,8.04-16.48,3.79-33.69,4.27-50.54,4.31-18.81.05-37.62-1.11-56.29-3.41-18.33-2.25-36.52-5.65-54.44-10.13-4.39-1.1-8.75-2.26-13.11-3.48-3.25-.91-7.97-1.47-9.48-4.97-.83-1.93-1.18-4.15-1.7-6.18-.56-2.19-1.13-4.37-1.67-6.56-.91-3.7-1.84-8.21.74-11.48.91-1.15,2.18-2.02,3.67-2.08,2.4-.11,2.42-3.86,0-3.75h0Z"/><path class="cls-1" d="m55.77,210.49c1.22,2.04.15,4.57-1.95,5.47-.62.27-.87,1.01-.93,1.62-.19,2.14-.06,4.28.38,6.38.22,1.04.54,2.05.9,3.05.32.87.91,2.02.77,2.98-.14.88-.91,1.6-1.31,2.36-.45.85-.74,1.77-.9,2.72-.3,1.77-.1,3.7-.71,5.4-.21.57-.36,1.02-.97.94-.74-.1-1.51-.78-2.19-1.1-.95-.44-1.89-.67-2.94-.72s-2.07.15-3.1-.07-1.94-.69-2.96-.89c-.93-.18-1.89-.25-2.83-.16-1.9.17-3.71.8-5.26,1.91l2.75,1.12c-.71-3.85-1.9-8-4.06-11.3-1.51-2.29-2.97-4.59-4.26-7.02-1.03-1.94-2.08-3.94-2.6-6.09-1.05-4.31-3.1-8.61-5.44-12.36-.1-.16-.19-.32-.28-.49-.05-.1-.09-.2-.14-.3-.21-.45.15.38-.05-.12-.3-.75-.56-1.52-.81-2.29-.63-1.94-1.21-3.9-1.8-5.85-.67-2.22-1.34-4.44-2.13-6.62-.52-1.43-1.07-3.33-2.25-4.39-1.79-1.61-4.45,1.04-2.65,2.65.39.35-.06-.27.15.18.1.21.24.42.35.63.32.64.49,1.1.79,1.93.7,1.91,1.29,3.86,1.88,5.8,1.03,3.4,1.79,7.17,3.45,10.33.82,1.57,1.8,3.04,2.56,4.66.98,2.07,1.93,4.22,2.55,6.43,1.3,4.62,3.58,8.86,6.16,12.9,1.56,2.43,2.87,4.7,3.74,7.48.49,1.58.92,3.2,1.22,4.83.21,1.13,1.82,1.79,2.75,1.12,1.52-1.09,3.32-1.67,5.2-1.37,1.17.19,2.24.78,3.41.98,1.07.19,2.12.1,3.19.1,2.01,0,3.42,1.62,5.4,1.84s3.65-1.1,4.45-2.93.75-3.89.98-5.88c.12-1.05.4-1.92.97-2.82.53-.83,1.09-1.64,1.28-2.63.47-2.36-.73-4.43-1.36-6.63s-.77-4.44-.57-6.71l-.93,1.62c3.97-1.69,5.45-6.97,3.29-10.6-1.24-2.07-4.48-.19-3.24,1.89h0Z"/><path class="cls-1" d="m216.64,190.68c-2.28,9.85-7.91,18.46-13.41,26.78-2.88,4.36-5.81,8.7-8.46,13.22s-5.01,9.54-7.01,14.56c-3.82,9.58-6.67,19.81-12.4,28.5-.58.87-1.22,1.75-2.24,2.1-1.21.42-2.65.27-3.9.3-2.99.06-5.98.11-8.97.16-6.15.09-12.29.15-18.44.17-24.18.09-48.35-.33-72.51-1.27-3.07-.12-6.14-.25-9.21-.39-2.82-.13-5.74-.07-8.55-.44-2.19-.29-3.17-1.72-4.32-3.43-.85-1.26-1.68-2.51-2.5-3.79-1.93-3.03-3.77-6.18-5.14-9.51-1.12-2.73-2.27-6.14-1.6-9.06.83-3.56,4.77-5.34,8.19-3.93,2.33.96,4.5,2.41,7.13,1.54,2.4-.8,3.29-3.13,3.26-5.48s-.24-4.16.99-6.2,3.19-3.46,5.37-4.32c2.42-.95,4.97-1.23,7.54-1.43,2.35-.18,4.67-.87,5.51-3.32.34-1,.33-2.08.34-3.12.01-.8-.12-1.72.79-1.97,2.32-.65,1.33-4.27-1-3.62-2.7.76-3.51,3.02-3.55,5.59-.01.72.17,1.87-.49,2.35-.78.56-2.35.37-3.25.45-5.27.48-10.61,2.11-13.88,6.55-1.47,1.99-2.3,4.38-2.25,6.86.02,1.04.29,2.21.05,3.24s-1.06,1.05-1.96.84c-1.33-.31-2.51-1.16-3.78-1.63-1.16-.43-2.45-.63-3.68-.57-2.39.11-4.71,1.04-6.44,2.71-5.62,5.39-1.76,14.47,1.23,20.16,1.64,3.13,3.54,6.1,5.5,9.03,1.14,1.7,2.23,3.58,4.02,4.68,2.33,1.43,5.34,1.26,7.97,1.38,25.23,1.19,50.48,1.82,75.74,1.87,12.63.03,25.26-.08,37.88-.34,2.73-.05,5.45-.02,7.58-2,1.87-1.74,3.14-4.33,4.33-6.56,2.54-4.76,4.5-9.81,6.38-14.86s3.8-10.46,6.12-15.52,5.12-9.76,8.11-14.4c5.79-8.98,12.23-17.67,16.24-27.64.95-2.35,1.72-4.76,2.29-7.23s-3.07-3.35-3.62-1h0Z"/><path class="cls-1" d="m86.22,179.59c1.61,0,1.61-2.5,0-2.5s-1.61,2.5,0,2.5h0Z"/><path class="cls-1" d="m115.7,185.17c2.41,0,2.42-3.75,0-3.75s-2.42,3.75,0,3.75h0Z"/><path class="cls-1" d="m135.26,182.46c1.61,0,1.61-2.5,0-2.5s-1.61,2.5,0,2.5h0Z"/><path class="cls-1" d="m184.04,181.67c1.61,0,1.61-2.5,0-2.5s-1.61,2.5,0,2.5h0Z"/><path class="cls-1" d="m201,175.25c2.41,0,2.42-3.75,0-3.75s-2.42,3.75,0,3.75h0Z"/><path class="cls-1" d="m157.7,183.08c2.41,0,2.42-3.75,0-3.75s-2.42,3.75,0,3.75h0Z"/><path class="cls-1" d="m26.48,167.95c2.41,0,2.42-3.75,0-3.75s-2.42,3.75,0,3.75h0Z"/><path class="cls-1" d="m30.13,173.06c1.61,0,1.61-2.5,0-2.5s-1.61,2.5,0,2.5h0Z"/><path class="cls-1" d="m66.6,178.07v.26c0,.26.04.5.16.72.08.23.2.43.39.6.17.18.37.31.6.39.22.12.46.17.72.16l.5-.07c.32-.09.59-.25.83-.48l.29-.38c.17-.29.25-.61.26-.95v-.26c0-.26-.04-.5-.16-.72-.08-.23-.2-.43-.39-.6-.17-.18-.37-.31-.6-.39-.22-.12-.46-.17-.72-.16l-.5.07c-.32.09-.59.25-.83.48l-.29.38c-.17.29-.25.61-.26.95h0Z"/><path class="cls-1" d="m39.26,176.04c2.41,0,2.42-3.75,0-3.75s-2.42,3.75,0,3.75h0Z"/><path class="cls-1" d="m170.22,184.54c1.61,0,1.61-2.5,0-2.5s-1.61,2.5,0,2.5h0Z"/></g></svg>