<?xml version="1.0" encoding="UTF-8"?><svg id="Livello_2" xmlns="http://www.w3.org/2000/svg" viewBox="0 0 272.99 553.02"><g id="Livello_1-2"><path d="m66.86,481.39c-2.82,11.08-4.98,22.86-3.86,34.32,1.12,11.46,7.17,21.39,9.91,32.42.36,1.43,1.87,2.36,3.29,2.15,1.58-.24,2.43-1.42,2.6-2.95.6-5.24,1.18-10.49,2.2-15.67.95-4.84,2.13-10.01,4.91-14.16,5.12-7.64,15.51-10.28,23.54-13.57,5.15-2.1,10.15-4.74,15.65-5.85s10.53.25,15.35,2.53c9.21,4.38,17.11,11.04,23.26,19.16,6.96,9.18,11.88,19.73,15.98,30.44,1.08,2.82,4.71,2.85,5.79,0,3.51-9.33,3.03-20.41,1.81-30.13-1.47-11.64-5-22.88-9.94-33.5-5.14-11.07-12.43-21.28-14.93-33.42-2.63-12.76,2.21-25.87,6.18-37.82s5.89-24.91,10.74-36.79,11.38-22.61,17.81-33.47c13.78-23.24,27.16-46.72,40.19-70.39,11.43-20.76,22.65-42.76,25.65-66.57.35-2.8.56-5.61.62-8.42s-4.27-4.24-5.59-1.51c-3.92,8.11-9.7,15.16-16.29,21.26s-14.77,11.01-22.74,15.78c-4.03,2.41-8.12,5.04-12.43,6.92-3.76,1.64-8.19,1.12-12.18,1.63-4.65.59-9,2.35-13.47,3.64-4.84,1.4-9.91,1.98-14.93,2.3-10.16.65-20.31-.39-30.46.42s-20.13,2.73-30.13,1.95c-4.34-.34-8.74-1.41-12.73-3.14s-7.37-4.24-10.73-6.92c-3.76-3.01-7.54-5.51-11.96-7.46s-8.49-3.87-12.57-6.3c-4.71-2.8-9.67-5.11-14.57-7.56-4.59-2.3-9.41-4.66-13.45-7.86-3.46-2.75-6.09-6.36-8.78-9.83-2.92-3.76-6.03-7.19-10.02-9.85-2.1-1.4-4.26.52-4.51,2.59-1.22,10.1,3.79,19.46,7.9,28.32,1.97,4.25,3.21,8.83,5.32,12.99,2.11,4.14,5.09,7.74,7.48,11.71,2.73,4.53,4.51,9.63,6.72,14.42,2.32,5.03,4.74,10.07,7.66,14.78,2.68,4.31,5.53,8.46,7.31,13.26s3.21,9.85,5.39,14.56c2.32,5.01,5.5,9.68,8.24,14.48,2.87,5.04,5.7,10.11,8.55,15.17s5.74,9.76,8.35,14.77c2.47,4.74,4.65,9.64,6.65,14.6,4,9.94,7.97,20.15,10.33,30.63,1.17,5.19,1.87,10.47,1.72,15.8-.14,4.8-.96,9.62-1.92,14.31-1.94,9.43-4.97,18.63-10.54,26.56s-12.09,14.15-15.97,22.62c-.99,2.16-1.79,4.37-2.38,6.66-.97,3.74,4.82,5.34,5.79,1.6,2.33-9.02,8.58-15.91,14.17-23.08,2.9-3.72,5.67-7.52,7.78-11.75s3.91-9.13,5.23-13.89c2.68-9.62,4.55-20.05,3.6-30.05-1.05-10.94-4.62-21.29-8.38-31.54s-7.73-20.22-13.11-29.58c-5.79-10.08-11.41-20.26-17.23-30.31-2.73-4.71-5.56-9.22-7.42-14.36-1.75-4.85-3.12-9.87-5.49-14.48s-5.52-8.77-7.97-13.34c-2.66-4.96-5.04-10.07-7.31-15.21-2.06-4.67-4.07-9.1-6.96-13.32-2.63-3.84-5.19-7.56-6.68-12.01-3.09-9.25-8.94-17.54-10.68-27.24-.42-2.34-.42-4.72-.14-7.07l-4.51,2.59c6.96,4.64,10.53,12.6,16.74,18.03,7.25,6.34,16.64,9.88,25.08,14.29,4.34,2.27,8.4,5.01,12.88,7.03s8.87,3.7,12.82,6.55c3.74,2.7,7.1,5.89,11.15,8.17s8.57,3.92,13.15,4.83c9.89,1.96,20.06.44,29.97-.55,5.26-.52,10.53-.99,15.81-1s10.37.34,15.57.23,10.3-.54,15.39-1.34,9.72-2.57,14.62-3.94c4.46-1.24,8.94-1.06,13.48-1.72s8.69-3.25,12.68-5.52c9.36-5.33,18.9-10.79,27.05-17.89s14.74-14.97,19.26-24.3l-5.59-1.51c-.24,11.64-3.26,23.03-7.26,33.89-4.12,11.18-9.41,21.9-15.07,32.38-12.62,23.4-25.87,46.48-39.35,69.39-6.53,11.1-13.37,22.07-18.9,33.72-2.73,5.75-5.11,11.64-6.92,17.74s-3.17,12.29-4.8,18.42c-3.35,12.62-8.73,24.68-9.5,37.87s4.61,24.32,10.56,35.28c5.84,10.77,10.77,21.7,13.47,33.72,2.15,9.61,3.15,20.09,1.57,29.86-.37,2.26-.9,4.49-1.71,6.64h5.79c-7.91-20.72-19.25-41.21-39.56-51.96-5.49-2.91-11.51-5.24-17.82-4.95s-11.94,2.79-17.54,5.27c-9.23,4.09-19.99,6.61-27.18,14.17-4.34,4.57-6.36,10.69-7.71,16.72-1.44,6.4-2.13,12.95-2.87,19.46l5.89-.8c-2.59-10.43-8.64-20.01-9.7-30.82-1.07-10.98.95-22.12,3.65-32.73.95-3.74-4.83-5.34-5.79-1.6Z"/><path d="m18.4,208.37c-1.02,4.48-1.37,9.19-1.09,13.77.3,4.86,1.21,9.98,3.78,14.2,2.26,3.7,6.2,7.33,10.84,6.73,3.96-.52,6.8-3.75,8.71-7.02,2.15-3.67,3.66-7.93,4.3-12.14.24-1.6-.4-3.23-2.1-3.69-1.51-.42-3.32.51-3.69,2.1-1.49,6.47-2.61,13.15-2.48,19.81.14,6.71,1.62,13.92,6.52,18.84,3.73,3.75,9.17,5.79,13.98,2.74,4.34-2.75,6.8-7.77,8.53-12.42s3.17-10.36,2.85-15.54c-.24-3.84-5.84-3.88-6,0-.26,6.26-1.22,12.46-1.36,18.73s.15,14.06,3.87,19.69c3.27,4.94,9.99,8.56,15.83,6.09,5.13-2.17,7.78-7.88,9.26-12.92,1.63-5.53,2.46-11.75,1.49-17.48-.57-3.35-6.02-2.55-5.89.8.25,6.78.83,13.59,1.7,20.32.36,2.74.84,5.53,2.27,7.94,1.59,2.68,4.2,4.47,7.19,5.25,4.22,1.1,8.66.24,11.48-3.26,2.62-3.26,3.64-7.47,4.22-11.53.64-4.44.72-8.92,1.28-13.36l-5.59,1.51c.17.31.29.64.46.95.02.03-.25-.63-.03-.05.09.25.19.49.28.74.35.95.65,1.91.95,2.88.74,2.38,1.42,4.78,2.18,7.15,1.62,5.05,3.47,10.35,6.97,14.43,3.27,3.81,8.79,5.38,13.24,2.56,4.71-2.99,6.54-9.08,7.46-14.26,1.01-5.71,1.36-11.71.52-17.46l-4.41,3.39c.42.3-.39-.42-.04-.02.12.13.27.25.39.38s.24.28.37.41c.33.33-.3-.49.05.07.45.73.84,1.45,1.23,2.22.23.46-.18-.48.08.18.08.21.16.41.24.62.17.46.33.93.49,1.39.31.93.59,1.87.88,2.81,1.19,3.95,2.37,8.13,5.18,11.28,3.27,3.68,8.51,4.21,13,2.75,5.15-1.68,8.85-5.78,11.25-10.51,2.54-5.01,3.86-10.46,5.42-15.83l-5.89-.8c.16,3.71.95,7.47,2.15,10.98,1.29,3.74,3.12,7.74,6.26,10.29,3.62,2.94,8.17,3.13,12.21.84,4.61-2.62,6.42-7.53,6.85-12.56s-.56-9.84-.29-14.76l-5.89.8c1.61,4.48,2.49,9.22,3.92,13.76,1.7,5.39,3.77,11.44,7.9,15.5,1.91,1.87,4.34,3.16,7.05,3.22,2.85.07,5.75-1.28,7.77-3.25,4.72-4.59,5.84-12.24,6.31-18.48.28-3.72.23-7.48-.13-11.19-.3-3.06-.69-6.25-1.78-9.14l-5.79,1.6c1.36,3.6,2.19,7.5,4.15,10.85,2.19,3.74,5.8,5.96,10.06,6.56,4.84.68,8.94-1.54,11.41-5.7,2.12-3.57,3.02-7.93,3.76-11.97.93-5.13,1.44-11-1.46-15.64-.79-1.26-2.36-1.83-3.75-1.23-1.23.54-2.32,2.14-1.74,3.54,1.12,2.71,2.44,5.36,4.01,7.85,2.06,3.25,5.42,7.87,9.83,7.47,1.61-.15,3-1.27,3-3,0-1.51-1.38-3.15-3-3-.17.02-.37,0-.53.02.19-.03.7.1.18.01-.15-.03-.29-.1-.44-.13.69.18.25.12.01-.02-.19-.12-1.01-.73-.44-.25-.29-.25-.58-.5-.85-.77-.32-.32-.62-.65-.91-.99-.14-.16-.27-.33-.4-.49.41.51-.12-.17-.16-.22-.54-.75-1.05-1.52-1.53-2.31-.85-1.4-1.61-2.85-2.32-4.32-.23-.49-.46-.98-.68-1.47s-.37-.87.01.05l-5.48,2.31c1.67,2.68,1.58,6.43,1.07,9.71-.29,1.86-.69,3.7-1.14,5.53-.19.78-.38,1.57-.6,2.34-.12.41-.24.81-.38,1.22-.05.15-.1.3-.16.45,0-.02-.33.86-.17.47-.28.67-.62,1.33-1.01,1.96-.46.76-.56.89-1.31,1.63-.05.05-.51.44-.26.24.22-.18-.16.11-.17.11-.32.21-.67.42-1.02.57.46-.19-.62.14-.72.16,0,0-.5.07-.23.04s-.51,0-.59,0c-1.56-.01-3.09-.46-4.3-1.18-.15-.09-.78-.52-.64-.41.15.12-.41-.38-.53-.49-.26-.26-.51-.53-.73-.81.34.43-.32-.51-.4-.63-.42-.68-.78-1.4-1.1-2.14.17.39-.22-.58-.3-.79-.16-.43-.31-.86-.45-1.29-.61-1.81-1.17-3.65-1.85-5.44-.57-1.52-2.03-2.55-3.69-2.1-1.46.4-2.67,2.17-2.1,3.69.36.97.63,1.96.85,2.97.13.58.24,1.17.34,1.76.05.32.1.63.15.95.01.1.09.62.03.21-.06-.44.03.27.04.35.37,3.06.5,6.16.43,9.24-.04,1.58-.13,3.15-.29,4.72-.04.39-.09.78-.13,1.17-.07.61-.02.2,0,.07-.03.19-.05.38-.08.57-.13.84-.28,1.68-.46,2.51-.3,1.39-.67,2.78-1.16,4.12-.11.31-.23.63-.36.94.26-.62-.11.22-.19.39-.29.59-.6,1.16-.96,1.71-.06.09-.59.83-.33.5s-.3.35-.38.43c-.19.2-.38.39-.58.58-.1.09-.2.18-.3.26-.27.24.61-.35.05-.05-.49.27-.94.56-1.45.8.59-.28.04-.03-.24.06-.22.07-.64.08-.83.2.07-.05.59,0-.1,0-.2,0-.41,0-.61,0-.77,0,.39.14-.04,0-.26-.08-.54-.14-.81-.22-.68-.2.25.18-.07-.02-.19-.12-.41-.21-.61-.33-.18-.11-.34-.24-.52-.34-.33-.2.46.4.18.14-.11-.1-.24-.2-.35-.3-.38-.34-.74-.71-1.08-1.1-.18-.2-.35-.41-.52-.62.51.63-.09-.14-.21-.32-.71-1.02-1.32-2.1-1.87-3.21-.29-.57-.56-1.16-.82-1.74-.07-.15-.13-.3-.2-.45.04.1.23.56.01.03-.14-.35-.28-.69-.42-1.04-.51-1.3-.97-2.61-1.4-3.94-1.57-4.81-2.48-9.85-4.19-14.61-1.14-3.17-5.7-2.67-5.89.8-.22,3.92.39,7.84.4,11.76,0,1-.02,2.01-.11,3.01-.02.2-.04.39-.06.59-.09.94.12-.56-.05.36-.09.47-.17.94-.29,1.4s-.24.9-.4,1.34c-.02.07-.38.88-.11.3-.08.16-.15.33-.24.49-.21.4-.44.79-.7,1.16-.33.48-.11.13-.03.04-.24.28-.49.55-.76.8-.14.13-.28.25-.42.37.39-.32-.1.07-.2.14-.39.25-.79.46-1.18.68-.75.43.5-.15-.28.13-.16.06-.32.11-.48.16-.23.07-.47.12-.71.19-.21.05-.87.05-.12.03-.37,0-.73,0-1.09,0-.53,0,.07,0,.17.03-.2-.05-.41-.08-.61-.14-.13-.04-.26-.1-.4-.13-.64-.14.5.33-.05-.02-.29-.19-.61-.35-.91-.53-.15-.09-.64-.55-.08-.05-.11-.1-.23-.19-.33-.29-.27-.27-.54-.52-.8-.8-.13-.14-.25-.29-.38-.44-.31-.36.4.59-.04-.05-.28-.4-.56-.8-.82-1.22-.4-.65-.76-1.32-1.09-2.01-.08-.16-.58-1.3-.34-.72-.2-.49-.39-.98-.57-1.48-.67-1.86-1.19-3.77-1.58-5.7-.09-.42-.16-.85-.24-1.28-.04-.23-.21-1.52-.1-.62-.09-.76-.17-1.52-.2-2.28-.14-3.34-4.92-4.12-5.89-.8-.6,2.08-1.15,4.17-1.77,6.24-.34,1.13-.69,2.25-1.07,3.37-.16.47-.33.94-.5,1.41-.1.28-.21.56-.32.84-.07.19-.15.37-.22.55.11-.26.1-.22-.05.11-.47,1.08-.99,2.15-1.58,3.17-.24.42-.49.83-.75,1.24-.16.24-.32.48-.48.71-.11.16-.22.31-.34.46.18-.23.16-.21-.05.06-.65.8-1.37,1.53-2.15,2.2-.68.59.46-.31-.27.22-.23.16-.46.32-.69.47-.55.35-1.14.67-1.74.93.56-.24-.33.1-.36.12-.23.08-.47.15-.7.22-.54.15-1.08.27-1.64.35.6-.09-.27.01-.32.02-.26.02-.51.03-.77.02-.24,0-.49-.03-.73-.03-.35-.04-.31-.03.11.03-.15-.02-.29-.05-.44-.08-.35-.09-.68-.2-1.03-.29-.64-.18.51.34-.04-.02-.16-.11-.36-.19-.53-.29s-.33-.22-.5-.33c.66.43.13.11-.01-.03-.29-.28-.55-.59-.84-.87-.49-.48.34.54-.04-.04-.11-.18-.24-.34-.35-.52-.23-.36-.45-.73-.65-1.11s-.38-.8-.58-1.2c-.24-.49,0,0,.03.09-.12-.28-.23-.57-.34-.86-.67-1.78-1.2-3.61-1.75-5.43-1.25-4.12-2.63-8.45-6.27-11.07-.95-.69-2.48-.45-3.33.23-1.02.82-1.26,1.9-1.08,3.15.07.49-.08-.77-.02-.12.02.2.04.39.06.59.04.44.07.88.1,1.33.06,1.09.09,2.18.08,3.27,0,2.5-.17,5-.48,7.49-.06.49.07-.44,0,.04-.02.14-.04.28-.06.42-.05.33-.1.65-.16.98-.12.69-.25,1.38-.4,2.06-.27,1.24-.6,2.46-1.01,3.66-.08.25-.17.49-.27.73-.06.16-.12.32-.19.48.01-.04.2-.45.06-.14-.25.56-.51,1.1-.81,1.63-.27.47-.56.91-.87,1.35.29-.41.12-.14-.08.08s-.38.42-.59.62c-.1.1-.65.57-.32.31s-.24.16-.36.23c-.2.12-.41.22-.62.34-.28.16.25-.1.26-.1-.13.04-.25.1-.38.13-.23.06-.47.12-.7.18-.72.18.39.04-.11.02-.22,0-.45.01-.68.02-.09,0-.19-.02-.28-.01-.51.04.43.16.15.03-.32-.15-.8-.22-1.15-.3-.44-.11.51.31-.04-.03-.21-.13-.44-.24-.65-.37-.19-.12-.37-.25-.55-.38.45.33.2.16-.07-.09-.35-.33-.68-.66-1-1.02-.16-.19-.32-.38-.47-.57.38.47.04.03-.12-.19-.33-.47-.63-.96-.92-1.45-.58-.98-1.09-2.01-1.56-3.05-.05-.12-.38-.87-.26-.58s-.15-.37-.19-.47c-.24-.6-.48-1.21-.7-1.83-.42-1.15-.82-2.31-1.19-3.48-1.42-4.4-2.31-9.26-4.53-13.35-.63-1.16-2.14-1.72-3.39-1.38-1.38.38-2.03,1.56-2.2,2.89-.42,3.33-.51,6.7-.86,10.04-.04.42-.09.84-.14,1.26-.01.11-.13.96-.02.21-.04.25-.07.5-.11.75-.14.91-.3,1.81-.5,2.71s-.41,1.71-.68,2.55c-.12.37-.25.72-.38,1.09-.05.14-.37.82-.04.11-.11.23-.21.46-.33.69-.17.34-.36.68-.57,1.01-.11.17-.8,1.03-.23.38-.24.27-.47.54-.73.79-.12.11-.24.21-.36.32-.33.33.54-.29-.16.09-.28.15-.55.31-.84.45.8-.39-.25.04-.5.1-.17.04-.34.07-.5.1.83-.16.14-.02-.05-.02-.47,0-.92,0-1.38-.05.73.06-.48-.1-.72-.16-.3-.07-.6-.15-.89-.25.08.03-.97-.39-.57-.2-.47-.22-.95-.49-1.36-.81.38.3-.91-1.01-.57-.58-1.31-1.69-1.67-3.7-1.99-6.11.02.14.06.46-.02-.17-.05-.44-.1-.87-.15-1.31-.07-.66-.14-1.32-.21-1.98-.19-1.75-.37-3.51-.53-5.27-.33-3.7-.6-7.4-.73-11.11l-5.89.8c.05.27.04.93,0-.03,0,.19.04.39.06.58.05.51.08,1.03.09,1.54.03,1.07,0,2.15-.06,3.22-.03.57-.08,1.13-.14,1.69-.03.27-.06.54-.09.81-.02.16-.04.31-.06.47-.06.45.12-.74,0,.03-.2,1.24-.41,2.48-.7,3.71s-.63,2.45-1.04,3.64c-.19.57-.41,1.12-.63,1.68-.16.41.21-.46.03-.07-.06.14-.13.28-.19.42-.14.31-.29.62-.45.93-.24.46-.49.91-.76,1.36-.15.24-.31.49-.47.72s-.57.75-.15.24c-.34.42-.69.82-1.07,1.2-.16.16-.34.3-.5.46-.47.45.46-.27-.22.16-.18.11-.36.23-.55.34-.09.05-.86.42-.38.21.44-.19-.19.06-.33.1-.24.08-.58.09-.81.2-.33.15.61,0,.24-.03-.09,0-.19.02-.28.02-.26,0-.52.02-.78,0s-1-.19-.21,0c-.28-.07-.56-.11-.84-.19-.29-.08-.58-.19-.87-.28-.48-.14.37.2-.3-.12s-1.28-.67-1.89-1.07c-.14-.09-.28-.19-.42-.29-.37-.24.36.31.03.02-.21-.18-.43-.37-.63-.56-.23-.22-.45-.46-.67-.7-.11-.12-.21-.25-.31-.37.17.2.19.28.02.02-.36-.56-.73-1.11-1.04-1.7-.14-.26-.26-.54-.39-.81-.2-.41.17.43,0,0-.08-.2-.16-.41-.24-.62-.49-1.34-.84-2.73-1.1-4.14-.06-.33-.11-.67-.17-1-.1-.6-.03-.21-.02-.07-.03-.2-.05-.39-.07-.59-.09-.8-.16-1.6-.21-2.4-.1-1.6-.13-3.2-.11-4.8.08-6.59,1.1-13.1,1.38-19.67h-6c.05.8.04,1.6,0,2.39-.03.44-.06.88-.11,1.32-.03.25-.06.5-.09.75-.04.35.03-.24.03-.25-.03.19-.05.37-.08.56-.34,2.19-.84,4.35-1.48,6.47-.34,1.11-.71,2.21-1.14,3.29-.04.1-.36.88-.23.59.11-.26-.19.42-.25.57-.24.53-.49,1.06-.76,1.58-.49.95-1.04,1.88-1.65,2.77-.15.22-.31.43-.46.65.3-.41.11-.13-.08.09-.32.38-.65.75-1.01,1.1-.17.17-.35.32-.53.48-.16.15-.76.52-.09.09-.38.24-.74.48-1.13.7-.37.21-.36.1.05,0-.2.05-.4.15-.6.2-.17.05-.35.08-.53.13-.62.17.54.05-.1,0-.21-.01-.43,0-.64,0-.45,0-.33-.12.05.02-.42-.16-.92-.24-1.36-.37.58.18.09.04-.18-.1-.21-.11-.41-.22-.61-.34-.25-.15-.48-.31-.72-.47-.03-.02-.37-.27-.11-.08.29.22-.34-.29-.33-.28-.49-.42-.95-.86-1.39-1.34-.6-.65-.62-.69-1.03-1.3-.37-.55-.7-1.12-1.01-1.71-.4-.77-.46-.93-.69-1.56-.5-1.36-.86-2.76-1.13-4.19-.24-1.32-.37-2.58-.45-4.2-.32-6.8.71-12.84,2.22-19.41l-5.79-1.6c-.23,1.51-.58,3-1.03,4.46-.23.75-.48,1.5-.76,2.24-.07.18-.13.35-.2.53.02-.05-.33.81-.17.43s-.21.47-.19.43c-.1.22-.2.43-.3.64-.34.71-.71,1.42-1.12,2.1-.23.39-.47.77-.73,1.14-.1.15-.2.29-.3.43-.36.52.29-.3-.16.21s-.92,1.01-1.44,1.47c-.34.31.59-.36-.02.02-.13.08-.24.17-.37.25-.25.15-1.17.49-.43.27-.26.08-.54.15-.8.23-.63.2.49,0,.08-.01-.17,0-.36,0-.52,0-.19.02-.53-.12.16.04-.14-.03-.29-.05-.43-.09s-.3-.1-.44-.13c-.59-.15.33.23-.17-.09-1.29-.82-2.54-1.98-3.39-3.31-1.96-3.07-2.79-7.08-3.07-10.72-.18-2.32-.18-4.65-.02-6.97.04-.55.08-1.1.14-1.65.03-.27.06-.54.09-.8.02-.15.1-.72.04-.3.15-1.06.35-2.12.58-3.16.36-1.58-.48-3.25-2.1-3.69-1.51-.42-3.33.51-3.69,2.1h0Z"/><path d="m39.09,272.15c5.61,1.82,10.93-4.45,12.34-9.27l-5.79-1.6c-2.01,10.42,3.4,19.79,7.99,28.71,2.06,4,4.78,7.95,9.39,9.14,5,1.29,9.3-1.05,12.18-5.08,3.19-4.45,5.17-9.69,5.3-15.18.08-3.45-4.91-3.98-5.89-.8-1.45,4.69-.68,9.93-.41,14.75s1.36,9.59,4.85,13.28,8.76,5.17,13.5,3.3c2.13-.84,3.96-2.08,4.89-4.25.8-1.87,1.16-3.84,2.07-5.68,1.28-2.61,2.29-5.24,2.89-8.08s.95-5.7,1.53-8.54h-5.79c.32,1.12.06,2.3.06,3.45,0,1.54.45,2.99.71,4.5.29,1.7.15,4.15.35,6.16.48,4.67,1.69,9.82,5.06,13.31s9.11,4.51,13.48,2.38c4.75-2.32,6.2-7.9,7.86-12.44.45-1.23.62-1.59,1.17-2.82.59-1.34,1.17-2.69,1.7-4.05.98-2.53,1.84-5.3,1.66-8.05-.1-1.62-1.31-3-3-3-1.55,0-3.1,1.37-3,3,.32,5.22,1.47,10.33,2.85,15.36,1.08,3.93,2.73,7.96,6.4,10.13,3.92,2.32,9.23,2.16,12.9-.57,1.87-1.39,3.18-3.18,4.29-5.22,1.26-2.31,2.5-4.63,3.57-7.04,1.28-2.89,2.44-5.87,2.81-9.03.35-2.94-.26-5.97.25-8.88h-5.79c.81,2.02.05,4.72.25,7.09s.92,4.86,1.41,7.29c.77,3.87,1.54,8.43,4.57,11.25,3.79,3.53,10.26,2.66,13.97-.52.88-.76,1.65-1.7,2.22-2.72.59-1.07.83-2.29,1.44-3.34s1.45-2.04,2.15-3.09c.85-1.27,1.52-2.69,2.15-4.07,1.43-3.16,2.13-6.5,2.88-9.87.32-1.43.61-2.84.67-4.31.03-.56.03-1.13.09-1.69-.05.49,0,.02.02-.08.03-.17.08-.35.14-.51-.1.4-.35.7-.75.91l-4.41-3.39c-1.71,4.27-.55,9.3-.39,13.75.18,5.03.75,10.06,4.56,13.75s9.08,5.08,14.04,3.25c4.8-1.77,7.52-5.63,9.95-9.92,2.67-4.7,5.37-9.75,5.52-15.29l-5.12,2.12c-.57-.64,0,.21-.25-.43.08.2.14.42.2.63.13.48.22.98.3,1.47.02.14.1.71.05.3.04.31.07.61.11.92.05.45.1.89.16,1.34.35,2.79,1.07,5.49,2.6,7.88s3.76,4.73,6.64,5.47c3.14.81,6.17-.52,8.24-2.89,1.06-1.22,1.2-3.04,0-4.24-1.09-1.09-3.17-1.23-4.24,0-.31.36-.64.75-1.01,1.01-.41.29-.42.32-.97.41.29-.05-.52-.09-.42-.07-.49-.12-.45-.11-.94-.43-1.45-.93-2.72-2.98-3.24-4.55-.33-1-.53-2.03-.71-3.06-.05-.31.06.58,0-.02-.02-.18-.04-.37-.06-.55-.05-.46-.1-.91-.16-1.37-.27-2.14-.53-4.39-2.03-6.05-1.81-2-5.06-.36-5.12,2.12-.09,3.46-1.85,7.28-3.64,10.4-1.65,2.88-3.29,6.58-6,8.29-3.02,1.9-6.47,1.78-9.16-.55-2.91-2.51-3.13-5.97-3.26-9.54-.08-2.19-.28-4.37-.41-6.56s-.21-4.05.57-5.99c.95-2.36-2.36-4.88-4.41-3.39s-2.35,3.8-2.45,6.25c-.02.42-.03.85-.07,1.27.02-.22.16-.82-.05.12-.07.31-.13.62-.2.93-.32,1.47-.68,2.93-1.02,4.39-.64,2.72-1.49,5.13-2.82,7.59-1.21,2.23-2.99,4.01-3.86,6.44-.58,1.62-1.12,2.62-2.91,3.37-.45.19-1.43.36-2.09.36-.55,0-.58,0-.98-.07-.29-.05-.56-.13-.84-.21-.21-.07-.17-.04.13.08-.11-.05-.22-.11-.33-.18-.08-.05-.5-.35-.21-.12.35.27-.26-.27-.26-.27-.12-.12-.24-.25-.34-.39.34.42.05.05,0-.04-.2-.37-.42-.72-.61-1.1-.06-.11-.29-.68-.11-.22-.09-.23-.18-.47-.26-.7-.61-1.74-.97-3.56-1.33-5.36-.44-2.21-1.22-4.43-1.33-6.68-.14-2.74.63-5.6-.43-8.23-.5-1.25-1.46-2.2-2.89-2.2-1.23,0-2.67.92-2.89,2.2-.43,2.49-.33,4.93-.31,7.44.01,2.26-.38,4.27-1.12,6.41s-1.67,4.12-2.69,6.1c-.95,1.85-1.85,3.85-3.07,5.53-.68.94-1.94,1.92-2.95,2.21-1.41.42-2.83.4-4.41-.28.23.1-.48-.29-.59-.35-.13-.08-.27-.17-.39-.26.32.24-.07-.07-.11-.11-.74-.68-.77-.73-1.24-1.51-.79-1.3-1.11-2.3-1.58-3.96-1.35-4.69-2.51-9.5-2.81-14.39h-6c.22,3.49-1.79,7.28-3.24,10.66-.88,2.05-1.56,4.15-2.34,6.23-.59,1.59-1.35,3.24-2.57,4.43-.49.48-.98.76-1.47.91-.91.28-1.36.33-2.48.23.32.03-.74-.15-.86-.19-.22-.06-.43-.12-.64-.2-.01,0-.52-.21-.22-.08-.92-.41-1.35-.77-1.92-1.37-.92-.97-1.73-2.77-2.2-4.25-.58-1.84-.92-3.69-1.06-5.38-.19-2.37-.1-4.72-.51-7.08-.2-1.15-.53-2.16-.49-3.34.05-1.58.15-3.07-.29-4.62-.78-2.71-5.18-3-5.79,0-.86,4.25-1.23,8.61-2.69,12.72-.73,2.05-1.94,3.9-2.66,5.96-.26.75-.43,1.54-.65,2.3-.04.13-.38,1.15-.13.46-.03.07-.11.26-.17.31-.23.18.42-.2-.04.05-.06.03-.43.36-.01.04-.12.09-.26.17-.39.25-.27.15-.54.3-.82.42-.91.36-1.67.48-2.62.46-1.32-.03-2.81-.68-3.95-1.68-2.82-2.46-3.57-5.9-3.78-9.34-.14-2.29-.26-4.59-.36-6.88s-.13-4.49.54-6.66l-5.89-.8c-.09,3.85-1.34,6.9-3.27,10.22-.85,1.45-1.84,2.95-2.93,3.65-.71.46-.74.49-1.56.69-.57.14-.3.07-.15.05-.21.03-.44.03-.66.03-.55,0-.64-.01-1.14-.13-1.59-.38-2.35-.94-3.51-2.32-.3-.35-.79-1.09-1.17-1.73-.47-.78-.9-1.58-1.31-2.38-1.74-3.39-3.67-6.71-5.12-10.24-1.76-4.3-3.17-9.18-2.27-13.84.31-1.59-.45-3.24-2.1-3.69s-3.23.53-3.69,2.1c-.05.17-.11.34-.17.51-.12.39.22-.45.02-.04-.18.37-.37.74-.58,1.1-.57.96-.77,1.25-1.49,2.01s-.91.95-1.79,1.43c-.41.23.37-.11-.06.04-.21.07-.43.14-.66.18.51-.08.01-.07,0-.05.31.06.36.07.14.02-.13-.03-.26-.07-.39-.12-1.54-.5-3.27.58-3.69,2.1-.45,1.63.55,3.19,2.1,3.69h0Z"/><path d="m59.36,295.84c.18,2.41-.22,4.79-.4,7.19s.09,4.81.41,7.2c.58,4.38,1.91,8.51,4.61,12.05s5.96,5.81,10.39,5.41c4.15-.37,6.85-2.99,9.14-6.25,2.91-4.15,4.9-9.06,5.24-14.15l-5.89.8c.16.65.05.26.05.16,0,.24.01.48,0,.71-.02.58-.08,1.15-.16,1.72-.14,1.09-.3,2.16-.29,3.26.03,2.52.52,5.1,1.02,7.57.89,4.41,2.66,8.84,6.24,11.74,3.35,2.71,7.75,4.35,12.02,2.87,4.02-1.4,7.03-4.75,8.74-8.58,2.33-5.21,2.89-11.03,3.33-16.66l-5.89.8c.62,2.48.78,5,.95,7.54s.17,5.4.96,7.9c1.48,4.68,5.31,8.14,9.55,10.38,5.2,2.74,10.9,3.54,16.3.88,4.37-2.15,6.82-6.52,8.01-11.09,1.51-5.82,1.33-12.22.97-18.17-.1-1.62-1.31-3-3-3-1.59,0-3.04,1.37-3,3,.07,2.84.42,5.66.79,8.47.31,2.35.49,4.74.96,7.06.79,3.9,2.44,8.02,5.71,10.47,3.82,2.86,8.89,1.62,12.61-.78,4.02-2.61,6.4-6.73,7.95-11.18.91-2.61,1.34-5.32,1.72-8.05.45-3.27.81-6.54.91-9.84h-6c-.2,8.17,2.61,18.6,10.41,22.68,3.83,2,8.49,2.38,12.09-.31,3.27-2.45,5.08-6.15,6.52-9.88,2.02-5.2,3.62-10.67,4.54-16.17l-5.89-.8c-.46,6.06,1.41,12.14,3.31,17.82.95,2.83,2.06,6.06,4.71,7.75,2.49,1.59,6.53,1.77,8.76-.33,2.82-2.65-1.43-6.89-4.24-4.24,0,0,.66-.53.4-.27-.11.11.22.04-.22.03-.71-.02-.38,0-1.1-.11-.45-.07-.68-.32-1.04-.91-1-1.66-1.52-3.6-2.2-5.6-1.53-4.49-2.73-9.37-2.37-14.12.25-3.33-5.33-4.15-5.89-.8-.79,4.69-2.14,9.25-3.67,13.75-.24.72-.5,1.44-.77,2.15-.14.36-.28.72-.43,1.08.16-.4-.3.68-.4.88-.33.69-.68,1.37-1.06,2.02-.19.32-.39.63-.59.94-.1.15-.21.3-.31.45.36-.49-.16.19-.2.23-.23.26-.46.52-.71.76-.14.14-.86.71-.36.35-.27.2-.55.36-.84.54-.14.09-.29.15-.44.22.61-.3-.09.02-.21.05-.2.05-1.11.21-.45.14-.36.04-.72.05-1.08.03-.19,0-.38-.02-.57-.04.17.02.47.12-.08-.04s-1.05-.27-1.56-.46c-.05-.02-.56-.26-.18-.08-.19-.09-.37-.18-.55-.28-.36-.2-.71-.41-1.05-.64-.04-.03-.45-.33-.13-.08-.16-.13-.32-.26-.47-.4-.35-.31-.68-.64-.99-.98-.68-.74-.78-.89-1.34-1.78-.49-.78-.91-1.59-1.29-2.43-.03-.07-.24-.56-.38-.96-.19-.52-.36-1.04-.52-1.57-.3-1-.54-2.02-.73-3.05s-.24-1.32-.33-2.54c-.08-1-.1-2-.07-3.01.09-3.87-5.88-3.86-6,0-.14,4.45-.54,9.06-1.57,13.4-.82,3.47-2.26,7.15-4.87,9.6-.92.86-2.55,1.81-3.91,2.23-.93.29-1.18.37-2.08.31.36.03-.45-.1-.6-.15-.33-.1,0,.01.06.04-.21-.1-.42-.22-.62-.34-.06-.04-.52-.39-.27-.18.23.19-.12-.13-.13-.14-.28-.27-.56-.56-.8-.87.24.31-.25-.41-.32-.52-.22-.36-.42-.72-.6-1.1-.36-.73-.42-.91-.71-1.8-.26-.79-.47-1.59-.64-2.4-.08-.38-.15-.76-.22-1.14-.03-.18-.06-.36-.08-.54.04.27.04.34,0,.03-.13-1.37-.33-2.74-.51-4.1-.37-2.82-.71-5.63-.79-8.47h-6c.15,2.52.23,5.05.18,7.57-.02,1.18-.08,2.35-.16,3.53-.04.63-.09,1.27-.15,1.9-.02.24-.04.48-.07.72-.11,1.03.1-.56-.06.49-.26,1.67-.77,3.66-1.37,5.02-.68,1.54-1.55,2.94-2.64,3.82-3.1,2.5-7.57,2.3-11.15.56-3.22-1.56-6.58-3.89-7.63-7.22-.72-2.28-.65-4.84-.81-7.21-.19-2.76-.44-5.54-1.11-8.23-.36-1.43-1.87-2.36-3.29-2.15-1.54.23-2.48,1.42-2.6,2.95-.33,4.16-.74,8.41-2.06,12.4-.51,1.55-1.28,3.11-2.32,4.46-.72.93-1.69,1.76-2.79,2.36-.81.44-2.13.68-3.08.54-1.18-.17-2.55-.83-3.76-1.77-2.78-2.19-3.85-5.53-4.54-8.96-.45-2.24-.92-4.59-.79-6.89s.72-4.32.16-6.54c-.36-1.43-1.86-2.36-3.29-2.15-1.53.23-2.5,1.42-2.6,2.95-.22,3.35-1.6,6.69-3.37,9.54-.85,1.37-1.51,2.36-2.55,3.42-.21.21-.43.42-.65.61-.47.4-.18.13-.08.06-.12.08-.23.16-.36.23s-.72.38-.52.29c.29-.12-.16.05-.18.05-.24.07-.47.13-.71.18-.34.07-.03.01.04,0-.16.02-.32.03-.49.03-.4,0-.81.01-1.21-.03-.5-.06-.75-.15-1.13-.36-1-.58-2.08-1.66-2.81-2.65-2.02-2.74-3.03-5.89-3.47-9.25-.29-2.2-.46-4.41-.28-6.63s.55-4.62.38-6.96c-.12-1.62-1.29-3-3-3-1.53,0-3.12,1.38-3,3h0Z"/><path d="m189.92,344.94c-.18.16-.6.45-.16.15-.22.15-.43.3-.65.43-.18.11-.37.19-.55.29-.35.2.55-.17.18-.08-.12.03-.23.08-.35.11s-.73.17-.2.07-.14-.01-.27,0c-.49.03-.17-.1.15.05-.15-.07-.46-.14-.63-.16-.44-.04.49.3.11.05-.16-.1-.35-.19-.51-.29-.1-.06-.58-.42-.19-.12s-.23-.22-.31-.3c-.3-.29-.57-.61-.84-.93.32.37.17.24-.02-.05-.16-.23-.32-.47-.47-.71-.52-.84-.95-1.73-1.36-2.62.25.55-.02-.06-.11-.28s-.17-.45-.26-.68c-.2-.54-.38-1.08-.55-1.63-.65-2.08-1.1-4.2-1.42-6.35-.05-.35.03.24.03.25-.02-.14-.04-.29-.05-.43-.03-.28-.06-.56-.08-.84-.04-.49-.07-.98-.09-1.47-.01-.43-.02-.86,0-1.29,0-.2.03-.4.04-.6.04-.69-.08.47-.02.14l-5.89-.8c.07,3.92-1.23,7.63-2.37,11.34-.94,3.05-1.51,6.17-3.43,8.77-.86,1.17-1.85,2.14-3.11,2.69.38-.17-.46.13-.58.16-.14.04-.29.07-.43.09.06-.01.43-.03.09-.03-.28,0-.56,0-.85-.01-.36-.03.05,0,.1.01-.18-.04-.37-.08-.55-.13-.14-.04-.77-.3-.36-.11-.27-.12-.53-.27-.78-.42-.54-.33-.63-.41-1.22-1-.93-.93-1.6-1.97-2.26-3.28-1.92-3.84-2.36-8.39-3.24-12.55-.34-1.59-2.19-2.51-3.69-2.1-1.7.47-2.36,2.09-2.1,3.69-.1-.62,0,.57,0,.7,0,.18-.07,1.05-.06.93-.12,1-.37,1.99-.6,2.96-.44,1.85-.93,3.9-1.19,5.59-.13.85-.2,1.47-.63,1.98-.57.66-1.37,1.12-2.07,1.64-1.59,1.19-2.64,2.35-4.38,2.71-.37.07-.42.08-.16.03-.22.02-.44.03-.66.03-.46,0-.92-.01-1.38-.06-.56-.06-1.76-.31-2.55-.51-1.69-.42-3.41-.97-4.67-1.98-3.01-2.39-3.49-6.97-3.81-10.56-.14-1.61-1.28-3-3-3-1.56,0-3.08,1.37-3,3,.07,1.36-.72,3.04-.93,4.57-.25,1.78-.61,3.79-1.29,5.29-1.17,2.58-2.98,4.6-5.47,5.42s-5.41.9-7.46-.6c-.19-.14-.72-.7-.91-.99-.34-.52-.71-1.26-.86-1.67-.58-1.52-.93-3.12-1.29-4.71-.45-1.96-1.01-3.9-1.27-5.89s.49-3.93-.16-5.85c-.93-2.76-4.93-2.94-5.79,0-1.25,4.29-2.18,8.7-4.5,12.57-.99,1.65-1.97,3.13-3.24,4.44-.69.72-1.05,1.05-1.91,1.44,0,0-.52.17-.6.18-.17.03-.96.01-1.35-.03-1.61-.17-3,1.5-3,3,0,1.76,1.38,2.83,3,3,5.37.56,8.9-3.88,11.56-7.87,3.06-4.6,4.31-9.91,5.83-15.14h-5.79c.19.57.06.23.07.1-.02.23,0,.48,0,.7-.02.44-.08.87-.12,1.31-.12,1.22.02,2.36.2,3.57.31,2.16.89,4.27,1.38,6.4.9,3.92,2.07,7.94,5.47,10.42,3.22,2.35,7.81,2.59,11.57,1.62s7.11-3.59,9.11-6.99c1.21-2.07,2.05-4.39,2.43-6.75.21-1.28.34-2.54.7-3.79s.72-2.48.65-3.76h-6c.38,4.25.95,8.56,3.36,12.21s6.16,5.37,10.24,6.28,7.89.95,11.26-1.52c.73-.54,1.41-1.18,2.06-1.67.91-.69,1.88-1.31,2.72-2.09,1.78-1.68,2.26-3.73,2.59-6.05.56-3.84,2.39-8,1.7-12.2l-5.79,1.6c1.63,7.68,2.84,17.92,11.24,21.26,3.63,1.44,7.4.25,10.25-2.21,3.25-2.81,4.85-6.81,5.98-10.84,1.42-5.04,3.38-10.02,3.29-15.34-.02-1.48-1.12-2.77-2.6-2.95-1.35-.16-3.04.66-3.29,2.15-.77,4.52.25,9.48,1.59,13.79s3.8,10.2,8.71,11.75c3.08.97,6.03-.43,8.33-2.42,1.23-1.06,1.09-3.16,0-4.24-1.22-1.22-3.01-1.06-4.24,0h0Z"/><path d="m176.7,369.54c-.11.16,1.83-1.5,1.08-.98-.21.14-.27.01.05,0-.39.02-.78.03-1.17.02-.2,0-.4-.02-.6-.03.01,0-.85-.1-.44-.04.27.04-.51-.12-.68-.17-1.49-.46-2.82-1.96-3.73-3.33-2.53-3.82-2.97-8.42-3.68-12.84-.23-1.45-1.96-2.35-3.29-2.15-1.56.23-2.46,1.42-2.6,2.95-.48,5.02-2.54,11.83-7.28,14.42-.15.08-.3.17-.45.23.07-.03.29-.11-.02-.02-.14.04-.85.18-.58.16.43-.04-.74-.04-.25,0,.31.03-.43-.12-.58-.17.55.19-.11-.11-.3-.21-.28-.15.03.05.08.09-.11-.08-.21-.17-.3-.26-.2-.19-.39-.38-.58-.58-.1-.1-.19-.21-.28-.32.2.24.06.08-.05-.08-1.46-2.07-2.12-3.69-2.7-6.11-.03-.12-.04-.24-.07-.36-.09-.44.05.49,0,0-.05-.4-.09-.8-.13-1.2-.07-.74-.14-1.48-.23-2.22-.18-1.47-.32-3.21-1.22-4.45-1.48-2.06-4.69-1.9-5.48.72-.99,3.28-1.24,6.73-2.15,10.02-.12.43-.25.86-.39,1.29-.05.13-.41,1.08-.3.82-.18.39-.37.78-.59,1.15-.06.11-.62.97-.43.71-.94,1.24-2.27,2.12-3.76,2.58-3.49,1.06-5.52-.9-6.95-3.85-1.71-3.52-2.53-7.97-3.25-12.08l-5.79,1.6c.42,1.4.24,3.12.02,4.78s-.46,3.4-.66,5.11c-.34,2.86-1.12,6.2-3.35,8.13-.29.25-.21.2-.6.43-.16.09-.94.41-.46.26-.25.08-.5.15-.76.2.67-.12-.22-.04-.43-.07.62.06,0-.06-.26-.13-.32-.09.12.05.15.07-.15-.08-.3-.15-.44-.24-.16-.1-.62-.44-.23-.13-.28-.23-.54-.48-.79-.74-.14-.14-.58-.67-.49-.56.09.12-.36-.53-.44-.66-.38-.6-.71-1.23-1.02-1.87-.02-.05-.23-.52-.07-.14-.06-.14-.12-.29-.17-.43-.12-.34-.25-.68-.35-1.03-.21-.68-.39-1.36-.52-2.06-.04-.19-.07-.38-.1-.58.05.31.02.19,0-.05-.03-.44-.06-.87-.09-1.31-.07-1.07-.16-2.15-.21-3.22-.1-2.03-.16-4.05.37-5.99l-5.89-.8c.44,3.64-1.19,7.61-2.49,11.21-.57,1.58-1.19,2.94-2.33,4.5-.45.62-1.16,1.38-1.83,1.95-.56.47-1.24.86-1.9,1.06-2.2.68-2.88,3.34-1.32,5.01.3.33.68.58,1.03.85,1.3.97,3.35.21,4.1-1.08.9-1.53.23-3.13-1.08-4.1l.18.09-1.32,5.01c4.94-1.52,8.22-6.21,9.95-10.86,1.55-4.18,3.56-9.11,3-13.65-.18-1.48-1-2.76-2.6-2.95-1.46-.17-2.89.68-3.29,2.15-.63,2.33-.71,4.77-.61,7.17.09,2.14.19,4.33.52,6.45.55,3.59,2.1,7.19,4.53,9.91,2.63,2.93,6.55,4,10.15,2.21,4.08-2.03,6.14-6.43,6.96-10.69.46-2.4.62-4.62.94-6.84.37-2.63.75-5.37-.02-7.97-.46-1.55-2.11-2.53-3.69-2.1-1.69.46-2.37,2.09-2.1,3.69.69,3.98,1.44,7.79,2.99,11.54,1.37,3.31,3.27,6.54,6.68,8.09,3.85,1.75,8.32,1.04,11.76-1.34,3-2.07,4.73-5.14,5.74-8.59.99-3.4,1.22-6.96,2.24-10.35l-5.48.72c.05.06.19.23.19.3,0,0-.21-.59-.11-.23.08.28.16.56.22.85.04.2.14.88.13.76,0-.04.08.74.1,1.01.15,1.51.21,3.07.61,4.54.82,3.04,2.22,6.13,4.28,8.53,2.19,2.54,5.59,3.78,8.83,2.63,3.66-1.3,6.52-4.57,8.33-7.9,2.09-3.84,3.13-8.1,3.54-12.42l-5.89.8c.97,6.06,1.94,11.93,6.14,16.71,1.81,2.06,4.19,3.56,6.92,3.93,2.51.34,5.46.48,7.07-1.83.93-1.33.24-3.33-1.08-4.1-1.5-.88-3.17-.25-4.1,1.08h0Z"/><path d="m91.02,376.61c1.9,5.38,4.29,11.86,9.9,14.37,2.83,1.27,6.25,1.61,9.05.06,2.32-1.28,3.63-3.67,4.5-6.07s1.21-4.84,1.94-7.23h-5.79c.63,3.11.67,6.9,2.9,9.39,2.01,2.24,5.78,3.99,8.81,3.73,3.63-.32,5.69-4.08,7-7.07.64-1.46,1.21-2.9,1.51-4.47.32-1.67.47-3.67,1.23-4.97l-5.18-3.03c-2.65,5.39-2.56,12.98,1.77,17.52,2.56,2.69,6.45,3.74,9.89,2.22,3.73-1.65,6.19-5.26,7.66-8.93,1.89-4.71,2.73-9.75,4.42-14.52l-5.89-.8c.23,3.42-1.07,6.55-1.73,9.88-.7,3.55-.71,7.51,1.18,10.73s5.45,3.69,8.66,2.12,5.24-4.22,6.33-7.46c.61-1.82.88-3.78,1.14-5.67.33-2.34.55-4.68.56-7.04.01-3.35-5.05-4.11-5.89-.8-.32,1.25-.25,2.42.18,3.62.38,1.05.4,1.74.34,2.88-.12,2.28.09,4.75.42,7.01.61,4.21,3.84,8.18,8.2,8.88,4.61.74,7.39-2.88,9.13-6.62.85-1.83,1.81-3.63,2.45-5.55.73-2.19,1.09-4.49,1.77-6.7h-5.79c.35,1.47-.2,3.22-.51,4.91-.4,2.16-.62,4.41.23,6.49.62,1.5,1.99,2.56,3.69,2.1,1.42-.39,2.72-2.18,2.1-3.69-.66-1.6-.3-3.02.07-4.81.45-2.21.74-4.37.21-6.6-.72-2.98-4.94-2.73-5.79,0-.55,1.79-.9,3.64-1.39,5.45-.41,1.51-1.07,2.84-1.72,4.26-.57,1.24-1.11,2.51-1.85,3.66-.27.42-.53.76-.8.98.29-.23-.87.43-.21.16-.46.19.06.11-.47.08.41.02-.43-.1-.49-.12-.44-.14-.15-.04-.54-.26-.59-.34-1.04-.71-1.54-1.32-.08-.1-.45-.7-.55-.98-.27-.76-.36-1.54-.41-2.33-.12-1.81-.27-3.65-.17-5.46.06-1.01.03-2.03-.23-3.01-.09-.35-.24-.67-.36-1-.09-.26-.08-.83-.18-.43l-5.89-.8c-.02,3.66-.31,7.62-1.48,11.12-.21.62-.31.86-.77,1.6s.28-.26-.3.42c-.29.34-.61.66-.95.94-.21.17-1.21.79-1.51.91-.03.01-.59.19-.8.22.36-.05.37-.06.04-.05.37.07.45.07.23.02-.21-.06-.15-.03.2.1-.28-.17-.26-.15.06.07-.28-.57.14.39-.16-.18-.1-.16-.19-.33-.27-.5.09.26.07.21-.06-.15-.13-.35-.24-.71-.33-1.07-.4-1.57-.26-3.19.05-4.71.77-3.76,2.17-7.38,1.91-11.29-.23-3.41-4.75-4.03-5.89-.8-.83,2.34-1.33,4.77-2.01,7.16-.6,2.12-1.29,4.26-2.03,6.34-.64,1.81-1.49,3.32-2.72,4.57-.65.66-1.15,1.1-1.95,1.5-.35.18-.32.11-.84.27.26-.08-.15-.02-.11-.01-.33-.05-.65-.17-.96-.28.56.21-.4-.22-.51-.29-.15-.09-.3-.19-.44-.29.26.2.26.19,0-.03-.24-.25-.49-.49-.72-.76.41.49-.22-.36-.29-.47-.18-.31-.35-.63-.49-.95.26.58-.14-.45-.18-.56-.09-.31-.18-.63-.25-.94s-.13-.64-.18-.97c.09.65-.02-.5-.03-.61-.04-.76,0-1.51.06-2.26.04-.36.04-.37,0-.03.03-.18.06-.36.1-.54.07-.36.15-.71.25-1.06s.21-.67.32-1c.13-.32.12-.32-.01,0,.07-.15.14-.3.21-.45.72-1.45.39-3.25-1.08-4.1s-3.29-.33-4.1,1.08c-1.58,2.74-1.39,5.91-2.49,8.8-.09.23-.18.47-.28.7-.08.19-.07.17.03-.06-.08.19-.16.37-.25.56-.27.59-.56,1.17-.88,1.74-.16.28-.33.57-.51.84-.05.08-.56.77-.26.4-.18.22-.39.42-.59.63-.4.41.31-.1-.21.13.15-.1.3-.15.48-.15.26-.02.25-.02-.05,0-.78-.22.63.21-.26,0-.29-.07-.58-.14-.87-.23.02,0-.85-.31-.48-.15-.59-.24-1.15-.56-1.68-.9-.12-.08-.69-.56-.3-.21-.18-.16-.36-.32-.51-.51.46.58.04-.06-.04-.22.24.52-.08-.29-.11-.4-.2-.65-.34-1.31-.48-1.98-.27-1.38-.45-2.77-.73-4.15-.62-3.04-4.97-2.67-5.79,0-.71,2.31-1.06,4.71-1.86,6.99-.05.13-.46,1.12-.15.44-.1.22-.2.44-.31.65-.14.27-.34.53-.47.81-.19.27-.17.25.07-.06-.09.12-.19.23-.29.34-.16.15-.32.31-.48.46.56-.53-.15.04-.3.15-.44.31.4-.01-.12.04-.15.02-1.15.13-.41.11-1.25.03-2.18-.11-3.19-.68s-2.07-1.65-2.72-2.59c-1.8-2.62-2.56-4.88-3.59-7.78-.54-1.53-2.05-2.55-3.69-2.1-1.48.41-2.64,2.16-2.1,3.69h0Z"/><path d="m168.4,392.09c-.12.44.05.13,0,.07.19-.2.21-.22.06-.07-.12.12-.13.13,0,.03.02,0-.47.19-.33.15-.44.13-.74.17-1.23-.06.37.17-.28-.22-.16-.12.02.01-.27-.25-.35-.33-.16-.16-.43-.54-.62-.93-.32-.64-.39-1.07-.38-1.94.03-1.62-1.4-3-3-3-1.75,0-2.84,1.38-3,3,.06-.58-.1.36-.11.41-.09.33-.2.66-.34.97-.11.24-.46.88-.68,1.26-.63,1.07-1.08,1.75-1.96,2.59-.71.68-1.55,1.23-2.65,1.8-.32.17-.86.4-1.44.5.51-.08-.24-.12.13,0,.57.17-.73-.25-.18-.04.4.15-.19-.13-.27-.16-.46-.21.17.3-.13-.12-.04-.06-.5-.56-.25-.24.24.29-.21-.34-.26-.42-.11-.19-.2-.38-.3-.57-.35-.69.11.49-.1-.28-.14-.49-.3-.97-.4-1.47-.05-.23-.09-.46-.12-.69.1.64-.01-.25-.02-.31-.04-.5-.05-.99-.03-1.49,0-.22.03-.43.04-.65.02-.78-.16.55.02-.18.1-.43.18-.85.33-1.26.53-1.53-.61-3.28-2.1-3.69-1.69-.46-3.11.58-3.69,2.1-.39,1.03-.45,1.16-.83,1.99-.42.92-.89,1.82-1.41,2.68-.9,1.49-1.83,2.86-3.3,3.45.43-.17-.75-.05-.02-.02.38.08.46.09.23.04-.16-.05-.15-.03.04.05.15.22.02.02-.14-.09-.29-.21.43.31-.02-.04-.22-.18-.16-.19,0,.04-.23-.32-.41-.67-.59-1.02-.14-.28.09.34-.06-.18-.05-.18-.12-.35-.17-.53-.12-.4-.21-.81-.29-1.22-.03-.14-.09-.76-.03-.13-.02-.17-.03-.34-.04-.51-.02-.38-.02-.76,0-1.14l-2.2,2.89c-.48.05-.57.08-.24.09,3.06.23,3.96-4.16,1.51-5.59-.39-.23-.81-.39-1.23-.56-2.42-.98-4.78,2.34-3.39,4.41.46.68-.02-.32.11.16.16.59-.18-.64,0,.01,0,.14,0,.29-.01.43.06-.39.07-.46.03-.23-.06.28-.12.55-.21.82-.03.08-.33.84-.07.24-.15.33-.32.65-.49.97-.14.24-.29.48-.44.71-.06.08-.51.71-.2.31-.85,1.1-1.7,1.86-2.42,2.29-.21.13-.43.24-.65.35.67-.35-.21.02-.35.08-.54.23.57-.02-.03,0-.31-.02-.27,0,.14.04-.12-.02-.25-.05-.37-.09-.64-.38.25.08-.24-.11-.56-.22.35.33-.08-.08-.39-.37.19.47-.13-.17-.08-.16-.39-.91-.14-.21-.19-.55-.32-1.09-.44-1.66-.14-.64.02.49-.03-.23-.02-.31-.06-.62-.07-.93-.14-2.37.07-4.75-.37-7.1-.53-2.81-5.35-2.92-5.79,0-.3,2-.84,3.97-1.54,5.86-.1.28-.21.56-.32.83.2-.49-.16.36-.17.37-.24.52-.5,1.03-.79,1.52-.14.23-.3.46-.44.69-.39.66.35-.32-.15.22-.16.18-.33.35-.49.53-.21.22-.37.56-.09.1-.26.44-.54-.17-.02.08.03.01-1.13.07.02.07-.13,0-.87-.02-.36,0l-.28-.08c.28.12.27.09-.03-.07.37.37-.12-.18-.2-.28.32.4-.12-.26-.16-.35s-.41-.83-.21-.38c-.12-.28-.23-.57-.33-.86-.87-2.35-2.66-5.37-2.58-7.61h-6c0,.69-.02.72-.22,1.52-.17.68-.39,1.35-.63,2-.44,1.23-.87,2.24-1.43,3.43-.26.56-.56,1.1-.9,1.62-.16.24.13-.11-.18.24-.19.22-.4.43-.62.63-.62.56.4-.21-.32.24-.26.16-.52.31-.79.45-.33.16-.84.32-1.51.51-2.34.66-2.71,3.3-1.32,5.01.1.15.23.28.38.39,1.22,1.07,3.05,1.2,4.24,0,1.09-1.09,1.22-3.17,0-4.24-.15-.11-.27-.24-.38-.39l-1.32,5.01c3.41-.96,6.15-2.9,7.76-6.12s3.23-6.77,3.25-10.31c.03-3.87-5.86-3.85-6,0-.08,2.18.74,4.19,1.58,6.16.59,1.37,1.04,2.68,1.67,4.19.71,1.7,1.62,3.29,3.21,4.31s3.56,1.24,5.28.68c2.88-.93,4.67-3.82,5.81-6.44s1.98-5.21,2.39-7.96h-5.79c.1.53-.03-.64,0-.06.01.25.04.49.05.74.03.51.03,1.02.04,1.54.01,1.19,0,2.37.09,3.55.19,2.58.7,5.37,2.64,7.25,4.8,4.65,11.13-.05,13.84-4.55,1.51-2.5,2.57-6.05.78-8.7l-3.39,4.41-.2-.05,1.51-5.59c-.46-.03-.9-.04-1.35.13-1.33.5-2.11,1.47-2.2,2.89-.31,4.74,2.52,11.78,8.35,10.59,5.46-1.11,8.3-7.75,10.06-12.37l-5.79-1.6c-1.73,5.01-.15,13.56,5.67,15.18,3.52.98,7.28-1.3,9.8-3.58,2.65-2.39,4.71-6.11,5.05-9.66h-6c-.07,3.79,2.16,7.94,5.94,9.11,3.56,1.1,7.83-.55,8.86-4.33s-4.77-5.32-5.79-1.6h0Z"/><path d="m97.94,409.89c.87,2.51,2.52,4.53,5.02,5.51s5.04.42,7.04-1.16c4.45-3.52,4.23-9.53,5.84-14.45l-5.89-.8c-.05,5.26.54,11.73,5.46,14.8,2.41,1.5,5.89,1.98,8.36.38,2.19-1.42,3.27-3.88,3.96-6.29.33-1.15.58-2.33.86-3.49.13-.54.27-1.08.44-1.6.11-.34.35-.76.04-.18.11-.2.2-.4.31-.59l-5.48-2.31c-.84,2.02-.4,4.68.19,6.7.68,2.29,1.82,4.71,3.62,6.34,2.1,1.91,4.93,2.53,7.5,1.12s3.86-4.13,4.26-6.92c.23-1.61.29-3.23.4-4.86.02-.34.06-.69.08-1.03,0-.03.06-.5.01-.17s.04-.24.05-.29c.06-.31.12-.61.21-.92.04-.12.08-.25.12-.37.14-.44-.3.6.05-.09l-5.48-.72c.03.17.06.34.09.52-.04-.35-.04-.35,0,.01.03.38.07.75.09,1.13.04.69.07,1.38.09,2.06.06,1.68.16,3.34.42,5,.51,3.26,2.11,6.3,5.03,8,3.81,2.23,7.38.36,9.66-2.97.97-1.41,1.84-3.1,2.31-4.74.54-1.89.24-4.11,1.02-5.92l-5.48-.72c.09.31.1.31.04-.01,0,.21,0,.43,0,.64-.01.4-.06.8-.1,1.2-.09.89-.09,1.78-.13,2.68-.09,2.16-.05,4.21.86,6.2,1.74,3.82,6.11,5.18,9.8,3.28,3.1-1.59,4.44-5.14,5.44-8.25.5-1.56,1.06-3.12,1.48-4.71.59-2.21.99-4.46,1.57-6.67h-5.79c.28,1.19.02,2.48-.17,3.67-.24,1.55-.45,3.1-.38,4.68.14,3.19,1.21,5.92,3.19,8.41.92,1.15,2.89,1.07,3.94.23,1.19-.95,1.49-2.52.77-3.87-.14-.26-.28-.52-.41-.79-.72-1.45-2.77-1.86-4.1-1.08-1.48.86-1.8,2.65-1.08,4.1.13.27.26.53.41.79l4.71-3.64c-3.17-3.99,0-9.44-1.09-14.12-.68-2.91-5.05-2.81-5.79,0-.88,3.32-1.55,6.65-2.59,9.93-.37,1.15-.71,2.31-1.15,3.43-.26.65-.92,1.85-1.44,2.35-.22.22.27-.13-.17.13-.37.22-.01.06-.48.21-.57.18,0,.09-.51.07.52.02-.22-.07-.36-.1.43.12-.15-.29.11.03-.02-.02-.54-.68-.29-.3-.36-.54-.39-.66-.51-1.41-.42-2.72.89-5.96,0-8.71-.36-1.14-1.29-2.01-2.49-2.15-1.07-.13-2.52.34-2.99,1.43-1.32,3.05-.93,6.43-2.54,9.36-.29.53-.6,1.07-.97,1.56.28-.37-.23.26-.3.32-.13.14-.27.27-.42.4.2-.15.22-.17.05-.05-.11.08-.23.14-.35.2.27-.11.3-.13.1-.07-.22.05-.17.05.14-.01-.35-.01-.37-.01-.04,0,.42.14-.4-.2-.45-.22-.09-.05-.77-.55-.38-.23-.22-.18-.43-.39-.62-.6-.55-.6.22.41-.21-.28-.15-.24-.28-.48-.41-.73-.31-.6.07.27-.12-.32-.48-1.46-.52-2-.62-3.24-.2-2.59-.14-5.17-.61-7.73s-4.36-2.95-5.48-.72c-1.33,2.65-1.28,5.57-1.48,8.46-.02.35-.05.7-.09,1.05-.03.22-.02.2.01-.06-.03.19-.06.38-.1.57-.06.28-.12.56-.2.83-.05.18-.11.35-.17.53.12-.25.13-.28.04-.09-.14.28-.29.56-.47.81.35-.48-.18.15-.24.2.4-.37-.31.18-.43.24-.2.1-.14.07.21-.09-.13.04-.27.08-.4.1.47-.05.54-.08.21-.07l.41.06c-.13-.02-.25-.06-.38-.1.41.19.46.21.17.07-.16-.12-.36-.22-.53-.33.61.43.06.03-.06-.11-.09-.11-.7-.89-.29-.3-.14-.21-.28-.41-.42-.63s-.26-.44-.38-.67c-.05-.1-.51-1.09-.25-.48-.2-.49-.37-.99-.52-1.5-.09-.33-.18-.67-.25-1-.02-.11-.15-.95-.05-.18-.06-.53-.02-1.05-.06-1.57-.04-.56-.19.5,0,.02.08-.21.12-.44.21-.65.57-1.36-.5-3.04-1.74-3.54-1.4-.56-2.94-.07-3.75,1.23-1.2,1.95-1.49,4.38-2.06,6.56-.15.56-.3,1.12-.49,1.68-.05.14-.46,1.1-.13.4-.13.28-.26.55-.41.81-.11.19-.23.37-.35.55.45-.66-.09.02-.22.16.49-.53.2-.09-.05,0-.29.14-.24.13.16-.06-.13.04-.27.08-.41.11.44-.05.48-.06.13-.03-.12,0-.24,0-.36,0-.2-.01-.16,0,.11.03-.2-.03-.4-.07-.6-.12-.19-.05-.38-.1-.56-.17.28.13.26.13-.06-.02-.24-.12-.47-.26-.69-.41.52.34-.28-.27-.38-.38-.12-.13-.23-.26-.34-.39.18.23.2.25.08.08-.17-.26-.33-.52-.47-.8-.08-.16-.16-.32-.23-.49.12.3.12.28,0-.05-.2-.63-.39-1.25-.53-1.9-.07-.33-.13-.66-.18-.99-.03-.22-.03-.19,0,.09-.02-.19-.04-.38-.06-.57-.13-1.35-.16-2.71-.15-4.07.04-3.47-4.86-3.95-5.89-.8-1.09,3.34-1.01,7.24-2.88,10.27-.38.62-.7,1.02-1.17,1.29-.19.1-.18.1.02.02-.18.06-.37.12-.56.15.74-.13-.63-.12-.21-.04-.15-.03-.6-.29-.7-.39-.55-.5-.64-.7-.82-1.2-.53-1.53-2.05-2.54-3.69-2.1-1.49.41-2.63,2.15-2.1,3.69h0Z"/><path d="m159.88,420.37c.33-.24.36-.27.1-.11.43-.16.5-.19.2-.09-.42.11.43-.09.34-.01.28.05.3.04.06-.02-.3-.1-.23-.07.21.09-.16-.12-.78-.65-.22-.1-.16-.16-.33-.3-.48-.46-.09-.1-.73-.88-.3-.31-.36-.48-.69-1-.99-1.52s-.58-1.1-.85-1.67c-.14-.32-.14-.32,0,0-.06-.16-.13-.32-.19-.48-.09-.23-.17-.47-.25-.7-.17-.49-.31-.99-.43-1.5-.07-.31-.02-1.01-.04-.1,0-.19-.03-.38-.02-.57.1-3.43-4.95-4.01-5.89-.8-.56,1.92-1.04,4.39-1.68,5.96.12-.29-.18.38-.21.44-.13.26-.26.51-.41.75-.02.03-.53.76-.18.31-.17.22-.37.41-.57.61-.37.37.1-.03-.16.14-.2.13-.4.26-.62.36.47-.23-.31.08-.41.12-.82.32.43.02-.17.04-.57.02.47.08.13,0,.05.01.23.09.3.14.27.19-.07-.17.25.29-.11-.17-.21-.37-.32-.53-.34-.47.11.49-.05-.1-.05-.19-.12-.38-.17-.57-.12-.45-.2-.9-.29-1.35-.15-.83.03.61-.03-.23-.02-.26-.05-.52-.07-.78-.03-.42-.05-.84-.06-1.26-.02-.82-.01-1.65,0-2.48h-6c.04.46,0,.9-.01,1.36-.04.33-.03.3.02-.11-.03.16-.05.33-.08.49-.05.26-.1.51-.16.77-.15.64-.34,1.27-.55,1.89-.11.32-.23.64-.35.96-.08.19-.07.18.02-.04-.08.18-.16.36-.24.54-.28.6-.59,1.2-.94,1.77-.14.23-.3.45-.45.68-.21.28-.21.28,0,0-.11.13-.21.25-.33.37-.17.16-.34.32-.51.49.52-.5,0-.03-.18.08s.57-.28-.1,0c.49-.05.57-.07.24-.06.46.08.56.09.3.04-.11-.06-.97-.42-.33-.06-.21-.12-.41-.23-.61-.37.6.4-.16-.22-.28-.33-.47-.43.19.4-.12-.18-.16-.3-.34-.59-.49-.89-.29-.55.09.4-.1-.26-.18-.62-.37-1.22-.5-1.86-.03-.16-.14-.85-.07-.31-.05-.37-.08-.74-.11-1.12-.04-.64-.05-1.28-.03-1.91,0-.26.02-.52.04-.78.01-.16.16-1.24.03-.42.08-.49.17-.98.3-1.46l-5.79-1.6c-.29,1.1-.66,2.17-1.06,3.23-.43,1.12-.91,2.23-1.67,3.65-.33.62-.69,1.24-1.07,1.83-.21.32-.43.64-.66.95.35-.46-.19.21-.22.24-.22.25-.49.47-.71.72-.26.22-.24.21.06-.02-.12.09-.24.17-.37.25-.43.28-.42.02-.04.05-.12.04-.25.08-.38.1.48-.05.55-.07.21-.05-.34-.02-.27,0,.21.04-.12-.03-.24-.06-.36-.11l.37.15c-.11-.06-.22-.13-.32-.2.35.28.4.31.16.09-.1-.09-.19-.19-.28-.3.55.56-.03-.08-.14-.28s-.21-.41-.32-.62c.34.67-.1-.28-.14-.43-.19-.58-.35-1.17-.47-1.76-.08-.35-.14-.7-.2-1.05-.03-.18-.06-.35-.08-.53.05.36.05.36,0,.01-.06-.59-.12-1.17-.15-1.76-.05-.99-.07-1.98,0-2.97.12-1.62-1.47-3-3-3-1.76,0-2.83,1.38-3,3-.02.21-.05.43-.07.64-.09.86.08-.43-.02.16s-.18,1.2-.29,1.8c-.24,1.29-.53,2.57-.92,3.82-.11.34-.22.68-.34,1.02-.04.11-.47,1.13-.18.51-.27.61-.58,1.19-.93,1.75-.16.26-.41.52-.07.14-.19.22-.42.41-.59.63-.25.21-.21.19.12-.08-.11.08-.22.15-.34.22-.48.11.63-.02-.2.07-.53.05.68-.04-.21-.01-.33-.03-.29-.02.14.02-.12-.03-.25-.06-.37-.11.42.18.49.2.2.04-.21-.15-.22-.15-.02,0,.38.31-.24-.29-.3-.35.52.53-.1-.17-.2-.34-.17-.29-.32-.6-.47-.9-.14-.31-.15-.32-.02-.02-.07-.17-.13-.34-.19-.52-.13-.36-.24-.71-.35-1.08-.19-.65-.35-1.3-.49-1.96-.08-.37-.15-.75-.21-1.12-.02-.12-.17-1.27-.09-.56-.13-1.16-.23-2.32-.18-3.49h-6c0,.15-.02.3-.01.45.01.43.17-.83,0-.03-.1.47-.19.93-.31,1.39-.32,1.22-.73,2.41-1.19,3.59.25-.63-.17.37-.22.48-.11.23-.22.45-.34.68-.29.55-.6,1.07-.96,1.57.48-.67.11-.08-.04,0-.71.38.36-.17-.05.07-.28.15-.17.11.32-.12-.31.08-.17.06.4-.04.57.11.71.12.4.05.49.23.59.26.32.1-1.38-.86-3.3-.29-4.1,1.08-.87,1.49-.26,3.18,1.08,4.1,1.04.73,2.13.69,3.33.44,1.59-.33,2.5-2.2,2.1-3.69-.45-1.65-2.1-2.42-3.69-2.1-.16.03-.33.07-.5.1h1.6l.2.07-3.03,5.18c3.64,2.27,6.75-1.48,8.16-4.46,1.22-2.6,2.65-5.95,2.56-8.9-.12-3.87-5.81-3.85-6,0-.13,2.53.29,5.17.88,7.62.65,2.7,1.73,5.68,3.98,7.44,2.53,1.98,5.93,1.6,8.31-.42,2.03-1.72,3.14-4.42,3.9-6.9s1.24-5.31,1.52-8.01h-6c-.17,2.24.06,4.51.42,6.71.4,2.48,1.19,5.09,2.91,6.99,1.96,2.17,5.13,2.56,7.62,1.08s4.02-3.99,5.27-6.39c1.32-2.54,2.46-5.27,3.19-8.04.98-3.74-4.78-5.33-5.79-1.6-1.3,4.8-.85,11.34,2.67,15.12,2.01,2.16,5.2,3.07,7.89,1.67,2.29-1.19,3.81-3.71,4.83-5.99,1.14-2.55,2.26-5.64,2-8.49-.15-1.61-1.27-3-3-3s-2.98,1.37-3,3c-.06,4.4-.01,12.62,6.11,12.85,3.3.12,6.28-2.25,7.77-5.05,1.35-2.54,1.82-5.36,2.62-8.09l-5.89-.8c-.09,3.1,1.58,6.68,3.29,9.17,1.04,1.51,2.27,2.93,3.98,3.67,2.11.91,4.11.38,5.83-1.04,1.25-1.03,1.07-3.17,0-4.24-1.24-1.24-2.99-1.03-4.24,0h0Z"/><path d="m182.61,524.58c-.64-3.85-1.82-7.57-2.85-11.32s-1.66-7.59-2.48-11.4c-1.54-7.07-3.77-13.86-6.65-20.5-5.05-11.61-12.21-23.36-23.21-30.18-11.53-7.14-26.87-10.12-39.72-4.83-3.53,1.45-7.05,2.92-10.07,5.3-2.77,2.18-4.85,4.97-6.97,7.76-4.63,6.09-9.24,12.14-13.02,18.8-2.03,3.58-3.92,7.29-5.02,11.27s-1.46,7.85-1.91,11.81c-.48,4.22-.99,8.35-.8,12.61.1,2.25.35,4.48.67,6.7s.96,4.13,1.42,6.22c.35,1.58,2.18,2.51,3.69,2.1,1.63-.45,2.45-2.1,2.1-3.69-.4-1.8-.99-3.51-1.29-5.33-.27-1.68-.44-3.38-.55-5.08-.22-3.58-.05-7.13.41-10.68.84-6.49,1.31-12.91,4.29-18.86,3.24-6.45,7.28-12.47,11.62-18.22,1.91-2.54,3.8-5.13,5.86-7.55,2.25-2.63,4.78-4.48,7.9-5.95,5.76-2.71,11.6-4.17,18-3.8,6.11.35,12.18,2.2,17.59,5.06,10.58,5.59,17.39,15.85,22.4,26.48,3.12,6.63,5.51,13.62,7.16,20.84.9,3.93,1.5,7.93,2.54,11.83s2.41,8.07,3.1,12.23c.26,1.6,2.25,2.49,3.69,2.1,1.7-.47,2.36-2.09,2.1-3.69h0Z"/><path d="m100.7,487.62c-.17-.51-.15-.69-.11-1.02.08-.71.3-1.43.48-2.12.41-1.58.74-3.18,1.18-4.76.96-3.4,2.26-6.68,4.01-9.75,3.46-6.08,8.44-11.04,13.34-15.95,2.73-2.74-1.51-6.98-4.24-4.24-5.45,5.47-11.01,11.09-14.71,17.95-1.92,3.55-3.38,7.38-4.42,11.28-.43,1.63-.83,3.28-1.21,4.92s-.69,3.59-.1,5.29c.52,1.53,2.06,2.54,3.69,2.1,1.49-.41,2.62-2.15,2.1-3.69h0Z"/><path d="m115.83,482.08c.79-2.48,1.09-5.09,1.62-7.62.27-1.29.59-2.57,1.06-3.81.02-.06.05-.12.07-.19.08-.21.05-.12-.11.26-.02-.04.14-.31.16-.36.14-.29.28-.57.44-.85.05-.08.53-.71.51-.79.02.06-.43.51-.13.17.12-.14.24-.27.36-.41,1.08-1.14,1.22-3.12,0-4.24s-3.09-1.22-4.24,0c-4.17,4.42-3.8,10.79-5.53,16.24-.48,1.5.56,3.34,2.1,3.69,1.64.37,3.18-.49,3.69-2.1h0Z"/><path d="m132.04,477.24c-1.46-4.53-1.72-9.33-3.76-13.68-.67-1.43-2.83-1.9-4.1-1.08-1.47.95-1.79,2.58-1.08,4.1.06.12.11.24.16.36-.17-.41-.19-.47-.07-.17.1.25.19.5.28.76.18.52.34,1.05.49,1.58.29,1.07.53,2.15.76,3.24.45,2.17.85,4.37,1.53,6.48.48,1.49,2.1,2.61,3.69,2.1,1.49-.48,2.61-2.09,2.1-3.69h0Z"/><path d="m150.95,487.77c.14-3.8-1.27-7.38-2.47-10.92s-2.45-6.97-4.17-10.24c-2.86-5.44-6.52-11.51-11.92-14.72-3.33-1.98-6.35,3.21-3.03,5.18,2.12,1.26,3.85,3.22,5.3,5.29,1.62,2.32,3.15,4.77,4.47,7.28,1.48,2.81,2.54,5.81,3.56,8.8s2.38,6.09,2.26,9.32c-.14,3.86,5.86,3.86,6,0h0Z"/><path d="m88.27,501.82c-.24-4.51,2.03-8.98,3.31-13.22.67-2.21,1.34-4.47,2.33-6.56s2.32-4.01,3.12-6.22c.55-1.52-.62-3.28-2.1-3.69-1.67-.46-3.14.57-3.69,2.1-.74,2.04-2.12,3.83-2.98,5.84-1.03,2.41-1.85,4.87-2.6,7.38-1.4,4.68-3.65,9.39-3.39,14.38.09,1.62,1.32,3,3,3,1.56,0,3.09-1.37,3-3h0Z"/><path d="m165.11,502.1c-1.07-4.6-1.74-9.3-3.02-13.85-1.37-4.86-3.5-9.37-6.83-13.19-1.06-1.22-3.15-1.09-4.24,0-1.21,1.21-1.07,3.02,0,4.24,5.83,6.69,6.38,16.12,8.31,24.4.37,1.58,2.17,2.51,3.69,2.1,1.62-.44,2.46-2.11,2.1-3.69h0Z"/><path d="m11.78,193.97c-2.78-3.8-3-9.24-3.6-13.8-.91-6.93-1.64-13.88-1.95-20.87-.63-14.17-.14-28.6,1.67-42.67s5.25-27.42,9.23-40.76c2.01-6.73,4.16-13.42,6.36-20.09,2.07-6.3,3.98-12.69,6.34-18.89,4.37-11.48,11.48-23.2,21.69-30.37l-4.1-4.1c-1.91,4.31-1.52,8.92-1.86,13.51s-.54,9.2.64,13.81c2.05,8.01,7.34,13.96,14.3,18.18,15.47,9.39,34.17,11.29,51.91,11.07,5.01-.06,10.02-.31,15.01-.65s10.32-.98,15.48-1.27,9.95-.03,14.92.15,10.13.13,15.22-.16c5.07-.29,10.14-.66,15.21-1.07,4.64-.37,9.2-.73,13.85-.61s9.03.25,13.5-.55,7.94-2.65,11.04-5.74,5.4-6.57,7.77-10.09c2.7-4.02,5.05-8.15,7.4-12.38,2.12-3.83,4.55-7.61,6.13-11.71.47-1.21.86-2.46,1.28-3.68.24-.69.48-1.38.74-2.07.13-.34.26-.68.4-1.02.23-.57.1-.24.05-.12.1-.22.2-.44.3-.66.26-.55.56-1.06.87-1.57.36-.59-.22.2.11-.13.22-.21.24-.07-.22.13.21-.09.41-.17-.32.11l-3.69-2.1c.14,1.05-.71,2.44-1.02,3.44-.5,1.64-.69,3.39-.79,5.09-.19,3.33-.06,6.74.08,10.07.28,6.57,1.53,13.02,2.57,19.5s1.54,13.05,3.13,19.44,4.08,12.63,5.65,19.09c3.2,13.15,6.06,26.47,7.99,39.87s2.65,27.02,1.18,40.48c-.77,7.05-2.3,14.01-3.95,20.89s-3.47,13.42-5.85,19.92c-.56,1.52.63,3.29,2.1,3.69,1.67.46,3.13-.57,3.69-2.1,2.11-5.75,3.8-11.65,5.29-17.59,1.58-6.31,3.03-12.7,4-19.14,2.04-13.64,1.84-27.43.22-41.11-1.64-13.82-4.52-27.43-7.6-40.99-.75-3.3-1.49-6.6-2.45-9.85s-2.01-6.3-2.98-9.46c-1.96-6.38-2.97-12.83-3.86-19.43-.97-7.25-2.58-14.42-3.03-21.73-.23-3.64-.33-7.39-.19-11.04s2.12-6.91,1.62-10.63c-.21-1.52-2.32-2.6-3.69-2.1-2.91,1.08-4.1,4.18-5.15,6.86-.54,1.39-1.02,2.8-1.5,4.21-.2.57-.39,1.15-.6,1.72-.07.2-.16.4-.23.6-.17.5.07-.16.1-.22-.1.19-.18.39-.28.59-2.07,4.27-4.55,8.31-6.77,12.5s-4.79,7.97-7.4,11.83c-2.04,3.02-4.33,6.2-7.28,8.4-2.88,2.15-6.75,2.66-10.25,2.82-4.25.19-8.5-.16-12.75-.09-4.79.08-9.58.7-14.36,1.05s-9.8.72-14.7.91-9.79-.06-14.68-.23-9.78-.14-14.67.31-9.8.86-14.71,1.16c-17.41,1.04-35.72,1.04-52.18-5.49-6.74-2.67-13.97-6.58-17.72-12.93-1.69-2.87-2.76-6.17-3.11-9.55-.25-2.39-.06-4.79.13-7.17.18-2.22.25-4.44.33-6.67.06-1.74.11-3.67.83-5.29.55-1.24.55-2.62-.47-3.64-.89-.89-2.56-1.23-3.64-.47-9.97,7-17.22,17.5-22.18,28.5-2.64,5.86-4.52,12-6.54,18.1-2.29,6.9-4.57,13.8-6.73,20.74-4.27,13.75-8.06,27.7-10.3,41.94C.48,125.12-.26,139.98.08,154.64c.19,8.27.91,16.51,2,24.71.77,5.81.93,12.73,4.53,17.65.95,1.31,2.6,1.95,4.1,1.08,1.29-.75,2.04-2.79,1.08-4.1h0Z"/><path d="m102.38,105.26c-.07,1.8-.54,3.73-1.44,5.39s-2.16,3.17-3.7,4.28c-4.17,3.03-9.96,4.34-15.02,4.68-9.09.6-18.18-2.67-25.51-8.01-.99-.72-2.88-2.43-3.71-3.54-.28-.37-.93-1.43-1.26-2.13-.04-.09-.21-.53-.03-.06-.07-.18-.13-.35-.19-.53-.18-.54-.32-1.1-.41-1.66.09.55-.03-.64-.03-.82,0-.46.01-.93.07-1.38-.06.44.03-.1.04-.16.07-.47.11-.96.19-1.43-.08.43.23-.78.31-.98-.18.43.1-.16.16-.26.14-.22.26-.45.41-.67.2-.29.18-.27.52-.65.37-.41.76-.8,1.17-1.17.37-.33.91-.77,1.1-.91,1.71-1.26,3.56-2.33,5.4-3.4,2.12-1.24,4.28-2.5,6.57-3.41,4.56-1.8,9.65-2.13,14.5-1.72,2.17.19,4.59.7,6.88,1.53,2.08.75,4.33,1.99,6.26,3.47,4.28,3.27,7.79,7.9,7.71,13.52-.06,3.86,5.94,3.86,6,0,.17-12.06-11.15-21.55-22.22-23.86-5.52-1.15-11.58-1.13-17.08.14s-10.57,4.3-15.26,7.32c-2.11,1.36-4.21,2.89-5.8,4.85-.9,1.11-1.61,2.25-2.11,3.6-.55,1.48-.55,2.45-.72,3.85-.6,4.9,1.64,9.45,5.08,12.82,3.21,3.13,7.2,5.39,11.23,7.28,5.48,2.57,11.1,4.26,17.19,4.42,3.78.1,7.61-.36,11.28-1.27,3.32-.83,6.8-1.99,9.68-3.88,5.24-3.43,8.48-9,8.72-15.27.14-3.86-5.86-3.86-6,0Z"/><path d="m214.82,115.42c-.13,2.36-.65,4.97-1.7,6.99-.54,1.04-.94,1.66-1.65,2.38-.43.44-.57.57-.87.77-.55.38-.96.59-1.3.72-4.78,1.76-10.16,1.76-15.29,1.5s-10.27-1.04-15.22-2.69-10.19-3.93-14-7.62c-.57-.55-1.1-1.14-1.62-1.74-.29-.34-.58-.69-.86-1.04-.36-.46-.13-.16-.05-.06-.23-.31-.46-.62-.68-.93-.54-.77-1.04-1.56-1.46-2.4-.05-.09-.37-.88-.12-.22-.06-.15-.12-.3-.16-.45-.06-.21-.1-.44-.18-.65-.22-.62.03.6.02,0-.02-.67-.12.71,0,.09-.1.55-.22.5-.04.19.4-.65.48-1.42.68-2.14.36-1.27.61-1.94,1.17-3,1.09-2.08,2.08-3.32,3.82-4.89,1.45-1.31,3.44-2.55,5.53-3.51,1.57-.72,4.01-1.45,6.1-1.85,1.92-.37,4.3-.54,6.65-.45,2.69.1,5.39.27,8.07.53,5.6.54,11.34,1.84,16.12,5.08,2.44,1.66,4.52,3.55,5.65,6.17,1.22,2.83,1.54,6.11,1.41,9.21-.07,1.62,1.43,3,3,3,1.68,0,2.93-1.37,3-3,.14-3.44-.24-7.03-1.43-10.28s-2.97-5.71-5.53-7.92c-4.81-4.15-10.7-6.52-16.92-7.57-3.15-.53-6.34-.82-9.53-1.01-2.68-.16-5.36-.34-8.05-.1-5.45.49-10.93,2.07-15.46,5.22-2.37,1.64-4.37,3.57-6.07,5.89-1.55,2.11-3.1,4.94-3.48,7.55-.15,1.04.16-.31-.04.25-.11.32-.3.62-.4.95-.16.51-.23,1.05-.24,1.58,0,1.37.47,2.65,1.04,3.87.96,2.09,2.41,3.96,3.88,5.72,3.66,4.39,8.68,7.34,13.89,9.53,5.77,2.42,11.75,3.79,17.98,4.42,6.56.66,13.78.71,20.12-1.34,7.12-2.31,9.86-9.9,10.25-16.76.09-1.62-1.44-3-3-3-1.7,0-2.91,1.38-3,3Z"/><path d="m105.44,180.04c2.27-.1,4.56-.59,6.51-1.82,1.74-1.09,3.11-2.61,4.21-4.33,1.94-3.03,2.92-6.56,4.71-9.67l-5.48-2.31c-.65,3.54-.43,7.32.51,10.78,1.01,3.68,3.24,7.51,7.22,8.46l-1.79-1.38.11.18-.41-1.51v.1c.49-.86.98-1.73,1.48-2.59.37-.22.75-.32.03-.02-.39.16-.77.4-1.05.72-1.02,1.19-1.26,3.09,0,4.24,1.12,1.03,3.15,1.27,4.24,0l.09-.1-1.32.77c1.09-.45,2.13-.91,2.43-2.23.26-1.14-.03-2.35-.87-3.2-.44-.44-.93-.63-1.5-.81-.1-.03-.44-.07-.5-.16.45.2.53.23.24.09-.08-.04-.15-.08-.23-.12-.15-.09-.29-.2-.44-.28-.18-.13-.1-.07.26.2-.09-.08-.18-.15-.26-.24-.12-.13-.25-.26-.37-.39-.42-.43.04-.16,0,.04.01-.08-.26-.37-.32-.47-.23-.36-.41-.73-.61-1.11-.36-.68.15.46-.06-.12-.07-.19-.15-.38-.22-.58-.29-.83-.51-1.69-.68-2.56-.05-.25-.09-.49-.13-.74-.04-.27-.3-.69-.01-.05-.15-.34-.1-.9-.12-1.26-.06-.86-.08-1.71-.05-2.57.01-.36.04-.71.07-1.07,0-.04,0-.47.05-.49-.07.53-.09.65-.04.33.02-.1.03-.19.05-.29.27-1.49-.28-2.93-1.74-3.54-1.35-.57-3-.08-3.75,1.23-1.65,2.88-2.63,6.1-4.29,8.98-.19.32-.38.64-.59.95-.11.17-.24.32-.34.49-.18.31.4-.47.04-.06-.26.3-.52.59-.8.87-.14.14-.29.26-.44.39-.43.39.52-.32-.02.01-.32.2-.62.4-.95.57-.15.08-.31.15-.47.22.71-.33.09-.05-.09,0-.44.14-.89.23-1.33.34-.63.14.54-.02-.18.03-.26.02-.53.04-.79.05-1.57.07-3.07,1.33-3,3,.07,1.56,1.32,3.08,3,3h0Z"/><path d="m155.6,126.25v-.03c-.09.24-.19.48-.29.72.1-.23.25-.43.4-.63l-.47.61c1.26-1.63,2.95-3,4.57-4.25l-.61.47c.92-.7,1.88-1.46,2.94-1.92l-.72.3c.14-.06.29-.11.44-.14l-.8.11s.09,0,.13,0l-.8-.11s.06.01.08.02l-.72-.3s.02.01.03.02l-.61-.47s.02.02.03.03c1.1,1.13,3.16,1.18,4.24,0s1.17-3.04,0-4.24c-.84-.86-2.06-1.09-3.2-.83-.46.1-.9.31-1.32.51-.71.34-1.37.8-2,1.27-1.8,1.3-3.56,2.73-5.1,4.33-.3.31-.59.63-.85.97-.56.71-.84,1.15-1.18,1.99-.28.67-.05,1.72.3,2.31s1.08,1.22,1.79,1.38c.77.17,1.63.14,2.31-.3l.61-.47c.37-.37.63-.82.77-1.32h0Z"/><path d="m166.82,137.92c1.05-2,2.27-3.93,3.6-5.76.17-.24.35-.48.53-.72.07-.09.38-.49.06-.08s.04-.05.11-.13c.35-.44.71-.87,1.08-1.28.34-.38.7-.75,1.07-1.11.17-.16.34-.32.52-.47.07-.06.23-.15.28-.23-.07.11-.67.5-.25.2.65-.47,1.16-.99,1.38-1.79.2-.72.11-1.67-.3-2.31-.81-1.26-2.74-2.06-4.1-1.08-2.15,1.55-3.8,3.59-5.36,5.71-1.4,1.91-2.69,3.93-3.79,6.03-.73,1.39-.4,3.32,1.08,4.1,1.38.73,3.33.41,4.1-1.08h0Z"/><path d="m187.4,140.15c-.02-.47.02-.93.08-1.4l-.11.8c.3-2.09,1.08-4.11,1.9-6.05l-.3.72c.29-.69.6-1.38.91-2.06.34-.76.53-1.48.3-2.31-.19-.7-.73-1.45-1.38-1.79-.7-.37-1.54-.55-2.31-.3-.7.23-1.48.68-1.79,1.38-.76,1.7-1.52,3.4-2.14,5.16-.66,1.85-1.22,3.88-1.15,5.87.06,1.57,1.34,3.07,3,3s3.06-1.32,3-3h0Z"/><path d="m202.1,141.6c-.13-2.45-.1-4.93.22-7.36l-.11.8c.14-1.02.33-2.03.65-3.01.49-1.49-.57-3.34-2.1-3.69-1.65-.38-3.17.5-3.69,2.1-.61,1.87-.82,3.88-.95,5.83-.12,1.78-.11,3.56-.02,5.34.08,1.56,1.32,3.08,3,3,1.56-.07,3.09-1.32,3-3h0Z"/><path d="m220.13,133.74c-1.33-1.99-2.69-4.02-3.63-6.23l.3.72c-.17-.41-.33-.83-.41-1.26-.13-.7-.79-1.45-1.38-1.79-.64-.38-1.59-.54-2.31-.3s-1.43.68-1.79,1.38c-.4.75-.45,1.48-.3,2.31s.52,1.58.85,2.31.68,1.37,1.06,2.03c.76,1.32,1.58,2.61,2.43,3.87.44.65,1.02,1.17,1.79,1.38.72.2,1.67.11,2.31-.3s1.2-1.03,1.38-1.79.15-1.64-.3-2.31h0Z"/><path d="m106.12,125.06c-.07-.07-.13-.15-.2-.22-.36-.38.22.23.2.27.01-.01-.34-.48-.37-.53-.26-.39-.48-.8-.7-1.22-.1-.2-.2-.4-.29-.6-.05-.11-.11-.23-.16-.34s-.24-.56-.03-.06.02.04-.03-.07c-.05-.12-.1-.24-.14-.36-.09-.24-.18-.49-.27-.74-.63-1.78-1.13-3.61-1.56-5.46-.36-1.53-2.19-2.58-3.69-2.1-1.6.52-2.48,2.05-2.1,3.69.46,1.94.98,3.88,1.67,5.75.82,2.24,1.79,4.46,3.43,6.23,1.07,1.16,3.18,1.16,4.24,0,1.14-1.24,1.14-3.01,0-4.24h0Z"/><path d="m88.85,132.09c.31-2.84-.73-5.67-.37-8.5l-.11.8c.06-.38.14-.74.28-1.1l-.3.72c.03-.07.06-.13.09-.19.35-.74.53-1.5.3-2.31-.19-.7-.73-1.45-1.38-1.79-1.34-.71-3.38-.44-4.1,1.08-.91,1.91-.93,3.94-.72,6,.18,1.75.5,3.54.31,5.31-.08.72.39,1.63.88,2.12.52.52,1.37.91,2.12.88s1.58-.29,2.12-.88c.57-.62.79-1.29.88-2.12h0Z"/><path d="m69.07,132.96c.61-.25,1.15-.49,1.59-1,.3-.34.58-.71.78-1.12.39-.79.7-1.62.97-2.46.48-1.49.86-3.02,1.23-4.54.13-.54.26-1.09.41-1.62.43-1.51-.53-3.33-2.1-3.69s-3.23.48-3.69,2.1c-.72,2.51-1.13,5.12-2.14,7.54l.3-.72c-.13.3-.27.6-.46.86l.47-.61c-.05.07-.11.13-.18.19l.61-.47s-.05.03-.08.04l.72-.3h-.02c-.75.31-1.37.66-1.79,1.39-.38.64-.54,1.59-.3,2.31s.68,1.43,1.38,1.79,1.58.6,2.31.3h0Z"/><path d="m53.65,127.47c1.94-.98,3.39-2.97,4.52-4.75,1.07-1.68,1.98-3.51,2.62-5.4.51-1.49-.58-3.35-2.1-3.69-1.66-.38-3.15.5-3.69,2.1-.12.36-.26.71-.41,1.06l.3-.72c-.76,1.77-1.71,3.48-2.88,5.02l.47-.61c-.51.66-1.07,1.3-1.74,1.81l.61-.47c-.23.18-.47.33-.74.47-1.4.71-1.92,2.8-1.08,4.1.92,1.43,2.6,1.84,4.1,1.08h0Z"/><path d="m45.61,120.09c1.19-1.38,2.67-2.46,4.1-3.58,1.58-1.24,3.03-2.54,4.15-4.23.42-.63.5-1.6.3-2.31s-.73-1.45-1.38-1.79c-1.51-.8-3.17-.32-4.1,1.08-.12.19-.25.37-.39.54l.47-.61c-2.07,2.63-5.21,4.14-7.39,6.66-.53.61-.88,1.29-.88,2.12,0,.74.33,1.61.88,2.12s1.32.91,2.12.88,1.6-.28,2.12-.88h0Z"/><path d="m81.66,155.78c.36-4.15-2.03-8.41-5.25-10.89-2.95-2.27-6.64-3.19-10.29-3.44-7.5-.5-15.85,2.38-20.64,8.36-1.99,2.48-.87,7.1.38,9.74,1.07,2.27,2.93,4.11,5.02,5.44,4.3,2.75,9.95,3.51,14.95,2.94,2.92-.33,5.72-1,8.37-2.31,3.5-1.74,6.81-5.04,7.37-9.05.22-1.6-.39-3.22-2.1-3.69-1.4-.39-3.47.48-3.69,2.1-.39,2.8-2.64,4.56-5.29,5.78.71-.33-.11.03-.3.11-.28.1-.57.2-.86.29-.59.19-1.19.34-1.8.48-.55.12-1.1.21-1.65.3.73-.12-.21.02-.42.04-.37.04-.74.06-1.11.08-1.28.07-2.57.05-3.85-.08-.16-.02-.93-.12-.59-.06.37.05-.58-.1-.7-.13-.64-.12-1.27-.27-1.89-.45-.57-.17-1.13-.37-1.69-.58.62.24-.15-.07-.35-.17-.27-.13-.55-.28-.81-.43s-.52-.31-.77-.47c-.1-.07-.74-.54-.42-.29s-.29-.25-.38-.33c-.24-.22-.48-.45-.7-.7-.1-.11-.19-.22-.29-.33-.24-.26.3.47,0,0-.18-.28-.37-.55-.53-.83s-.32-.59-.45-.9c.27.6-.02-.1-.09-.36-.1-.34-.17-.69-.25-1.04-.03-.12-.04-.24-.06-.36.13.74,0-.08,0-.2-.05-.81-.02-1.63.07-2.44l-.88,2.12c1.87-2.32,4.33-4.07,7.09-5.19s5.32-1.53,8.3-1.46c2.48.06,5.05.54,7.17,1.87,1.93,1.22,3.63,3.83,3.39,6.5-.14,1.62,1.48,3,3,3,1.74,0,2.86-1.38,3-3Z"/><path d="m187.12,169.24c-.19.66-.57,1.17-1.26,1.65-1.23.84-2.53,1.24-4,1.55-3.27.69-6.69.35-9.93-.31-1.65-.34-3.28-.77-4.92-1.2-1.27-.33-2.86-.68-3.71-1.14-1-.54-1.74-1.22-2.46-2.15.33.42-.06-.1-.14-.2-.15-.22-.3-.43-.44-.66-.18-.28-.35-.56-.51-.84-.06-.1-.55-1.09-.4-.72-.11-.27-.18-.55-.27-.83-.19-.57.02-.1,0,.04.09-.57-.26.2.02.02.23-.15.35-1.43.35-1.54l-.11-.8c.05.51.07.61.06.29-.02-.6-.16.74,0,.17-.17.63-.23.51-.11.28.35-.71-.27.38.03-.05.14-.19.63-.4-.05,0,.17-.1.33-.22.5-.32.18-.11,1.18-.52.44-.25.96-.36,1.93-.63,2.93-.84.47-.1.93-.18,1.4-.26.1-.02.97-.13.23-.04.25-.03.51-.06.76-.09.94-.1,1.88-.17,2.83-.21,1.67-.07,3.48,0,4.92.24,3.17.54,6.32,1.5,9.14,3.05,1.46.8,2.65,1.54,3.69,2.73.43.49.79,1.06.91,1.41.02.07.17.99.12.39.01.19.01.39,0,.58.06-.32.05-.31-.02.05-.35,1.58.47,3.25,2.1,3.69,1.5.41,3.34-.51,3.69-2.1,2.01-9.17-10.25-14.08-17.29-15.44-2.75-.53-5.47-.71-8.26-.53s-5.68.5-8.31,1.44c-3.39,1.21-6.1,3.5-5.49,7.41v-1.6c-.68,2.04-.44,3.75.43,5.69.73,1.62,1.77,3.12,2.93,4.46,2.86,3.31,7.1,4.14,11.15,5.13,5.06,1.23,10.25,1.91,15.39.83,4.05-.85,8.24-3.15,9.44-7.38,1.05-3.72-4.73-5.31-5.79-1.6Z"/><path d="m49.39,157.05c1.65-2.62,3.44-5.13,5.49-7.46l-2.51-1.46c-.79,4.21-2.25,8.37-1.97,12.7.09,1.38,2.08,2.18,2.8.76,2.37-4.67,4.67-9.63,8.24-13.53l-2.56-1.06c-.03,2.21-1.06,4.26-1.59,6.37-.6,2.37-.7,4.84-1.24,7.22-.31,1.38,1.45,2.63,2.51,1.46,1.96-2.16,3.12-4.81,4.63-7.26,1.65-2.68,3.73-5.11,5.9-7.38l-2.51-1.46c-.59,3.41-1.89,6.61-3.1,9.84-1.02,2.74-2.81,5.77-2.41,8.78.18,1.41,1.94,2.12,2.8.76,3.61-5.72,6.93-11.62,10.86-17.14l-2.8-.76c-.33,4.45-2.1,8.63-1.94,13.14.06,1.55,1.95,1.96,2.8.76,1.99-2.85,3.33-6.1,5.43-8.88,1.17-1.54-1.44-3.03-2.59-1.51-2.11,2.78-3.44,6.03-5.43,8.88l2.8.76c-.16-4.48,1.61-8.7,1.94-13.14.12-1.62-2.02-1.85-2.8-.76-3.93,5.51-7.25,11.42-10.86,17.14l2.8.76c-.2-1.52.3-2.88.86-4.26s1.08-2.76,1.6-4.15c1.16-3.08,2.38-6.15,2.94-9.41.24-1.38-1.39-2.63-2.51-1.46-2.18,2.28-4.22,4.71-5.96,7.34-1.58,2.39-2.63,5.16-4.57,7.3l2.51,1.46c.57-2.52.65-5.12,1.34-7.61.62-2.25,1.56-4.41,1.59-6.78.02-1.26-1.68-2.03-2.56-1.06-3.75,4.11-6.21,9.22-8.71,14.13l2.8.76c-.26-4.07,1.12-7.95,1.86-11.9.25-1.35-1.43-2.68-2.51-1.46-2.21,2.52-4.17,5.24-5.95,8.07-1.03,1.64,1.56,3.14,2.59,1.51h0Z"/><path d="m158.95,167.15c2.39-1.88,4.05-4.59,6.58-6.31l-2.2-1.69c-.29,1.86-1.33,3.45-1.95,5.2-.67,1.91-.75,3.95-1.36,5.88-.43,1.35,1.57,2.67,2.51,1.46,2.91-3.76,4.95-8.2,8.58-11.37l-2.36-1.82c-1.41,2.06-2.17,4.66-2.68,7.07s-.95,5.13-.12,7.47c.34.96,1.73,1.6,2.51.66,3.47-4.21,5.74-9.31,9.8-13.04l-2.51-1.46c-1.75,4.3-2.34,8.86-3.11,13.4-.23,1.37,1.39,2.64,2.51,1.46,1.69-1.78,2.47-4.06,3.65-6.16,1.29-2.31,3.25-4.17,4.56-6.47l-2.8-.76c-.02,4.46-1.18,8.81-1.07,13.28.03,1.23,1.66,2.07,2.56,1.06,2.5-2.79,3.67-6.39,5.97-9.3l-2.56-1.06c.12,2.86-.92,5.61-.18,8.46.49,1.87,3.38,1.08,2.89-.8-.65-2.5.39-5.12.28-7.66-.05-1.16-1.7-2.15-2.56-1.06-2.29,2.9-3.5,6.54-5.97,9.3l2.56,1.06c-.11-4.46,1.06-8.82,1.07-13.28,0-1.48-2.05-2.05-2.8-.76-1.26,2.19-3.09,3.97-4.38,6.14-1.15,1.93-1.8,4.23-3.37,5.89l2.51,1.46c.77-4.54,1.36-9.11,3.11-13.4.61-1.49-1.51-2.38-2.51-1.46-4.07,3.74-6.32,8.82-9.8,13.04l2.51.66c-.69-1.94-.24-4.26.19-6.21.47-2.07,1.1-4.25,2.31-6.02,1.01-1.48-1.14-2.88-2.36-1.82-3.65,3.19-5.65,7.59-8.58,11.37l2.51,1.46c.61-1.92.69-3.97,1.36-5.88.62-1.75,1.66-3.34,1.95-5.2.18-1.16-1.01-2.51-2.2-1.69-2.76,1.87-4.58,4.73-7.18,6.78-1.52,1.19.62,3.3,2.12,2.12h0Z"/><path d="m192.83,112.22c-1.06,1.72-2.46,3.13-4.02,3.87-3.65,1.74-7.58,1.01-9.56-2.85-1.57-3.05-.46-7.55,1.22-10.23.13-.21.24-.42.34-.64.97-2,3.06-2.61,4.33-3.27,1.61-.83,3.48-1.09,5.2-.5,5.76,2.01,5.37,8.95,2.49,13.62Z"/><path d="m67.25,98.79c.46-3.97,4.28-5.99,8.23-6.11,3.56-.11,7.13,2.43,8.43,5.62,1.28,3.14-.06,7.06-2.02,9.65-2.26,2.99-6.79,2.9-9.87,1.34-3.29-1.67-4.67-5.95-4.8-9.39-.01-.39,0-.76.04-1.11Z"/></g></svg>