<?xml version="1.0" encoding="UTF-8"?><svg id="Livello_2" xmlns="http://www.w3.org/2000/svg" viewBox="0 0 504.48 586.7"><g id="Livello_1-2"><path d="m269.87,404.22c.26-3.84,1.88-7.41,3.02-11.04,1.04-3.32,1.49-6.6,1.57-10.08.17-7.57-.38-15.19-1.51-22.68-1.22-8.06-4.25-15.67-5.87-23.63-1.73-8.48.54-17.04-.48-25.56-.29-2.42-3.15-4.16-5.12-2.12-3.4,3.51-6.15,7.6-9.7,10.95s-8.38,6.52-12.82,8.94c-8.65,4.7-19.56,5.92-29.22,6.65-10.15.77-20.34.64-30.52.73-10.1.09-21.22,1.37-30.7-2.93-9.03-4.09-9-13.79-11.95-22.01-.59-1.65-2.72-3.02-4.41-1.79-5.68,4.12-8.85,10.67-11.34,17.05-2.82,7.24-4.49,14.83-5.83,22.47-1.7,9.72-1.78,19.27-2.23,29.07-.45,9.76-1.55,19.55.31,29.24.83,4.31,2.13,8.38,4.76,11.93,2.28,3.08,5.09,5.88,5.16,9.95.09,4.88-2.64,9.52-5.3,13.43s-5.92,7.45-9.28,10.81c-14.05,14.04-28.97,27.59-44.58,39.86-8.21,6.45-16.74,13.08-26.66,16.68-9.35,3.39-19.2,4.21-29.08,4.08-1.69-.02-2.91,1.4-3,3-.12,2.12-.11,4.21.04,6.33.1,1.47.89,2.36,2.2,2.89,2.18.89,4.4,1.5,6.7,1.98v-5.79c-5.74,1.27-15.93,6.49-13.74,13.81s12,2.03,16.21,0l-3.64-4.71c-4.11,5.09-8.9,11.3-3.82,17.43.7.85,1.92.96,2.92.77,5.2-.98,8.76-5.01,12.06-8.82,3.66-4.24,7.55-8.62,11.89-12.19,4.83-3.97,11.16-5.99,16.88-8.34,6.02-2.48,12.06-4.9,18.03-7.52s11.87-5.36,17.43-8.71,10.17-8.25,15.96-11.38c5.85-3.16,12.24-5.11,18.34-7.68s11.9-5.56,17.83-8.4c9.08-4.34,18.62-9.1,28.9-9.32,3.57-.08,8.35.19,10.85,3.16s.91,7.06-.21,10.15c-2.86,7.92-7.86,16.13-14.17,21.76-8.95,8-20.4,13.14-30.51,19.48-13.18,8.26-26.27,17.01-41.24,21.7-7.16,2.24-14.03,3.22-21.51,2.9-6.99-.3-13.81-.42-20.2,2.82-.88.45-1.55,1.6-1.49,2.59.43,6.38,9.48,12.48,15.61,11.11l-2.92-5.01c-3.03,3.65-6.49,6.7-10.61,9.06-.84.48-1.6,1.58-1.49,2.59.5,4.36,3.49,6.55,7.82,5.81,3.42-.59,6.82-3.1,10.01-3.49l-2.89-3.8c-1.49,5.21-4.45,9.75-4.75,15.28-.09,1.61,1.45,3.01,3,3,10.77-.08,15.63-8.82,21.63-16.27,3.56-4.42,7.87-7.49,13.2-9.44s10.65-2.99,15.42-5.72c2.55-1.46,4.84-3.35,7.43-4.75,2.79-1.51,5.95-2,9.02-2.62,6.41-1.3,12.53-3.81,18.43-6.6,12.04-5.7,22.95-13.3,33.33-21.58,10.44-8.34,20.31-17.38,30.77-25.69s22.09-15.09,33.71-21.63,23.92-13.23,35.67-20.21c11.83-7.03,24.13-14.14,34.95-22.69,4.52-3.57,9.27-6.78,13.94-10.16,5.23-3.78,10.06-8.03,14.95-12.23,9.73-8.35,19.81-16.12,28.58-25.52,4.19-4.49,8.09-9.24,11.7-14.2,3.95-5.45,7.24-11.31,10.91-16.94s8.07-11.2,11.53-17.2,5.84-12.09,7.73-18.55c3.71-12.67,5.53-25.82,9.92-38.31,2.14-6.1,5.17-11.8,7.47-17.83,2.02-5.29,4.78-10.44,10.25-12.83,2.31-1.01,4.87-1.23,7.02.26,2.71,1.89,3.34,4.97,4.32,7.89.87,2.61,2.55,5.08,3.07,7.8.6,3.13-.53,6.23.36,9.4.8,2.87,2.47,5.45,3.63,8.17,1.44,3.36,1.77,6.86,1.68,10.49-.09,3.38-.51,6.73-.64,10.11-.13,3.66.18,7.29.47,10.93.26,3.26.51,6.52.36,9.79-.17,3.73-1.16,7.38-1.82,11.05-1.24,6.9-2.06,14.01-4.15,20.72-1.9,6.11-5.03,11.75-7.38,17.68-2.62,6.62-5.14,13.28-7.68,19.92-2.06,5.4-4.16,11.04-8.23,15.28-2.18,2.27-4.8,4.1-7.12,6.22s-5.01,4.5-5.9,7.49c-.99,3.37,1.48,5.74,4.67,6.05,5.25.51,8.42-2.86,12.25-5.82l-4.71-3.64c-2.27,3.79-8.62,7.61-5.84,12.81,2.88,5.38,9.81,1.48,13.17-1.13l-5.01-2.92c-.45,2.98-1.97,6.67-.28,9.51,2.28,3.83,7.85,2.27,10.86.33,4.26-2.76,7.24-7.28,10.66-10.95,3.75-4.02,6.38-8.89,8.6-13.88s4.23-10.39,6.59-15.49c2.69-5.82,5.25-11.71,7.27-17.79,4.23-12.72,5.28-26.35,7.7-39.49,5.11-27.76,11.54-55.38,14.34-83.5,2.66-26.82.69-54.96-7.13-80.84-3.26-10.79-8.62-20.3-15.92-28.86-4.13-4.85-8.42-9.55-13.3-13.66-2.4-2.03-4.89-4-7.56-5.67s-5.71-2.71-8.72-3.82c-5.67-2.09-10.31-5.83-13.11-11.25-3.12-6.04-3.37-13.34-4.39-19.94-1.03-6.66-2.25-13.32-4.48-19.7-2.09-5.99-4.87-11.82-7.73-17.48-5.43-10.74-12.18-21.64-21.06-29.88-8.4-7.8-18.76-13.02-29.84-15.77-13.05-3.23-26.42-7.05-40-5.93-11.62.96-23.74,2.86-34.29,8.06-5.29,2.61-10.06,6.36-14.8,9.85s-9.76,7.44-14.26,11.61c-9.01,8.34-15.84,17.93-20.19,29.43-4.08,10.78-6.87,22.32-9.13,33.61-2.1,10.48-3.61,21.82-9.52,30.98s-15.38,17.19-25.58,19.92c-5.92,1.58-11.34.57-17.29-.12s-11.01,1.37-15.58,4.96c-8.29,6.51-10.91,18.81-4.1,27.47,3.23,4.11,8.74,6.72,13.98,6.46,5.92-.29,11.77-3.21,17.22-5.31,5.76-2.22,11.55-4.65,16.6-8.27,4.67-3.35,8.61-7.48,12.43-11.75,4.3-4.81,8.01-10.08,12.03-15.12,3.74-4.68,8.08-8.82,11.42-13.83s5.25-10.21,7.24-15.67c2.39-6.59,5.3-12.97,7.99-19.44,2.43-5.84,4.18-12.05,7.29-17.59,3.23-5.74,8.3-10.29,12.89-14.92s8.42-9.08,12.31-13.96c3.55-4.45,7.32-9.46,12.25-12.46,8.22-5.01,19.49-4.38,28.63-3.04,20.09,2.95,45.1,12.27,52.58,33,3.63,10.07,4.82,22.33,3.43,32.95-1.2,9.18-7.26,16.15-15.87,19.29-5.07,1.85-10.62,2.52-15.9,3.52-6.17,1.17-11.97-.35-17.48,3.49-2.27,1.58-4.29,3.49-6.56,5.08-2.39,1.67-4.58,3.44-6.58,5.58-3.93,4.21-7.92,8.44-11.67,12.81-8.45,9.86-11.63,22.07-13.61,34.68s-2.48,26.43-3.52,39.67c-1.06,13.52-3,26.8-7.99,39.48-4.6,11.67-10.67,22.74-15.83,34.17-4.5,9.96-9.19,20.41-17.54,27.78-2.9,2.56,1.35,6.79,4.24,4.24,8.28-7.3,13.25-17.47,17.74-27.36,5.05-11.11,10.74-21.96,15.51-33.19,5.02-11.79,7.71-23.88,9.09-36.6,1.4-12.94,1.67-25.98,3.08-38.92,1.34-12.28,3.22-26.54,10.7-36.75,3.3-4.5,7.42-8.36,11.13-12.51,1.71-1.92,3.37-3.89,5.28-5.61,2.14-1.92,4.66-3.41,6.88-5.24s4.51-3.81,7.54-4.22,6.04.04,9.05-.41c5.36-.8,11.07-1.71,16.25-3.3,8.3-2.55,15.76-7.89,19.42-15.95,4.17-9.18,3.39-20.52,2.14-30.28-1.37-10.76-4.8-20.97-12.28-29.05s-17.07-13.01-27.04-16.69c-9.23-3.41-18.87-5.7-28.7-6.31-9.13-.57-19.6.16-27.15,5.9-4.58,3.48-8.23,7.94-11.79,12.41-3.89,4.9-7.96,9.52-12.38,13.95s-9.11,8.8-12.47,14.08c-3.11,4.9-4.92,10.49-6.96,15.88-2.38,6.27-5.22,12.37-7.74,18.59-2.3,5.68-3.97,11.6-7,16.95-2.82,4.98-6.69,8.88-10.36,13.21-4.06,4.79-7.6,10-11.64,14.81-3.66,4.35-7.55,8.74-11.99,12.31-4.81,3.86-10.51,6.43-16.22,8.65-2.9,1.13-5.83,2.21-8.75,3.28-2.72,1-5.64,2.2-8.6,2.01-5.51-.35-9.55-4.58-10.41-9.85-.91-5.55,1.29-10.24,5.71-13.61,1.99-1.52,4.41-3.01,6.9-3.47,3.17-.58,6.42.34,9.55.76,21.01,2.84,41.11-14.45,47.93-33.36,3.63-10.05,4.74-20.79,7.35-31.12,2.91-11.51,5.5-23.44,11.25-33.94,5.62-10.26,14.46-18.38,23.59-25.5,4.79-3.74,9.73-7.46,14.87-10.7,4.78-3.01,10.11-4.93,15.56-6.31,12.17-3.08,24.93-4.32,37.35-2.18,6.46,1.11,12.81,2.78,19.17,4.36,5.71,1.41,11.21,3.15,16.42,5.91,10.48,5.55,18.2,14.03,24.67,23.84,6.75,10.22,12.86,21.86,16.21,33.67,1.74,6.14,2.73,12.46,3.66,18.76.97,6.54,1.64,13.14,4.95,19.01,2.57,4.56,6.47,8.44,11.06,10.95,2.58,1.42,5.38,2.25,8.12,3.29,3.22,1.23,6.07,3.17,8.75,5.29,9.16,7.26,17.74,16.69,23.52,26.89s8.48,22.25,10.62,33.85c4.94,26.83,3.98,53.64-.25,80.49-4.31,27.33-10.82,54.27-14.87,81.65-1.89,12.79-5.73,24.39-11.16,36.11-4.43,9.56-7.22,20.45-14.61,28.28-3.03,3.22-5.86,8.25-10.03,10.08-.58.26-1.72.21-2.16.58,1.43-1.2-.04,2.38.79-.25.4-1.26.58-2.75.77-4.06.46-3.07-2.58-4.81-5.01-2.92-.9.7-2.09,1.42-3.17,1.78-.27.1-.55.18-.84.25-.65-.03-.51.24.43.81.06-.01.59-1.01.56-.96,1.72-1.96,3.77-4.04,5.12-6.28,1.89-3.15-2.19-5.59-4.71-3.64-1.87,1.44-3.7,3.71-6.13,4.09-.04,0-1.88-.02-1.85-.08.21-.46,1.11,1.66,1.06,1.62.22.21-.2.16.07-.07.85-.72,1.57-2.12,2.39-2.95,1.22-1.24,2.52-2.4,3.84-3.53,2.88-2.46,5.68-4.74,7.94-7.85,3.42-4.71,5.37-10.28,7.44-15.67,2.53-6.6,4.97-13.27,7.65-19.81,2.36-5.75,5.36-11.24,7.15-17.22,1.97-6.57,2.79-13.5,4-20.24s2.34-13.2,1.84-20.25-.56-13.59-.13-20.55c.43-6.9-.61-12.66-3.64-18.86-.64-1.31-1.37-2.65-1.76-4.06-.44-1.64-.19-3.2-.09-4.87.19-3.02-.46-5.53-1.65-8.29-2.28-5.28-3.18-11.31-8.04-14.98-9.6-7.24-21.26,2.63-25.14,11.47-5.02,11.44-9.98,22.89-12.99,35.06-3.2,12.94-5.08,26.58-11.16,38.6-3.05,6.04-6.97,11.52-10.89,17.01-4.01,5.63-7.34,11.69-11.18,17.43-6.94,10.36-15.56,19.52-24.85,27.79-4.72,4.2-9.69,8.08-14.52,12.14-5.13,4.31-10.06,8.88-15.47,12.85-10.02,7.34-20.03,14.72-30.45,21.49-11.79,7.65-23.91,14.79-36.16,21.68-11.51,6.48-23.18,12.67-34.41,19.63-11.06,6.85-21.12,14.78-31.01,23.2s-20.43,17.64-31.58,25.24-23.05,14.43-35.95,17.1c-2.72.56-5.48,1.01-8.09,2.02-2.89,1.11-5.35,2.87-7.91,4.57-4.79,3.18-10.2,4.44-15.55,6.32s-10.04,4.34-13.97,8.27c-3.41,3.41-5.89,7.58-8.96,11.28s-6.26,6.2-11.08,6.24l3,3c.27-4.83,3.23-9.11,4.54-13.68.49-1.7-.93-4.03-2.89-3.8-2.56.31-4.8,1.41-7.18,2.34-1.23.48-2.6,1.12-3.91,1.26-.32.04-.88-.05-1.14.06.37-.16.48.68.4.01l-1.49,2.59c4.53-2.6,8.49-5.99,11.82-10,1.89-2.28.14-5.7-2.92-5.01-2.06.46-7.87-3.09-8.02-5.32l-1.49,2.59c6.07-3.08,13.04-2.11,19.59-1.91,6.9.21,13.6-1.03,20.18-3.05,13.74-4.22,26.03-11.66,38.12-19.28,5.94-3.75,11.91-7.43,18-10.94,5.3-3.05,10.59-6.15,15.44-9.9,7.68-5.93,13.24-14,17.25-22.78,3.47-7.59,6.27-17.73-2.58-22.82-7.24-4.16-17.49-2.74-25.08-.31-13.25,4.25-25.15,11.78-38.03,16.89-6.15,2.44-12.55,4.51-18.28,7.87-6.11,3.59-11.07,8.71-17.3,12.16-13.57,7.53-28.33,12.56-42.49,18.83-6.59,2.92-11.35,7.73-16.22,12.92-3.78,4.02-7.73,10.64-13.49,11.72l2.92.77c-2.16-2.61,2.29-7.05,3.82-8.95,2.13-2.64-.46-6.24-3.64-4.71-1.53.74-3.02,1.55-4.61,2.16-.83.32-1.67.53-2.53.77s-.62-.17-.33.43c-1.06-2.16,7.66-5.77,9.62-6.21,2.84-.63,2.89-5.19,0-5.79-2.3-.48-4.52-1.09-6.7-1.98l2.2,2.89c-.14-2.11-.15-4.21-.04-6.33l-3,3c8.73.11,17.54-.47,25.99-2.8s16.56-6.82,23.93-12.12c16.49-11.86,31.52-25.58,46.29-39.48,6.86-6.46,13.94-12.88,19.13-20.83,4.69-7.18,8.02-16.39,2.88-24.22-2.25-3.42-5.05-6.13-6.28-10.14-1.49-4.86-2.01-9.89-2.04-14.96-.03-5.11.38-10.2.66-15.3s.14-10.01.41-15.01c.53-9.92,2.24-20.01,5.01-29.55,2.04-7.03,4.88-16.45,11.11-20.98l-4.41-1.79c2.77,7.7,3.14,16.82,9.81,22.48,8.33,7.06,20.71,7.17,31.04,6.98,21.66-.4,45.14,1.63,65.78-6.24,5.69-2.17,10.8-5.81,15.63-9.46s8.36-9,12.67-13.45l-5.12-2.12c.98,8.22-1.03,16.46.24,24.67,1.27,8.2,4.5,15.94,5.99,24.09,1.35,7.41,1.78,15.12,1.64,22.65-.07,3.81-.75,7.19-1.98,10.79s-2.37,7.02-2.62,10.8,5.74,3.84,6,0h0Z"/><path d="m173.78,368.56c0,1.41-.35,2.83-1.26,3.93-1.16,1.39-3.04,2.19-4.72,2.88-3.8,1.57-7.74,2.23-11.82,2.06-7.99-.34-15.69-4.21-21.73-9.47l-1.32,5.01c3.57-.59,6.85-2.36,10.14-3.79,3.47-1.5,7.16-2.44,10.5-4.25,2.63-1.42,4.65-2.36,7.76-2.94,2.59-.48,5.44-.52,7.9.24.06.02.66.24.36.12-.22-.09.33.16.37.18.39.21.79.42,1.15.69.37.28,1.02.94,1.25,1.24.96,1.28,1.38,2.74,1.43,4.09.13,3.85,6.14,3.87,6,0s-1.89-7.63-5.04-10.06c-2.91-2.24-6.62-2.94-10.23-2.84s-6.93.81-10.12,2.13c-1.76.73-3.32,1.75-5.04,2.56s-3.62,1.42-5.44,2.09c-4.17,1.53-8.15,4.01-12.57,4.74-2.19.36-2.93,3.61-1.32,5.01,5.87,5.12,12.89,9.16,20.61,10.6s15.69.32,22.68-3.43c4.07-2.18,6.48-6.17,6.49-10.8,0-3.86-6-3.87-6,0Z"/><path d="m204.79,374.29c1.28,3.61,3.83,6.89,7.35,8.55,3.73,1.77,8.09,2.38,12.18,2.43s8.17-.42,11.88-1.82,7.04-3.71,10.2-6.19c2.84-2.22,6.37-5.11,7.1-8.86.39-1.97-1.38-4.64-3.69-3.69-.15.06-.82.21-.48.17s-.49-.03-.67-.04c-.07,0-.56-.07-.11,0-.16-.02-.32-.06-.48-.09-.45-.1-.9-.2-1.35-.32-1.68-.45-3.33-1.04-4.99-1.55-4.05-1.25-8.03-2.95-12.15-3.94-6.67-1.59-15.16-1.08-20.83,3.13-3.92,2.91-5.42,7.53-3.95,12.21,1.16,3.67,6.95,2.1,5.79-1.6-.11-.34-.2-.67-.28-1.01-.09-.4-.07-.23-.09-.74-.03-.79-.04-.91.21-1.72.33-1.07,1.34-2.01,2.31-2.61,2.39-1.49,5.4-2.19,8.18-2.37,3.35-.22,5.96.1,9.13,1.08,3.72,1.15,7.39,2.48,11.09,3.68,1.66.54,3.32,1.11,5.03,1.49s3.65.7,5.27.03l-3.69-3.69c-.02.12-.35,1.09-.13.59-.17.37-.39.73-.62,1.07-.3.44-.98,1.18-1.56,1.75-1.16,1.14-2.63,2.33-3.65,3.1-3.44,2.59-6.87,4.6-11.13,5.42-3.98.77-8.25.77-12.21-.12-3.54-.8-6.61-2.42-7.85-5.93-.54-1.53-2.05-2.55-3.69-2.1-1.48.41-2.64,2.16-2.1,3.69Z"/><path d="m152.59,379.5c2.71-1.78,3.55-5.34,4.52-8.23.56-1.66,1.21-3.27,1.76-4.93.64-1.93,1.32-3.82,2.48-5.5l-2.74-1.16c-.65,3.25-.85,6.74.38,9.89,1.07,2.74,3.22,5.36,3.22,8.41l1.9-1.45c-.91-.29-1.64-1.31-2.3-1.96-.93-.94-1.99-1.77-3.03-2.57-1.43-1.1-2.94-1.79-4.54-2.59-.72-.36-1.46-.73-2.1-1.22.06.05-.53-.47-.43-.4,0,0,.04.04.04.07,0-.19-.04.44-.04.4-.08.64-.07,0-.05.21.03.32-.23-.08-.04.09.03.02.59-.01.6-.01.48.03.96.14,1.43.22,1.34.22,2.61.08,3.96,0,1.55-.1,3.08-.16,4.62-.34,1.46-.17,3.07-.39,4.42.33l-.54-2.05c-1.12,2.54-4.35,3.68-6.66,4.85-1.52.77-3.11,1.48-4.47,2.52-1.24.95-2.27,2.56-3.78,3.09l1.85,1.05c.04.15-.04.15.04-.08.02-.05.1-.25.2-.43.27-.47.6-.91.94-1.33.82-1,1.72-1.92,2.51-2.95,2.01-2.62,1.74-6.11,3.32-8.9l-2.8-.76c.01,1.86-.41,3.73-.91,5.51-.45,1.59-1.06,3.65-2.24,4.65l2.36,1.82c1.43-2.83,2.98-5.63,3.79-8.72l-2.89-.8c-.36,1.88-.09,3.59.75,5.3.75,1.52,1.8,2.86,2.48,4.42l2.36-1.82c-1.59-1.46-3.43-2.77-4.55-4.65l-2.36,1.82c.81.75,1.4,1.68,2.15,2.48,1.15,1.23,3.31-.39,2.36-1.82-1.01-1.51-2.33-2.64-3.99-3.37s-3.28-1.11-4.88-1.77l-.4,2.95c3.98.08,7.93.63,11.87-.23l-1.46-2.51c-.65.58-1.37,1.08-2,1.68-.86.81-.37,2.17.66,2.51,1.79.59,3.47-.58,4.73-1.74.77-.71.46-2.34-.66-2.51-1.02-.15-1.82-.14-2.73.36-1.45.8-.44,3.4,1.16,2.74.97-.4,1.88-.94,2.85-1.34l-1.46-2.51c-.19.19-.35.38-.52.59-.66.83-.54,2.23.66,2.51.86.2,1.75.09,2.27-.72,1.04-1.63-1.55-3.14-2.59-1.51l-.03.05,1.3-.74c-.13.02-.48-.05-.14.03l.66,2.51c.17-.21.33-.4.52-.59,1-.97-.02-3.1-1.46-2.51-.97.4-1.88.94-2.85,1.34l1.16,2.74c.26-.14.17-.1.42-.06l-.66-2.51c-.31.29-.63.56-1,.77-.12.07-.25.15-.39.2-.35.11-.09.11-.42,0l.66,2.51c.63-.6,1.35-1.1,2-1.68,1.19-1.05-.1-2.8-1.46-2.51-3.64.79-7.39.19-11.07.12-.74-.01-1.39.58-1.47,1.3-.09.8.36,1.35,1.07,1.65,2.49,1.02,5.47,1.36,7.08,3.76l2.36-1.82c-.75-.8-1.34-1.73-2.15-2.48-1.22-1.13-3.25.31-2.36,1.82,1.27,2.13,3.23,3.61,5.02,5.26,1.32,1.21,3.02-.3,2.36-1.82-1.05-2.38-3.46-4.61-2.93-7.41.35-1.87-2.4-2.69-2.89-.8-.74,2.84-2.17,5.4-3.49,8-.78,1.55,1.05,2.93,2.36,1.82,1.61-1.37,2.37-3.79,2.94-5.74.61-2.09,1.1-4.35,1.08-6.54-.01-1.47-2.05-2.07-2.8-.76-1.62,2.86-1.41,6.64-3.52,9.12-1.52,1.78-4.45,4.23-3.8,6.88.18.75,1.09,1.31,1.85,1.05,1.83-.64,2.98-2.04,4.39-3.29s3.17-1.92,4.77-2.73c2.73-1.37,6.22-2.85,7.54-5.83.32-.72.24-1.64-.54-2.05-3.04-1.6-6.48-.53-9.72-.44-1.5.04-2.99.33-4.47.07-1.29-.23-2.77-.51-3.96.22-.93.57-1.45,1.62-1.15,2.7.26.93,1.08,1.59,1.83,2.12,1.48,1.04,3.2,1.61,4.75,2.5,1.47.84,2.86,2.01,4.07,3.19s2.21,2.41,3.8,2.91c.94.3,1.9-.5,1.9-1.45,0-3.1-1.68-5.77-2.99-8.47-1.37-2.84-1.33-5.99-.72-9.03.34-1.69-1.76-2.57-2.74-1.16-1.09,1.58-1.8,3.38-2.43,5.18s-1.21,3.44-1.83,5.16c-.5,1.37-.89,2.78-1.42,4.13-.43,1.08-.98,2.45-2,3.11-1.61,1.05-.11,3.65,1.51,2.59h0Z"/><path d="m165.37,371.69c3.86,0,3.87-6,0-6s-3.87,6,0,6h0Z"/><path d="m163.65,367.51s.26-.28.09-.11c-.03.03-.06.06-.08.09-.07.07-.15.14-.22.2-.19.18.24-.16.01-.01-.11.07-.21.14-.32.21-.41.25-.84.45-1.27.66-.83.4-1.75.78-2.4,1.46-1.57,1.66-.25,4.01.76,5.58.41.65.87,1.27,1.32,1.89s1.33,1.01,2.05.54c.63-.4,1.03-1.37.54-2.05-.35-.48-.7-.96-1.03-1.45-.23-.35-.46-.71-.67-1.07-.11-.18-.21-.37-.31-.56-.04-.09-.09-.17-.13-.26-.03-.06-.05-.11-.08-.17-.09-.19.03.05.04.11-.03-.17-.13-.35-.18-.52-.02-.07-.04-.15-.06-.22-.08-.29,0,.28,0,.09,0-.08.02-.35-.02-.05s0,.07.02,0c.02-.07-.17.37-.04.15.08-.14-.25.25-.11.15.03-.03.07-.07.1-.1.04-.04.25-.22.05-.05s.07-.04.12-.07c.17-.11.34-.2.51-.29.4-.21.82-.4,1.23-.6,1.03-.5,2.01-1.07,2.68-2.02.46-.64.13-1.7-.54-2.05-.77-.41-1.56-.15-2.05.54h0Z"/><path d="m219.1,378.66c-.1.02-.21.05-.31.06.17-.02.17-.03,0-.02-.18,0-.15,0,.09.03-.16-.05-.12-.02.12.06.23.16.31.33.42.56-.04-.15-.03-.1.01.16,0-.06,0-.12,0-.18-.04.24-.04.27,0,.1.02-.07.04-.15.06-.22.04-.12.08-.24.12-.35-.11.3.11-.23.14-.29.09-.19.19-.37.29-.55.77-1.38,1.72-2.65,2.67-3.92s1.61-2.68,2.1-4.26c.67-2.13,1.03-4.89,2.73-6.49h-2.12c.84.9,1.11,2.27,1.39,3.43.31,1.29.53,2.63,1.03,3.87.9,2.24,2.65,4.26,3.09,6.67,0-.05.05.5.04.25.01.39-.19.22.08.06.13-.07.2-.13.34-.17-.25.08.08,0,.1-.01.23-.11.09.18.07,0,0,0-.38-.14-.19-.06-.61-.25-1.42-.99-2.04-1.56-.67-.62-1.3-1.27-1.96-1.9-1.02-.97-2.24-1.75-3.4-2.53-1.48-.99-2.97-1.97-4.41-3.02-.36-.26-.84-.83-1.22-1-.25-.11-.36.3-.27.53-.02-.06-.08.06-.11.03-.07-.08.56.11.45.08,1.28.33,2.41,1.08,3.72,1.39,1.88.45,3.83.56,5.75.57,2.02.01,4.35-.42,6.28.14.26.08.28.08.43.18.12.07.17.14.13.08.09.15.03.18.06.11.04-.11.05-.19.1-.3-.1.21.04,0,.03-.03-.06-.3.24.07,0,0-.05-.02-.2.1-.02.03-.2.07-.4.13-.61.18-.47.11-.82.14-1.35.18-1.1.07-2.21.03-3.31.11-1.47.12-2.89.69-4.11,1.51-1.42.95-2.61,2.17-3.8,3.39-.59.61-1.18,1.22-1.82,1.77-.18.15-.33.28-.51.4-.07.05-.22.11-.27.17l-.13.07c.3-.16.62-.14.97.06l.54.54c.32.45,0,.84.24.17.1-.27.23-.53.41-.77.31-.42.74-.77,1.12-1.14.94-.91,1.82-1.92,2.08-3.25.37-1.89-2.27-2.64-2.89-.8l-.04.06,2.74,1.16c.28-1.56.69-3.1,1.22-4.6.49-1.36,1.09-2.83,2.17-3.83l-2.36-.3c.95,1.82,1.27,3.92,1.82,5.87.6,2.12,2.06,4.13,2.22,6.35l2.26-1.3c-2.53-1.81-4.45-4.35-7.01-6.12-.96-.67-2.02-1.2-3.01-1.81-.66-.41-1.87-1.13-2.09-1.69l-1.05,1.85c.73-.19,2.02.77,2.69,1.03,1,.4,2.01.68,3.06.88l-.36-2.74c-.05.02-.25.09-.34.12-1.12.38-1.59,2.14-.36,2.74,2.52,1.23,4.29-.83,4.51-3.24.13-1.47-2.15-2.06-2.8-.76-.9,1.82-.79,3.55-.15,5.43.33.97,1.3,1.33,2.2.9,2.2-1.06,2.24-3.97.84-5.67-.4-.49-1.3-.57-1.82-.23-1.86,1.19-2.96,4.3-1.53,6.21.44.59,1.35,1.07,2.05.54,1.77-1.35,1.88-3.5.06-4.87-.68-.51-1.64-.07-2.05.54-.74,1.09-.75,2.28.04,3.35l2.05-2.05c-2.79-1.33-4.41,1.94-5.57,3.91-.67,1.14.43,2.54,1.69,2.2,1.59-.42,2.47-1.67,3.42-2.91.1-.13.19-.25.43-.49.09-.09.07-.1.09-.08l.1-.06c-.09.07-.2.1-.32.09.26-.04-.06.06-.13-.06.02.04.27.15.28.16.4.33.74.76,1.05,1.16l1.82-2.36c-.19-.13-.5-.36-.61-.49-.16-.19-.02-.16-.08.15-.05.24-.07,0-.04.09.01.04.1-.04-.02.03.25-.15.35-.2.5-.25.94-.31,2.05-.31,2.72.11l1.16-2.74c-1.22-.26-2.48-.35-3.57.37-1.15.77-.83,2.89.76,2.8,1.46-.09,2.8-.21,4.23.17.86.22,1.53-.29,1.85-1.05,1.33-3.17-3.77-4.37-5.89-3.52-.75.3-1.28,1-1.05,1.85.2.71,1.09,1.35,1.85,1.05.42-.17,1.01-.18,1.57-.08.31.05.73.24.84.24.29.01-.01.11-.04-.09-.06-.36.05-.74-.16-.25l1.85-1.05c-1.69-.44-3.3-.38-5.03-.27l.76,2.8c.41-.27.79-.17,1.25-.07,1.65.35,2.63-1.82,1.16-2.74-1.73-1.09-4.39-.96-6.13.06-.89.52-1.58,1.43-1.53,2.5.06,1.35,1.12,2.27,2.15,2.97.61.42,1.52.17,1.94-.39.48-.65.36-1.36-.12-1.97-1.28-1.63-3.25-2.99-5.14-1.39-.59.5-1,1.18-1.48,1.79-.33.42-.79.89-1.24,1.01l1.69,2.2c.36-.61.69-1.24,1.08-1.83.18-.27.39-.5.59-.75.3-.39.25-.03-.21-.25,1.2.57,3.03-.72,2.05-2.05-.29-.4-.3.06-.04-.32l-2.05.54c-.2-.15-.07-.3-.06-.31l2.05.54c-.42-.56-.15-1.72.46-2.11l-1.82-.23c.28.34.1.8-.23.96l2.2.9c-.36-1.07-.68-2.05-.15-3.12l-2.8-.76c-.02.2-.19.44-.19.62,0-.17-.05.15-.08.11-.06-.08.62.08.28-.09l-.36,2.74c.36-.12.71-.27,1.06-.43,1.14-.53.87-2.52-.36-2.74s-2.38-.53-3.46-1.06c-1.25-.61-2.46-1.22-3.88-.84-.72.19-1.35,1.1-1.05,1.85,1,2.51,3.82,3.62,5.97,4.96,1.19.74,2.24,1.81,3.31,2.83,1.35,1.28,2.7,2.54,4.22,3.62.9.64,2.34-.21,2.26-1.3-.19-2.58-1.64-4.71-2.33-7.15-.63-2.22-1.05-4.52-2.12-6.59-.46-.89-1.68-.93-2.36-.3-1.33,1.24-2.11,2.98-2.75,4.65s-1.09,3.37-1.41,5.1c-.29,1.6,1.85,2.72,2.74,1.16.14-.25.25-.51.34-.78l-2.89-.8c-.31,1.61-2.18,2.5-3.01,3.85s-1.49,4.25.94,4.24c1.5,0,2.9-1.62,3.87-2.59,1.4-1.4,2.72-2.98,4.48-3.95.38-.21.76-.38,1.17-.5.2-.06.4-.11.61-.16.21-.05-.41.03-.01,0,.59-.05,1.19-.05,1.78-.06,1.4-.03,2.93-.01,4.26-.47,1.44-.49,2.48-1.65,2.15-3.25s-1.66-2.42-3.1-2.75-2.91-.27-4.36-.2c-1.97.1-4,.11-5.96-.16-1.03-.14-2.21-.42-2.99-.78s-1.64-.81-2.53-.97c-1.89-.34-4.06,1.09-3.34,3.23.59,1.76,2.88,2.96,4.32,3.95,1.76,1.21,3.72,2.27,5.31,3.7,1.74,1.55,3.5,4.04,5.92,4.5,1.82.34,3-1.21,2.95-2.91-.05-1.94-1.18-3.83-2.08-5.5s-1.45-2.93-1.89-4.84c-.47-2.08-.93-4.31-2.43-5.92-.57-.6-1.55-.54-2.12,0-1.67,1.57-2.35,3.92-2.98,6.06-.47,1.59-.84,3.3-1.84,4.66-.78,1.05-1.57,2.09-2.3,3.18-.77,1.17-1.64,2.49-1.82,3.9-.28,2.14,1.62,2.9,3.42,2.51s1.09-3.31-.8-2.89h0Z"/><path d="m230.29,373.97c-1.06-.83-1.76-1.98-2.69-2.94-.71-.74-1.58-1.27-2.43-1.82-.78-.5-1.55-1-2.33-1.48-.58-.36-1.35-.98-2.07-.96-.78.02-1.54.68-1.5,1.5s.66,1.52,1.5,1.5c-.22,0-.55-.1-.66-.17.04.02.08.04.12.07.11.06.21.12.32.18.31.18.62.38.92.57.75.47,1.5.96,2.25,1.44.26.17.52.33.78.5.1.06.2.13.3.19.14.1.14.1.01,0,.05.04.1.08.15.12.24.21.47.44.68.68.84.93,1.52,1.98,2.51,2.75.62.48,1.53.65,2.12,0,.49-.54.66-1.61,0-2.12h0Z"/><path d="m219.62,381.62c1.48-.9,2.81-2.1,3.95-3.39s2.25-2.73,2.93-4.34c.16-.39.27-.73.15-1.16-.1-.35-.36-.73-.69-.9-.64-.34-1.73-.23-2.05.54-.29.68-.66,1.33-1.07,1.95-.12.18-.25.36-.38.54-.05.08-.11.15-.17.23-.1.14-.12.16,0,.01-.25.35-.55.68-.84,1.01-.55.62-1.14,1.2-1.76,1.75-.15.13-.3.26-.45.38-.08.07-.16.14-.25.2.14-.09.18-.14.02-.02-.3.22-.6.42-.91.61-.67.41-.98,1.36-.54,2.05s1.33.97,2.05.54h0Z"/><path d="m205.81,383.1c.05-.07.1-.13.15-.2l-.47.61c1.46-1.86,3.4-3.29,5.11-4.91l-.61.47.03-.02-.72.3h.02c-.53,0-1.06,0-1.6,0h.01c-.7-.7-1.4-1.39-2.1-2.09h0c-.04-.26-.07-.52-.11-.79v.02c.03-.27.07-.53.11-.8,0,.02-.01.05-.02.07l.3-.72s-.03.05-.04.08l.47-.61h0c1.41,0,2.83,0,4.24,0h0c.26.97.51,1.94.77,2.92,0-.04.03-.09.05-.13.13-.4.14-.8.05-1.2-.02-.4-.14-.77-.36-1.12-.36-.62-1.08-1.22-1.79-1.38-.77-.17-1.63-.14-2.31.3l-.61.47c-.37.37-.63.82-.77,1.32-.02.04-.04.08-.05.13-.14.53-.14,1.06,0,1.6.14.51.4.95.77,1.32h0c.27.29.59.5.97.62.36.19.74.27,1.16.26.8-.04,1.55-.3,2.12-.88.77-.77,1.19-2.04.84-3.1-.24-.74-.69-1.39-1.38-1.79-.6-.35-1.24-.45-1.92-.36-.49.07-.66.08-1.16.38-.3.18-.5.37-.73.59-.59.55-1.2,1.08-1.81,1.62s-1.24,1.1-1.83,1.69c-.72.71-1.36,1.48-1.96,2.29-.22.34-.34.72-.36,1.12-.09.4-.07.8.05,1.2.19.7.73,1.45,1.38,1.79.7.37,1.54.55,2.31.3l.72-.3c.45-.27.81-.63,1.08-1.08h0Z"/><path d="m214.64,389c1.74-2.23,4.09-4.04,5-6.82.23-.72.07-1.67-.3-2.31s-1.08-1.22-1.79-1.38c-.77-.17-1.63-.14-2.31.3s-1.13,1.02-1.38,1.79c-.04.11-.08.22-.12.33l.3-.72c-.25.58-.61,1.11-1,1.61l.47-.61c-.97,1.24-2.14,2.31-3.11,3.55-.29.27-.5.59-.62.97-.19.36-.27.74-.26,1.16,0,.74.33,1.61.88,2.12s1.32.91,2.12.88c.74-.03,1.64-.27,2.12-.88h0Z"/><path d="m225.69,387.26s-.03-.05-.04-.08l.3.72c-.08-.19-.12-.38-.15-.58l.11.8c-.11-.82-.02-1.66.09-2.47l-.11.8c.13-.94.31-1.87.52-2.8.17-.79.11-1.6-.3-2.31-.36-.62-1.08-1.22-1.79-1.38-.77-.17-1.63-.14-2.31.3-.64.41-1.21,1.03-1.38,1.79-.27,1.23-.48,2.46-.64,3.71-.07.59-.13,1.19-.12,1.78.02.99.2,1.87.64,2.75.32.65,1.11,1.19,1.79,1.38.72.2,1.67.11,2.31-.3s1.2-1.03,1.38-1.79c.19-.82.07-1.56-.3-2.31h0Z"/><path d="m236.98,386.5c-.59-2-.95-4.07-1.27-6.13-.11-.69-.8-1.45-1.38-1.79-.64-.38-1.59-.54-2.31-.3s-1.43.68-1.79,1.38l-.3.72c-.14.53-.14,1.06,0,1.6.32,2.06.67,4.13,1.27,6.13.22.73.71,1.4,1.38,1.79s1.59.54,2.31.3,1.43-.68,1.79-1.38.54-1.53.3-2.31h0Z"/><path d="m246.36,379.89c-.05-.05-.1-.11-.15-.17l.47.61c-.33-.43-.59-.91-.85-1.39-.33-.61-.63-1.23-.9-1.87l.3.72c-.17-.4-.33-.81-.43-1.23-.19-.72-.74-1.42-1.38-1.79s-1.59-.54-2.31-.3-1.43.68-1.79,1.38-.51,1.51-.3,2.31c.14.55.37,1.07.58,1.59.25.6.51,1.19.81,1.77.22.42.44.84.69,1.25.29.48.62.97,1.01,1.37.53.55,1.37.88,2.12.88s1.61-.33,2.12-.88.91-1.32.88-2.12-.31-1.53-.88-2.12h0Z"/><path d="m138.12,382.91c1.49-.91,2.65-2.24,4.02-3.3l-.61.47c.4-.3.81-.58,1.27-.79l-.72.3c.19-.08.39-.14.6-.19.71-.14,1.44-.78,1.79-1.38.38-.64.54-1.59.3-2.31s-.68-1.43-1.38-1.79l-.72-.3c-.53-.14-1.06-.14-1.6,0-.21.04-.4.11-.6.19-.43.18-.86.34-1.26.58-.63.38-1.2.85-1.76,1.32-.8.67-1.54,1.42-2.37,2.06l.61-.47c-.2.15-.4.3-.62.43-.65.4-1.17,1.05-1.38,1.79s-.11,1.67.3,2.31,1.03,1.2,1.79,1.38,1.61.13,2.31-.3h0Z"/><path d="m147.02,387.12c.41-.93.89-1.84,1.39-2.72s1.04-1.78,1.67-2.59l-.47.61c.17-.21.34-.42.54-.6.55-.52.88-1.38.88-2.12s-.33-1.61-.88-2.12-1.32-.91-2.12-.88-1.52.32-2.12.88c-.51.48-.92,1.08-1.33,1.65-.36.51-.69,1.04-1.01,1.57-.63,1.07-1.23,2.17-1.73,3.31-.22.34-.34.72-.36,1.12-.09.4-.07.8.05,1.2.19.7.73,1.45,1.38,1.79.7.37,1.54.55,2.31.3.7-.22,1.48-.68,1.79-1.38h0Z"/><path d="m157.79,388.99c-.02-.43.02-.85.08-1.27l-.11.8c.28-2.09.85-4.25,1.67-6.2l-.3.72c.05-.12.1-.23.16-.35.36-.73.52-1.51.3-2.31-.19-.7-.73-1.45-1.38-1.79-1.36-.72-3.36-.42-4.1,1.08-.69,1.39-1.15,2.91-1.54,4.41-.2.76-.38,1.54-.51,2.32-.14.85-.3,1.74-.26,2.61.04.79.31,1.55.88,2.12.52.52,1.37.91,2.12.88,1.56-.07,3.08-1.32,3-3h0Z"/><path d="m167.84,386.71c-.53-2.46-.62-5.02-1.48-7.4-.27-.75-.68-1.38-1.38-1.79-.64-.38-1.59-.54-2.31-.3s-1.43.68-1.79,1.38-.57,1.56-.3,2.31c.86,2.38.95,4.94,1.48,7.4.15.71.76,1.43,1.38,1.79s1.59.54,2.31.3c1.62-.52,2.45-2.04,2.1-3.69h0Z"/><path d="m172.97,381.79s-.05.06-.09.08l.61-.47-.03.02,1.51-.41h-.03c.5.14,1.01.27,1.51.41h-.02c.36.35.72.71,1.08,1.06l-.02-.02.3.72c-.1-.25-.11-.53-.2-.78-.13-.35-.27-.7-.4-1.06-.3-.85-.64-1.68-1.04-2.48-.52-1.02-1.11-2-1.65-3.01-.35-.65-1.09-1.19-1.79-1.38s-1.67-.11-2.31.3c-1.41.91-1.87,2.62-1.08,4.1.68,1.27,1.46,2.49,2.03,3.81l-.3-.72c.16.39.3.79.44,1.18.13.37.3.73.4,1.11.18.69.35,1.36.91,1.86.6.55,1.34.89,2.17.89s1.65-.38,2.24-.97c.54-.55.88-1.35.88-2.12s-.33-1.61-.88-2.12-1.32-.91-2.12-.88-1.55.3-2.12.88h0Z"/><path d="m171.66,415.78c3.02-.99,5.44-2.8,7.31-5.35,1.67-2.27,2.7-5,3.5-7.69h-5.79c.06.25.1.49.15.74-.04-.24-.04-.44-.03-.08.02.42.04.83.04,1.25,0,.72-.02,1.45.06,2.17.28,2.39,1.37,4.18,3.33,5.59,2.67,1.92,6.47,2.25,9.66,2.42,1.57.08,3.07-1.44,3-3-.08-1.7-1.32-2.91-3-3-.44-.02-.87-.06-1.31-.1-.31-.03-.63-.07-.94-.1-.37-.03.58.09-.01,0-.16-.03-.32-.05-.48-.08-.73-.12-1.46-.27-2.17-.47-.19-.05-.37-.12-.56-.17s-.61-.31,0,.02c-.32-.17-.62-.33-.92-.53-.41-.27.26.25-.06-.05-.15-.14-.29-.31-.44-.44.16.14.23.39.07.07-.05-.1-.27-.64-.13-.19.17.51-.12-.58-.12-.58.06.02.05.7.04.21,0-.17-.02-.34-.02-.51-.04-1.62,0-3.18-.38-4.77-.7-2.97-4.97-2.74-5.79,0-.18.62-.38,1.24-.6,1.85-.09.26-.18.51-.28.77-.02.05-.37.87-.11.28-.45,1.03-.98,2.03-1.62,2.95-.05.08-.57.7-.13.2-.16.19-.32.38-.49.57-.39.43-.82.83-1.27,1.19.41-.32-.03,0-.21.12-.22.14-.44.27-.66.39s-.46.24-.7.35c.59-.27-.44.14-.55.18-1.49.49-2.61,2.1-2.1,3.69.48,1.49,2.09,2.62,3.69,2.1h0Z"/><path d="m135.44,397.46c-1.32,5.46,4.24,9.23,8.86,10.37,4.17,1.03,8.79.76,12.65-1.21,1.83-.94,3.44-2.4,4.49-4.17,1.31-2.21,1.23-4.53-.45-6.51-1.29-1.52-3.18-2.4-4.98-3.14-1.22-.5-2.49-.94-3.79-1.2-3.04-.61-6.23-.92-9.29-.29-3.23.67-6.43,2.95-7.48,6.15-.5,1.54.59,3.28,2.1,3.69,1.63.45,3.18-.55,3.69-2.1.24-.74-.2.33.05-.1.08-.13.44-.53.1-.17.14-.15.28-.28.42-.42.43-.4.26-.21.15-.13.45-.33.99-.66,1.51-.87-.15.06-.39.11.14-.03.3-.08.61-.16.91-.24.55-.14.31-.07.16-.05.27-.04.55-.05.82-.07.5-.03,1-.03,1.49-.02.44.01.89.04,1.33.08.27.02.54.05.81.09.22.03.21.03,0,0,.15.02.31.05.46.07,1.11.18,2.18.43,3.24.79.33.11.65.23.98.35.13.05.27.11.4.16-.64-.24-.25-.11-.11-.04.66.31,1.29.63,1.9,1.02.11.07.22.16.33.23-.61-.41-.23-.19-.08-.04.17.17.74.86.17.11.46.59-.1-.5.04.06.1.38-.06-.84-.07-.28,0-.21.17-.74.17-.74.04.04-.39.71-.44.79-.08.13-.17.24-.25.37.38-.56.12-.14-.02,0-.23.23-.47.46-.71.7-.37.36,0,0,.09-.05-.18.13-.36.26-.55.38-.32.2-.66.37-.99.55-.12.07-.53.23.09-.02-.14.06-.29.11-.43.17-.75.27-1.52.44-2.3.61-.55.12-.03.01.08,0-.2.03-.4.05-.61.06-.37.03-.73.05-1.1.06-.82.02-1.63-.03-2.45-.13.11.01.63.12.08,0-.24-.05-.47-.09-.71-.14-.39-.08-.77-.18-1.15-.29s-.73-.24-1.1-.38c-.68-.24.35.23-.01,0-.18-.12-.4-.19-.6-.3-.35-.19-.67-.41-1.01-.61-.15-.09-.4-.35.1.1-.25-.22-.51-.42-.74-.66-.45-.45-.48-.44-.7-.98.26.64,0-.43.05.08.02.23.03.19.02-.11-.07.38-.07.4,0,.06.38-1.57-.5-3.25-2.1-3.69s-3.31.51-3.69,2.1Z"/><path d="m230.34,402.7c.04-.61.01-.2,0-.05-.09.73,0-.02,0,0,.02.09-.23.4,0,.08-.11.15-.27.3-.4.44-.37.37-.25.23-.13.14-.17.14-.38.26-.57.37-.46.27-.86.44-1.36.62-1.97.7-3.81.95-5.86.99-1.07.02-2.14,0-3.21-.06-.08,0-.3-.05-.39-.02-.31.08.71.16.37.05-.23-.08-.51-.09-.75-.15-.52-.12-1.04-.27-1.55-.44-.28-.09-.56-.19-.83-.3-.14-.05-.28-.11-.42-.17.71.29,0-.01-.12-.07-.54-.26-1.05-.55-1.55-.86-.12-.07-.23-.16-.35-.24.08.05.47.44.13.09-.1-.11-.74-.72-.42-.37.41.45-.2-.2-.14-.27.02-.03.25.69.13.27-.13-.46.03.3.04.34-.02-.38-.14.73.02,0-.12.52-.17.48-.06.22.2-.44-.37.28.08-.06.12-.09.28-.24.37-.34-.02.02.8-.92.37-.46.27-.29.54-.58.86-.82-.35.27.57-.34.66-.39.18-.1.37-.19.55-.29l.28-.13c-.19.07-.19.07,0,0,.77-.3,1.58-.52,2.4-.68.07-.01.69-.12.34-.07s.25-.03.33-.03c.45-.04.9-.05,1.35-.05,2.36-.03,4.55-.04,6.74.64.79.24,1.75.67,2.33,1.12.18.14.32.3.48.45.37.34.09-.1.24.32.16.45,0,.02,0,0l.06.24c-.04-.4-.05-.43-.04-.08.03,1.62,1.36,3,3,3s3.03-1.37,3-3c-.11-6.43-7.97-8.46-13.12-8.66-4.83-.19-10.42.41-13.81,4.32-.2.23-.95.96-.47.52-.17.16-.33.33-.48.51-.33.39-.65.81-.89,1.27-.57,1.1-.77,2.37-.47,3.58.47,1.87,1.88,3.22,3.44,4.25,3.12,2.07,6.81,2.81,10.49,2.83,5.66.03,14.84-1.46,15.31-8.61.11-1.62-1.45-3-3-3-1.71,0-2.89,1.38-3,3Z"/><path d="m141.53,401.74c.72-.77,1.43-1.55,2.21-2.27.56-.51,1.09-1.06,1.68-1.54l-.61.47c.21-.16.43-.32.68-.42l-.72.3c.11-.04.21-.07.32-.09l-.8.11h.06c-.86-1.51-1.73-3.01-2.59-4.52-.57,1-1.27,1.94-1.92,2.9-.48.69-.97,1.4-1.31,2.17-.15.33-.32.69-.41,1.05-.2.85-.13,1.73.32,2.49.69,1.17,2.13,1.76,3.45,1.4.62-.17,1.03-.47,1.51-.89.6-.52,1.08-1.19,1.58-1.8.88-1.08,1.9-2.1,2.99-2.96.56-.44.88-1.44.88-2.12,0-.74-.33-1.61-.88-2.12s-1.32-.91-2.12-.88l-.8.11c-.51.14-.95.4-1.32.77-1.06.84-2.07,1.83-2.93,2.88-.52.65-1.03,1.41-1.7,1.93l.61-.47s-.06.04-.09.06l.72-.3s-.03.01-.05.02l.8-.11h-.01c.27.03.53.07.8.11h-.01c.24.1.48.2.72.3h0c.2.15.4.31.61.46h-.01c.16.19.31.39.47.59v-.02c.09.24.19.48.29.72,0-.02-.01-.04-.02-.07l.11.8s0-.06,0-.08l-.11.8c.02-.12.06-.24.11-.35l-.3.72c.33-.77.84-1.48,1.31-2.17.66-.95,1.35-1.89,1.92-2.9.53-.93.55-2.09,0-3.03-.51-.87-1.56-1.55-2.59-1.49-.95.06-1.82.35-2.58.92-.6.46-1.14.93-1.68,1.46-.43.41-.88.79-1.29,1.21-.52.52-1.02,1.07-1.52,1.6-.54.57-.88,1.33-.88,2.12,0,.74.33,1.61.88,2.12s1.32.91,2.12.88,1.57-.29,2.12-.88h0Z"/><path d="m148.06,398.08c.27-.18.19-.15-.25.1l-3.39-4.41c-.65,1.31-1.63,2.43-2.36,3.69-.91,1.58-1.54,3.18-1.74,5-.11,1.02.65,2.1,1.49,2.59.94.55,2.09.53,3.03,0,.48-.27.89-.63,1.24-1.06-.09.11,1.09-1.38,1.03-1.44-.29.35-.34.42-.15.2l.2-.2c.2-.21.4-.41.6-.61.44-.44.88-.87,1.31-1.3.54-.54,1.04-1.1,1.56-1.65.13-.14.27-.28.41-.41.1-.1.61-.43.19-.2-.44.24.12-.03.2-.11.21-.11.09-.06-.36.14.31-.08.18-.06-.39.04l-3-3c.02-.23.1-.47-.02-.12.23-.63.05-.15-.04,0-.18.31-.38.6-.58.9-.41.62-.82,1.25-1.17,1.9-.83,1.53-1.53,3.16-2.09,4.8-.41,1.2.26,2.8,1.38,3.39,1.28.68,2.54.39,3.64-.47.43-.34.74-.77,1.07-1.2.1-.14.66-.71.64-.89.01.13-.39.45-.05.08.14-.16.29-.32.43-.47.3-.31.61-.61.93-.9.61-.55,1.25-1.06,1.88-1.58.31-.26.64-.52.93-.8.09-.09.19-.18.28-.28.19-.18.19-.19,0-.03-.15.13-.33.21-.53.24l-3.8-2.89c0-.11.1-.76.23-.8-.05.02-.18.3-.21.35-.16.25-.35.48-.52.71-.43.59-.82,1.21-1.18,1.85-.69,1.22-1.59,2.39-1.84,3.8-.22,1.22.06,2.37,1.08,3.15.91.7,2.32.89,3.33.23,1.51-.98,2.77-2.43,4.09-3.65.59-.55,1.12-1.14,1.64-1.75.6-.71,1.28-1.29,1.83-2.05l-5.59-1.51c0-.2.06-.38.15-.55.1-.22.09-.21-.02.04-.13.3-.27.6-.37.91-.15.47-.23.96-.37,1.43-.32,1.1-.52,2.19-.64,3.32-.23,2.17,2.76,3.88,4.51,2.59-.86.35-.83.33.1-.06l.61-.47c.29-.27.5-.59.62-.97.3-.67.17-.49-.39.52.41-.43-.56.33-.04.02.15-.09.29-.19.43-.29.63-.46,1.13-.96,1.55-1.63.09-.14.16-.29.24-.43.33-.57-.18.1-.38.25,1.27-.92,2.01-2.65,1.08-4.1-.81-1.26-2.74-2.06-4.1-1.08-.69.5-1.16.92-1.62,1.64-.11.17-.2.35-.3.52-.33.57-.06.17.2-.12.33-.38-.06.01-.2.11-.31.21-.63.43-.91.69-.57.55-.97,1.19-1.2,1.95l2.1-2.1c-.24.08-.61.21-.81.36l4.51,2.59c-.07.69.04-.18.05-.27.04-.18.08-.36.12-.54.12-.49.28-.96.4-1.44.05-.22.11-.44.15-.66l.07-.26c-.16.36-.19.44-.1.23.4-.43.58-1.69.56-2.22-.06-1.27-.88-2.59-2.2-2.89-1.39-.32-2.58.25-3.39,1.38.13-.18.33-.36.05-.12-.14.12-.27.25-.41.38-.22.21-.42.44-.62.68-.49.59-1,1.14-1.56,1.65s-1.16,1.04-1.72,1.59c-.23.22-.45.45-.67.68-.14.14-.31.27-.44.42-.27.3.54-.35-.05.03l4.41,3.39c.02-.14.06-.27.09-.4.14-.62-.2.31,0,0,.16-.27.3-.55.46-.82.36-.6.71-1.21,1.08-1.81.87-1.42,2.2-2.66,2.12-4.47s-1.89-3.67-3.8-2.89c-.75.31-1.29.58-1.89,1.13-.28.26-.54.54-.83.79-.68.6-1.4,1.15-2.09,1.74s-1.34,1.21-1.92,1.91c-.35.41-.66.85-.97,1.29-.06.09-.13.18-.19.27-.13.18-.09.12.13-.18,0,.11-.39.37-.46.42l5.01,2.92c.14-.42.3-.83.46-1.24-.1.27-.12.26,0,0,.09-.2.18-.4.27-.59.35-.74.7-1.48,1.13-2.18.38-.63.8-1.24,1.2-1.86.64-1,.96-2.03,1.07-3.2.15-1.59-1.5-3.04-3-3-2.31.06-3.75,1.75-5.21,3.3-.79.84-1.65,1.63-2.46,2.45-.45.46-.84.96-1.2,1.49-.03.05-.27.51-.34.51.28-.34.31-.39.11-.15-.24.22-.16.17.22-.17l4.51,2.59c-.09.84.07-.16.13-.34.05-.16.1-.31.16-.46-.15.33-.15.34,0,.03.28-.54.56-1.08.87-1.6.67-1.12,1.54-2.12,2.12-3.29,1.2-2.42-.77-4.92-3.39-4.41-.42.08-.84.26-1.19.51-1.28.91-2.01,2.66-1.08,4.1.82,1.27,2.74,2.05,4.1,1.08h0Z"/><path d="m212.63,406.03c1.3-.92,2.2-2.09,3.32-3.19.43-.43.89-.82,1.35-1.22-.02.02.75-.61.41-.36.17-.12.35-.23.53-.34-.27.09-.24.09.08,0l-3.69-3.69c-.13.52.4-.7.14-.29-.07.11-.12.25-.18.36-.19.37-.4.73-.61,1.09-.52.91-1.05,1.82-1.53,2.75-1.16,2.3-2.25,5.37.46,7.1l-1.49-2.59c-.02.15-.04.3-.05.44-.13,1.15.86,2.35,1.84,2.74,1.11.45,2.41.25,3.28-.62,1.17-1.18,1.95-2.61,2.81-4.01.17-.27.34-.54.52-.8-.21.3.5-.6.59-.71.44-.49,1.17-1.22,1.51-1.46l-4.1-4.1c-.67,1.05-1.26,2.17-1.67,3.35-.2.59-.3,1.2-.34,1.82-.02.27-.02.54-.01.8v.34c.04-.25,0-.19-.1.16-.52,1.38.46,3.03,1.74,3.54,1.35.54,3.01.1,3.75-1.23.37-.66.87-1.09,1.49-1.85.36-.45.7-.91,1.04-1.38.3-.41-.23.23.11-.15.07-.08.51-.41.24-.24l-4.51-2.59c.09-1.04-.3.55-.02-.06-.12.27-.26.53-.4.78-.28.51-.56,1.03-.86,1.52-.92,1.49-1.78,2.88-1.3,4.72.61,2.33,3.35,2.73,5.01,1.32,1.33-1.13,2.42-2.48,3.54-3.81s2.25-2.57,3.41-3.29l-4.51-2.59c.06-.44.35-.99-.05-.3-.13.22-.27.42-.39.64-.27.48-.49.98-.71,1.48-.5,1.13-.91,2.09-1.52,3.16-.49.86-1.02,1.72-1.17,2.71-.28,1.87,1.09,3.73,3.06,3.73,1.24,0,2.26-.6,3.03-1.54.35-.43.74-.92,1.02-1.4.15-.26.04-.08-.07.06.17-.23.37-.45.56-.66.73-.8,1.55-1.52,2.33-2.27.06-.05.61-.57.43-.42-.15.13.44-.33.43-.33.69-.53,1.18-1.05,1.71-1.75l-5.59-1.51c.03-.32.06-.31-.03-.01-.08.24-.15.48-.23.72-.15.43-.32.85-.46,1.28s-.32.88-.44,1.32c-.1.35-.15.7-.2,1.06-.17,1.11.15-.31-.14.46-.93,2.42,2.32,4.8,4.41,3.39,1.06-.72,1.77-1.68,2.46-2.74.57-.86,1.26-1.64,1.98-2.57.99-1.28.2-3.36-1.08-4.1-1.55-.91-3.11-.21-4.1,1.08-.39.51-1.19,1.43-1.68,2.13-.21.3-.42.62-.62.93-.21.3-.23.33-.05.09-.26.26-.24.26.06,0l4.41,3.39c.13-.33.15-.6.21-.95.06-.46.07-.53.04-.21l.1-.36c.2-.52.35-1.06.54-1.59.39-1.12.73-2.12.85-3.32.13-1.29-1.02-2.57-2.2-2.89-1.38-.38-2.58.3-3.39,1.38.35-.47-.07-.01-.3.15-.47.36-.91.72-1.34,1.13-.57.55-1.17,1.09-1.73,1.65-.67.67-1.29,1.4-1.85,2.17-.15.21-.3.43-.44.65-.2.28-.19.28.02,0-.54.55-.08.41,1.37-.41l1.51.41-.1-.06,1.38,1.79c.16.53.13,1.03-.1,1.49.06-.11.12-.21.18-.32.21-.34.4-.69.59-1.03.42-.75.77-1.52,1.11-2.31.78-1.82,1.96-3.4,2.21-5.4.29-2.3-2.75-3.69-4.51-2.59-3.35,2.09-5.21,5.54-8.16,8.04l5.01,1.32c.13.45.09.85-.12,1.22.06-.12.13-.24.2-.36.15-.22.29-.45.43-.67.27-.43.52-.87.77-1.31.77-1.35,1.39-2.68,1.53-4.25.19-2.26-2.69-3.75-4.51-2.59-1.17.75-2.03,1.97-2.74,2.88-.61.77-1.7,1.83-2.28,2.88l5.48,2.31c.23-.61.29-1.27.31-1.92,0-.22,0-.44,0-.66.01-.52-.18.61.05-.24.09-.33.1-.36.34-.82s.53-.94.82-1.4c.71-1.12.45-2.72-.47-3.64s-2.57-1.24-3.64-.47c-1.67,1.19-3.08,2.64-4.25,4.32-.43.62-.8,1.28-1.18,1.92-.22.37-.45.74-.69,1.09-.21.3-.24.34-.1.14-.13.15-.27.3-.42.44l5.12,2.12c.02-.15.03-.3.05-.44.14-1.04-.68-2.07-1.49-2.59.73.47,1.2,1.2,1.23,2.06-.01-.39-.23.73-.04.29.1-.22.49-1.22.1-.41.35-.74.73-1.47,1.13-2.19.7-1.25,1.69-2.58,2.05-3.99.57-2.22-1.46-4.28-3.69-3.69-1.75.46-3.05,1.69-4.35,2.86-.56.5-1.07,1.03-1.57,1.59-.23.25-.45.5-.68.75-.09.09-.96.84-.52.53-1.32.93-1.94,2.62-1.08,4.1.76,1.31,2.78,2.02,4.1,1.08h0Z"/><path d="m411.67,316.07c-.18-.42.06.28.09.41.08.31.15.62.2.93-.06-.36.04.42.05.53.03.41.04.82.05,1.23.01,1.56-.13,3.13-.32,4.68-.36,2.95-.86,6.31-1.27,9.41-1.03,7.82-2.92,15.48-3.7,23.33-.38,3.81-.79,7.61-1.98,11.28-.93,2.88-2.49,5.62-4.28,7.94s-4.02,4.55-5.82,6.96c-1.55,2.07-3.06,4.72-3.07,7.37-.03,4.19,4.32,6.27,7.87,4.6,2.65-1.24,4.22-3.98,5.88-6.25l-5.48-2.31c-.52,1.66-1.4,3.19-1.68,4.93-.43,2.66.54,5.21,3.12,6.34,4.39,1.91,8.29-2.25,10.04-5.86l-5.48-2.31c-.39,2.37-.56,4.8.47,7.05.89,1.93,2.69,3.14,4.79,3.31,4.82.4,9.26-3.98,11.88-7.51,3.21-4.32,4.8-9.56,6.56-14.58,1.97-5.6,3.83-11.27,4.76-17.15.97-6.08.95-12.31,1.42-18.45s1.03-12.1,1.44-18.16.67-12.12.56-18.19-.88-11.99-.96-18c-.04-3.38-.05-6.76-.46-10.12-.25-2.06-.64-4.09-1.03-6.13-.42-2.21-.83-4.43-1.17-6.66-.15-.97.04.32-.03-.25-.03-.28-.07-.57-.1-.85-.05-.47-.09-.95-.11-1.43-.02-.37-.03-.74-.01-1.11,0-.15.05-.33.03-.47-.03-.24-.16.77.01.1.96-3.74-4.82-5.34-5.79-1.6-.84,3.28.15,7.12.73,10.36.32,1.8.67,3.6,1.01,5.4.38,2.04.56,3.18.7,5.19.39,5.6.25,11.21.73,16.81s.56,11.44.39,17.16c-.35,11.43-1.67,22.81-2.38,34.22-.17,2.79-.21,5.6-.49,8.39-.25,2.59-.78,5.15-1.41,7.67-1.36,5.46-3.31,10.76-5.19,16.06-1.57,4.42-3.7,9.21-7.7,11.96-.46.32-.94.61-1.43.87s-.31.21-.99.4c-.21.06-.42.11-.64.14.51-.07.13-.17-.01-.05-.19.16.59.12.08,0s.42.17.09.03c-.38-.16.57.47.08.05.22.19.3.41.05.04-.14-.21-.16-.57-.01,0-.05-.2-.11-.39-.16-.59-.12-.46,0,.72-.02-.14,0-.25-.02-.5-.02-.75,0-.59.05-1.06.12-1.44.24-1.47-.26-2.94-1.74-3.54-1.29-.52-3.08-.14-3.75,1.23-.5,1.02-1.11,1.97-1.68,2.57-.46.49-.56.6-.96.8-.02,0-.15.07-.08.04.13-.04.25-.02.37.03-.3-.08-.37-.1-.2-.05.06.06.26.25.34.31.11.32.12.31.03-.02l.06.25c-.01-.71-.17.35.04-.38.09-.31.16-.62.27-.92.38-1.15.94-2.24,1.3-3.4.44-1.41-.4-3-1.74-3.54-1.48-.59-2.84-.01-3.75,1.23-.26.35-.5.72-.76,1.07-.15.22-.31.44-.47.66-.01.02-.58.75-.23.32-.31.39-.64.77-.99,1.12-.2.21-.41.41-.64.59.43-.34-.41.23-.52.28.51-.23-.33-.2.33-.1-.58-.09.05,0,.19.06l.12.05c-.33-.2-.32-.19.02.03.03.04.69.88.31.37l.06.34c.02-.34,0-.32-.05.05.04-.27.11-.53.19-.79,0-.02.33-.9.11-.38.12-.28.26-.55.4-.82.28-.53.58-1.04.91-1.54.15-.23.31-.45.47-.68.46-.69-.38.41.11-.14.99-1.12,1.95-2.27,2.93-3.4,1.89-2.2,3.74-4.47,5.2-6.98,3.72-6.42,4.3-13.64,5.08-20.85.39-3.66,1.21-7.25,1.86-10.88s1.24-7.36,1.71-11.07c.41-3.2.91-6.16,1.3-9.7s.38-6.83-.98-10.05c-.63-1.49-2.83-1.82-4.1-1.08-1.54.9-1.71,2.61-1.08,4.1h0Z"/></g></svg>