<?xml version="1.0" encoding="UTF-8"?><svg id="Livello_2" xmlns="http://www.w3.org/2000/svg" viewBox="0 0 260.2 330.15"><defs><style>.cls-1{fill:#1d1d1b;}</style></defs><g id="Livello_2-2"><path class="cls-1" d="m116.43,261.86c-9.87-7.15-21.73-11.38-33.89-12.2-5.73-.38-12.43-.45-17.09,3.43-3.99,3.33-5.05,8.9-4.21,13.81.98,5.67,4.92,10.38,9.06,14.14,4.38,3.97,9.17,7.54,14.01,10.93,9.88,6.91,20.49,12.79,31.58,17.53,12.56,5.37,25.67,9.32,39.13,11.67,1.45.25,3.14-1.28,2.12-2.75-1.39-2.01-2.78-4.02-4.17-6.02l-2.12,2.75c3.68,1.24,7.64,1.29,11.35.19,1.21-.36,1.68-1.67,1.12-2.75-1.21-2.36-3.5-3.72-6.1-3.96l.95,3.49c1.77-.9,3.54-1.81,5.31-2.71,1.28-.66,1.15-2.55,0-3.24-8.94-5.34-19.71-5.91-29.61-8.38-9.97-2.49-19.67-6.04-28.87-10.62-4.58-2.27-9.03-4.79-13.34-7.54-2.18-1.39-4.33-2.84-6.44-4.35-.99-.71-1.98-1.44-2.96-2.18-.73-.55-2.2-1.43-2.4-2.4-.16-.76.71-.77,1.36-.9,1.06-.22,2.14-.35,3.21-.42,2.24-.14,4.5-.04,6.72.24,4.48.57,8.86,1.83,13.19,3.07,9.61,2.76,19.96,5.96,29.83,2.51l-1.44-3.43c-8.86,5.8-18.57,10.1-28.82,12.75-2.33.6-1.35,4.22,1,3.62,10.54-2.72,20.61-7.17,29.71-13.13,1.69-1.1.66-4.16-1.44-3.43-9.04,3.16-18.47.19-27.27-2.35-4.65-1.34-9.32-2.65-14.12-3.29-2.31-.31-4.64-.47-6.97-.34-2.18.11-5.01.21-6.9,1.44-2.43,1.58-2.22,4.49-.6,6.57s3.97,3.44,6.01,4.9c4.39,3.14,8.95,6.04,13.66,8.67,9.44,5.27,19.47,9.5,29.84,12.57,5.75,1.7,11.59,2.93,17.47,4.06s12,2.44,17.28,5.59v-3.24c-1.77.9-3.54,1.81-5.31,2.71s-.75,3.34.95,3.49c1.3.12,2.29.98,2.86,2.1l1.12-2.75c-3.12.92-6.28.85-9.36-.19-1.5-.5-3.04,1.42-2.12,2.75,1.39,2.01,2.78,4.02,4.17,6.02l2.12-2.75c-22.37-3.91-43.87-12.21-63.07-24.34-4.78-3.02-9.43-6.27-13.88-9.76s-8.78-6.81-11.72-11.4c-2.46-3.84-3.68-8.91-1.65-13.22,2.35-4.97,8.1-5.58,13-5.56,12.85.06,25.45,4.29,35.84,11.82.83.6,2.08.14,2.57-.67.56-.94.14-1.97-.67-2.57h0Z"/><path class="cls-1" d="m92.88,293.93c-5.82,4.92-12.03,9.35-18.57,13.27-3.26,1.95-6.65,3.63-9.98,5.46-2.39,1.31-5.4,4.71-2.96,7.37,1.34,1.46,3.64,1.49,5.48,1.46,2.29-.04,4.57-.49,6.7-1.32s1.35-4.37-1-3.62c-2.79.89-4.6,4.03-3.32,6.83,1.16,2.55,4.49,3.52,6.87,2.08l-2.27-2.94c-2.42,2.64-.39,6.84,2.91,7.51,4.09.84,7.5-3.06,10.26-5.45,7.07-6.15,14.15-12.3,21.22-18.45,1.82-1.59-.84-4.23-2.65-2.65-5.58,4.85-11.17,9.71-16.75,14.56-2.65,2.3-5.23,4.77-8,6.93-.83.65-2.22,1.71-3.36,1.38-.26-.08-1.28-.85-.97-1.18,1.4-1.53-.39-4.09-2.27-2.94-1.48.9-2.34-1.52-.65-2.05l-1-3.62c-1.98.77-4.02,1.21-6.15,1.19-.45,0-1.92.11-2.23-.22.28.29-.05.14.24-.06.24-.17.44-.56.67-.77,1.34-1.22,3.31-1.88,4.89-2.72,1.78-.95,3.54-1.94,5.28-2.96,7.17-4.22,13.95-9.07,20.3-14.43,1.85-1.56-.82-4.2-2.65-2.65h0Z"/><path class="cls-1" d="m125.1,296.33c11.85-6.2,23.01-13.67,33.26-22.26,4.41-3.7,9.35-7.77,11.04-13.52.81-2.75.88-6.28-2.16-7.63-2.75-1.22-6.29-.12-9.09.4-7.82,1.43-15.49,3.56-22.95,6.32-2.24.83-1.27,4.46,1,3.62,5.96-2.21,12.06-4.02,18.27-5.38,2.99-.66,6.05-1.34,9.09-1.67.73-.08,2.11-.29,2.52.49.48.91-.22,2.7-.54,3.58-1.79,4.92-6.65,8.5-10.53,11.72-4.61,3.83-9.42,7.41-14.4,10.76-5.61,3.77-11.42,7.21-17.41,10.35-2.14,1.12-.25,4.36,1.89,3.24h0Z"/><path class="cls-1" d="m164.17,252.62c3.85-6.78,6.73-14.09,8.5-21.68.55-2.35-3.07-3.35-3.62-1-1.71,7.29-4.43,14.27-8.13,20.78-1.19,2.1,2.04,3.99,3.24,1.89h0Z"/><path class="cls-1" d="m171.45,231.94c16.51,9.33,33.95,17,51.98,22.89.91.3,2.11-.35,2.31-1.31,1.09-5.41-2.85-10.62-8.3-11.17l.5,3.68c2.75-.4,5.5-.81,8.24-1.21,1.33-.19,1.54-1.79,1.12-2.75-1.03-2.34-3.02-4-5.4-4.84l-1,3.62c3.77.65,7.24-.75,9.56-3.76.58-.75.16-2.18-.67-2.57-16.8-7.81-34.13-14.42-51.87-19.76l1.12,2.75c7.15-12.5,10.36-27.22,8.92-41.56-.77-7.68-2.94-15.07-5.41-22.36-2.65-7.83-5.4-15.63-8.1-23.44-3.05-8.81-6.1-17.62-9.14-26.43-.67-1.95-3.66-1.7-3.68.5-.11,9.71-4.3,22.14-15.89,22.05-3.55-.03-7.02-.88-10.52-1.36s-6.87-.78-10.33-.89c-6.9-.21-13.81.34-20.6,1.57-7.68,1.39-15.13,3.75-22.26,6.92l2.82,1.62c-.95-9.59.24-19.2,3.53-28.25.46-1.26-1.01-2.83-2.31-2.31-6.3,2.56-8.85,8.88-10.94,14.89-1.27,3.67-2.65,7.25-4.3,10.77-1.8,3.82-3.7,7.58-5.33,11.48-6.68,15.96-5.66,33.35-1.73,49.86,2.25,9.44,5.37,18.64,8.57,27.79.79,2.26,4.42,1.29,3.62-1-5.39-15.39-10.82-31.25-11.56-47.67-.36-7.95.47-15.92,3.01-23.49s6.96-14.81,9.84-22.48c1.21-3.21,2.13-6.55,3.61-9.65,1.34-2.82,3.2-5.66,6.21-6.88l-2.31-2.31c-3.38,9.33-4.65,19.38-3.66,29.25.15,1.5,1.46,2.23,2.82,1.62,12.97-5.77,27.25-8.46,41.42-7.96,3.57.13,7.13.45,10.66,1s7.39,1.43,11.12,1.2c5.74-.34,10.49-3.41,13.58-8.2,3.32-5.14,4.61-11.52,4.68-17.57l-3.68.5c5.28,15.26,10.56,30.52,15.84,45.79,2.55,7.37,5.12,14.8,6.31,22.53,1.04,6.74.95,13.72-.17,20.44-1.3,7.79-3.95,15.29-7.87,22.15-.61,1.07-.04,2.4,1.12,2.75,17.43,5.24,34.47,11.71,50.97,19.38l-.67-2.57c-1.2,1.56-3.4,2.37-5.33,2.04-2.37-.41-3.3,2.8-1,3.62,1.51.54,2.53,1.68,3.16,3.12l1.12-2.75c-2.75.4-5.5.81-8.24,1.21-.92.14-1.45,1.23-1.34,2.06.13.98.9,1.53,1.84,1.63,2.94.3,5.26,3.55,4.69,6.42l2.31-1.31c-17.73-5.79-34.84-13.34-51.08-22.52-2.1-1.19-4,2.05-1.89,3.24h0Z"/><path class="cls-1" d="m75.67,215.04c-2.59-.04-5.2.32-7.66,1.15s-4.65,2.3-7.02,3.43-5.14,1.92-7.7,2.81c-2.72.95-5.44,1.89-8.16,2.84-5.36,1.87-10.72,3.73-16.09,5.6-2.68.93-5.38,1.81-8.03,2.8-2.19.82-4.02,2.14-4.6,4.52-1.27,5.17,4.46,9.25,8.96,6.45,1.71-1.07.6-4.27-1.44-3.43-1.89.78-3.78,1.57-5.67,2.35-1.55.65-3.02,1.52-3.1,3.4-.07,1.47.78,2.97,2.04,3.73,1.65,1,3.64.7,5.42.32l-1.82-3.13c-1.29,1.33-2.41,2.8-3.34,4.39-.39.67-.33,1.74.29,2.27,3.25,2.77,7.37,1.58,10.79-.24,3.91-2.07,7.64-4.41,11.64-6.32,8.08-3.86,16.62-6.76,25.37-8.69,4.98-1.1,10.02-1.87,15.1-2.3l-1.81-2.37c-.73,5.37-.44,10.74,1.01,15.98.64,2.32,4.26,1.34,3.62-1-1.26-4.54-1.65-9.3-1.01-13.98.15-1.09-.45-2.49-1.81-2.37-17.34,1.49-34.29,6.65-49.47,15.2-1.91,1.07-3.74,2.33-5.74,3.22-1.46.65-3.65,1.42-5.04.23l.29,2.27c.78-1.33,1.68-2.52,2.75-3.63,1.35-1.39-.02-3.51-1.82-3.13-.59.12-1.86.51-2.42.11-.2-.14-.22-.22-.32-.45.16.38-.4.31.29.16.87-.18,1.77-.73,2.59-1.07,1.06-.44,2.12-.88,3.18-1.32l-1.44-3.43c-1.05.65-2.62.53-3.26-.66-.71-1.31.09-2.68,1.31-3.26,2.1-.99,4.47-1.59,6.66-2.35s4.51-1.57,6.76-2.35c4.51-1.57,9.01-3.14,13.52-4.71s9.18-2.94,13.56-4.83c2.19-.94,4.13-2.38,6.36-3.21,2.35-.88,4.78-1.27,7.28-1.24s2.41-3.71,0-3.75h0Z"/><path class="cls-1" d="m123.26,207.81c.63-.91,1.27-1.8,1.93-2.69.16-.22.32-.43.49-.65.09-.12.17-.24.27-.35l-.11.15c.06-.08.12-.15.18-.23.33-.43.67-.85,1.01-1.27.85-1.06,2.28-2.25,1.82-3.76-.27-.88-.97-1.51-1.85-1.75s-1.78.1-2.5.59c-1.05.71-1.2,1.99-.38,2.94.1.11.2.23.29.35.3.38-.16-.22.06.08.15.21.3.42.44.64.32.49.6,1.01.85,1.54.06.12.31.5.05.09.07.1.1.25.14.36.1.26.19.53.27.8.17.56.3,1.13.39,1.71.16.97,1.42,1.6,2.31,1.31,1.05-.34,1.48-1.27,1.31-2.31-.43-2.69-1.69-5.17-3.46-7.23l-.38,2.94c.07-.05.15-.1.22-.15.05-.03.39-.16.13-.08-.17.06-.3.09-.49.06-.16,0-.3-.06-.42-.18-.23-.07-.37-.22-.44-.45-.29-.39-.31-.83-.05-1.33l.16-.2c-.07.04-.14.17-.19.23-.14.17-.28.34-.42.51-.55.66-1.08,1.33-1.61,2.01-1.12,1.44-2.21,2.91-3.25,4.41-.56.81-.18,2.12.67,2.57.96.51,1.97.19,2.57-.67h0Z"/><path class="cls-1" d="m154.24,192.62c-1.29-.12-3.02.04-4.02.95-1.07.98-1.14,2.56-.4,3.76s1.97,1.68,3.19,2.09,2.45.77,3.74.94c2.26.29,4.68-.27,6.59-1.53,1.19-.79,2.45-1.8,2.24-3.38s-1.76-2.1-3.02-2.54c-2.69-.94-5.57-1.07-8.37-.58-1,.18-1.56,1.4-1.31,2.31.29,1.05,1.31,1.49,2.31,1.31.57-.1,1.18-.16,1.91-.17.37,0,.73,0,1.1.03.18.01.37.03.55.05.04,0,.44.06.26.03.69.1,1.37.26,2.03.47.35.11.7.22,1.04.36.14.06.02.05.2.09l.14.08c-.33-.43-.43-.51-.29-.24l-.26-.95c-.02-.19.67-1.02.15-.54-.1.09-.2.18-.3.26-.1.08-.1.08-.01,0l-.16.11c-.11.07-.22.15-.33.21-.28.17-.57.33-.87.46.18-.08-.04.02-.1.04-.16.05-.31.11-.47.16-.29.09-.57.15-.87.21l-.2.03c.14-.02.14-.02,0,0-.13.01-.26.02-.39.03-.64.03-1.19-.01-1.74-.13-.68-.15-1.35-.35-2.02-.57-.3-.1-.6-.2-.9-.3-.05-.02-.41-.18-.18-.07-.11-.06-.23-.12-.34-.18-.17-.11-.21-.14-.12-.08.07.05.06.04-.03-.04-.08-.09-.09-.09-.02,0,.06.06.09.12.1.21-.12-.2.04-.13,0,.03l-.32.78c-.44.22-.55.29-.33.21.13-.02.28-.08.41-.11.04,0,.48-.09.28-.06.37-.05.76-.02,1.13,0,.98.09,1.92-.93,1.88-1.88-.05-1.09-.83-1.78-1.88-1.88h0Z"/><path class="cls-1" d="m153.77,197.74c.63-.77,1.25-1.54,1.88-2.32l-3.13-.83c.26,1.23.5,2.46.72,3.7.14.77,1.05,1.41,1.81,1.38s1.69-.55,1.81-1.38c.04-.29.1-.58.19-.87.01-.04.18-.47.09-.28-.08.18.14-.27.14-.26.06-.1.12-.21.18-.31,0,0,.28-.39.16-.24-.13.16.17-.19.2-.22.12-.13.26-.25.39-.37l-3.13-.83c.26.93.42,2.11,1.1,2.83.92.98,2.48.94,3.41-.02.35-.36.64-.83.77-1.31.08-.28.09-.57.12-.86,0-.08.01-.16.02-.23.02-.22.02-.21,0,.05-.3.43-.76.91-1.36.69-.23-.09-.26-.19-.43-.35-.06-.18-.07-.17,0,.04l-.02-.15c.02.24,0,.48,0,.72-.03.74.6,1.69,1.38,1.81,1.11.17,2.05-.14,2.67-1.11.1-.16.17-.33.24-.5.21-.49,0,.01-.12.11l-.95.38-.32-.04c-.13-.03-.4-.18-.13-.02.19.11-.28-.24-.1-.08.07.07.16.13.23.19.23.18.46.38.71.53.63.37,1.37.48,2.08.29.95-.26,1.62-1.34,1.31-2.31s-1.29-1.59-2.31-1.31c.18-.05.42-.04.6,0,.06.02.4.17.16.05-.29-.14.22.2.05.05-.06-.05-.12-.1-.19-.15-.44-.36-.86-.7-1.42-.86-.62-.18-1.35-.1-1.9.24-.37.23-.68.56-.9.92-.08.13-.13.28-.19.41-.11.25-.13.3-.06.13.1-.28.32-.45.67-.53h1l-.16-.02,1.38,1.81c.05-1.12-.12-2.3-.96-3.12s-2.26-1.15-3.33-.52-1.32,1.67-1.4,2.8c-.03.37.06-.2.14-.32.48-.68,1.25-.51,2.32.53-.03-.11-.07-.22-.1-.33-.14-.48-.27-.96-.41-1.43-.4-1.42-2.09-1.74-3.13-.83-1.21,1.06-2.08,2.59-2.32,4.19h3.62c-.22-1.24-.46-2.47-.72-3.7-.28-1.3-2.26-1.91-3.13-.83-.63.77-1.25,1.54-1.88,2.32s-.8,1.92,0,2.65c.68.63,1.99.81,2.65,0h0Z"/><path class="cls-1" d="m101.49,194.29c-2.56.37-5.77.36-7.37,2.75-.8,1.19-.88,2.78-.1,4,.65,1.03,1.82,1.64,2.98,1.9,2.48.54,5.24.29,7.67-.38,1.2-.34,2.48-.78,3.56-1.43,1.52-.92,2.17-2.59,1.4-4.24-1.29-2.73-5.25-3.52-7.87-2.55-.95.35-1.59,1.27-1.31,2.31.25.91,1.35,1.66,2.31,1.31.25-.09.5-.16.75-.23.23-.04.26-.05.09-.02.13-.01.26-.02.39-.02.6-.01.61.02,1.25.19.21.08.25.09.1.03.12.05.24.11.35.18.11.06.23.13.34.21-.11-.1-.08-.08.09.07.11.09.21.12.19.25-.05-.07-.07-.15-.07-.23,0-.2.05-.37.17-.52.14-.1.12-.09-.07.04-.11.06-.22.12-.33.18-.12.06-.57.27-.56.27-.54.23-1.1.42-1.67.58-1.08.31-1.93.46-2.98.52-.59.03-1.18.03-1.77,0-.26-.01-.51-.04-.77-.06-.17-.02-.15-.01.06.01-.11-.02-.22-.04-.33-.06-.22-.05-.44-.11-.65-.19.37.14-.2-.12-.27-.18.17.13.18.13.03-.01.13.18.14.18.03,0,.07.09.09.19.08.3,0-.23,0-.24-.01-.03.07-.21.07-.23.01-.06.12-.18.13-.21.02-.07.03-.04.42-.35.18-.19.37-.25.75-.33,1.32-.44,1.24-.24,2.51-.37,3.76-.55,1-.14,1.55-1.42,1.31-2.31-.3-1.08-1.3-1.45-2.31-1.31h0Z"/><path class="cls-1" d="m97.85,201.09l1.72-2.21-3.13-.83c.32.8.59,1.61.8,2.45.41,1.58,2.62,1.82,3.43.45.11-.18.22-.36.34-.53.1-.15.1-.13,0,0,.09-.1.17-.2.26-.3.14-.16.29-.3.45-.45.08-.07.16-.14.24-.21.21-.2-.34.25.06-.04l-2.57-.67c.2.26.36.53.52.81.19.34-.05-.26.06.15.04.16.09.31.13.46.31,1.25,2.25,1.97,3.13.83.32-.41.64-.82.96-1.24.15-.19.3-.39.45-.58.07-.1.15-.2.22-.29.13-.16.27-.18,0-.05l-.95.26-.28-.03-.83-.48c-.21-.21-.35-.57-.38-.86,0,.07.02.15.03.22.05.42.12.8.34,1.18.34.6.97,1.11,1.64,1.27,1.44.35,2.88-.5,3.28-1.93.27-.94-.33-2.08-1.31-2.31s-2.02.3-2.31,1.31c.2-.71,1.14-.94,1.7-.49.1.07.18.15.24.26l.16.61c.03-.08-.14-.94-.09-.73-.21-.99-1.08-1.8-2.12-1.77s-1.59.65-2.16,1.4c-.41.53-.82,1.07-1.24,1.6l3.13.83c-.21-.83-.57-1.64-1.09-2.32-.3-.39-.62-.75-1.12-.86-.46-.11-1.04-.1-1.44.19-1.09.79-1.99,1.71-2.68,2.87l3.43.45c-.21-.83-.48-1.65-.8-2.45-.25-.63-.62-1.12-1.31-1.31-.58-.16-1.43-.03-1.82.48l-1.72,2.21c-.32.41-.55.78-.55,1.33,0,.46.2,1.01.55,1.33.67.62,2.01.83,2.65,0h0Z"/><path class="cls-1" d="m81.85,179.93c2.74-.22,5.2,1.06,7.73,1.92,2.69.91,5.53,1.2,8.36,1.14,2.68-.06,5.38-.3,8.05-.62,2.46-.3,4.91-.71,7.22-1.65,2.06-.84,5.05-2.26,5.72-4.6.83-2.9-2.67-4.46-4.7-5.59-4.56-2.52-9.81-4.29-15.07-3.62-3.08.39-5.87,1.66-8.56,3.17-2.89,1.62-5.74,3.31-8.61,4.97-2.09,1.21-.2,4.45,1.89,3.24,2.74-1.59,5.47-3.19,8.23-4.76,2.51-1.43,5.15-2.76,8.08-2.98s5.51.37,8.12,1.33c1.33.49,2.6,1.11,3.84,1.78.63.34,1.25.7,1.85,1.08.35.21,1.32.68,1.37,1.02v-1c-.17,1.01-2.05,1.81-2.9,2.21-1.21.57-2.52.92-3.83,1.2-2.82.6-5.74.79-8.61.97-3.14.2-6.24.15-9.25-.85s-5.75-2.37-8.93-2.12c-2.39.19-2.41,3.94,0,3.75h0Z"/><path class="cls-1" d="m99.67,177.5c.97-.77,1.78-1.74,2.43-2.79l-3.49-.95c-.01.33-.02.66-.03.99-.05,1.43,1.62,2.32,2.82,1.62.08-.05.16-.09.24-.13.18-.1-.44.14-.09.04.18-.05.35-.09.54-.12l-.5.07c.26-.03.51-.03.77,0l-1.88-1.88c.03.57.05,1.14.08,1.72.03.76.44,1.41,1.15,1.71.67.28,1.54.17,2.05-.39.55-.59.88-1.19,1.18-1.93l-3.68-.5c.02.38.04.76.06,1.14.04.8.55,1.62,1.38,1.81s1.62-.15,2.12-.86,1.04-1.49,1.56-2.23c.81-1.15-.26-2.88-1.62-2.82-.85.04-1.54.24-2.31.58-.4.18-.75.72-.86,1.12-.12.45-.07,1.05.19,1.44s.64.75,1.12.86c.52.12.96.02,1.44-.19-.52.23-.02.02.11-.01.15-.04.31-.07.46-.09l-.5.07c.12-.01.23-.02.35-.03l-1.62-2.82c-.52.74-1.04,1.49-1.56,2.23l3.49.95c-.02-.38-.04-.76-.06-1.14-.05-.94-.68-1.71-1.63-1.84-.4-.05-.85,0-1.2.22-.44.28-.67.64-.86,1.12.06-.14.17-.36.03-.1-.04.08-.09.16-.14.24-.04.06-.09.12-.12.18.2-.38.14-.19.01-.04l3.2,1.33c-.03-.57-.05-1.14-.08-1.72-.02-.47-.19-1-.55-1.33-.39-.36-.8-.48-1.33-.55-.98-.12-2.01.16-2.86.65l2.82,1.62c.01-.33.02-.66.03-.99.02-.79-.6-1.63-1.38-1.81-.83-.19-1.66.13-2.12.86-.13.21-.28.42-.42.63-.12.16-.09.12.1-.12-.04.06-.09.11-.14.17-.08.1-.16.19-.25.29-.35.39-.73.74-1.14,1.07-.35.28-.55.9-.55,1.33,0,.46.2,1.01.55,1.33s.83.57,1.33.55c.53-.02.92-.22,1.33-.55h0Z"/><path class="cls-1" d="m141.4,168.07c-3.14.87-6.91,2.56-6.99,6.38-.02.8.1,1.8.7,2.4s1.67.83,2.46,1.1c1.71.61,3.47,1.08,5.25,1.42,7.13,1.37,14.57.79,21.35-1.81,1.19-.46,1.68-1.59,1.12-2.75-1.99-4.17-6.79-4.75-10.49-6.65-2.02-1.04-4.01-1.72-6.3-1.82s-4.64.32-6.91.74-1.37,4.06,1,3.62c1.88-.35,3.77-.68,5.69-.62s3.37.68,5.01,1.51c2.88,1.45,7.23,1.91,8.76,5.11l1.12-2.75c-8.48,3.25-17.82,3.16-26.24-.23l1.31,1.31c-.59-2.14,2.7-2.93,4.16-3.34,2.32-.64,1.34-4.26-1-3.62h0Z"/><path class="cls-1" d="m146.22,174.85l2.47-1.22c.66-.33.99-1.18.9-1.87-.1-.74-.62-1.34-1.34-1.56-1.37-.41-2.88.22-3.6,1.44s.14,2.63,1.37,3.01c.5.15,1,.09,1.5.16l-.5-.07c.23.04.45.11.66.2l-.45-.19c.69.29,1.33.7,2.06.9.95.26,1.98.21,2.84-.3l-.45.19c.69-.26,1.24-.69,1.46-1.44.16-.57.06-1.2-.22-1.71-.21-.38-.55-.75-.93-.97-.29-.16-.61-.25-.91-.38l.45.19c-.09-.04-.17-.09-.25-.14l.38.29s-.06-.06-.09-.09l.29.38-.03-.05.19.45s-.03-.08-.03-.12l.07.5v-.07c.03-.98-.88-1.92-1.87-1.88s-1.85.82-1.88,1.88c-.02.81.43,1.5,1.08,1.95.31.22.69.34,1.05.47l-.45-.19c.06.03.11.06.17.1l-.38-.29c.05.05.09.09.14.15l-.29-.38s.05.07.06.11l-.19-.45c.02.06.04.11.05.17l-.07-.5v.05c.02-.17.04-.33.07-.5v.05c.05-.15.12-.3.18-.45l-.02.04.29-.38-.03.04.38-.29-.04.03.45-.19c-.23.09-.44.19-.66.3l.45-.19c-.14.06-.28.09-.43.11l.5-.07c-.15.01-.3,0-.45,0l.5.07c-.28-.04-.55-.13-.81-.23l.45.19c-.61-.27-1.18-.6-1.81-.82-.58-.21-1.18-.16-1.78-.23l.5.07c-.07-.01-.13-.03-.2-.05l.45.19s-.08-.03-.11-.06l.38.29s-.06-.05-.08-.08l.29.38-.03-.05.19.45-.02-.06-.19,1.44s.05-.09.08-.13l-.29.38c.07-.08.14-.15.22-.22l-.38.29c.11-.08.22-.14.34-.19l-.45.19c.1-.04.2-.06.3-.08l-.5.07c.11-.01.21-.01.31,0l-.5-.07c.08.01.15.03.23.05l-.45-3.43-2.47,1.22c-.88.43-1.19,1.76-.67,2.57.58.9,1.62,1.14,2.57.67h0Z"/><path class="cls-1" d="m109.42,156.41c2.2.86,4.39,1.85,6.65,2.54s4.72.52,7.06.03c3.86-.81,7.96-2,10.3-5.42,1.01-1.47-.65-3.03-2.12-2.75-1.57.3-3.24-1.56-4.49-2.29-1.7-.99-3.54-1.26-5.47-.9-1.82.34-3.49,1.26-5.07,2.16s-3.09,1.84-4.89,1.91c-2.41.09-2.42,3.84,0,3.75,1.97-.07,3.75-.76,5.47-1.68s3.25-2.04,5.13-2.45,3.14.56,4.62,1.59c1.73,1.21,3.57,1.93,5.7,1.53l-2.12-2.75c-1.74,2.55-5.64,3.23-8.45,3.78-1.96.38-3.7.27-5.58-.42s-3.83-1.49-5.74-2.23c-.94-.37-2.06.4-2.31,1.31-.29,1.06.36,1.94,1.31,2.31h0Z"/><path class="cls-1" d="m113.14,149.95c2.6-1.76,5.57-3.18,8.78-3.17,1.3,0,2.62.24,3.82.76.62.27,1.24.62,1.77,1.04.66.52,1.13,1.26,2,1.43.62.12,1.38.04,1.82-.48.55-.66.67-1.2.54-2.05-.09-.63-.74-1.14-1.31-1.31l-.1-.03c-2.32-.68-3.31,2.93-1,3.62l.1.03-1.31-1.31.02.13.48-1.82-.08.1,1.82-.48-.2-.04.83.48c-1.37-1.19-2.62-2.2-4.32-2.88-1.58-.64-3.33-.93-5.03-.92-3.8.03-7.43,1.58-10.54,3.68-.84.57-1.21,1.65-.67,2.57.49.83,1.72,1.24,2.57.67h0Z"/><path class="cls-1" d="m133.63,143.75c1.16-.32,1.95-1.15,2.63-2.09.52-.72.99-1.46,1.53-2.16l-.29.38c.58-.75,1.19-1.47,1.84-2.15s.76-1.95,0-2.65-1.93-.76-2.65,0c-.78.83-1.5,1.71-2.2,2.61-.58.75-1.07,1.56-1.65,2.31l.29-.38c-.19.24-.39.45-.62.64l.38-.29c-.15.11-.31.2-.48.28l.45-.19c-.08.03-.15.05-.23.08-.94.26-1.62,1.34-1.31,2.31s1.29,1.59,2.31,1.31h0Z"/><path class="cls-1" d="m124.24,137.36c.02-1.54-.16-3.1-.51-4.6-.11-.45-.47-.89-.86-1.12s-.99-.33-1.44-.19c-1,.32-1.55,1.28-1.31,2.31.13.54.23,1.09.3,1.64l-.07-.5c.11.82.15,1.64.14,2.46,0,.48.21.99.55,1.33s.86.57,1.33.55c1.03-.05,1.86-.82,1.88-1.88h0Z"/><path class="cls-1" d="m111.49,140.33c-1.06-.78-2.13-1.56-3.19-2.34-.22-.14-.45-.21-.7-.22-.25-.06-.5-.04-.75.03-.43.12-.91.46-1.12.86-.23.44-.35.96-.19,1.44l.19.45c.17.28.39.51.67.67,1.06.78,2.13,1.56,3.19,2.34.22.14.45.21.7.22.25.06.5.04.75-.03.43-.12.91-.46,1.12-.86.23-.44.35-.96.19-1.44l-.19-.45c-.17-.28-.39-.51-.67-.67h0Z"/><path class="cls-1" d="m115.83,161.64c.55-.81,1.1-1.61,1.65-2.42.14-.22.21-.45.22-.7.06-.25.04-.5-.03-.75-.06-.24-.17-.46-.34-.64-.13-.2-.31-.37-.53-.48-.44-.23-.96-.35-1.44-.19l-.45.19c-.28.17-.51.39-.67.67-.55.81-1.1,1.61-1.65,2.42-.14.22-.21.45-.22.7-.06.25-.04.5.03.75.06.24.17.46.34.64.13.2.31.37.53.48.44.23.96.35,1.44.19l.45-.19c.28-.17.51-.39.67-.67h0Z"/><path class="cls-1" d="m121.06,160.14c-.02-.09-.04-.18-.05-.27l.07.5c-.04-.3-.04-.61,0-.92l-.07.5c.04-.29.12-.57.23-.85l-.19.45c.05-.11.1-.22.16-.32.24-.43.32-.96.19-1.44-.06-.24-.17-.46-.34-.64-.13-.2-.31-.37-.53-.48-.44-.23-.96-.35-1.44-.19s-.88.43-1.12.86c-.27.5-.49,1.05-.58,1.62-.05.36-.11.73-.09,1.1s.07.73.15,1.09c.06.24.17.46.34.64.13.2.31.37.53.48.22.14.45.21.7.22.25.06.5.04.75-.03.45-.15.89-.43,1.12-.86l.19-.45c.09-.33.09-.66,0-1h0Z"/><path class="cls-1" d="m128.52,159.09l-1-2.34c-.12-.22-.28-.39-.48-.53-.18-.17-.39-.28-.64-.34-.25-.08-.5-.09-.75-.03-.25.01-.48.09-.7.22-.4.26-.75.64-.86,1.12l-.07.5c0,.34.09.65.26.95l1,2.34c.12.22.28.39.48.53.18.17.39.28.64.34.25.08.5.09.75.03.25-.01.48-.09.7-.22.4-.26.75-.64.86-1.12l.07-.5c0-.34-.09-.65-.26-.95h0Z"/><path class="cls-1" d="m133.09,156.76c-.58-.72-1.16-1.44-1.74-2.17-.17-.18-.37-.31-.6-.39-.22-.12-.46-.17-.72-.16-.26,0-.5.04-.72.16-.23.08-.43.2-.6.39-.33.36-.57.83-.55,1.33l.07.5c.09.32.25.59.48.83l1.74,2.17c.17.18.37.31.6.39.22.12.46.17.72.16.26,0,.5-.04.72-.16.23-.08.43-.2.6-.39.33-.36.57-.83.55-1.33l-.07-.5c-.09-.32-.25-.59-.48-.83h0Z"/><path class="cls-1" d="m108.59,164.01c4.71,4.01,11.05,4.04,16.85,3.02,5.47-.96,11.24-3.26,14.07-8.35,1.17-2.11-2.06-4-3.24-1.89-2.29,4.13-7.09,5.74-11.47,6.56s-9.91,1.12-13.56-1.99c-1.83-1.56-4.49,1.08-2.65,2.65h0Z"/><path class="cls-1" d="m90,186.47c.37-.27.74-.55,1.03-.91s.56-.71.75-1.12.37-.83.46-1.28.15-.93.13-1.39c-.03-.5-.19-.97-.55-1.33-.33-.33-.86-.57-1.33-.55s-.99.18-1.33.55-.58.83-.55,1.33c.01.22,0,.44-.02.66l.07-.5c-.04.33-.13.65-.26.95l.19-.45c-.12.28-.27.53-.45.77l.29-.38c-.18.24-.39.45-.63.64l.38-.29s-.05.04-.08.06c-.22.12-.39.28-.53.48-.17.18-.28.39-.34.64-.12.45-.07,1.05.19,1.44s.64.75,1.12.86,1.05.1,1.44-.19h0Z"/><path class="cls-1" d="m99.8,185.88l-.25-3.71c-.03-.5-.19-.96-.55-1.33-.33-.33-.86-.57-1.33-.55s-.99.18-1.33.55-.58.83-.55,1.33l.25,3.71c.03.5.19.96.55,1.33.33.33.86.57,1.33.55s.99-.18,1.33-.55.58-.83.55-1.33h0Z"/><path class="cls-1" d="m107.71,185.19l-.95-2.55c-.06-.24-.17-.46-.34-.64-.13-.2-.31-.37-.53-.48-.22-.14-.45-.21-.7-.22-.25-.06-.5-.04-.75.03-.45.15-.89.43-1.12.86s-.36.98-.19,1.44l.95,2.55c.06.24.17.46.34.64.13.2.31.37.53.48.22.14.45.21.7.22.25.06.5.04.75-.03.45-.15.89-.43,1.12-.86s.36-.98.19-1.44h0Z"/><path class="cls-1" d="m116.96,181.79l-1.39-2.33c-.24-.41-.66-.74-1.12-.86-.25-.08-.5-.09-.75-.03-.25.01-.48.09-.7.22-.4.26-.75.64-.86,1.12s-.07,1,.19,1.44l1.39,2.33c.24.41.66.74,1.12.86.25.08.5.09.75.03.25-.01.48-.09.7-.22.4-.26.75-.64.86-1.12s.07-1-.19-1.44h0Z"/><path class="cls-1" d="m137.09,181.75c.58-.79,1.16-1.57,1.74-2.36.14-.22.21-.45.22-.7.06-.25.04-.5-.03-.75-.06-.24-.17-.46-.34-.64-.13-.2-.31-.37-.53-.48-.44-.23-.96-.35-1.44-.19l-.45.19c-.28.17-.51.39-.67.67-.58.79-1.16,1.57-1.74,2.36-.14.22-.21.45-.22.7-.06.25-.04.5.03.75.06.24.17.46.34.64.13.2.31.37.53.48.44.23.96.35,1.44.19l.45-.19c.28-.17.51-.39.67-.67h0Z"/><path class="cls-1" d="m145.75,183.93c.05-.61.12-1.22.2-1.82l-.07.5c.13-.97.3-1.93.51-2.89.11-.49.07-1-.19-1.44-.23-.39-.67-.76-1.12-.86-.48-.11-1.02-.09-1.44.19-.4.26-.76.64-.86,1.12-.37,1.72-.63,3.46-.77,5.21-.04.46.24,1.01.55,1.33s.86.57,1.33.55.99-.18,1.33-.55.51-.81.55-1.33h0Z"/><path class="cls-1" d="m156.05,183.23c-.27-.64-.45-1.3-.54-1.98l.07.5c-.02-.19-.04-.37-.06-.56,0-.26-.04-.5-.16-.72-.08-.23-.2-.43-.39-.6-.17-.18-.37-.31-.6-.39-.22-.12-.46-.17-.72-.16-.48.02-.99.18-1.33.55s-.58.83-.55,1.33c.07,1.04.26,2.08.67,3.04.06.24.17.46.34.64.13.2.31.37.53.48.22.14.45.21.7.22.25.06.5.04.75-.03.45-.15.89-.43,1.12-.86l.19-.45c.09-.33.09-.66,0-1h0Z"/><path class="cls-1" d="m165.09,180.5c-.83-1.05-1.67-2.11-2.5-3.16-.17-.18-.37-.31-.6-.39-.22-.12-.46-.17-.72-.16-.46,0-1.01.2-1.33.55s-.57.83-.55,1.33l.07.5c.09.32.25.59.48.83.83,1.05,1.67,2.11,2.5,3.16.17.18.37.31.6.39.22.12.46.17.72.16.46,0,1.01-.2,1.33-.55s.57-.83.55-1.33l-.07-.5c-.09-.32-.25-.59-.48-.83h0Z"/><path class="cls-1" d="m36.7,201.49c-4.6-27.92-4.58-57.25,4.58-84.28,7.54-22.27,21.65-42.93,41.37-56.09,5.35-3.57,11.12-6.82,17.29-8.7,3.51-1.07,7.14-1.66,10.75-2.23s7.47-1.13,11.21-1.59,7.67-.88,11.52-1.23,7.59-.86,11.33-.5c3.5.34,6.8,1.88,10.03,3.18,3.55,1.42,7.11,2.85,10.66,4.27,3.05,1.22,6.1,2.47,8.91,4.18s5.16,4.06,7.22,6.67c4.18,5.28,8.1,10.89,11.72,16.57s6.86,11.77,8.91,18.27c2.23,7.06,3.27,14.44,4.42,21.74,4.49,28.33,8.83,57.61,3.62,86.15-.65,3.54-1.44,7.05-2.38,10.52-.63,2.33,2.99,3.33,3.62,1,7.91-29.23,4.69-59.81.21-89.31-1.11-7.32-2.14-14.67-3.59-21.93s-3.72-14.14-7.13-20.68c-3.21-6.16-7.17-11.89-11.24-17.51s-8.02-11.57-14.24-15.14c-3.03-1.74-6.3-3.01-9.53-4.31-3.63-1.46-7.26-2.91-10.89-4.36-3.37-1.35-6.69-2.69-10.33-3.03-3.83-.35-7.76.17-11.58.52-7.86.71-15.69,1.69-23.48,2.93-3.61.58-7.24,1.16-10.75,2.23s-6.9,2.58-10.14,4.29c-21.78,11.45-38.12,31.58-47.65,54.01-11.31,26.61-13.08,56.32-9.59,84.76.44,3.55.95,7.09,1.53,10.62.39,2.38,4.01,1.37,3.62-1h0Z"/><path class="cls-1" d="m223.76,219.64c4.22-17.59,8.47-35.41,8.78-53.59.16-9.16-.92-18.25-2.44-27.26-1.32-7.79-2.81-15.56-4.59-23.25-3.33-14.37-7.89-28.74-15.64-41.39-3.82-6.22-8.42-12.01-13.83-16.93-6.15-5.59-13.2-10.08-20.44-14.11s-15.3-8.09-23.67-10.17-17.41-2.36-26.09-1.29c-14.89,1.83-29.35,7.02-42.39,14.38-12.22,6.89-23.31,15.82-32.78,26.16s-17.41,22.08-23.35,34.78c-3.49,7.46-6.56,15.28-7.95,23.42-1.52,8.87-1.11,18.01-1.07,26.97.08,17.8.54,35.69,3.61,53.27.75,4.3,1.67,8.56,2.76,12.79.6,2.33,4.22,1.34,3.62-1-4.36-16.87-5.68-34.3-6.08-51.67-.2-8.76-.25-17.53-.17-26.29.04-4.29.19-8.6.9-12.84s1.9-8.41,3.35-12.47c4.69-13.12,11.75-25.53,20.36-36.47s18.42-20.16,29.67-27.82,23.91-13.6,37.19-17.06c8.26-2.15,16.78-3.34,25.33-2.97s16.56,2.54,24.24,6.05,14.83,7.52,21.63,12.17c6.25,4.28,11.87,9.34,16.59,15.28,8.87,11.17,14.27,24.72,18.09,38.33,1.98,7.03,3.55,14.17,4.95,21.34,1.64,8.41,3.22,16.87,3.99,25.4,1.6,17.71-1.29,35.26-5.18,52.49-.96,4.25-1.98,8.49-2.99,12.73-.56,2.35,3.05,3.35,3.62,1h0Z"/><path class="cls-1" d="m17.13,228.77c-3.82-19.08-6.67-38.4-7.28-57.87-.58-18.33.82-36.82,5.39-54.62,3.92-15.29,10.09-30.04,18.72-43.28,8.81-13.51,20.21-25.05,33.8-33.75,7.86-5.03,16.17-9.48,24.51-13.64,4.17-2.08,8.43-3.62,13.02-4.43s9.69-1.34,14.55-1.82c18.67-1.84,37.84-1.81,55.93,3.7,8.08,2.46,15.83,5.99,22.83,10.74s12.75,10.5,17.63,17.11c10.42,14.13,16.12,31,19.07,48.17,3.23,18.83,3.73,38.28,2.88,57.33s-3.44,38.27-7.73,56.98c-1.05,4.58-2.21,9.14-3.46,13.67-.64,2.33,2.97,3.32,3.62,1,5.23-18.98,8.72-38.44,10.43-58.06s1.72-39.3-.33-58.81c-1.92-18.3-6.09-36.61-15.17-52.77-4.12-7.34-9.23-14.19-15.32-20.01s-13.49-10.77-21.31-14.37c-17.06-7.84-35.99-10.07-54.61-9.43-9.99.34-20.15,1.21-30.01,2.94s-17.74,6.69-26.01,11.19-16.02,9.19-23.21,15.02c-6.26,5.07-11.94,10.86-16.97,17.15-10.12,12.64-17.7,27.14-22.92,42.44-5.81,17.01-8.54,34.94-9.09,52.87-.61,19.86,1.45,39.73,4.78,59.29.81,4.76,1.7,9.5,2.65,14.24.47,2.36,4.09,1.36,3.62-1h0Z"/><path class="cls-1" d="m238.42,235.61c9.42-18.94,15.65-39.35,18.9-60.23,3.23-20.75,3.7-41.92,1.62-62.81s-6.57-40.54-16.72-58.3c-8.94-15.65-22.24-28.32-37.84-37.24S171.51,2.94,153.84.93c-19.83-2.26-40.43-.41-59.42,5.77-10.32,3.36-20,8.16-29.14,13.99-8.43,5.38-16.66,11.16-24.44,17.43-14.73,11.86-27.93,26.45-33.58,44.86-3.28,10.68-4.26,22.03-5.27,33.11S.31,139.04.09,150.54c-.44,23.17.78,46.37,3.67,69.36.7,5.55,1.49,11.08,2.37,16.6.16,1.01,1.41,1.55,2.31,1.31,1.07-.28,1.47-1.31,1.31-2.31-3.57-22.39-5.55-45.04-5.92-67.71s.6-44.94,3.59-67.13c1.37-10.17,3.78-20.12,8.74-29.17,4.4-8.04,10.28-15.13,16.83-21.49s13.95-12.15,21.5-17.49c8.49-6.02,17.2-11.91,26.59-16.45,18.44-8.92,39.31-12.67,59.71-12.26,17.27.35,34.64,3.87,50.49,10.81s29.88,17.08,40.44,30.6c12.09,15.5,18.46,34.62,21.7,53.8s3.9,40.84,2.06,61.11-6.46,40.78-14.11,59.9c-1.86,4.65-3.92,9.21-6.15,13.69-1.07,2.15,2.16,4.06,3.24,1.89h0Z"/><path class="cls-1" d="m121.5,149.43c-.58.11-1.23.5-1.64.93-.46.49-.75,1.02-.95,1.65-.1.31-.12.67-.16.98-.02.13-.02.25-.02.38,0,.33.07.66.12.99.02.14.06.28.11.42.12.32.24.67.44.95.34.46.67.87,1.19,1.14.24.12.49.24.75.31.21.05.49.07.7.1.04,0,.08,0,.12,0,.28,0,.56-.04.82-.11.18-.05.46-.18.63-.27.23-.11.42-.29.61-.45.25-.22.47-.51.62-.81s.3-.66.39-1.01.14-.74.17-1.11-.04-.79-.11-1.16c-.13-.7-.54-1.39-1.04-1.89-.19-.2-.43-.36-.66-.52-.07-.05-.13-.09-.21-.12-.59-.29-.99-.39-1.65-.44-.34-.01-.67.06-.96.22-.31.1-.58.27-.8.52-.24.23-.42.49-.52.8-.16.3-.23.62-.22.96.03.65.24,1.32.73,1.77l.51.39c.39.23.81.34,1.26.34.03,0,.05,0,.08,0l-.66-.09c.09.01.18.04.27.07l-.6-.25c.1.04.19.1.27.16l-.51-.39c.08.07.16.15.23.23l-.39-.51c.07.1.14.2.19.32l-.25-.6c.05.13.09.26.11.4l-.09-.66c.02.18.02.36,0,.54l.09-.66c-.03.26-.1.51-.2.75l.25-.6c-.03.07-.06.13-.11.19l.39-.51s-.07.08-.12.12l.51-.39s-.07.04-.11.06l.6-.25s-.07.02-.11.03l.66-.09c-.07,0-.13,0-.2,0l.66.09c-.05-.01-.11-.03-.16-.04l.6.25c-.06-.03-.12-.06-.18-.1l.51.39c-.06-.05-.11-.1-.15-.16l.39.51c-.06-.09-.11-.18-.16-.27l.25.6c-.08-.19-.13-.39-.16-.59l.09.66c-.02-.2-.02-.41,0-.61l-.09.66c.02-.16.07-.32.13-.48l-.25.6c.05-.11.11-.22.18-.32l-.39.51c.05-.07.11-.13.18-.18l-.51.39c.07-.05.14-.09.22-.13l-.6.25c.06-.02.13-.04.19-.05.33-.08.61-.23.85-.45.27-.18.49-.41.64-.7.18-.29.28-.6.3-.93.07-.33.06-.66-.04-1-.2-.6-.57-1.19-1.15-1.49l-.6-.25c-.44-.12-.89-.12-1.33,0h0Z"/></g></svg>