<?xml version="1.0" encoding="UTF-8"?><svg id="Livello_2" xmlns="http://www.w3.org/2000/svg" viewBox="0 0 455.11 549.12"><g id="Livello_1-2"><path d="m315.27,370.28c12.78-4.37,25.06-10.06,37.82-14.48,12.08-4.18,24.48-8.52,37.23-10.05,5.99-.72,12.11-.82,18.1-.02,5.63.75,11.78,2.06,16.88,4.64,7.25,3.67,12.29,10.48,15.91,17.56,8.21,16.06,10.19,34.89,5.22,52.19-2.57,8.93-7.33,16.67-12.09,24.56-6.27,10.39-11.42,21.4-17.23,32.05-3.39,6.21-6.71,12.46-9.43,19-1.96,4.7-3.53,9.8-2.31,14.91.85,3.56,3.1,6.38,5.25,9.23,2.49,3.3,4.47,6.75,5,10.92l1.49-2.59c-4.35,1.96-8.91,1.08-12.01-2.55-2.3-2.69-6.22.74-4.71,3.64,1.34,2.56,2.77,5.89,2.42,8.7-.13,1-.43,1.67-.83,2.19-.29.38-.87.65-1.07.72-.86.31-1.92.03-2.63-.66-.61-.6-.79-.94-1.04-1.79-.35-1.21-.29-2.4-.15-3.68.37-3.33-5.36-4.14-5.89-.8-.34,2.17-.73,4.38-1.5,6.45-.23.61-.47,1.17-.8,1.74-.25.43-.53.77-.66.9.06-.06-.33.23-.35.15-.05-.22.74.13-.02-.04.87.2.09,0-.05-.05-.71-.27.56.32-.15-.06-.23-.12-.44-.26-.66-.4-.1-.07-.59-.49-1.05-.97-4.5-4.63-7.14-11.97-8.94-18.15-.91-3.12-1.69-6.35-1.84-9.6-.24-5.19,1.25-10.57,2.71-15.5,3.85-13.02,10.37-25.01,16.1-37.26,2.66-5.69,5.04-11.46,8.41-16.79,2.49-3.94,5.4-7.61,7.87-11.56,5.5-8.8,7.77-19.42,8.02-29.72.18-7.45-1.19-15.46-6.52-21.04-5.63-5.88-14.24-7.34-22.04-7.21-11.27.2-22.89,2.54-33.68,5.73-9.74,2.88-19.16,6.92-27.92,12.07-17.41,10.26-31.85,24.65-45.32,39.53-8.12,8.97-15.9,18.21-24.68,26.56-9.3,8.85-19.39,16.88-30.37,23.55-11.48,6.98-23.93,12.17-36.73,16.19-13.44,4.22-27.41,6.88-41.53,6.76-7.33-.07-14.65-.91-21.96-1.38s-15.01-.87-22.51-1.25c-15-.75-30.01-1.42-44.99-2.58-11.95-.93-23.94-1.94-35.41-5.65-4.91-1.59-10.02-3.67-13.93-7.13-2.57-2.27-6.81-7.3-3.7-10.79,2.84-3.18,7.17-.03,9.24,2.33l4.24-4.24c-2.59-2.05-5.33-4.43-6.81-7.45s.13-4.82,3.01-6.24l-2.31.3c3.28,1.31,6.09,3.38,8.54,5.89,1.67,1.7,5.44.55,5.12-2.12-.46-3.82-1.44-7.66-1.46-11.51,0-.68.04-1.32.12-1.66.14-.64.05-.59.27-.68-.26.1.01-.05.38-.03,1.02.04,1.94.24,2.93.55,11.62,3.67,18.65,14.91,28.75,21.1s22.63,8.97,34.2,10.64c12.4,1.79,24.68,1.83,37.05-.35,14.02-2.47,27.47-7.43,40.37-13.35,9.88-4.52,20.02-9.16,29.2-15.02,8.09-5.17,15.14-11.82,19.61-20.41,6.09-11.7,7.78-25.58,8.62-38.57.5-7.68.52-15.39.22-23.08s-1.05-14.92-1.23-22.4c-.36-15.02.89-30.03,2.78-44.92.59-4.64,2.21-9.85.97-14.5-.98-3.7-3.33-6.92-5.74-9.81-6.54-7.82-14.91-14.12-22.77-20.55-8.72-7.13-17.66-14.29-24.86-23.02-7.91-9.6-13.73-20.86-18.82-32.14-10.07-22.35-16.84-46.32-28.97-67.71-5.63-9.92-12.65-19.12-21.34-26.55-3.61-3.08-7.47-6.27-11.75-8.37-3.77-1.84-7.73-3.29-11.58-4.95-4.12-1.78-8.41-3.65-12.02-6.37-2.39-1.8-4.11-3.83-3.66-6.87.19-1.28.36-1.52,1.34-1.91-.31.12,1.22-.27,1.06-.25.88-.12,1.81-.08,2.7-.03,3.6.22,7.14,1.27,10.64,2.07,3.08.7,6.21,1.41,9.36.95,2.15-.31,2.99-3.68,1.32-5.01-2.49-1.99-5.11-4.24-6.57-7.14-.39-.77-.57-1.71-.63-2.16-.04-.29.18-.26.08-.32.27.16-.43.29-.34.41-.02-.03.36-.21.96-.13.45.06,1.67.53,2.37.92,2.85,1.6,5.07,4.14,7.05,6.7,1.82,2.36,6.02-.2,5.01-2.92-.79-2.12-1.4-4.28-1.78-6.51-.17-.99-.27-1.98-.34-2.98s-.45-2.83-.11-3.8c.72-2.11,3.99-.23,5.33.51,4.4,2.42,7.69,6.5,10.4,10.63,6.56,9.97,10.67,21.29,15.99,31.92,2.34,4.68,5.03,8.88,8.36,12.91,5.38,6.51,9.61,13.9,13.06,21.6,6.61,14.72,10.78,30.39,17.78,44.96,6.36,13.22,14.09,25.87,23.21,37.37,8.12,10.24,18.59,21.62,31.51,25.56,22.06,6.73,22.6-24.89,23.39-38.62.23-4.07.41-8.53,1.06-12.24,1.55-8.87,3.7-17.62,5.19-26.5s2.76-17.78,1.85-26.68c-.83-8.16-2.83-16.17-3.45-24.34-.29-3.8-.29-7.63.55-11.36l-3.69,2.1c13.31,5.61,22.97,17.26,34.24,25.87,6.04,4.62,12.6,8.24,20,10.18s15.3,2.38,23.01,2.55c6.95.16,13.79.19,20.68,1.25s13.56,2.34,20.42,2.79c6.42.42,13.06.05,19.02-2.57,4.99-2.19,8.64-6.04,11.04-10.89,5.71-11.56,6.16-25.27,6.82-37.9l-3.8,2.89c5.15,1.39,8.99,5.97,11.87,10.21,3.94,5.79,6.89,12.25,9.14,18.86,2.06,6.04,3.74,12.4,4.14,18.79.24,3.82.01,7.57,1.15,11.3,1.59,5.2,3.26,10.23,3.96,15.66,2.45,18.91-3.59,37.79-9.5,55.52-5.8,17.41-12.48,34.52-19.05,51.66-7.1,18.53-14.31,37.09-19.81,56.17-1.07,3.72,4.72,5.3,5.79,1.6,10.3-35.77,25.93-69.78,37.89-104.99,6.18-18.19,12.55-37.52,10.97-56.98-.42-5.24-1.37-10.44-2.89-15.47-.72-2.39-1.76-4.72-2.19-7.19-.37-2.11-.21-4.23-.29-6.36-.27-6.63-1.81-13.26-3.83-19.56-2.46-7.7-5.76-15.34-10.32-22.04-3.78-5.55-8.74-11.14-15.46-12.96-1.96-.53-3.7.96-3.8,2.89-.56,10.6-1.03,21.56-4.65,31.65-1.65,4.6-4.16,8.81-8.57,11.16-5.24,2.8-11.53,2.93-17.32,2.58-6.45-.4-12.8-1.62-19.17-2.6-6.49-.99-12.85-1.29-19.4-1.41-7.35-.13-14.77-.27-21.99-1.84s-13.51-4.68-19.4-9.02c-12.49-9.2-22.57-21.43-37.14-27.58-1.45-.61-3.37.67-3.69,2.1-1.78,7.86-.64,15.91.63,23.75,1.34,8.27,2.8,16.35,2.16,24.77-.73,9.53-2.57,18.91-4.49,28.25-1.27,6.2-2.71,12.36-3.24,18.68-.79,9.45-.62,19.08-2.67,28.38-.79,3.58-1.99,7.64-4.32,10.1-1.08,1.14-2.06,1.77-3.42,2.09-1.46.34-3.24.23-4.99-.23-5.76-1.5-11.01-5.29-15.46-9.11-5.63-4.84-10.63-10.42-15.16-16.29-8.88-11.5-16.4-24.22-22.5-37.4-6.95-15-11.03-31.16-18.27-46.04-3.71-7.63-8.39-14.39-13.74-20.95-3.08-3.78-5.26-8.34-7.35-12.71-5.15-10.76-9.41-22.25-16.53-31.92-3.09-4.2-6.78-8.24-11.52-10.58-2.43-1.2-5.51-2.45-8.25-1.72-4.03,1.07-5.41,4.69-5.32,8.49.11,4.5.87,8.97,2.44,13.2l5.01-2.92c-3.4-4.4-12.39-13.41-18.45-7.81s2.84,14.63,7.05,18.01l1.32-5.01c.62-.09-.92-.03-1.21-.05-.73-.05-1.03-.1-1.69-.22-1.83-.32-3.64-.77-5.46-1.19-3.67-.86-7.46-1.81-11.24-1.82-3.33,0-6.87.95-8.68,3.99s-1.61,7.81.19,10.94c2,3.49,5.72,5.9,9.15,7.81,4.15,2.31,8.56,4.11,12.94,5.93,3.33,1.38,6.77,2.65,9.78,4.66,4.93,3.3,9.48,7.15,13.6,11.43,16.45,17.11,24.5,40.38,32.92,62.07,8.99,23.14,18.36,47.56,36.34,65.37,8.15,8.07,17.3,15.05,26.1,22.38,4.01,3.34,8,6.75,11.68,10.46,2.73,2.76,5.58,5.78,7.2,9.36s.42,7.27-.11,11.29c-.96,7.24-1.79,14.5-2.37,21.78s-.95,15.21-.9,22.83.79,15.51,1.16,23.28c.73,15.11.43,30.47-2.63,45.34-2.19,10.64-6.21,20.39-14.27,27.91-7.27,6.78-16.46,11.19-25.3,15.52-12.34,6.04-24.75,11.81-38,15.6s-25.84,5.32-39.09,4.31c-11.98-.91-24.44-3.26-35.48-8.16-5.59-2.48-10.18-6.07-14.68-10.16s-8.92-8.49-14.27-11.43c-3.72-2.05-9.13-4.74-13.49-3.21-3.53,1.24-4.46,4.98-4.37,8.35.1,3.74,1.01,7.42,1.45,11.12l5.12-2.12c-1.6-1.63-3.34-3.11-5.23-4.39-1.75-1.18-4.22-2.82-6.35-3.09-3.39-.43-7.35,3.93-8.22,6.91-1.95,6.63,4.21,12.86,8.9,16.56,2.99,2.36,6.84-1.28,4.24-4.24-3.23-3.68-8.09-6.36-13.1-5.04-4.25,1.12-7.15,4.93-7.38,9.27-.31,5.81,3.89,10.82,8.21,14.14s9.59,5.55,14.82,7.24c11.95,3.87,24.55,4.9,37,5.86,15.6,1.21,31.24,1.89,46.87,2.67,7.82.39,15.63.81,23.44,1.34s15.09,1.34,22.67,1.17c14.63-.33,29.13-3.4,42.97-8.04,13.12-4.39,25.82-9.96,37.51-17.39,11.27-7.16,21.66-15.7,31.19-25.03,16.46-16.11,30.22-34.69,47.88-49.63,16.3-13.79,35.23-23.19,56.15-27.53,5.97-1.24,12.05-2.23,18.14-2.62,4.53-.29,9.17-.2,13.54,1.12,6.84,2.07,10.57,7.52,11.58,14.42.63,4.32.36,8.83-.2,13.15-.73,5.63-2.01,11.33-4.59,16.43-2.14,4.22-5.03,7.96-7.7,11.84-3.52,5.1-6.29,10.47-8.81,16.12-5.71,12.8-12.57,25.11-17.16,38.4-2.13,6.18-3.91,12.73-4.32,19.29-.21,3.35.41,6.79,1.17,10.04,1.7,7.3,4.53,14.95,8.9,21.1,3.11,4.37,9.05,9.3,13.73,3.81,2.57-3.01,3.38-7.34,3.97-11.13l-5.89-.8c-.72,6.51,4,14.1,11.42,11.93,9.19-2.69,6.25-14.33,3.07-20.43l-4.71,3.64c4.95,5.81,12.59,6.5,19.28,3.49.85-.38,1.61-1.66,1.49-2.59-.55-4.28-1.85-8.2-4.27-11.79-1.78-2.66-4.16-5.03-5.52-7.96-1.61-3.46-.81-7.23.42-10.68,2.15-6.05,5.28-11.81,8.32-17.45,3.23-6.01,6.62-11.95,9.65-18.07,2.64-5.34,5.39-10.6,8.44-15.72,4.85-8.12,9.9-16.04,12.84-25.11,5.96-18.35,4.32-37.99-3.43-55.57-3.54-8.02-8.61-15.58-15.75-20.8-4.08-2.99-8.88-4.65-13.73-5.96-6.14-1.66-12.54-2.51-18.9-2.52-14.48-.02-28.51,4.24-42.12,8.78-14.86,4.95-29.1,11.47-43.91,16.53-3.63,1.24-2.07,7.04,1.6,5.79h0Z"/><path d="m322.64,143.57c-.76-2.66-.93-5.4-1.31-8.13s-1.15-5.29-2.18-7.88c-2.04-5.17-4.32-10.25-6.92-15.16-5.15-9.71-11.41-18.77-18.09-27.48-12.81-16.69-24.55-35.06-30.02-55.59-1.21-4.53-2.83-10.33-.47-14.69.16-.29.32-.57.5-.84s0,.1.21-.26c.27-.48-.09-.03.04-.06.3-.05-.61.16-.72.17l-.45-.07c.23.07.23.07-.02-.02-.25-.11-.26-.1-.03.03l-.28-.21c.13.14.27.27.4.41.13.16.11.12-.08-.12.08.11.16.22.23.33,1.14,1.76,1.99,3.67,3,5.51,1.5,2.73,5.44,1.33,5.59-1.51.04-.8.1-1.6.19-2.4,0-.07.13-.93.03-.27.04-.28.08-.55.13-.83.08-.47.18-.94.29-1.41.14-.56.32-1.09.49-1.64s-.08.11.06-.17c.09-.2.19-.4.3-.59.12-.22.26-.44.4-.64-.41.59.12-.06.15-.12.26-.43-.2.13.02-.02.52-.35-.07-.04.1-.05.38-.03-.57.01,0,0,.75-.02-.68.04.02.04l-.35-.13c.22.14.23.14.04,0-.19-.16-.19-.14.02.04.08.08.15.16.22.24.2.2-.2-.44.01.04.1.22.26.43.37.65.06.12.38.82.13.24.09.21.17.42.24.63.71,1.94,1.16,3.94,1.99,5.83.52,1.2,2.22,1.7,3.39,1.38,1.38-.38,2.04-1.56,2.2-2.89.07-.57-.14.8-.02.18.03-.18.06-.36.09-.54.06-.34.13-.69.2-1.03.19-.93.43-1.85.7-2.76s.57-1.8.94-2.67c-.26.61.1-.2.13-.26.08-.16.15-.32.23-.47.25-.49.54-.95.83-1.41.1-.15.46-.54.03-.05.15-.17.3-.33.45-.5.03-.03.56-.5.18-.19s.15-.09.2-.12c.24-.15.7-.19,0-.02.08-.02.29-.05.37-.1l-.41.06c.13,0,.26,0,.4,0-.46-.08-.52-.08-.18-.01.16.04.31.09.46.14-.12-.04-.53-.28-.09,0,.62.39-.4-.46.11.07.1.1.56.66.13.07.09.12.19.25.26.39.11.21.23.42.33.63-.28-.57-.03-.08.02.09.16.55.29,1.09.41,1.65s.03.14.01.01c.04.28.06.55.08.83.04.47.06.94.07,1.4.02,1.09-.02,2.18-.09,3.27-.15,2.24-.4,4.48-.5,6.73-.27,6.29.29,12.62,1.74,18.75,1.53,6.48,4.02,12.71,6.62,18.83s5.53,12.12,8.62,18.03c6.23,11.92,13.13,23.47,19.54,35.29,3.62,6.69,7.49,13.2,11.31,19.78,3.02,5.22,5.15,11.4,9.64,15.61,2.82,2.64,7.07-1.6,4.24-4.24-3.73-3.49-5.79-9.19-8.37-13.81-3.45-6.16-7.22-12.13-10.56-18.36-6.57-12.25-13.72-24.18-20.19-36.49-3.24-6.16-6.32-12.42-9.04-18.83s-5-12.47-6.38-19.02-1.48-12.78-.92-19.2c.35-3.97.89-8.36-.57-12.18-.96-2.53-2.75-4.65-5.5-5.26s-5.12.62-6.78,2.65c-2.93,3.59-4.19,8.57-4.74,13.09l5.59-1.51c.37.84-.01-.08-.07-.26-.08-.23-.15-.45-.22-.68-.18-.59-.35-1.18-.53-1.76-.39-1.29-.84-2.56-1.43-3.78-1.33-2.75-4.06-4.72-7.21-3.85-5.56,1.53-6.32,9.17-6.57,13.93l5.59-1.51c-1.72-3.12-3.48-8.64-7.77-8.81-2.59-.1-4.4,2.05-5.49,4.15-1.31,2.52-1.86,5.27-1.84,8.11.03,5.36,1.6,10.75,3.22,15.82,1.75,5.5,3.95,10.86,6.42,16.07,4.86,10.24,10.91,19.88,17.52,29.07,3.33,4.63,6.89,9.09,10.23,13.71s6.61,9.51,9.56,14.48c3.28,5.52,6.2,11.24,8.7,17.15,1.23,2.91,2.53,5.87,3.1,9,.6,3.31.66,6.69,1.58,9.95,1.06,3.71,6.85,2.13,5.79-1.6h0Z"/><path d="m319.5,247.96c8.41-2.03,12.88-10.34,15.15-18.02l-5.89-.8c-.25,2.4-.07,4.79.26,7.17s.8,4.62,1.77,6.74c.84,1.83,2.26,3.38,3.69,4.77.64.63,1.31,1.23,1.93,1.88.14.15.28.29.42.45.06.07.47.58.2.22s.08.14.13.22c.12.17.35.77.04-.03.59,1.51,2.01,2.56,3.69,2.1,1.44-.39,2.69-2.17,2.1-3.69-.7-1.78-1.9-3.11-3.26-4.43-.64-.62-1.3-1.23-1.91-1.88-.33-.35-.66-.71-.95-1.08.26.32-.03-.06-.13-.2-.13-.2-.26-.4-.38-.6-.09-.16-.18-.33-.27-.5.23.46-.04-.1-.08-.21-.17-.49-.32-1-.46-1.5-.28-1.04-.49-2.1-.66-3.16-.05-.34-.1-.72-.15-1.29s-.09-1.15-.11-1.73c-.03-1.08,0-2.16.11-3.24.15-1.46-1.26-2.79-2.6-2.95-1.48-.18-2.86.69-3.29,2.15-.23.79-.48,1.57-.76,2.35-.15.42-.3.83-.46,1.25-.07.18-.15.37-.22.55.18-.43-.08.17-.11.24-.71,1.58-1.54,3.11-2.53,4.53-.11.16-.23.32-.34.48.19-.25.04-.05-.07.08-.28.33-.56.66-.85.98s-.6.62-.92.91c-.14.13-.29.25-.43.38s-.31.26-.06.07c-.67.52-1.41.97-2.18,1.35-.17.08-.34.17-.52.24.3-.12.09-.04-.09.02-.47.14-.94.3-1.42.41-1.58.38-2.51,2.16-2.1,3.69.44,1.61,2.11,2.48,3.69,2.1h0Z"/><path d="m364.16,220.4c-6.04,1.07-13.66,4.39-12.33,11.84,1.23,6.95,8.36,9.32,14.59,9.14,2.65-.08,5.51-.41,8-1.39h-1.6c3.93.69,8.35-.1,11.13-3.18s3.05-7.53.71-11.03c-4.45-6.66-13.45-6.56-20.5-5.38-1.6.27-2.49,2.24-2.1,3.69.47,1.7,2.09,2.36,3.69,2.1.33-.05.66-.11.98-.16-.65.09.34-.04.38-.04.52-.06,1.05-.11,1.57-.14,1.34-.09,2.68-.11,4.01-.01,1.01.07,1.7.18,2.86.5.32.09.63.19.94.3.97.34-.2-.12.33.13.24.11.48.23.71.37.11.06.97.63.71.42.84.65,1.49,1.44,1.88,2.43.11.28.15.87.18,1.01.07.42,0,.33.03.09-.02.13-.35,1.15-.13.66-.12.26-.27.52-.43.75.07-.1.34-.37-.07.09-.2.22-.42.44-.65.63.4-.33-.4.25-.4.25-.79.48-1.79.77-2.56.82-1.33.09-2.33-.33-3.71.1-.68.21-1.35.41-2.04.56-.45.1-.91.16-1.37.25-.13.03-.58.08.06,0-.25.03-.51.06-.76.09-1.03.1-2.06.15-3.09.12-.5-.01-1.01-.04-1.51-.09.02,0-.87-.11-.42-.04s-.43-.08-.41-.08c-.44-.08-.88-.18-1.31-.31-.25-.07-.5-.17-.75-.24-.32-.13-.33-.12,0,.01-.16-.07-.31-.14-.46-.22-.38-.19-.73-.41-1.08-.65.53.35-.37-.34-.52-.51-.09-.09-.51-.73-.16-.17-.14-.22-.28-.43-.4-.66s-.28-.71-.46-1.34c-.25-.86-.02.27-.03-.21,0-.17.08-1.09-.05-.39.04-.25.12-.48.18-.72-.16.59,0,0,.1-.17.07-.12.54-.7.1-.19.19-.22.4-.42.61-.63.11-.11.56-.43.09-.1.29-.21.59-.4.9-.58.16-.09.32-.18.48-.26.1-.05,1.1-.5.56-.28.53-.22,1.07-.4,1.62-.57,1.15-.35,2.32-.61,3.5-.82,1.6-.28,2.5-2.23,2.1-3.69-.46-1.68-2.09-2.38-3.69-2.1Z"/><path d="m292.84,215.18c-7.37.19-15.79.64-21.76,5.55-3.01,2.48-4.19,6.3-2.65,9.94s5.22,5.24,8.93,5.88c1.91.33,3.86.51,5.8.45,1.61-.05,3.15-.51,4.72-.65,2.96-.27,5.9-.49,8.84-.92,6.55-.96,15.46-2.73,16.48-10.68.56-4.41-3.06-7.1-6.85-8.26-4.3-1.32-9.05-1.39-13.51-1.3-3.86.08-3.87,6.08,0,6,1.76-.04,3.53-.03,5.29.07s3,.2,4.52.5c.71.14,1.41.3,2.11.52.34.1.67.22,1.01.35s-.1-.04-.14-.06c.22.1.43.2.64.32.23.13.45.28.67.42.35.22-.38-.37-.11-.08.07.07.16.13.22.21.09.1.18.2.27.29-.8-.85-.07-.16-.13-.14.01,0,.19.36.18.33-.07-.13-.21-.57-.11-.18.14.49,0-.14,0-.22,0-.02,0,.4.02.41.05.03-.14.84.05-.15-.03.15-.05.31-.1.45-.04.13-.29.84-.19.61.15-.34-.12.22-.16.29-.13.23-.25.46-.39.68-.12.19-.27.37-.37.57.06-.11.38-.32.19-.26-.13.04-.44.43-.55.53-.24.22.19-.15.2-.16-.12.08-.24.17-.36.24-.3.18-.59.35-.9.51-.18.09-.84.39-.3.16-.33.14-.66.26-.99.38-.71.25-1.43.47-2.16.66-1.49.4-3,.71-4.52.96-.72.12-1.44.23-2.16.33.57-.08-.27.03-.44.06-.39.05-.78.09-1.17.14-1.08.12-2.16.22-3.24.3-1.53.12-3.02.22-4.52.56-.27.06-.55.11-.83.15.64-.1-.01,0-.28.01-.73.06-1.46.07-2.19.06s-1.49-.08-2.23-.14c-.61-.05-.24-.03-.11,0-.2-.03-.4-.06-.6-.09-.4-.07-.79-.15-1.18-.24-.7-.16-1.39-.37-2.07-.62-.45-.17.38.19-.03-.02-.15-.08-.31-.15-.46-.23-.21-.11-1.02-.71-.51-.27-.2-.17-.38-.36-.56-.55-.28-.28.24.45.09.09-.05-.13-.14-.25-.21-.37-.29-.53-.12-.24-.07-.1-.07-.17-.12-.35-.17-.53s-.08-.34-.12-.51c.06.31-.04.33.03.06.03-.11.01-.35.01-.48,0,.62-.07.3,0,.11.08-.23.42-.95.08-.36.14-.23.27-.47.41-.7.22-.36-.33.36-.03.04.14-.15.27-.3.41-.45.24-.24.49-.46.75-.67-.46.37.38-.24.56-.36.64-.41,1.32-.76,2.01-1.08.16-.08.33-.15.49-.22-.53.22.05-.01.15-.05.37-.14.74-.27,1.11-.4.65-.22,1.32-.41,1.98-.58.58-.15,1.17-.27,1.76-.37.2-.03,1.13-.16.53-.08.42-.05.83-.1,1.25-.15,2.55-.28,5.11-.43,7.67-.5,3.85-.1,3.87-6.1,0-6Z"/><path d="m271.17,226.37c-.05.1-.1.2-.15.3l2.74.36-.02-.08-.39,1.46c1.31-1.44,3-4.38,5.16-4.51l-1.45-1.9c-1.1,3.15-3.49,7.12-2.1,10.52.48,1.16,2.01,1.54,2.74.36,2.29-3.71,4.9-7.18,8.32-9.93l-2.51-1.46c-1.21,3.61-2.57,7.22-2.36,11.09.06,1.16,1.22,1.83,2.26,1.3,2.4-1.24,3.7-4.17,5.03-6.38,1.58-2.63,3.92-5.24,6.65-6.7l-2.26-1.3c.08,3.97-2.67,7.41-2.49,11.44.05,1.25,1.63,2.04,2.56,1.06,1.33-1.4,2.09-3.3,2.98-4.98.52-.98,1.74-3.81,2.96-3.91l-1.45-1.9c-.42,2.29-.77,4.64-1.07,6.95-.19,1.47-.04,3.68,1.97,3.65s3.6-2.56,4.42-4.11c1.1-2.07,1.81-4.47,3.67-6.01l-2.36-.3c.6.95.08,2.42.17,3.5.11,1.31.97,2.52.98,3.8.01,1.93,3.01,1.93,3,0-.01-1.57-1.01-2.9-1.01-4.45s.31-3-.56-4.37c-.55-.87-1.6-.93-2.36-.3-2.81,2.33-3.11,6.29-5.63,8.77-.06.06-.59.47-.6.5.95.91,1.34,1.08,1.17.51.03.12.04.07.02-.13.11-.42.08-.93.16-1.35.36-1.94.54-3.91.9-5.85.16-.87-.4-1.99-1.45-1.9-4.78.42-5.35,6.91-8.06,9.77l2.56,1.06c-.18-3.97,2.56-7.44,2.49-11.44-.02-1.16-1.25-1.83-2.26-1.3-2.8,1.49-5.33,4.11-7.08,6.74-.79,1.18-1.45,2.45-2.21,3.65-.63.99-1.31,2.14-2.39,2.69l2.26,1.3c-.2-3.6,1.13-6.94,2.25-10.3.52-1.56-1.45-2.31-2.51-1.46-3.6,2.9-6.38,6.63-8.79,10.53l2.74.36c-.59-1.43-.07-3.03.39-4.43.5-1.52,1.17-2.98,1.7-4.5.31-.89-.51-1.96-1.45-1.9-1.93.12-3.46,1.2-4.78,2.55-.64.65-1.22,1.36-1.82,2.06s-1.32,1.31-1.05,2.32c.31,1.18,2.17,1.55,2.74.36.05-.1.1-.2.15-.3.87-1.72-1.72-3.24-2.59-1.51h0Z"/><path d="m358.49,233c.06-.93,1.23-2.37,1.91-3.19.92-1.12,1.93-2.19,3.06-3.1l-2.56-1.06c-.03,3.52-1.2,6.99-2.16,10.34-.39,1.35,1.54,2.67,2.51,1.46,1.56-1.95,2.44-4.23,3.64-6.4s2.94-4.07,4.96-5.5l-2.26-1.3c.19,2.25-.82,4.33-1.25,6.5-.46,2.37-.22,4.74.34,7.06.3,1.25,2.12,1.47,2.74.36,2.44-4.35,4.86-8.84,8.55-12.27l-2.56-1.06c-.04,3.88-3.35,7.74-.99,11.56.59.95,2.01.99,2.59,0,.68-1.18,1.2-2.45,1.82-3.66.35-.69.72-1.37,1.14-2.02.14-.22.3-.41.45-.62.27-.36.24-.1-.16-.1,1.93-.04,1.93-3.04,0-3-1.75.03-2.78,1.93-3.52,3.27-.83,1.51-1.46,3.12-2.33,4.61h2.59c-.89-1.44-.23-3.3.22-4.78.52-1.72,1.16-3.44,1.18-5.26.01-1.34-1.63-1.92-2.56-1.06-3.88,3.6-6.46,8.31-9.02,12.87l2.74.36c-.53-2.22-.66-4.36-.08-6.58.53-2.03,1.28-4.05,1.1-6.18-.09-1.02-1.25-2.01-2.26-1.3-2.15,1.53-4.04,3.41-5.47,5.63s-2.12,4.73-3.73,6.74l2.51,1.46c1.04-3.61,2.23-7.34,2.26-11.14.01-1.41-1.6-1.83-2.56-1.06-1.38,1.1-2.58,2.45-3.65,3.84s-2.09,2.84-2.2,4.57c-.12,1.93,2.88,1.92,3,0h0Z"/><path d="m413.86,196.09c-.01.24-.01.49-.04.73.05-.36-.04.17-.04.2-.03.14-.37,1.15-.16.69-.08.18-.59.97-.25.53-.11.13-.23.26-.35.38-.05.05-.59.5-.29.27.27-.2-.09.05-.12.07-.16.08-.3.18-.46.27s-.32.17-.49.24c.47-.21.03-.02-.06.01-.82.26-1.64.49-2.49.65-4.72.91-9.62.53-14.4.72-5.03.2-10.02-.03-15.01-.73-4.51-.63-9.29-.4-13.32-2.82-1.36-.82-2.72-2.03-3.55-3.21-.5-.71-.94-1.47-1.33-2.26-.17-.34-.33-.7-.44-.97-.08-.21-.12-.52-.25-.69-.1-.38-.16-.2-.17.53.04.39-.07.72-.34.98-.01-.02.38-.35.35-.32-.11.07-.46.28.05-.02.35-.2.68-.43,1.03-.62.64-.36,1.3-.68,1.95-1.03,1.88-1.03,3.63-2.28,5.59-3.18,2.2-1.02,4.68-1.6,7.03-2.17s4.67-1.02,7.05-1.23c4.18-.38,8.64-.43,12.64.37,2.1.42,4.19,1.05,6.09,1.97,2.12,1.03,3.97,2.41,5.91,3.73,1.57,1.07,3.24,2.03,4.31,3.06.17.16.83.91.6.6.26.35.5.74.68,1.14.21.45-.11-.35.04.13.08.26.15.51.2.77.07.35.06.59.05,1.2-.06,3.86,5.94,3.86,6,0,.08-4.92-2.86-8.12-6.73-10.69s-7.69-5.37-12.29-6.87-9.72-1.8-14.61-1.61c-5.89.23-11.83,1.36-17.4,3.32-2.78.98-5.2,2.5-7.72,3.99-1.56.93-3.22,1.61-4.62,2.8-.73.62-1.35,1.41-1.59,2.35-.41,1.62.38,3.2,1.02,4.64.92,2.07,2.2,4.02,3.8,5.63,3.93,3.97,9.13,5.36,14.53,5.88,5.77.55,11.47,1.44,17.28,1.39,3.25-.03,6.51-.15,9.77-.2s6.4-.22,9.54-.85c2.26-.45,4.49-1.27,6.21-2.85,1.96-1.79,2.68-4.38,2.79-6.95.07-1.62-1.43-3-3-3-1.68,0-2.93,1.37-3,3Z"/><path d="m270.77,181.95c-2.38,5.81,1.85,11.5,6.79,14.2,2.79,1.52,5.78,2.11,8.91,2.43s5.94.59,8.92,1.04c3.41.51,6.84.91,10.29.96s6.75.32,10.12.19c3.82-.15,7.75-1.08,11.38-2.28s9.72-4.12,6.7-8.84v3.03c2.08-4.18-1.31-8.11-4.26-10.79s-6.33-5.29-9.81-7.28c-2.45-1.4-5.07-2.58-7.75-3.47s-5.38-1.23-8.07-1.83c-3.39-.75-6.78-1.34-10.25-.82-3.03.46-5.86,1.72-8.6,3.03-4.91,2.34-11.51,4.45-14.06,9.72-.71,1.46-.4,3.24,1.08,4.1,1.32.77,3.4.39,4.1-1.08.82-1.69,2.13-2.66,3.89-3.68,1.93-1.12,4-1.97,6.01-2.93,2.3-1.1,4.57-2.27,7.04-2.95s4.9-.51,7.37-.02c4.88.97,9.78,1.79,14.26,4.04,1.92.96,3.74,2.08,5.47,3.35.51.38,1.03.76,1.54,1.14.92.69.81.6,1.71,1.33,1.38,1.12,2.73,2.3,3.89,3.65-.02-.03.55.67.28.33s.24.34.23.32c.18.26.31.57.5.83.29.4.02.03-.03-.11.05.16.1.33.16.49.09.29-.09.35.03.08,0-.01.02-.37.02-.37-.04.2-.21.64.08-.12-.21.55-.41.88-.41,1.51,0,.28.45,1.86.57,1.79-.23.14-.27-1.29-.27-.92s.14-.76.05-.41.34-.77.1-.28c.14-.28.46-.48.07-.13-.53.46.28-.09-.11.09-.28.13-.54.33-.81.47-.3.16-.62.3-.93.44.64-.29-.45.17-.66.24-2.5.9-5.13,1.56-7.75,2.05s-5.56.29-8.29.18c-2.97-.12-5.94-.07-8.9-.32-3.11-.27-6.17-.89-9.26-1.27-2.88-.35-5.83-.31-8.66-1.02-2.16-.55-4.17-1.63-5.67-3.18s-2.07-3.23-1.21-5.34c.62-1.5-.67-3.3-2.1-3.69-1.72-.47-3.07.59-3.69,2.1Z"/><path d="m314.63,175.99c2.12.31,4.02,1.45,4.95,3.83,1.43,3.68-.59,8.57-2.31,11.69-2.91,5.28-6.99,5.31-12.77,5.54-3.04-1.4-4.28-6.93-3.67-9.65.97-4.34,4.05-8.81,8.07-10.56,1.72-.75,3.81-1.14,5.73-.86Z"/><path d="m391.01,180.96c1.82.12,3.44,1.12,4.17,3.27,1.18,3.47,2.16,8.27.9,11.8-1.46,4.09-5.7,7.5-10.16,7.42-4-.73-6.39-6.13-6.05-9.93.37-4.17,2.76-8.21,6.02-10.81,1.52-1.21,3.41-1.87,5.12-1.75Z"/><path d="m274.86,200.27h.01c-.16.19-.31.39-.47.59.01-.01.02-.02.03-.03l-.61.47c.15-.11.34-.19.52-.26l-.72.3c1.29-.53,2.7-.9,3.89-1.63.62-.38,1.2-.83,1.78-1.27.47-.35.94-.75,1.48-.99l-.72.3.05-.02c.75-.31,1.37-.65,1.79-1.38.38-.64.54-1.59.3-2.31s-.68-1.43-1.38-1.79-1.58-.6-2.31-.3c-.58.24-1.05.45-1.55.8-.39.27-.76.56-1.14.84-.69.52-1.38,1.02-2.18,1.36l.72-.3c-.63.27-1.28.49-1.93.74-.47.18-.94.37-1.4.59-.58.28-1,.74-1.36,1.26-.42.61-.49,1.62-.3,2.31s.73,1.45,1.38,1.79c.7.37,1.54.55,2.31.3s1.33-.71,1.79-1.38h0Z"/><path d="m287.5,209.49c3-2.97,4.15-7.09,6.34-10.59.83-1.33.33-3.36-1.08-4.1-1.47-.78-3.21-.35-4.1,1.08-.99,1.58-1.73,3.31-2.57,4.98-.45.89-.92,1.77-1.44,2.61-.13.2-.26.41-.39.6-.08.12-.16.23-.24.35-.07.1-.35.46-.02.03.36-.46-.14.17-.24.28-.16.18-.32.35-.49.52-1.12,1.11-1.19,3.15,0,4.24s3.05,1.18,4.24,0h0Z"/><path d="m309.1,209.27c2.09-2.88,1.61-6.59,2.89-9.76l-.3.72c.05-.12.1-.23.16-.35.35-.75.53-1.49.3-2.31-.19-.7-.73-1.45-1.38-1.79-1.33-.7-3.39-.44-4.1,1.08s-1.07,3.04-1.34,4.68c-.23,1.42-.45,2.86-1.01,4.2l.3-.72c-.19.43-.42.84-.7,1.23-.43.59-.49,1.63-.3,2.31s.73,1.45,1.38,1.79c.7.37,1.54.55,2.31.3s1.31-.71,1.79-1.38h0Z"/><path d="m327.21,206.96c-.45-3.02-1.19-5.99-1.6-9.01l.11.8c-.06-.45-.11-.91-.16-1.36-.08-.81-.28-1.52-.88-2.12-.52-.52-1.37-.91-2.12-.88-1.49.07-3.16,1.33-3,3,.37,3.77,1.31,7.43,1.87,11.17.1.69.8,1.46,1.38,1.79.64.38,1.59.54,2.31.3s1.43-.68,1.79-1.38c.4-.76.43-1.47.3-2.31h0Z"/><path d="m356.95,206.21s.02-.06.03-.09l-.3.72s.05-.09.08-.14l-.47.61c.1-.13.22-.24.35-.34l-.61.47c1.08-.82,2.4-1.25,3.52-2.01,1.77-1.2,3.32-2.67,4.84-4.15,1.13-1.09,1.18-3.16,0-4.24s-3.04-1.17-4.24,0c-1.12,1.09-2.25,2.17-3.48,3.13l.61-.47c-.93.71-1.93,1.22-2.96,1.77-1.32.7-2.75,1.61-3.15,3.15s.5,3.33,2.1,3.69,3.26-.47,3.69-2.1h0Z"/><path d="m374.84,212.12s-.04-.07-.05-.1l.3.72c-.05-.11-.07-.22-.09-.34l.11.8c-.01-.16,0-.31.01-.46l-.11.8c.05-.35.17-.69.3-1.02l-.3.72c.67-1.58,1.74-2.98,2.71-4.38s2.06-2.86,2.52-4.52l-5.89-.8c0,.18-.01.35-.01.53.04,1.57,1.35,3.07,3,3s3.04-1.32,3-3c0-.18,0-.35.01-.53.08-1.49-1.2-2.76-2.6-2.95s-2.89.7-3.29,2.15c-.04.16-.1.32-.17.48l.3-.72c-.83,1.93-2.27,3.59-3.42,5.33-1.4,2.13-2.87,4.82-1.51,7.33.75,1.38,2.78,1.93,4.1,1.08,1.4-.91,1.87-2.62,1.08-4.1h0Z"/><path d="m398.03,216.97c.38-1.34.66-2.71.91-4.09.23-1.28.53-2.58.6-3.88.04-.85.02-1.71.04-2.56,0-.22.02-.44.03-.66,0-.08.02-.16.02-.25.03-.5-.17.8-.05.35.03-.13.08-.28.1-.42-.07.42-.62,1.13-1.08,1.36,1.41-.7,1.91-2.8,1.08-4.1-.93-1.44-2.6-1.83-4.1-1.08s-1.8,2.43-1.94,3.89c-.09.96-.06,1.93-.08,2.89,0,.19,0,.39-.02.58-.02.39-.23.84.05-.21-.19.7-.25,1.46-.38,2.18-.26,1.48-.55,2.96-.97,4.4s.53,3.33,2.1,3.69,3.23-.48,3.69-2.1h0Z"/><path d="m417.01,214.01c-.62-3.95-2.64-7.47-3.52-11.35-.35-1.53-2.2-2.58-3.69-2.1-1.6.52-2.47,2.05-2.1,3.69.89,3.87,2.9,7.4,3.52,11.35.11.69.8,1.45,1.38,1.79.64.38,1.59.54,2.31.3s1.43-.68,1.79-1.38c.4-.76.43-1.47.3-2.31h0Z"/></g></svg>