<?xml version="1.0" encoding="UTF-8"?><svg id="Livello_2" xmlns="http://www.w3.org/2000/svg" viewBox="0 0 370.72 259.3"><defs><style>.cls-1{fill:#1d1d1b;}</style></defs><g id="Livello_2-2"><path class="cls-1" d="m29.48,112.27c-1.34-12.16-.83-24.51,1.64-36.49s7.53-23.73,12.33-35.27c2.81-6.77,5.62-13.54,8.44-20.31l-2.46-.33c.79,11.81,1.65,23.92,6.38,34.92.93,2.17,1.97,5.29,4.4,6.2,2.62.99,5.32-.73,7.62-1.79,5.55-2.56,11.35-4.59,17.28-6.11s11.97-2.51,18.07-2.94,12.77-.25,19.14-.69c10.39-.72,21.71-3.54,28.39-12.19,3.93-5.09,5.13-11.47,7.04-17.46,2.05-6.44,5.15-12.48,9.1-17.95l-2.33-.63c.04,6.25.02,12.53.8,18.74.73,5.88,2.25,11.49,4.7,16.9s5.61,10.53,8.48,15.75c2.31,4.19,4.35,8.52,6.11,12.97,7.61,19.22,11.06,40.18,11.36,60.79.16,11.12-.63,22.3-2.9,33.2-.2.96.58,1.74,1.54,1.54,16.97-3.58,34.43-2.33,51.52-.42,3.86.43,7.82.67,11.62,1.48,1.51.32,3.05.78,4.32,1.68,1.5,1.06,2.15,2.63,2.54,4.37,1.85,8.22,3.15,16.62,3.32,25.05.1,4.73-.13,9.47-.68,14.17-.28,2.4-.66,4.78-1.11,7.15-.22,1.16-.47,2.32-.73,3.47-.14.62-.29,1.23-.44,1.84-.05.2-.13.41-.16.61-.02.1-.05.2-.09.29-.17.36.03.65.61.86.58-1.53-1.8-2.11-2.41-.66s-1.65,2.49-2.97,3.23h1.26c-.84-.47-1.34-1.18-1.39-2.16-.05-.86-1.06-1.67-1.88-1.08-1.14.82-2.34,1.02-3.67.58l.87,1.54c1.59-7.38,3.38-14.76,4.74-22.18.67-3.61.6-7.13.33-10.78s-.54-7.24-.83-10.87c-.1-1.32-.21-2.68-1.03-3.78-.95-1.27-2.53-1.69-3.97-2.13-3.39-1.02-6.86-1.78-10.37-2.3-6.92-1.04-13.93-1.23-20.92-.9-7.98.38-15.92,1.4-23.82,2.56-1.59.23-.91,2.64.66,2.41,13.08-1.91,26.4-3.46,39.62-2.12,3.26.33,6.49.85,9.68,1.59,1.58.36,3.15.78,4.7,1.26.69.21,1.63.38,2.18.89.63.58.67,1.49.74,2.29.3,3.38.51,6.76.77,10.14s.54,6.76,0,10.13c-.62,3.86-1.59,7.69-2.41,11.51s-1.67,7.75-2.5,11.62c-.15.69.2,1.31.87,1.54,1.9.63,3.97.34,5.6-.83l-1.88-1.08c.06,1.1.37,2.09,1.05,2.97.55.71,1.55,1.71,2.55,1.47.93-.23,1.91-1.17,2.55-1.85.83-.88,1.41-1.89,1.87-3l-2.41-.66c-.6,1.59,1.27,2.94,2.71,2.35,1.71-.7,1.9-3.32,2.24-4.85,1.05-4.65,1.78-9.37,2.19-14.12.84-9.61.23-19.22-1.46-28.7-.42-2.37-.89-4.73-1.36-7.09-.39-1.94-.88-3.84-2.19-5.38-2.3-2.72-6.07-3.46-9.42-3.9-9.63-1.27-19.35-2.32-29.06-2.78-10.92-.52-21.92-.09-32.64,2.17l1.54,1.54c4.15-19.91,3.81-40.79.68-60.82-1.59-10.17-3.99-20.24-7.43-29.95-1.63-4.6-3.49-9.12-5.65-13.49-2.48-5.05-5.45-9.83-8.11-14.79-3.2-5.96-5.67-12.09-6.79-18.78s-1.11-14.12-1.15-21.18c0-1.32-1.64-1.59-2.33-.63-3.3,4.57-6,9.54-8.04,14.81s-2.94,10.85-5.29,15.93c-4.36,9.45-14.34,13.78-24.14,15.14-6.07.84-12.23.74-18.34.91s-11.75.7-17.55,1.78-11.4,2.61-16.89,4.63c-2.67.98-5.29,2.07-7.87,3.25-1.2.55-2.38,1.24-3.66,1.58-1.59.42-2.5-.19-3.26-1.57-6.14-11.2-6.88-24.71-7.72-37.17-.1-1.47-1.92-1.61-2.46-.33-5,12.03-10.23,23.99-14.93,36.14-4.44,11.49-7.23,23.47-8.04,35.78-.46,6.94-.28,13.91.48,20.82.17,1.58,2.68,1.6,2.5,0h0Z"/><path class="cls-1" d="m30,128.77c1.61,6.15,3.61,12.27,6.49,17.96s6.63,10.29,10.92,14.68c7.89,8.09,16.56,15.37,24.57,23.34,4.36,4.34,7.98,9.17,11,14.52l.75-1.84c-10.42,3.67-21.29,6.07-32.27,7.25-5.69.61-11.42.89-17.15.84-2.81-.03-5.63-.14-8.44-.34-1.34-.1-2.69-.21-4.03-.35-1.21-.12-3.16-.09-4.1-.99s-.71-2.51-.58-3.72c.17-1.55.38-3.1.58-4.65.4-3.11.84-6.21,1.3-9.31.9-6.06,1.9-12.11,2.96-18.15s2.18-12.07,3.33-18.09c1.08-5.65,1.82-11.53,3.4-17.06.37-1.31.89-2.62,1.8-3.65.83-.94,1.95-1.53,2.96-2.24,1.5-1.06,2.98-2.39,2.99-4.37s-1.63-3.76-3.58-4.21c-2.69-.61-5.15.86-7.27,2.33-1.33.92-.19,2.86,1.26,2.16,3.29-1.58,7.56-4.51,5.97-8.81-1.82-4.92-7.31-2.2-9.99.17-1.1.98.3,2.6,1.51,1.96,1.45-.76,2.66-1.83,3.55-3.2.64-1,1.71-2.98,1.12-4.18-1.36-2.77-5.33-1.48-7.14-.17-2.83,2.06-4.53,5.5-6,8.58-1.67,3.53-2.94,7.24-3.88,11.03-1.9,7.66-2.57,15.57-3.14,23.42-.65,8.98-1.36,17.93-2.71,26.85s-3.48,18.28-5.66,27.36c-.93,3.87-.84,7.4,1.57,10.71,1.92,2.63,4.53,4.67,7.45,6.09,6.58,3.21,14.12,3.73,21.29,4.48,9.4.98,18.88,1.83,28.34,1.45,7.29-.29,14.59-1.26,21.78-2.53,1.7-.3,3.4-.63,5.08-.99.71-.15,1.47-.43,2.19-.49,1.13-.1,2.44.29,3.54.52,3.44.71,6.76,1.82,10,3.18,6.16,2.58,12.05,5.44,18.74,6.42,3.98.58,8.04.75,12.05,1.09,4.25.37,8.5.75,12.74,1.11,17.37,1.47,34.93,2.71,52.32,1,8.56-.84,16.88-3.23,25.44-3.87,9.25-.69,18.28,1.24,27.49,1.62,17.23.71,35.99-1.33,51.36-9.68,6.83-3.7,13.12-8.36,19.89-12.18,6.14-3.47,12.02-7.22,17.48-11.69,2.74-2.24,5.39-4.58,8.04-6.92.34-.3.41-.79.32-1.22-.84-4.01-2.47-7.85-4.88-11.18s-5.76-5.71-8.73-8.61c-1.63-1.59-2.36-3.41-3.55-5.28-.84-1.32-2.15-2.49-3.81-2.54-2.8-.08-4.45,3.9-1.71,5.29l.96-2.28c-1.29-.42-2.59-.83-3.88-1.25-.5-.16-1.17.1-1.41.57-.95,1.83-.38,4.09,1.58,4.97v-2.16l-3.49,2.15c-.78.48-.85,1.7,0,2.16,7.25,3.96,13.6,9.36,18.6,15.94l1.08-1.88c-3.64.38-6.88,2.37-10.34,3.45-3.96,1.24-7.76,2.81-11.64,4.27-4.32,1.64-8.51,2.72-13.16,2.78s-8.85-.17-13.27.56l1.54,1.54c6.36-24.84,23.49-46.5,46.17-58.47,1.3-.68,2.61-1.35,3.95-1.96.81-.37,2.25-1.15,3.14-.64.8.47.89,1.86,1.02,2.67.64,4.17,1.16,8.36,1.68,12.55,1.02,8.23,1.82,16.49,1.96,24.79s-.69,16.47-1.65,24.7c-.96,8.24-1.4,16.38-.9,24.67.28,4.62.71,9.23,1.17,13.83.36,3.54.81,7.3,2.87,10.31,1.66,2.43,4.47,4.32,7.48,4.37,1.39.02,2.91-.17,3.36-1.65.43-1.4-.04-2.75-.98-3.8l-1.51,1.96c3.09,1.68,7.23.45,8.63-2.86.34-.8.07-1.52-.75-1.84-1.06-.41-2.13-.83-3.19-1.24v2.41c3.14-.47,7.94-2.44,6.41-6.58-1.22-3.31-6.51-4.8-9.6-5.15-1.46-.16-2.4-.3-2.83-1.83-.35-1.28-.54-2.62-.71-3.94-.34-2.7-.41-5.42-.34-8.14.13-4.92.74-9.8,1.2-14.69.96-10.19.56-20.4.36-30.62-.2-10.46-.4-20.93-.61-31.39-.1-5.11-.2-10.22-.3-15.33-.09-4.59-.12-9.36-1.95-13.65-1.35-3.15-3.75-5.98-6.95-7.34-3.83-1.63-7.72-.46-11.14,1.59s-6.5,4.36-9.93,6.28-6.92,3.59-10.5,5.15c-7.35,3.2-14.95,5.81-22.52,8.46-15.59,5.46-32.18,11.04-44.26,22.83-1.15,1.13.62,2.89,1.77,1.77,10.23-9.99,23.93-15.34,37.16-20.07s27.84-9.22,40.54-16.51c3.27-1.87,6.25-4.19,9.52-6.06,3.77-2.15,7.79-2.44,11.11.66s4.16,7.36,4.46,11.53c.34,4.68.26,9.42.35,14.11.19,9.73.38,19.47.56,29.2s.6,19.47.41,29.19c-.2,10.48-2.56,20.97-1.64,31.46.2,2.34.42,4.92,1.25,7.12.65,1.74,1.95,2.42,3.73,2.6,2.52.25,4.87.78,7.01,2.22,1.35.91,2.17,2.17.71,3.44-1.04.91-2.67,1.05-3.97,1.25s-1,2.02,0,2.41c1.06.41,2.13.83,3.19,1.24l-.75-1.84c-.86,2.03-3.21,3.06-5.21,1.97-1.27-.69-2.46.91-1.51,1.96.89.99.39,1.21-.62,1.19-.78-.02-1.56-.23-2.27-.56-1.56-.73-2.82-2.01-3.64-3.52-1.77-3.27-1.87-7.22-2.22-10.84-.77-8.09-1.45-16.21-1.05-24.34.39-8,1.77-15.91,2.37-23.9s.37-16.32-.31-24.45c-.65-7.91-1.71-15.77-2.79-23.63-.36-2.62-.54-6.27-3.83-6.76-2.72-.41-5.95,1.83-8.25,3.04-10.97,5.79-20.73,13.85-28.62,23.41-8.79,10.66-15.27,23.15-18.7,36.55-.25.99.61,1.69,1.54,1.54,4.51-.74,9.04-.35,13.58-.49,4.3-.14,8.27-1.14,12.29-2.64,3.63-1.35,7.18-2.91,10.88-4.08,1.94-.61,3.82-1.29,5.71-2.06,1.69-.69,3.46-1.51,5.29-1.7.82-.09,1.72-1.04,1.08-1.88-5.27-6.93-11.85-12.66-19.5-16.83v2.16l3.49-2.15c.73-.45.9-1.75,0-2.16-.6-.27-1.05-.84-.68-1.55l-1.41.57c1.29.42,2.59.83,3.88,1.25s2.23-1.64.96-2.28c-.33-.39-.12-.59.61-.6.56.17,1,.51,1.33,1.01.35.47.6,1.05.86,1.57.59,1.15,1.22,2.22,2.06,3.21,1.76,2.09,4.04,3.64,6.04,5.48,4.18,3.86,6.95,8.91,8.1,14.46l.32-1.22c-4.87,4.29-9.75,8.59-15.15,12.23-5.79,3.91-12.01,7.12-17.93,10.83-6.63,4.15-12.99,8.5-20.4,11.18s-15.58,4.24-23.58,5.01c-8.82.85-17.73.8-26.55-.14-4.22-.45-8.37-1.11-12.62-1.17s-8.13.26-12.15.86-7.97,1.6-11.98,2.24-8.05,1.06-12.09,1.34c-7.92.54-15.86.52-23.79.22s-16.25-.93-24.35-1.62c-4.03-.34-8.06-.7-12.09-1.05s-7.84-.48-11.71-1.03c-6.27-.89-11.85-3.48-17.62-5.94-2.88-1.23-5.81-2.34-8.84-3.12-1.66-.43-3.35-.76-5.04-1.02s-2.96.18-4.54.52c-14.95,3.16-29.95,4.03-45.17,2.79-7.69-.63-15.69-1.05-23.2-2.93-6.06-1.52-14.87-5.6-14.34-13.13.15-2.12.86-4.21,1.37-6.26s1.01-4.14,1.47-6.22c.96-4.27,1.8-8.57,2.54-12.89,1.42-8.3,2.43-16.66,3.07-25.05,1.12-14.73,1.31-30.57,8.87-43.74,1.02-1.79,4.77-7.81,7.35-4.97l-.32-1.22c-.43,2.21-1.65,3.88-3.65,4.93l1.51,1.96c.95-.84,2.06-1.78,3.32-2.12,1.65-.45,2.96.64,2.66,2.38-.41,2.36-3.07,3.52-4.98,4.45l1.26,2.16c1.49-1.03,6.28-4,7.02-.62.42,1.91-2.76,3.21-3.99,4.15-3.8,2.92-4.17,8.23-5.02,12.58-2.32,11.92-4.6,23.85-6.59,35.83-.98,5.93-1.9,11.87-2.7,17.82-.38,2.84-.93,5.74-1.06,8.61-.09,1.98.46,3.92,2.25,4.97s4.32,1.06,6.38,1.25c2.8.26,5.61.42,8.42.5,5.73.16,11.47-.02,17.18-.53,12.12-1.08,24.13-3.55,35.6-7.6.76-.27,1.17-1.09.75-1.84-2.59-4.58-5.61-8.88-9.19-12.74-3.34-3.61-7.06-6.83-10.67-10.16-4.4-4.04-8.68-8.22-12.98-12.37s-8.73-8.79-11.91-14.11c-3.78-6.31-6.12-13.44-7.97-20.52-.41-1.55-2.82-.9-2.41.66h0Z"/><path class="cls-1" d="m128.72,147.52c1.47-2.37,2.85-4.79,4.13-7.26l-2.28-.96c-.64,1.92-1.19,4.27.09,6.07.56.79,1.33,1.34,2.15,1.83.34.2.68.4,1.01.62.08.05.15.11.23.16-.21-.15.05.04.09.08.08.07.16.15.24.23.04.04.25.28.09.08.41.53,1.08.82,1.71.45.53-.31.86-1.17.45-1.71-.56-.73-1.23-1.27-2.02-1.74-.32-.19-.65-.38-.96-.58-.08-.05-.16-.1-.23-.15-.02-.01-.31-.23-.1-.07-.14-.11-.28-.23-.4-.37-.02-.02-.21-.24-.12-.12s-.11-.17-.1-.16c-.06-.09-.11-.18-.15-.28-.04-.08-.04-.08,0,0l-.04-.12c-.02-.1-.06-.2-.08-.3-.02-.07-.04-.28-.02-.1-.02-.21-.02-.43-.01-.64,0-.13.02-.26.03-.39-.02.14,0,0,.01-.06.04-.24.09-.48.15-.72.11-.45.25-.9.4-1.34.44-1.34-1.63-2.22-2.28-.96-1.28,2.47-2.66,4.89-4.13,7.26-.35.56-.14,1.4.45,1.71s1.34.15,1.71-.45h0Z"/><path class="cls-1" d="m166.08,128.7c.62-.85,1.23-1.71,1.84-2.58l-2.28-.3c.37,1.2.74,2.4,1.12,3.59s1.99,1.14,2.41,0c.57-1.54,1.56-2.84,2.83-3.87l-2.13-.88c-.23,2.05-.66,4.08-1.25,6.06-.41,1.39,1.54,2.13,2.28.96,1.54-2.4,3.08-4.81,4.62-7.21l-2.33-.63c-.03,1.26-.08,2.53-.09,3.8,0,.93.14,1.97.8,2.68.73.78,1.93.92,2.83.33.82-.55,1.25-1.54,1.45-2.47.35-1.57-2.06-2.24-2.41-.66-.05.25-.11.51-.22.75-.04.08-.2.34-.21.32,0,0,.12-.07.15-.06.06.02.24.14.29.15.07.02-.09-.16-.04-.04-.05-.13-.09-.29-.11-.43-.07-.44,0-1.2.01-1.75.02-.87.04-1.74.06-2.61.03-1.29-1.68-1.64-2.33-.63-1.54,2.4-3.08,4.81-4.62,7.21l2.28.96c.65-2.2,1.08-4.45,1.34-6.73.05-.48-.36-.98-.77-1.14-.5-.2-.96-.07-1.37.26-1.6,1.31-2.76,3.04-3.47,4.97h2.41c-.37-1.2-.74-2.4-1.12-3.59-.33-1.08-1.67-1.17-2.28-.3s-1.22,1.73-1.84,2.58c-.4.55-.09,1.39.45,1.71.63.37,1.31.1,1.71-.45h0Z"/><path class="cls-1" d="m78.93,140.9c.82-1.1,1.64-2.19,2.46-3.29l-2.33-.63c-.2,1.65-.04,3.3.47,4.88.38,1.2,2.01,1.17,2.41,0,.6-1.77,1.52-3.41,2.73-4.84l-2.09-1.22c-.38,2.53-.36,5.01.08,7.53.19,1.09,1.78,1.17,2.28.3,1.49-2.56,3.4-4.78,5.68-6.67l-2.13-.88c-.04,1.01-.08,2.03-.12,3.04-.03.86.82,1.37,1.58,1.21,1.48-.31,2.68-1.19,3.52-2.43l-2.28-.3c.15.51.29,1.02.44,1.52.22.75,1.14,1.18,1.84.75.93-.58,1.85-1.17,2.78-1.75,1.36-.86.1-3.02-1.26-2.16-.93.58-1.85,1.17-2.78,1.75l1.84.75c-.15-.51-.29-1.02-.44-1.52-.31-1.08-1.69-1.17-2.28-.3-.49.72-1.19,1.11-2.03,1.29l1.58,1.21c.04-1.01.08-2.03.12-3.04.04-1.17-1.36-1.53-2.13-.88-2.43,2.02-4.48,4.45-6.07,7.18l2.28.3c-.36-2.04-.39-4.15-.08-6.2.16-1.09-1.19-2.28-2.09-1.22-1.5,1.77-2.62,3.75-3.37,5.95h2.41c-.44-1.39-.56-2.76-.38-4.21.07-.53-.44-1.07-.92-1.21-.57-.16-1.08.13-1.41.57-.82,1.1-1.64,2.19-2.46,3.29-.41.54-.08,1.39.45,1.71.63.38,1.31.09,1.71-.45h0Z"/><path class="cls-1" d="m113.3,109.14c-7.8,4.54-16.61,6.72-25.39,8.45-7.71,1.52-17.29,4.29-24.45-.31l.25,1.96c2.97-2.95,6.27-5.52,9.88-7.65s7.56-4.03,11.69-4.75c4.57-.79,9.33.23,13.86.88s9.34,1.33,14.01,1.99c1.57.22,2.25-2.18.66-2.41-4.99-.71-9.98-1.42-14.97-2.13-4.7-.67-9.48-1.57-14.22-.74-4.33.76-8.53,2.79-12.29,5s-7.27,4.95-10.38,8.04c-.59.59-.42,1.53.25,1.96,5.8,3.72,12.94,3.01,19.4,1.88,7.23-1.26,14.52-2.63,21.5-4.94,3.98-1.31,7.85-2.97,11.47-5.08,1.39-.81.13-2.97-1.26-2.16h0Z"/><path class="cls-1" d="m134.89,108.02c14.56,2.77,29.8.47,42.88-6.51.91-.49.7-1.63,0-2.16-6.13-4.66-14.07-6.48-21.65-5.37-4.11.61-7.77,2.24-11.32,4.33-4.09,2.41-8.38,4.67-12.19,7.51-1.28.95-.03,3.12,1.26,2.16,3.5-2.6,7.42-4.68,11.16-6.9,3.51-2.08,6.95-3.86,11-4.57,7.16-1.26,14.7.6,20.47,4.99v-2.16c-12.46,6.64-27.08,8.89-40.95,6.26-1.57-.3-2.25,2.11-.66,2.41h0Z"/><path class="cls-1" d="m65.96,124.41c1.38-.8,2.56-1.99,3.34-3.39.16-.29.21-.64.13-.96-.08-.29-.3-.6-.57-.75-.59-.31-1.37-.16-1.71.45-.19.33-.39.65-.62.95l.2-.25c-.41.53-.88,1-1.4,1.41l.25-.2c-.28.21-.56.41-.86.58-.27.16-.49.44-.57.75s-.05.7.13.96c.37.57,1.11.8,1.71.45h0Z"/><path class="cls-1" d="m80.71,125.21v-.08c0,.11.02.22.03.33-.13-1.05-.13-2.1,0-3.15l-.04.33c.05-.38.12-.77.21-1.14.15-.64-.2-1.38-.87-1.54-.64-.15-1.38.19-1.54.87-.39,1.67-.44,3.34-.21,5.04.04.29.34.61.57.75.27.16.66.22.96.13s.59-.29.75-.57c.17-.32.17-.61.13-.96h0Z"/><path class="cls-1" d="m94.09,124.18c-.55-1.62-1.1-3.25-1.65-4.87-.21-.62-.87-1.09-1.54-.87-.61.2-1.1.87-.87,1.54.55,1.62,1.1,3.25,1.65,4.87.21.62.87,1.09,1.54.87.61-.2,1.1-.87.87-1.54h0Z"/><path class="cls-1" d="m106.36,117.54c-.24-.22-.46-.47-.67-.73l.2.25c-.31-.41-.58-.86-.78-1.33l.13.3c-.11-.26-.2-.53-.27-.8-.08-.3-.31-.59-.57-.75s-.66-.22-.96-.13c-.65.21-1.05.86-.87,1.54.34,1.29,1.05,2.5,2.03,3.41.24.22.55.37.88.37.31,0,.67-.14.88-.37s.38-.55.37-.88-.12-.66-.37-.88h0Z"/><path class="cls-1" d="m116.14,113.3c-1.41-.9-2.82-1.79-4.23-2.69-.55-.35-1.4-.13-1.71.45-.33.62-.14,1.33.45,1.71,1.41.9,2.82,1.79,4.23,2.69.55.35,1.4.13,1.71-.45.33-.62.14-1.33-.45-1.71h0Z"/><path class="cls-1" d="m139.59,114c.09-.38.19-.76.32-1.12.06-.18.13-.37.21-.55.05-.12.04-.09-.04.1.02-.04.04-.09.06-.13.04-.09.08-.18.12-.26.17-.35.36-.69.57-1.02.1-.16.21-.33.33-.49.06-.08.11-.16.17-.24.08-.1.06-.08-.06.08.03-.04.06-.08.09-.11.22-.27.37-.53.37-.88,0-.31-.14-.67-.37-.88-.46-.42-1.33-.54-1.77,0-1.15,1.43-2,3.06-2.4,4.85-.14.64.19,1.38.87,1.54.63.14,1.38-.19,1.54-.87h0Z"/><path class="cls-1" d="m150.64,111.77l.1.78c.04.16.11.3.22.43.09.14.21.24.35.32.14.09.3.14.46.15.17.04.33.03.5-.02l.3-.13c.19-.11.34-.26.45-.45l.13-.3c.06-.22.06-.44,0-.66l-.1-.78c-.04-.16-.11-.3-.22-.43-.09-.14-.21-.24-.35-.32-.14-.09-.3-.14-.46-.15-.17-.04-.33-.03-.5.02l-.3.13c-.19.11-.34.26-.45.45l-.13.3c-.06.22-.06.44,0,.66h0Z"/><path class="cls-1" d="m153.74,112.99c-.1-.38-.19-.75-.25-1.14-.02-.09-.03-.18-.05-.27,0-.04-.06-.4-.03-.19s-.02-.15-.02-.19c0-.09-.02-.18-.03-.27-.07-.77-.07-1.55-.01-2.33.05-.65-.61-1.28-1.25-1.25-.72.03-1.2.55-1.25,1.25-.13,1.69.04,3.4.48,5.04.17.63.9,1.08,1.54.87s1.05-.86.87-1.54h0Z"/><path class="cls-1" d="m162.65,110.78c-.13-.13-.26-.27-.38-.41-.03-.03-.06-.07-.08-.1-.1-.12.16.22.07.1-.06-.08-.12-.16-.17-.24-.21-.31-.38-.64-.53-.99l.13.3c-.2-.49-.34-1-.42-1.53l.04.33c-.03-.22-.04-.44-.05-.66-.01-.65-.56-1.28-1.25-1.25s-1.27.55-1.25,1.25c.04,1.86.8,3.66,2.12,4.98.46.46,1.31.5,1.77,0s.5-1.28,0-1.77h0Z"/><path class="cls-1" d="m174.95,107.03c-1-1.3-1.99-2.59-2.99-3.89-.21-.27-.4-.48-.75-.57-.3-.08-.7-.05-.96.13s-.5.43-.57.75-.07.7.13.96c1,1.3,1.99,2.59,2.99,3.89.21.27.4.48.75.57.3.08.7.05.96-.13s.5-.43.57-.75.07-.7-.13-.96h0Z"/><path class="cls-1" d="m86.64,116.46c.12-2.75-1.05-5.52-3.13-7.34l-1.51,1.96c1.39,1.01,2.91,1.81,4.51,2.42.76.29,1.55.53,2.34.71.4.09.8.17,1.2.23.24.04.53.11.77.11-.07-.01-.04,0,.09.02-.04-.03-.09-.06-.13-.08l1.22-2.09c-1.63-.64-3.42-.68-5.15-.63s-3.61.12-5.42.18l.88,2.13c1.01-.91,2.51-1.17,3.69-1.84.59-.33,1.12-.75,1.69-1.11s1.02-.6,1.59-.58l-.88-2.13c-2.02,2.17-3.53,4.73-4.48,7.54-.22.64.25,1.37.87,1.54.68.19,1.32-.23,1.54-.87.81-2.39,2.12-4.59,3.84-6.44.74-.8.22-2.1-.88-2.13-1.76-.05-2.99,1.12-4.41,1.96s-3.06,1.16-4.33,2.3c-.8.72-.18,2.17.88,2.13,1.74-.06,3.49-.12,5.23-.17,1.59-.05,3.16-.06,4.67.54.51.2,1.15-.13,1.41-.57.29-.5.18-1.1-.2-1.51-.61-.68-1.6-.63-2.43-.79s-1.65-.38-2.45-.66c-1.58-.55-3.06-1.36-4.41-2.35-1.14-.83-2.58,1.03-1.51,1.96,1.64,1.43,2.49,3.44,2.4,5.57-.03.68.6,1.25,1.25,1.25.7,0,1.22-.57,1.25-1.25h0Z"/><path class="cls-1" d="m152.79,104.9c1.32-.92,2.64-1.84,3.97-2.75.61-.43,1.22-.86,1.85-1.26.28-.18.56-.35.84-.51.18-.1.54-.38.75-.38l-.63-.17.15.07-.25-1.96c-1.72,1.61-2.01,4.02-2.17,6.24l2.33-.63c-1.44-2.2-3.24-4.08-5.36-5.63l-1.26,2.16c1.72.87,3.44,1.89,5.25,2.55.91.33,1.78.33,2.73.42.41.04.75.25,1.14.39.5.18.99.19,1.51.08.66-.14,1.05-.91.87-1.54-.19-.68-.88-1.02-1.54-.87-.13.03-.56-.25-.69-.3-.41-.16-.85-.24-1.29-.26-.81-.05-1.49-.09-2.25-.41-1.53-.63-2.99-1.48-4.47-2.23-.6-.3-1.36-.16-1.71.45s-.1,1.31.45,1.71c1.76,1.29,3.27,2.91,4.46,4.74.7,1.06,2.24.61,2.33-.63.11-1.56.23-3.35,1.43-4.48.54-.51.48-1.64-.25-1.96-1.03-.46-1.87-.04-2.79.48-.72.4-1.39.87-2.07,1.34-1.53,1.06-3.06,2.12-4.59,3.19-.55.38-.81,1.1-.45,1.71.32.55,1.15.84,1.71.45h0Z"/></g></svg>