<?xml version="1.0" encoding="UTF-8"?><svg id="Livello_2" xmlns="http://www.w3.org/2000/svg" viewBox="0 0 314.04 493.57"><g id="Livello_1-2"><path d="m210.88,257.02c-5.54,16.01-12.9,31.32-16.82,47.87-.89,3.75,4.9,5.36,5.79,1.6,3.92-16.55,11.28-31.86,16.82-47.87.53-1.53-.6-3.28-2.1-3.69-1.65-.45-3.16.56-3.69,2.1h0Z"/><path d="m198.7,309.53s-.96.05-.55.08c.05,0,.11,0,.16,0,.15,0,.29.02.43.02.44.02-.76-.12-.4-.06.08.02.17.03.25.04.2.04.41.08.61.12,1.08.24,2.15.56,3.21.9,2.88.93,5.71,2.04,8.51,3.21.67.28,1.72.04,2.31-.3.62-.36,1.22-1.08,1.38-1.79.4-1.75-.54-3.04-2.1-3.69-2.93-1.21-5.88-2.38-8.9-3.33-2.07-.65-4.32-1.38-6.51-.98-1.55.28-2.56,2.25-2.1,3.69.54,1.66,2.03,2.39,3.69,2.1h0Z"/><path d="m239.74,323.69c.61.07,2.01.34,3.02.61.59.16,1.17.33,1.74.53.19.07.37.13.56.2.18.07.37.14.55.22-.27-.11-.24-.1.08.04.94.44,1.86.93,2.73,1.5.39.25.77.52,1.14.8-.49-.37.23.19.27.22.25.21.49.42.74.64.73.66,1.41,1.36,2.06,2.1.87,1,1.01,1.2,1.8,2.37,1.31,1.96,2.42,4.05,3.4,6.18,1.98,4.3,3.68,9.59,5.21,14.46,2.15,6.83,4.11,13.71,5.98,20.63,1.91,7.07,3.74,14.17,5.6,21.26,1.77,6.74,3.76,13.42,5.49,20.17,1.24,4.85,2.21,9.79,4.37,14.34,2.28,4.81,6.14,8.38,11.04,10.41,2.41,1,4.89,1.15,7.45,1.41.19.02.38.04.58.06.19.02.38.04.58.07-.32-.05-.3-.04.06.01.56.09,1.11.19,1.66.33.26.07.52.14.78.23.17.05.33.11.49.18-.32-.14-.33-.13-.02.01.12.08.3.19.43.24.28.19.27.18-.03-.05.12.1.23.21.34.32.59.53-.48-.39.09.15.42.4-.19-.4.08.24s.09-.36.06.3c0,.17,0,.34-.02.52.05-.38.04-.4-.03-.06-.01.15-.24.5.04-.03-.08.15-.66.9-.23.43-.18.19-.36.38-.55.56-.44.41.33-.15-.25.19-.24.14-.48.3-.72.44-.12.06-.87.43-.69.35.37-.16-.54.19-.47.17-.38.13-.76.25-1.15.35-.29.07-.58.14-.87.2-.12.02-.96.15-.36.08-.64.08-1.29.1-1.93.09-3.34-.06-4.13,5.12-.8,5.89.56.13,1.12.29,1.66.49-.4-.15-.03-.02.16.08.24.12.47.24.7.37.18.11.37.22.54.34.09.06.69.57.19.13.33.29.65.59.95.91.13.14.26.29.38.44-.45-.56-.02-.02.06.13.22.38.43.75.62,1.15-.32-.66.04.19.11.46.05.18.06.41.13.59-.23-.56-.02-.4-.02-.03,0,.2-.06,1.2,0,.72s-.18.46-.2.64c.06-.51.2-.46.01-.09-.05.1-.33.55-.05.13.31-.46-.14.1-.16.16-.14.32-.19.13.13-.07-.14.08-.34.19-.47.29-.4.32.53-.11,0,0-.27.06-1.19.23-.46.17-.5.04-.98.03-1.48.01-.63-.02.4.12-.32-.04-.3-.07-.61-.13-.91-.2v5.79c.22-.05.44-.1.66-.13-.13.02-.49.04.11-.01.36-.03.72-.01,1.08-.02.53-.01-.42-.16.25.04.13.04.27.09.41.12.22.08.13.04-.26-.11l.17.09s.33.21.31.2c-.06-.03-.54-.46-.2-.12s-.27-.55.01.01c.31.6-.07-.59.06.09.02.11.05.24.09.35.11.33-.13.42-.01-.15-.05.22,0,.55,0,.78,0,.1-.02.2-.02.3-.02.41.13-.59.02-.18-.07.28-.12.56-.2.84-.06.22-.43,1.12-.12.44-.24.53-.51,1.04-.83,1.53-.13.19-.54.7-.16.25-.23.27-.46.54-.71.79-.08.08-.76.69-.49.46.26-.21-.46.31-.58.38-.87.53-1.54.8-2.52,1.04-1.65.42-3.57.43-5.33.21-3.55-.45-6.99-1.72-9.96-3.53-2.64-1.62-5.29-4.21-7.14-6.63-2.21-2.89-4-6.09-5.6-9.35s-2.89-6.39-4.26-9.81c-1.54-3.85-3.15-7.68-4.49-11.61-3.23-9.47-5.26-19.29-7.7-28.98-1.59-6.33-3.45-12.55-4.81-18.94s-2.59-12.37-4.69-18.32c-1.73-4.93-4.01-10.41-9.34-12.24-5.85-2.01-12.71.52-18.13,2.73-3.28,1.34-6.5,2.84-9.72,4.32-3,1.39-5.01,2.36-7.86,3.36-1.13.39-2.27.74-3.45.95-1.63.3-2.45,2.23-2.1,3.69.3,1.25,1.1,2.39,2.4,2.74.36.1.74.15,1.11.15.33-.04.66-.09.99-.14-.19.05-.38.08-.58.08,1.54.5,3.27-.58,3.69-2.1.45-1.62-.55-3.19-2.1-3.69-.47-.15-.98-.24-1.47-.23-.31.01-.61.05-.92.11-.58.07-.29.08.87.02l1.32.77.47.68-2.1,3.69c2.84-.52,5.54-1.71,8.18-2.85,3.16-1.37,6.25-2.87,9.39-4.28s5.9-2.59,9.32-3.6c.74-.22,1.5-.42,2.25-.59.36-.08.73-.16,1.1-.23.18-.03.36-.07.54-.09.08-.01.81-.11.4-.06-.39.05.17-.01.26-.02.17-.01.34-.03.52-.04.29-.02.59-.03.88-.04.33,0,.65,0,.98.02.16,0,.32.03.48.03.75.02-.59-.15.13.01.6.13,1.16.29,1.75.46.17.05.47.25-.1-.05.13.07.27.12.39.2.2.12.45.33.66.4.24.09-.26-.19-.28-.22.07.08.18.14.26.22.17.17.34.32.5.5.17.18.33.38.49.57-.56-.66.11.18.24.37.68,1.03,1.23,2.13,1.74,3.25.07.15.14.31.2.46-.23-.53-.05-.11,0,0,.13.33.26.66.39.99.3.78.57,1.56.83,2.35,2.02,6.1,3.3,12.43,4.63,18.7,1.53,7.2,3.72,14.23,5.46,21.38,2.41,9.95,4.65,19.98,8.36,29.55,2.84,7.3,5.63,14.78,9.42,21.65s8.76,13.07,15.85,16.28c7.18,3.25,17.63,5.35,23.72-1.17,2.04-2.18,3.49-5.12,3.54-8.15s-1.8-5.99-4.9-6.83c-1.77-.48-3.63-.28-5.39.09-2.92.62-2.8,5.09,0,5.79s5.84.81,8.25-.84c2.09-1.42,3.23-3.78,3.24-6.29.04-5.6-4.74-10.03-9.9-11.24l-.8,5.89c4.83.08,11.53-2,12.99-7.23.74-2.65-.14-5.69-2.25-7.46s-4.59-2.2-7.13-2.52c-1.13-.14-2.27-.23-3.41-.35-.21-.02-1.48-.2-.76-.08-.52-.09-1.03-.17-1.54-.33-2.32-.71-4.42-2.06-5.99-3.67-.9-.92-1.05-1.11-1.76-2.22-.32-.51-.62-1.03-.9-1.56-.14-.27-.27-.54-.4-.81-.04-.09-.48-1.1-.31-.68-.93-2.26-1.57-4.63-2.16-7-3.49-13.86-7.33-27.65-10.99-41.48-2-7.53-4.06-15.05-6.34-22.5-1.69-5.52-3.4-11.07-5.62-16.4s-4.81-10.28-8.9-14.2c-4.32-4.14-9.7-6.27-15.58-6.98-1.61-.2-3,1.52-3,3,0,1.78,1.38,2.8,3,3h0Z"/><path d="m121.31,333.94c19.5,10.13,42.66,6.03,63.01,1.01,6.07-1.5,12.09-3.16,18.12-4.8,3.72-1.01,2.14-6.8-1.6-5.79-10.39,2.83-20.78,5.74-31.38,7.71-9.74,1.81-20.01,2.93-29.85,1.46-5.31-.79-10.51-2.3-15.28-4.78-1.44-.75-3.26-.37-4.1,1.08-.79,1.35-.37,3.35,1.08,4.1h0Z"/><path d="m183.8,370.28c-4.01,1-7.85,2.69-11.6,4.4-4.74,2.17-9.38,4.58-14,6.99-10.91,5.7-21.76,11.56-33.02,16.55-.65.29-1.31.58-1.97.86-.35.15-.7.3-1.05.45-.55.23-.19.08-.07.03-.26.11-.52.22-.79.33-1.38.57-2.78,1.13-4.18,1.67-2.75,1.06-5.54,2.04-8.36,2.9-2.66.82-5.36,1.53-8.09,2.1-1.28.26-2.56.48-3.84.68-.16.02-.32.04-.47.07.68-.09.24-.03.09-.01-.31.03-.62.07-.94.11-.65.07-1.31.13-1.96.17-2.39.16-4.77.13-7.15-.12-.85-.09.26.06-.25-.03-.27-.05-.55-.08-.83-.13-.58-.1-1.15-.22-1.72-.36-1.05-.25-2.09-.57-3.1-.95-.09-.04-.93-.37-.48-.18s-.37-.17-.47-.21c-.51-.24-1.02-.5-1.51-.77-.47-.26-.92-.54-1.37-.83-.2-.13-.39-.26-.58-.4-.22-.15-.85-.64-.29-.2-.89-.71-1.74-1.47-2.52-2.3-.37-.39-.72-.79-1.06-1.21-.15-.18-.61-.79-.21-.25-.22-.3-.44-.6-.66-.91-2.96-4.28-5.27-9.13-7.56-13.78-.72-1.46-1.43-2.93-2.11-4.41-.34-.73-.67-1.46-.99-2.19-.16-.36-.32-.72-.47-1.08-.08-.18-.15-.35-.23-.53.16.39-.01-.03-.08-.2-.97-2.37-1.95-4.79-2.47-7.31-.05-.23-.08-.46-.13-.68-.1-.49.02.77.02.03,0-.15,0-.32-.02-.47-.08-.73-.1.44-.05.16.28-1.59-.43-3.23-2.1-3.69-1.45-.4-3.41.49-3.69,2.1-.41,2.32.2,4.65.92,6.85.99,3.05,2.28,6.02,3.6,8.94,2.51,5.55,5.29,11,8.32,16.28,2.48,4.31,5.58,8.1,9.84,10.74s9.21,3.84,14.16,4.13c11.28.65,22.68-3.13,33-7.29,11.91-4.81,23.3-10.75,34.66-16.72,5.04-2.65,10.08-5.32,15.19-7.82,2.15-1.05,4.32-2.07,6.51-3.02.28-.12.82-.35.2-.09.24-.1.48-.2.72-.3.52-.21,1.05-.42,1.58-.63.9-.34,1.8-.67,2.72-.97.82-.27,1.64-.51,2.48-.71,3.75-.93,2.16-6.72-1.6-5.79h0Z"/><path d="m217.18,361.38c.51.89.99,1.8,1.43,2.74.12.26.24.52.35.79.38.87-.21-.53.15.36.22.55.43,1.1.63,1.66.76,2.14,1.37,4.34,1.85,6.57,1.08,4.96,1.52,9.5,1.71,14.72s.04,10.84-.37,16.24-.98,10.22-1.79,15.3c-.74,4.61-1.63,9.19-2.71,13.73-1.49,6.25-3.58,12.3-5.93,18.28-2.58,6.56-5.3,13.06-7.75,19.68-.06.17-.49,1.23-.26.68-.23.54-.47,1.07-.72,1.61-.56,1.23-1.11,2.46-1.62,3.7-.98,2.37-1.87,4.95-1.81,7.55.12,5.73,6.1,10.21,11.25,6.65,2.11-1.46,3.66-3.53,5.12-5.6.68-.97,1.32-1.95,1.99-2.93.27-.4.55-.79.82-1.18.09-.13.57-.7.04-.07.16-.19.31-.38.48-.57l-5.12-2.12c.08,5.57,2.12,14.2,9.15,14.42s9.64-8.14,10.3-13.7l-5.89.8c.58,3.28,1.6,7.37,4.64,9.26,2.66,1.65,5.63.73,7.89-1.12s3.78-4.27,5.01-6.74c1.39-2.77,2.48-5.74,2.92-8.82.7-4.9.59-10.01.69-14.95.11-5.34.09-10.69-.09-16.03-.32-9.71-.79-19.41-.94-29.13-.17-10.47-.19-20.95-.19-31.42,0-3.86-6-3.87-6,0,0,17.64.02,35.29.79,52.91.43,9.84.61,19.64.26,29.48-.09,2.43-.16,4.87-.32,7.3-.02.27-.05.53-.07.8.07-.76-.03.19-.07.39-.12.67-.28,1.33-.46,1.99s-.38,1.28-.61,1.91c-.11.3-.22.59-.34.89-.2.54-.06.15,0,.04-.09.21-.18.42-.28.62-.57,1.25-1.22,2.46-1.97,3.61-.2.31-.42.62-.64.92-.2.28.08-.1.11-.13-.14.18-.29.37-.44.54-.4.47-.84.89-1.29,1.31-.49.46.44-.22-.24.17-.19.11-.46.21-.62.35.46-.41.52-.15.26-.11-.12.02-.27.07-.38.11-.57.23.71,0-.03-.02-.38,0,.74.2.07-.03,1.2.4-.31-.23.18.09.4.26-.23-.27-.36-.39.46.45.03.03-.15-.27-.08-.14-.16-.28-.23-.42-.03-.06-.32-.69-.18-.36s-.09-.24-.11-.31c-.09-.25-.17-.49-.25-.74-.34-1.08-.57-2.19-.76-3.31-.26-1.45-1.94-2.35-3.29-2.15-1.58.24-2.42,1.42-2.6,2.95-.14,1.17-.47,2.67-.91,3.93-.1.28-.2.56-.31.83.22-.52-.11.19-.16.3-.25.49-.54.95-.84,1.41-.13.18-.09.13.12-.14-.09.12-.19.23-.29.34-.15.15-.3.3-.45.46s-.66.45-.01.04c-.16.1-.31.22-.48.31-.1.06-.79.34-.29.16s-.16-.01-.22.04c-.08.02-.17.04-.25.06.52-.06.62-.07.3-.04-.13-.02-.38-.02-.5,0-.42.09.55.18.14.02-.14-.06-.33-.11-.49-.14-.53-.11.48.34.08.02-.16-.12-.37-.23-.54-.34-.04-.03.39.42-.06-.08-.13-.15-.28-.3-.42-.44-.46-.45.27.5-.06-.08-.11-.2-.25-.38-.37-.58-.12-.21-.22-.43-.34-.64-.26-.45.08.33-.16-.36-.2-.59-.39-1.18-.53-1.79-.34-1.48-.39-2.36-.42-4-.03-2.48-3.33-4.12-5.12-2.12-1.26,1.4-2.27,3.02-3.32,4.58-.58.85-1.16,1.71-1.78,2.53-.05.07-.35.44-.04.06-.17.21-.34.43-.52.63-.34.4-.7.79-1.07,1.15-.15.14-1.09.84-.5.46-.31.2-.62.39-.94.56.68-.36.16-.05-.05-.03-.69.09.72,0,.02,0-.25,0-.38-.12.21.05-.72-.21.05.27-.27-.05-.08-.08-.29-.17-.4-.24.57.37-.1-.12-.19-.21s-.57-.8-.24-.26c-.09-.15-.18-.3-.26-.46.35.69-.16-1.04-.07-.27-.03-.28-.04-.56-.03-.84,0-.13.07-.99.05-.78.25-1.81,1.28-4.31,2.04-6.01,1.05-2.34,2.01-4.68,2.9-7.09,2.39-6.46,5.15-12.79,7.63-19.22,3.82-9.92,6.35-20.11,8.01-30.6,1.64-10.36,2.63-20.88,2.37-31.38s-1.6-21.95-6.99-31.27c-1.93-3.34-7.12-.32-5.18,3.03h0Z"/><path d="m207.13,239.6c1.02,16.57,10.73,31.55,10.97,48.25.13,9.17-5.06,17.6-10,24.98-3.38,5.05-7.38,9.75-9.44,15.56-.96,2.7-1.34,6.11.8,8.38,2.65,2.8,7.09,2.05,10.41,1.21l-2.31-5.48c-2.32,1.59-3.99,3.87-3.89,6.8.09,2.49,1.48,4.85,3.35,6.44,4.66,3.95,10.99,3.03,14.24-2.15l-5.59-1.51c-.51,4.33-.01,11.19,5.68,11.61,4.87.35,9-4.7,11.16-8.45,2.94-5.11,4.25-10.93,6.39-16.37,2.57-6.53,5.66-12.83,8.21-19.37s4.75-13.47,4.99-20.55-1.45-13.55-3.69-19.96-4.91-12.96-6.93-19.6-3.52-12.9-4.68-19.48c-1.15-6.54-1.86-13.14-2.25-19.76-.3-5.15-.62-10.4-.25-15.55l.39-5.52c.05-.64.1-1.28.14-1.91,0-.15.02-.31.03-.46-.07.8.13-.79.16-1.03.82-5.37,1.75-10.72,2.65-16.07,1.98-11.86,3.96-23.79,4.62-35.8.71-12.81-1.2-25.73-3.11-38.37-4.01-26.53-10.72-52.57-14.9-79.08-.55-3.49-1.06-6.99-1.53-10.49-.2-1.48-.99-2.75-2.6-2.95-1.4-.17-2.97.67-3.29,2.15-2.24,10.37-4.13,20.91-7.97,30.84-1.88,4.86-4.35,9.53-7.42,13.75-2.56,3.52-5.53,7.1-9.07,9.68-5.99,4.35-13.33,4.14-20.37,5.05-7.43.96-14.99,2.18-22.5,2.08-.72-.01-1.45-.04-2.17-.1-.14-.01-.88-.09-.63-.06.21.03-.62-.11-.78-.15-.23-.05-.45-.13-.68-.18-.58-.14.05.05-.05,0-1.52-.63-2.28-.51-3.79.15-3.47,1.5-7.49,1.29-11.18,1.06-4.58-.28-9.14-.9-13.74-1.01-4.59-.1-8.82.92-13.28,1.84-9.47,1.95-19.87,3.46-29.15-.08-6.92-2.64-12.56-7.4-15.94-14-3.12-6.07-4.29-13.06-5.12-19.76-.92-7.45-1.42-14.98-2.99-22.33-.37-1.72-.8-3.43-1.31-5.11-.61-2.02-3.48-3.1-5.01-1.32-13.28,15.38-21.85,33.86-30.85,51.89-4.37,8.74-8.4,17.5-10.57,27.08C.26,93.43-.28,102.77.12,112.04c.43,10.12,1.6,20.14,4.79,29.8s7.42,18.05,11.24,27.03c4.13,9.72,7.22,19.69,8.27,30.25s.5,21.66-.6,32.43c-2.3,22.52-5.86,44.83-9.62,67.14-1.74,10.32-3.05,20.73-1.58,31.17,1.29,9.15,4.91,18.01,10.71,25.23,18.56,23.09,53.18,17.52,78.79,14.04,7.66-1.04,15.32-2.08,23.05-2.33,11.27-.36,22.55.65,33.61,2.8,5.21,1.01,10.2,2.53,15.29,4.01,4.58,1.33,9.62,2.75,14.43,2.28,5.15-.5,14.57-5.23,10.87-11.88-1.72-3.1-5.62-3.81-8.82-4.07v6c6.34-.1,17.86-.92,17.57-9.7-.27-8.3-11.67-7.8-17.18-5.79l2.31,5.48c3-1.71,7.09-4.09,8.03-7.72.76-2.91-.97-5.4-3.49-6.7-6.85-3.53-15.88-1.75-23.17-1.36-10.9.58-21.78.85-32.66-.07-10.71-.91-21.39-2.5-32.15-2.59-8.31-.07-16.34,1.3-24.54,2.37-6.95.9-14.42,1.66-21.21-.56-7.22-2.36-11.23-8.95-13.53-15.85-2.76-8.29-3.1-17.14-2.54-25.79.7-10.91,2.72-21.82,4.49-32.6.88-5.36,1.65-10.7,4.14-15.59,2.18-4.29,4.95-8.23,7.02-12.58,1.65-3.47-3.52-6.52-5.18-3.03-1.84,3.87-4.21,7.42-6.27,11.17-2.23,4.06-3.71,8.29-4.53,12.84-1.86,10.2-3.44,20.52-4.77,30.8-1.11,8.49-1.6,17.13-.49,25.64,1.11,8.51,3.78,17.39,9.51,23.99,10.19,11.72,27.86,8.38,41.31,6.43,9.26-1.35,18.44-1.46,27.77-.7,10.51.85,20.97,2.41,31.53,2.66,6.19.15,12.4-.08,18.58-.36,5.34-.25,10.74-.88,16.09-.84,1.68.01,3.38.11,5.03.46.81.17,1.64.36,2.41.68-.42-.17,1.4.65.7.34.03.01.85.55.17.08.25.17.06-.22.04.07,0-.16-.02-.48-.04-.49-.1.31-.1.32,0,.02-.1.18-.2.35-.32.52-1.18,1.3-3.23,2.61-4.96,3.6-2.87,1.64-.96,6.68,2.31,5.48,2.2-.8,4.09-1.09,6.38-1.03.96.03,2.08.23,2.66.5.07.03.67.45.41.25-.22-.17.24.39-.02-.03.19.3.2,0,.17.65-.04.78-.2.96-.87,1.41-1.01.68-2.2.99-3.42,1.27-2.39.54-4.85.65-7.29.68-3.91.06-3.8,5.69,0,6,1.46.12,2.49.51,3.67,1.04-.14-.06-.07-.12-.1-.01.23-.95-.09.5.01-.47-.01.14-.28.8-.01.21-.11.24-.25.48-.41.69.34-.48-.26.26-.29.29-.44.44-.39.41-.93.75-1.2.76-2.51,1.25-3.95,1.45-4.25.6-8.85-.88-12.88-2.06-4.85-1.41-9.63-2.89-14.59-3.87-10.64-2.11-21.51-3.29-32.36-3.21-7.91.05-15.74.94-23.57,1.99-13.51,1.81-27.1,3.92-40.77,3.46-12.3-.42-25.13-3.27-34.08-12.29-5.52-5.57-9.08-12.88-10.9-20.45-2.33-9.69-1.5-19.79.02-29.53,1.64-10.55,3.59-21.04,5.19-31.6,1.63-10.84,3.11-21.7,4.35-32.59,2.35-20.59,3.8-41.69-2.85-61.68-5.98-17.97-16.85-34.38-18.99-53.53-1.02-9.16-1.52-18.47-.7-27.67.77-8.71,2.97-17.26,6.32-25.33,1.82-4.4,4.06-8.6,6.18-12.86s4.25-8.61,6.41-12.89c4.32-8.55,8.87-17.02,14.21-24.98,2.61-3.88,5.41-7.61,8.46-11.15l-5.01-1.32c4.94,16.32,2.05,34.83,10.77,50.03,4.75,8.28,13.11,14.18,22.32,16.52,5.89,1.49,12.14,1.36,18.14.66,5.74-.66,11.27-2.16,16.95-3.1s11.63.19,17.27.63,11.57.72,16.57-2.03h-3.03c2.17,1.2,4.8,1.36,7.23,1.42,3.29.08,6.59-.2,9.85-.51,6.56-.64,13.06-1.7,19.62-2.36,3.56-.36,7.1-.53,10.5-1.78,3.8-1.4,7.12-3.61,10.05-6.39,6.75-6.38,11.72-14.49,15.15-23.06,4.07-10.17,6-21.02,8.3-31.69l-5.89-.8c3.44,26.01,9.63,51.48,14.32,77.27,2.38,13.08,4.4,26.31,5.26,39.58.69,10.73-.79,21.63-2.36,32.22-.85,5.73-1.81,11.44-2.77,17.16-.82,4.84-1.85,9.73-2.34,14.62-.82,8.26-.77,16.47-.23,24.75.83,12.86,2.95,25.62,6.59,37.99,1.9,6.46,4.33,12.72,6.64,19.04,2.18,5.97,4.14,12.13,4.25,18.54.12,6.76-1.94,13.36-4.31,19.63s-5.38,12.63-8.01,18.97c-2.14,5.15-3.36,10.71-5.95,15.67-1.09,2.09-2.52,4.2-4.45,5.63-.74.55-1.22.59-1.78.86.11-.06.39-.04.45.16-.17-.57-.41-.75-.53-1.57-.21-1.39-.03-2.89.13-4.28.37-3.14-4.15-3.81-5.59-1.51-.38.61-.82,1.12-1.32,1.42-.39.23-.63.27-.94.31-.83.11-2.01-.38-2.54-.79-1.09-.83-1.46-1.4-1.63-2.43.08.53,0-.17.04-.33-.16.64.12-.3.13-.32-.13.21.38-.45.79-.73,2.74-1.88,1.11-6.35-2.31-5.48-.78.2-1.58.41-2.38.5-.36.04-.73.04-1.09.06-.05,0-1.07-.1-.42,0-.17-.03-.35-.06-.52-.12-.72-.24.42.35-.13-.06-.26-.19.41.42.2.24-.05-.04-.12-.73-.06-.22s.01-.22.02-.27c.01-.12.1-.92-.01-.18.04-.26.1-.52.16-.78.31-1.26.65-2.05,1.09-2.96,2.73-5.68,6.97-10.49,10.27-15.82,4.64-7.5,8.83-15.71,8.7-24.72-.12-7.99-2.39-15.87-4.69-23.46-2.44-8.04-5.75-16.33-6.28-24.79-.24-3.84-6.24-3.86-6,0h0Z"/><path d="m115.69,106.22c.12.11.18.26.17.45l1.38-3.39c-4.04,2.06-8.28,3.62-12.53,5.18s-8.71,2-13.2,2.69-8.67,1.94-13.12,1.33c-4.12-.56-8.06-2.17-11.7-4.11-3.83-2.04-7.85-4.15-10.93-7.28l.77,1.32c-.06-.21-.12-.42-.17-.64l-.03-.12c.05.39.06.42.04.08.02-.02.02-.47.02-.45-.04.67-.04.34.01.15.19-.66-.38.48.01-.08.07-.1.17-.27.22-.37.2-.43.03-.03-.07.08.16-.17.31-.33.47-.49.01-.01.59-.51.24-.22s.28-.19.29-.2c.29-.18.58-.36.87-.52.39-.21.79-.4,1.19-.59.53-.25.14-.06.03-.02.25-.1.51-.2.76-.29,3.6-1.33,7.61-2.56,11.41-2.99,5.65-.64,11.32.08,16.96.53,2.75.22,5.51.25,8.23.7s5.57,1.21,8.24,2.23c.63.24,1.7.75,2.58,1.2,1.02.52,2.02,1.08,3,1.68,1.04.64,2.07,1.32,2.87,2.01.42.36.82.73,1.2,1.13.47.5.35.31.77,1.01,1.98,3.31,7.17.3,5.18-3.03-2.26-3.78-6.57-6.28-10.41-8.19-4.81-2.4-9.96-3.73-15.3-4.3-2.72-.29-5.46-.37-8.19-.6s-5.65-.51-8.48-.6c-5.24-.16-10.17.62-15.2,2.04-3.34.95-6.86,1.91-9.64,4.07-1.44,1.11-2.66,2.61-3.06,4.43-.24,1.08-.22,2.12-.02,3.2.28,1.48,1.22,2.41,2.31,3.35,3.84,3.31,8.45,5.9,13,8.08,5.15,2.47,10.92,4.29,16.7,3.91,3.33-.22,6.57-1,9.85-1.54s6.35-.77,9.47-1.46,6.19-1.97,9.2-3.13,6.19-2.48,9.16-4c1.15-.59,1.74-2.17,1.38-3.39-.19-.65-.47-1.28-.78-1.88-.74-1.44-2.76-1.86-4.1-1.08-1.46.85-1.82,2.66-1.08,4.1Z"/><path d="m211.13,104.62c-1.11,1.15-2.99,1.71-4.62,2.4-2.24.94-4.3,2.2-6.44,3.35-4.23,2.28-8.74,3.39-13.54,3.38-9.66-.03-19.37-2.87-27.82-7.44-2.13-1.15-4.18-2.41-6.23-3.69-1.04-.65-2.1-1.25-3.25-1.7-.99-.39-2.03-.49-3.08-.65l1.32,5.01c1.2-1.14,2.5-2.53,3.67-3.29,1.7-1.1,3.48-1.85,5.37-2.49,4.43-1.48,9.13-2.36,13.75-2.93,9.67-1.19,19.95-1.36,28.73,3.39,4.44,2.4,8.39,5.54,12.23,8.78v-4.24l-.1.11c-1.07,1.22-1.2,3.04,0,4.24,1.09,1.09,3.17,1.22,4.24,0l.1-.11c1-1.14,1.3-3.14,0-4.24-7.59-6.41-15.87-12.58-25.98-14-5.8-.81-11.75-.72-17.57-.12-5.35.56-10.77,1.41-15.92,2.99-2.5.77-5.02,1.72-7.28,3.06-2.08,1.24-3.75,2.94-5.49,4.6-1.5,1.44-.95,4.66,1.32,5.01.87.13,1.8.2,2.64.48.48.16-.31-.15.2.08.22.1.43.22.64.33.54.3,1.07.62,1.59.95,1.93,1.22,3.88,2.4,5.88,3.49,4.66,2.54,9.57,4.67,14.72,6.01,10.3,2.67,21.43,3.77,31.27-1.01,2.5-1.22,4.82-2.8,7.38-3.9,2-.86,4.74-1.79,6.51-3.62,2.69-2.78-1.55-7.02-4.24-4.24Z"/><path d="m58.44,106.34c-.94,1.01-1.72,2.17-2.56,3.26l.47-.61c-.4.51-.8,1.02-1.3,1.44-.44.37-.89.71-1.34,1.07s-.87.68-1.26,1.07c-.69.7-1.41,1.74-1.29,2.78.09.82.27,1.52.88,2.12.52.52,1.37.91,2.12.88s1.58-.29,2.12-.88c.5-.55.96-1.35.88-2.12,0-.03,0-.05,0-.08l-.11.8s.02-.06.03-.09l-.3.72c.04-.07.08-.14.13-.21l-.47.61c.68-.86,1.69-1.47,2.53-2.15,1.33-1.07,2.24-2.54,3.27-3.88l-.47.61c.29-.38.59-.75.92-1.1.54-.58.88-1.32.88-2.12,0-.74-.33-1.61-.88-2.12s-1.32-.91-2.12-.88-1.58.29-2.12.88h0Z"/><path d="m67.54,113.93c.01.49-.02.97-.08,1.46l.11-.8c-.2,1.44-.67,2.82-1.23,4.16l.3-.72c-.53,1.25-1.15,2.45-1.78,3.65-.73,1.39-.4,3.32,1.08,4.1,1.38.73,3.32.41,4.1-1.08,1.74-3.31,3.6-6.94,3.5-10.78-.04-1.57-1.35-3.07-3-3s-3.04,1.32-3,3h0Z"/><path d="m84.35,117.34c.17.25.31.52.43.8l-.3-.72c.3.74.46,1.52.57,2.3l-.11-.8c.27,2.05.19,4.11.19,6.17,0,1.57,1.38,3.07,3,3s3-1.32,3-3,.05-3.33-.07-4.99c-.14-1.94-.4-4.13-1.53-5.79-.44-.65-1.02-1.16-1.79-1.38-.72-.2-1.67-.11-2.31.3-1.29.83-2.02,2.72-1.08,4.1h0Z"/><path d="m100.68,113.3c.44,2.93,1.92,5.59,2.33,8.53l-.11-.8c.07.56.09,1.12.05,1.69-.12,1.57,1.46,3.07,3,3,1.73-.08,2.87-1.32,3-3,.29-3.88-1.92-7.28-2.48-11.02-.1-.69-.8-1.46-1.38-1.79-.64-.38-1.59-.54-2.31-.3s-1.43.68-1.79,1.38c-.4.76-.43,1.47-.3,2.31h0Z"/><path d="m110.01,110.93c1.55,2.43,3.01,4.91,4.51,7.37.4.65,1.05,1.17,1.79,1.38s1.67.11,2.31-.3c1.34-.87,1.95-2.67,1.08-4.1-1.5-2.46-2.97-4.94-4.51-7.37-.42-.65-1.04-1.17-1.79-1.38s-1.67-.11-2.31.3-1.2,1.03-1.38,1.79-.13,1.63.3,2.31h0Z"/><path d="m149.87,106c-.04.1-.08.2-.12.3l.3-.72c-.68,1.62-1.42,3.32-2.48,4.74l.47-.61c-.62.8-1.35,1.51-2.04,2.24-.74.78-1.54,1.62-2,2.6-.35.75-.53,1.49-.3,2.31.19.7.73,1.45,1.38,1.79,1.32.7,3.4.44,4.1-1.08.14-.3.32-.58.52-.84l-.47.61c1.12-1.44,2.52-2.62,3.6-4.1,1.23-1.69,2.04-3.73,2.83-5.65.28-.67.04-1.72-.3-2.31s-1.08-1.22-1.79-1.38c-.77-.17-1.63-.14-2.31.3s-1.06,1.03-1.38,1.79h0Z"/><path d="m161.99,112.18c-.18,1.01-.57,1.98-.96,2.93l.3-.72c-.88,2.07-1.96,4.13-2.43,6.34-.17.79-.11,1.6.3,2.31.36.62,1.08,1.22,1.79,1.38,1.5.34,3.34-.45,3.69-2.1.23-1.12.65-2.18,1.09-3.23l-.3.72c.49-1.16,1.01-2.31,1.49-3.48.34-.83.66-1.68.81-2.56.14-.81.13-1.57-.3-2.31-.36-.62-1.08-1.22-1.79-1.38-.77-.17-1.63-.14-2.31.3-.62.4-1.25,1.04-1.38,1.79h0Z"/><path d="m177.73,115.61c-1.61,1.6-1.8,4.4-1.98,6.52-.08,1.01-.12,2.03-.09,3.04.03.95.08,1.95.35,2.86.45,1.5,2.12,2.6,3.69,2.1s2.58-2.08,2.1-3.69c-.07-.22-.11-.45-.14-.67l.11.8c-.25-1.85-.12-3.8.12-5.65l-.11.8c.12-.87.26-1.76.59-2.57l-.3.72c.08-.18.17-.36.29-.51l-.47.61s.06-.07.09-.1c1.12-1.11,1.19-3.15,0-4.24s-3.05-1.18-4.24,0h0Z"/><path d="m190.15,117.25c-.06,1.72.21,3.47.49,5.16.26,1.57.59,3.14,1.04,4.66s2.13,2.6,3.69,2.1,2.58-2.08,2.1-3.69c-.57-1.9-.95-3.86-1.21-5.83l.11.8c-.14-1.06-.25-2.13-.21-3.2.06-1.57-1.42-3.07-3-3-1.67.07-2.94,1.32-3,3h0Z"/><path d="m202.68,114.25c.81,1.52,1.9,2.89,2.98,4.22,1,1.23,2.07,2.4,3.19,3.51.55.54,1.35.88,2.12.88s1.61-.33,2.12-.88c1.1-1.2,1.19-3.06,0-4.24-1.36-1.35-2.64-2.79-3.81-4.3l.47.61c-.69-.9-1.35-1.83-1.89-2.83-.74-1.39-2.78-1.93-4.1-1.08-1.41.91-1.87,2.62-1.08,4.1h0Z"/><path d="m113.55,163.5c3.71-.03,7.62-.7,10.13-3.72,2.39-2.88,4.2-7.05,4.28-10.81h-6c.04,4.15.75,8.26,3.81,11.32,1.82,1.82,3.97,2.9,6.54,3.14,2.15.2,4.29-.36,6.44-.17,1.62.14,3-1.48,3-3,0-1.74-1.38-2.86-3-3-1.72-.15-3.4.15-5.11.2-1.47.04-2.49-.28-3.62-1.41-.86-.86-1.33-1.77-1.64-2.9-.1-.37-.18-.74-.24-1.12-.09-.55-.01.07-.06-.54-.07-.84-.1-1.68-.11-2.52-.04-3.86-5.92-3.86-6,0-.02.96-.38,2.22-.87,3.41s-1.1,2.49-1.9,3.47c-1.24,1.53-3.37,1.62-5.64,1.65-3.86.03-3.87,6.03,0,6h0Z"/><path d="m185.17,93.78c1.92-.17,3.83.16,5.43,1.43,3.59,2.86,3.21,6.88,1.43,10.65-1.4,2.96-4.5,8.01-8.27,7.25-12.81,3.07-11.83-14.45-4.16-17.76,1.67-.72,3.63-1.39,5.57-1.56Z"/><path d="m82.1,92.95c1.81-.34,3.66-.36,5.26.12,4.05,1.24,5.33,5.83,3.8,9.39-.9,2.09-2.26,4.7-3.69,6.47-.66.82-1.48,1.44-2.43,1.97-.76.42-2.18.35-1.64.66-10.87,3.46-14.41-12.61-6.44-16.83,1.46-.77,3.28-1.44,5.14-1.79Z"/><path d="m62.83,142.28c.83-.79,1.32-1.12,2.6-1.77.27-.14.55-.27.83-.39.32-.14.07-.02,0,0,.15-.06.3-.12.44-.17.66-.24,1.33-.45,2.01-.64,2.8-.76,4.97-1,7.86-1.09,1.33-.04,2.67-.02,4,.05.59.03,1.17.08,1.76.13.28.03.55.06.83.09.36.04-.09-.02-.14-.02.17.02.34.05.51.07,1.34.21,2.69.47,3.97.91,1,.34,1.84.89,2.39,1.66.04.06.16.41.05.09-.13-.37.01.12.01.13,0,.01.1.5.04.14s0,.13,0,.17c0,.3,0,.59-.01.89,0,.02-.07.5-.02.2.05-.27-.08.3-.09.35-.04.14-.24.8-.17.63s-.22.39-.28.52c0,0-.02.04.04,0,.32-.17-.01,0-.07.03-.28.17-.55.35-.81.56-2.34,1.99-3.53,3.52-6.18,4.8-2.47,1.19-5.53,1.97-8.37,2.42-.17.03-.34.05-.51.08.07,0,.32-.04-.03,0-.32.04-.63.07-.95.1-.6.05-1.19.08-1.79.07s-1.14-.04-1.7-.09c-.15-.01-.85-.11-.37-.04-.35-.05-.69-.12-1.03-.19-.69-.14-1.37-.32-2.04-.54-.33-.11-.66-.22-.98-.36.41.18-.36-.19-.49-.26-.3-.16-.59-.32-.87-.51-.12-.08-.24-.16-.35-.24-.39-.27.3.26-.06-.04-.25-.21-.48-.43-.7-.66-.09-.1-.18-.2-.27-.31-.3-.35.22.34-.02-.04-.17-.27-.33-.54-.47-.83.22.46-.08-.29-.13-.46-.04-.14-.07-.28-.1-.42.08.42,0-.03-.02-.21-.03-.47-.04-.95,0-1.42.12-1.34.72-2.44,1.69-3.42,2.7-2.76-1.54-7.01-4.24-4.24-2.91,2.98-4.23,7.38-3.08,11.45.9,3.19,3.45,5.59,6.4,6.92,6.31,2.86,13.55,2.13,19.94-.09,3.33-1.16,6.17-2.76,8.75-5.15,1.36-1.26,2.78-2.12,3.86-3.67,1.01-1.46,1.44-3.34,1.54-5.09.46-8.34-9.59-9.86-15.88-10.15-7.22-.33-16.06.54-21.53,5.79-2.79,2.68,1.46,6.92,4.24,4.24Z"/><path d="m172.75,143.61c4.14-1.46,8.78-1.07,13.11-1,2.15.04,4.34.11,6.46.56.84.18,1.52.39,2.1.82,1.05.77,1.86,1.48,3.14,1.86l-2.1-2.1c.39,1.35.24,2.9-.33,4.29-.21.52-.5,1.02-.79,1.49-.12.19-.24.38-.37.56,0,0-.34.43-.14.19-.28.34-.59.66-.91.97-.47.44-.46.44-1.07.8-.98.58-2.08.95-3.11,1.43-1.09.5-2.08,1.13-3.14,1.69-.17.09-1.12.47-.46.23-.31.11-.61.23-.93.32-.79.25-1.59.42-2.4.57-.15.03-.75.1-.14.03-.18.02-.37.04-.55.06-.37.04-.74.06-1.11.08-.95.05-1.9.04-2.85-.02-.38-.02-.77-.07-1.15-.1-.6-.06-.19-.02-.06,0-.24-.03-.47-.07-.71-.11-.88-.16-1.76-.36-2.62-.62-.35-.11-.7-.22-1.05-.35-.17-.06-.34-.13-.51-.19.53.21-.02,0-.15-.07-.75-.36-1.43-.77-2.14-1.21-.1-.06-.46-.34,0,.03-.13-.1-.26-.2-.38-.31-.27-.24-.53-.49-.77-.75-.13-.14-.26-.29-.38-.45.09.11.28.49.06.04-.17-.34-.39-.66-.57-1,.33.65-.1-.36-.16-.6-.16-.73-.07-.38-.05-.26,0,.02.01-1.01-.04-.56.12-1.07.51-1.79,1.23-2.68,1.15-1.44,3.08-2.87,5.03-3.62,1.51-.58,2.56-2.02,2.1-3.69-.4-1.44-2.17-2.68-3.69-2.1-6.63,2.56-13.44,9.47-9.39,16.95,2.76,5.1,9.14,7.05,14.52,7.59,2.79.28,5.68.1,8.41-.55,3.15-.75,5.82-2.62,8.76-3.89,3.31-1.43,5.75-4.23,7.13-7.52.68-1.62,1.1-3.37,1.1-5.14,0-.88-.1-1.8-.32-2.66-.17-.65-.41-1.28-.89-1.77s-1.16-.63-1.56-.89c-.65-.42-1.52-1.27-2.38-1.68-1.02-.48-2.09-.79-3.19-.99-2.54-.46-5.13-.63-7.71-.67-4.78-.07-9.89-.39-14.46,1.22-1.53.54-2.55,2.05-2.1,3.69.41,1.48,2.15,2.63,3.69,2.1Z"/><path d="m60.37,147.78c3.53-2.5,6.51-5.71,10.19-8.01l-2.2-1.69c-1.09,4.6-6.26,8.07-5.69,13.14.15,1.31,1.52,1.95,2.56,1.06,2.7-2.33,4.9-5.18,7.42-7.68,2.11-2.1,3.94-4.81,6.72-6.08l-2.2-1.69c-1.75,5.32-6.31,9.19-7.75,14.67-.4,1.53,1.4,2.39,2.51,1.46,2.06-1.73,3.7-3.88,5.67-5.7.66-.61,1.29-1.26,1.94-1.88.52-.49,1.4-1.51,2.15-1.59l-1.45-1.9c-.58,2.7-2.14,5.08-2.13,7.91,0,1.39,1.6,1.86,2.56,1.06,2.05-1.69,3.39-4.08,4.7-6.34s2.54-4.7,4.67-6.18l-2.26-1.3c-.02,4.32-2.71,8.11-2.77,12.46-.02,1.21,1.27,1.77,2.26,1.3.34-.16.54-.41.74-.64,1.25-1.46-.86-3.59-2.12-2.12-.08.09-.16.19-.24.29-.19.24-.16.2.11-.12l2.26,1.3c.07-4.32,2.75-8.1,2.77-12.46,0-1.07-1.3-1.96-2.26-1.3-4.68,3.25-5.68,9.45-9.97,12.99l2.56,1.06c0-2.49,1.51-4.71,2.02-7.11.18-.86-.42-2.01-1.45-1.9-2.37.25-4.04,2.25-5.65,3.82-2.1,2.04-4,4.35-6.24,6.23l2.51,1.46c1.43-5.42,6-9.35,7.75-14.67.45-1.36-1.11-2.2-2.2-1.69-2.92,1.34-4.88,4.09-7.08,6.31-2.58,2.6-4.88,5.53-7.66,7.92l2.56,1.06c-.25-2.23,1.23-4.29,2.37-6.08,1.25-1.96,2.67-3.96,3.22-6.26.29-1.22-1.05-2.41-2.2-1.69-3.68,2.3-6.66,5.5-10.19,8.01-1.56,1.11-.07,3.71,1.51,2.59h0Z"/><path d="m164.88,152.26c4.15-.37,5.69-5.72,9.22-7.32l-2.2-1.69c-.78,4.23-2.91,8.06-3.68,12.29-.26,1.41,1.38,2.59,2.51,1.46,2.07-2.07,3.4-4.69,5.13-7.02,1.83-2.46,4.21-4.45,6.02-6.95l-2.8-.76c-.04,2.11-1.47,4.04-2.25,5.94-1.02,2.52-2.04,5.04-2.93,7.61-.38,1.09.8,2.15,1.85,1.85,2.28-.67,3.66-3.33,4.89-5.17,1.71-2.54,3.98-4.87,6.17-7.01l-2.36-.3c.68,1.39-.6,3.56-1.02,4.88-.62,1.93-.82,3.88.17,5.72.38.7,1.38.96,2.05.54,4.61-2.88,5.52-9.12,8.64-13.23l-2.74-.36c.84,3.39-.42,6.89.45,10.32.26,1.01,1.35,1.29,2.2.9.78-.36,1.3-.95,1.68-1.71.88-1.71-1.71-3.23-2.59-1.51-.2.38-.22.45-.61.63l2.2.9c-.86-3.39.4-6.89-.45-10.32-.34-1.38-2.01-1.32-2.74-.36-1.5,1.97-2.46,4.31-3.56,6.51-.98,1.97-2.07,4.43-4.01,5.64l2.05.54c-.86-1.59.22-3.63.75-5.17.62-1.82.98-3.63.1-5.43-.43-.89-1.71-.94-2.36-.3-2.08,2.04-4.25,4.26-5.95,6.63-.68.95-1.29,1.94-1.97,2.88-.44.61-1.1,1.69-1.81,1.9l1.85,1.85c.91-2.65,1.91-5.32,3.05-7.88.94-2.11,2.19-4.08,2.23-6.46.03-1.6-1.98-1.89-2.8-.76-1.72,2.38-4.01,4.29-5.78,6.63-1.68,2.21-2.92,4.76-4.9,6.73l2.51,1.46c.78-4.23,2.9-8.06,3.68-12.29.25-1.35-.98-2.25-2.2-1.69-1.73.79-3.06,2.35-4.31,3.73-.63.7-1.26,1.42-1.93,2.08-.36.35-1.06,1.06-1.47,1.1-1.91.17-1.93,3.17,0,3h0Z"/></g></svg>