<?xml version="1.0" encoding="UTF-8"?><svg id="Livello_2" xmlns="http://www.w3.org/2000/svg" viewBox="0 0 243.68 603.44"><g id="Livello_1-2"><path d="m70.99,593.78c-3.93-.55-8.5-1.26-11.63-3.91s-3.89-6.88-4.46-10.59c-.72-4.64-.58-9.42-.58-14.1,0-5.8.1-11.6.27-17.39.33-11.73.89-23.45,1.18-35.18s.15-22.96,1.05-34.43c.88-11.24,2.3-22.44,3.52-33.64,1.22-11.14,1.88-22.29,2.62-33.47.72-10.94,2.52-21.52,5.22-32.13s5.77-20.71,10.98-30.05c4.73-8.48,10.55-16.7,12.72-26.32,1.27-5.65,1.96-11.43,2.72-17.17.37-2.82.75-5.64,1.19-8.45s1.17-5.76,1.53-8.66c.31-2.49-.18-5.08.38-7.53.46-2.03-.91-3.62-2.89-3.8-1.21-.11-3.57.42-4.51-.22-.88-.6-1.55-2.95-1.89-4.02-.48-1.48-.77-2.76-.44-4.08.15-.61.42-1.51.61-1.92.36-.79.52-1.04.96-1.44.64-.6-.45.24.28-.24.24-.16.49-.3.76-.42-.52.24.4-.13.42-.13.32-.09.63-.18.95-.25,1.32-.3,2.75-.38,4.23-.49,3.42-.27,6.83-.59,10.25-.87,3.75-.31,7.51-.6,11.28-.73,3.46-.12,6.59.18,10.01.76,2.02.34,3.99.59,6.04.38,1.7-.18,3.7-.71,5.39-.37.27.06.65.42.53.27.46.58.49.73.66,1.34.33,1.2.35,2.63.15,3.92-.45,2.86-1.32,4.71-3.78,6.01-.62.32-.75.26-1.58.7-.6.32-1.16.72-1.63,1.21-1.28,1.32-2.09,3.19-2.52,4.96-1.02,4.17-1.17,8.73-1.67,13-.62,5.36-1.04,10.75-1.1,16.14-.12,10.13.95,20.57,4.17,30.22,2.93,8.76,7.71,16.66,12.44,24.54,4.61,7.69,8.8,15.46,11.43,24.07,2.79,9.13,4.25,18.66,4.3,28.2.03,4.73-.52,9.38-.85,14.09-.37,5.19-.45,10.4-.44,15.6.02,10.67.31,21.3-.2,31.96-1.02,21.48-.52,43.18-3.72,64.51-.78,5.2-1.71,10.38-2.59,15.56-.44,2.6-.9,5.19-1.03,7.83s0,5.44,0,8.16c.03,7.19-1.42,14.5-7.84,18.38-5.19,3.13-11.68,3.69-17.69,3.75-5.01.05-10.01-.32-15-.61-11.45-.66-22.91-1.32-34.33-2.34-2.21-.2-4.43-.4-6.63-.7-1.61-.22-3,1.53-3,3,0,1.8,1.39,2.78,3,3,12,1.61,24.21,2.04,36.28,2.76,11.08.66,22.87,2.26,33.7-.84,6.73-1.93,12.47-6.12,15.26-12.68,2.02-4.75,2.32-9.88,2.25-14.98-.04-2.62-.12-5.24.07-7.85.2-2.75.79-5.49,1.26-8.21,1.92-11.18,3.55-22.31,4.27-33.64.72-11.24.95-22.51,1.31-33.77.36-11.17.87-22.28.73-33.46-.07-5.56-.15-11.13-.04-16.69s.64-10.66,1.01-16c1.4-19.79-3.42-39.72-13.24-56.89-4.64-8.11-10.03-15.91-13.55-24.61-3.93-9.73-5.32-20.33-5.34-30.76,0-5.49.37-10.98.96-16.44.28-2.54.67-5.07.92-7.62.19-1.91.28-3.89.86-5.73.18-.59.63-1.41.84-1.73.1-.15.03-.02.06-.04.11-.06.21-.13.32-.18.81-.32-.77.33.36-.16,1.58-.69,3.12-1.51,4.33-2.77,2.39-2.5,3.42-6.14,3.71-9.5s-.43-7.03-3-9.26c-3.45-2.99-7.75-1.18-11.78-1.26-2.07-.04-4.11-.61-6.15-.93-1.83-.28-3.62-.39-5.47-.38-3.86.03-7.71.31-11.55.61s-7.29.62-10.93.92c-3.29.27-6.78.29-9.84,1.69s-4.74,4.36-5.57,7.52c-1.08,4.11.32,8.43,2.33,12.05,1.03,1.85,2.58,3.28,4.67,3.78,1.83.43,3.72.13,5.57.29l-2.89-3.8c-.63,2.75-.2,5.44-.49,8.21s-1.04,5.55-1.47,8.32c-.92,5.93-1.57,11.9-2.5,17.84-.81,5.18-1.77,10.31-3.94,15.12-2.05,4.54-4.64,8.81-7.16,13.09s-4.92,8.71-6.82,13.38c-2.17,5.34-3.98,10.81-5.56,16.35-3.08,10.86-5.47,21.91-6.51,33.16s-1.36,22.76-2.5,34.11-2.65,22.82-3.7,34.25-1.17,23.48-1.39,35.29-.78,23.67-1.16,35.51c-.19,6.02-.34,12.05-.38,18.07-.03,5.17-.18,10.41.34,15.56.45,4.4,1.24,8.98,3.4,12.89s6.35,6.54,10.71,7.89c2.16.67,4.39,1.06,6.62,1.37,1.6.22,3.22-.39,3.69-2.1.39-1.4-.48-3.47-2.1-3.69Z"/><path d="m90.14,262.25c-.74-7.44-8.11-12.76-13.63-16.89-7.09-5.32-14.27-10.51-21.21-16.04-7.81-6.23-15.38-12.77-22.25-20.04-3.26-3.46-6.57-7.02-9.31-10.92s-4.96-8.29-6.9-12.71c-3.94-8.98-7.26-18.19-8.34-28-.58-5.2-.5-10.41-.71-15.62s-.56-10.71-.69-16.08.42-10.49-.25-15.67c-.32-2.47-.75-4.92-.85-7.41s.25-4.93.74-7.37,1.16-5.08,1.6-7.64.76-5.15,1.2-7.72c.88-5.12,1.96-10.22,3.36-15.23,2.69-9.67,6.56-18.98,11.24-27.85s10.47-16.55,15-25.23c1.18-2.26,2.22-4.58,3.16-6.94l-5.89-.8c1.1,9.16.15,19,4.12,27.56,1.58,3.4,3.92,6.37,6.34,9.21,1.22,1.44,2.47,2.85,3.69,4.29s2.4,2.94,3.89,4.18c6.33,5.26,14.24,7.03,21.73,9.93,2.14.83,4.27,1.73,6.5,2.32s4.26.59,6.45.75c1.92.14,3.42,1.26,5.28,1.62,2.34.45,4.88.28,7.25.31,18.07.18,36.18-1.21,54.2.7,13.97,1.48,30.37,3.48,41.57-7.01,2.74-2.56,5.42-5.46,7.39-8.66,2.31-3.75,3.74-8.17,5.35-12.25s3.24-8.33,4.11-12.65.68-8.3,1.22-12.45c.24-1.87.65-3.72,1.32-5.48l-5.89-.8c-.13,4.73.35,9.47,1.12,14.14.38,2.3.84,4.59,1.43,6.84s1.45,4.47,2.04,6.75c.66,2.53,1.01,5.12,1.61,7.67s1.56,4.88,2.73,7.18c1.02,2.01,2.19,3.97,2.86,6.13.71,2.29,1.06,4.7,1.74,7.01,1.47,4.97,3.42,9.78,5.38,14.58s3.93,9.35,5.12,14.3c1.21,5.04,1.73,10.19,2.07,15.35s.67,10.81.65,16.21c-.03,11.03-1.4,21.99-3.28,32.84-.94,5.44-2.01,10.85-3.09,16.26s-1.88,10.69-3.66,15.8c-1.65,4.73-3.82,9.25-5.53,13.95-1.61,4.45-3.28,8.65-6.76,11.99s-7.17,5.76-10.29,9.2c-2.55,2.81-5.18,6.49-8.92,7.62-2.52.76-5.05.91-7.48,2.03-2.29,1.05-4.34,2.54-6.47,3.87-4.54,2.84-9.44,5.18-14.29,7.44-2.39,1.11-4.77,2.19-7.07,3.47s-4.46,2.61-6.74,3.84c-3.89,2.1-7.93,3.72-11.2,6.8-1.58,1.49-2.8,3.26-3.49,5.32-.51,1.54.59,3.28,2.1,3.69,1.64.45,3.17-.55,3.69-2.1.09-.27.61-1.22.85-1.52.57-.71,1.39-1.47,2.03-1.97,1.54-1.21,3.31-2.18,5.06-3.05,4.58-2.27,8.89-5,13.45-7.28,4.84-2.42,9.8-4.56,14.56-7.14,2.25-1.22,4.42-2.55,6.57-3.93s4.14-2.49,6.64-2.97,4.63-.95,6.76-2.21c1.89-1.13,3.57-2.63,5.09-4.22s2.9-3.28,4.43-4.85,3.38-3.05,5.15-4.49c3.84-3.12,7.22-6.45,9.35-10.99s3.6-9.39,5.56-14.01c2.09-4.95,3.81-9.82,4.87-15.09s2.19-10.79,3.22-16.2c2.12-11.09,3.94-22.28,4.62-33.57.34-5.58.33-11.14.05-16.72-.26-5.27-.49-10.55-1.13-15.79-.66-5.35-1.67-10.66-3.58-15.71-1.82-4.79-3.89-9.49-5.72-14.27-.91-2.37-1.77-4.77-2.52-7.2s-1.17-4.68-1.77-7.03c-1.19-4.7-4.35-8.57-5.6-13.24-.69-2.6-1.05-5.27-1.67-7.88-.54-2.26-1.39-4.42-2-6.66-1.21-4.46-2-9.04-2.36-13.65-.17-2.17-.24-4.35-.18-6.53.04-1.48-1.17-2.78-2.6-2.95-1.57-.19-2.74.72-3.29,2.15-1.42,3.7-1.69,7.82-1.94,11.75-.11,1.85-.15,3.71-.48,5.54-.35,1.97-.91,3.9-1.54,5.81-1.41,4.27-3.07,8.44-4.78,12.6-1.37,3.35-2.84,6.4-5.18,9.05s-4.6,5.04-7.47,6.75-5.53,2.55-8.76,3.16c-6.38,1.21-13.6.62-20.28-.05-7.42-.75-14.77-1.42-22.24-1.51-9.34-.12-18.67.2-28.01.3-4.67.05-9.43.24-14.1-.09-1.71-.12-3.15-1.19-4.86-1.53-1.92-.38-3.88-.14-5.79-.51-4.19-.82-8.11-2.83-12.17-4.14-3.41-1.1-6.81-2.27-10.01-3.9s-5.78-3.7-8.13-6.54c-2.2-2.66-4.66-5.22-6.64-7.96s-3.62-5.9-4.38-9.35c-.95-4.33-1.03-8.85-1.3-13.26-.14-2.3-.31-4.59-.59-6.87-.41-3.39-4.61-4.04-5.89-.8-3.55,8.95-9.54,16.66-14.35,24.94-5.17,8.89-9.51,18.3-12.86,28.02-1.7,4.94-3.07,10-4.17,15.11s-1.74,10.25-2.66,15.37S-.11,97.06,0,102.38c.05,2.56.48,5.08.82,7.61s.4,4.93.3,7.44c-.39,10.67.63,21.38.85,32.04.22,10.49,2.23,20.71,6.09,30.46,1.83,4.61,3.67,9.23,5.91,13.66s4.96,8.54,8.15,12.37c6.27,7.52,13.22,14.4,20.65,20.76,8.01,6.86,16.42,13.24,24.88,19.54,2.54,1.9,5.36,3.85,7.66,5.68,1.47,1.18,2.91,2.4,4.27,3.71.65.63,1.29,1.29,1.89,1.97.68.77.78.9,1.29,1.65.42.63.83,1.3,1.12,2.01-.22-.51.06.24.11.4.05.18.22,1.31.15.55.16,1.61,1.26,3,3,3,1.5,0,3.16-1.38,3-3h0Z"/><path d="m99.66,176.82c3.31.14,6.45-2.1,8.81-4.18,2.23-1.97,4.72-4.75,5.27-7.79.26-1.47-.27-2.95-1.74-3.54-1.32-.53-3.05-.12-3.75,1.23-1.27,2.44-2.03,5.18-1.3,7.91.62,2.33,2.25,4.15,4.22,5.46,3.65,2.42,8.52,3.03,12.77,2.36,1.6-.25,2.49-2.25,2.1-3.69-.47-1.71-2.08-2.35-3.69-2.1-.67.11.72-.03.01,0-.17,0-.34.03-.52.04-.36.02-.72.03-1.08.03-.42,0-.83-.02-1.24-.06-.19-.02-.39-.04-.58-.06-.38-.04.56.11-.02,0-.82-.16-1.63-.32-2.42-.58-.19-.06-.37-.13-.56-.19-.08-.03-.69-.28-.29-.11s-.2-.1-.27-.14c-.2-.11-.4-.21-.6-.32-.32-.18-.63-.39-.93-.6.62.43-.21-.21-.37-.37-.15-.15-.28-.31-.42-.47.22.26.24.36.05.02-.08-.15-.16-.31-.26-.45-.34-.53.11.38.02.05-.05-.17-.1-.34-.15-.5-.1-.32.03-.66-.03-.06.04-.38-.02-.78.01-1.16-.06.7.13-.47.21-.72,0-.01.3-.85.11-.38.12-.3.27-.58.42-.86l-5.48-2.31c-.05.26-.14.51-.19.77-.12.61.28-.48-.04.11-.29.52-.57,1.03-.91,1.52-.07.1-.52.67-.2.28-.25.3-.5.6-.76.88-.44.48-.9.94-1.38,1.37-.26.24-.53.46-.8.69-.72.61.42-.29-.33.26-.54.39-1.09.75-1.67,1.06-.23.13-.47.24-.71.36.63-.3-.28.09-.42.14-.22.06-.43.1-.65.16.79-.2.06-.03-.21-.04-1.62-.07-3,1.43-3,3,0,1.68,1.37,2.93,3,3h0Z"/><path d="m196.69,165.45c-6.58,2.7-13.28,4.83-20.47,4.59-.54-.02-1.07-.05-1.6-.09-.3-.02-.6-.05-.9-.08-.17-.02-.35-.04-.52-.06.28.04.32.05.02,0-1.21-.21-2.4-.45-3.55-.87-.12-.04-.24-.09-.36-.13-.42-.16.43.21.03.01-.22-.11-.44-.21-.65-.33-.24-.13-.47-.3-.71-.43-.13-.07-.43-.36.05.05-.11-.1-.24-.19-.34-.3-.08-.09-.62-.67-.37-.36s-.14-.25-.21-.34c-.06-.08-.27-.52-.1-.14.16.35,0,0-.02-.06-.05-.23-.22-1.02-.15-.37-.03-.3-.03-.6-.03-.91,0-.14.02-.27.02-.41,0-.02-.08.66-.02.32.1-.6-.24.22.02-.11.17-.21.57-.71.14-.26.19-.19.36-.39.56-.58.08-.08.6-.51.35-.32s.42-.29.54-.37c.31-.2.62-.39.94-.57.55-.31,1.11-.59,1.68-.86.92-.43.75-.35,1.63-.7,1.25-.49,2.53-.92,3.81-1.32,6.33-1.98,13.05-3.39,19.66-1.96.67.14,1.33.31,1.99.5.39.11.77.24,1.16.37.15.05.29.1.44.16.93.35-.22-.11.29.12.63.28,1.61.83,1.93,1.08.39.32.65.61.86,1.07-.31-.68.25.74,0,.12.05.12-.09.59.03.05-.04.18-.09.37-.16.53.25-.6-.47.6-.11.15-.25.32-.56.6-.86.87-.27.24-.98.71-1.62,1.06-.36.2-.73.39-1.1.57-.13.06-.27.13-.41.19-.84.41.5-.19-.31.14-1.5.61-2.56,2-2.1,3.69.39,1.42,2.18,2.71,3.69,2.1,3.5-1.42,7.54-3.5,8.69-7.42,1.22-4.19-1.93-7.72-5.49-9.36-7.9-3.63-17.32-2.97-25.47-.6-2.97.86-5.91,1.81-8.75,3.05s-5.89,2.89-7.27,5.67c-1.55,3.12-.63,7.12,1.88,9.48,2.24,2.11,5.33,3.1,8.32,3.56,9.18,1.4,18.07-.9,26.53-4.37,1.5-.62,2.56-1.99,2.1-3.69-.39-1.42-2.18-2.71-3.69-2.1h0Z"/><path d="m43.95,145.42c-3.45,1.23-6.54,3.15-8.61,6.24s-2.39,6.65-.89,9.91c3.19,6.94,12.38,7.98,18.95,6.59,1.87-.39,3.69-.99,5.48-1.64,1.39-.5,2.81-.72,4.23-1.12,2.76-.77,5.66-1.95,7.73-3.99,2.22-2.2,2.84-5.25,1.56-8.1s-4.04-5.03-6.77-6.37c-6.52-3.2-14.79-3.83-21.69-1.53-1.54.51-2.54,2.07-2.1,3.69.41,1.5,2.15,2.61,3.69,2.1,4.62-1.54,9.65-1.46,14.31-.11,1.16.34,2.05.67,2.9,1.1.47.24.93.49,1.37.77.21.13.42.27.63.42.56.39-.15-.15.31.25.51.44,1.03.91,1.45,1.44-.21-.26.36.56.32.48-.02-.03.38.82.23.42s.09.41.09.39c-.21-.77.1-.06-.03.04-.24.17.22-.57,0,0-.24.61.32-.38-.03.13-.07.1-.51.72-.07.18-.13.16-.28.31-.43.46s-.32.3-.49.44c.42-.35-.05.03-.17.1-.81.5-1.92,1.07-2.42,1.25-1.07.4-2.16.72-3.27.97-1.32.3-2.52.65-3.81,1.1-2.87,1-5.79,1.81-8.85,1.71-1.31-.04-2.58-.26-3.82-.68-.48-.16-.68-.25-1.21-.53-.48-.26-1.16-.71-1.33-.86-.2-.18-.4-.36-.59-.56,0,0-.6-.73-.34-.37-.39-.54-.58-.96-.65-1.21-.22-.74-.25-1.61.1-2.51.94-2.43,3.35-3.97,5.78-4.83,1.53-.54,2.55-2.05,2.1-3.69-.41-1.48-2.16-2.64-3.69-2.1Z"/><path d="m39.29,159.23c2.41-2.43,4.48-5.43,7.47-7.19l-2.26-1.3c-.24,2.56-1.72,4.78-1.87,7.38-.06.98,1,1.69,1.9,1.45,1.71-.47,3.1-1.52,4.45-2.62,1.24-1.02,2.46-2.14,4.11-2.37l-1.46-2.51c-2.69,3.32-5.06,6.97-6.1,11.16-.35,1.43,1.43,2.55,2.51,1.46,2.26-2.3,3.86-5.13,6.06-7.47s5.19-3.52,7.46-5.73l-2.51-1.46c-1.05,4.95-6.37,8.44-5.48,13.9.2,1.21,1.74,1.31,2.51.66,2.03-1.72,3.72-3.83,5.57-5.73,1.48-1.53,3.6-4.01,5.88-4.26l-1.5-1.5c-.1,2.84-1.9,5.28-1.91,8.18,0,1.93,2.99,1.93,3,0,0-2.85,1.81-5.32,1.91-8.18.03-.75-.71-1.59-1.5-1.5-2.93.33-5.26,2.41-7.28,4.41-2.13,2.11-4,4.52-6.29,6.46l2.51.66c-.34-2.09,1.33-4.32,2.36-5.97,1.24-1.98,2.62-4.01,3.12-6.33.31-1.44-1.39-2.54-2.51-1.46-2.27,2.2-5.27,3.41-7.46,5.73s-3.81,5.17-6.06,7.47l2.51,1.46c.91-3.67,2.97-6.93,5.33-9.84.99-1.22.05-2.72-1.46-2.51-3.5.49-5.29,4.09-8.56,5l1.9,1.45c.15-2.55,1.63-4.82,1.87-7.38.11-1.16-1.35-1.83-2.26-1.3-3.24,1.9-5.47,5.03-8.08,7.66-1.36,1.37.76,3.49,2.12,2.12h0Z"/><path d="m166.55,168.85c3.32-2.46,6.1-6.01,10.19-7.22l-1.46-2.51c-2.83,3.05-3.62,7.06-4.54,10.98-.36,1.53,1.38,2.39,2.51,1.46,4.66-3.85,6.9-9.82,11.55-13.69l-2.56-1.06c.04,3.5-1.76,6.6-3.13,9.72-.79,1.8-3.72,8.01.1,8.2,1.6.08,2.48-2.13,3.24-3.27.95-1.42,1.9-2.83,2.91-4.21,2.06-2.81,4.4-5.5,7.36-7.39l-2.2-1.69c-.34,2.51-1.07,4.95-1.94,7.32-.58,1.58,2,2.69,2.74,1.16.59-1.23,1.31-2.33,2.47-3.07l-2.26-1.3c.07.57.17,1.13.22,1.7.08.86.91,1.84,1.9,1.45,3.55-1.41,4.9-5.33,7.69-7.67l-2.56-1.06c.2,1.56-.36,3.13-.86,4.58-.54,1.58-1.2,3.11-1.74,4.69-.4,1.18,1.15,2.46,2.2,1.69.58-.43,1.24-.73,1.82-1.16,1.53-1.14.04-3.74-1.51-2.59-.58.43-1.24.74-1.82,1.16l2.2,1.69c1.07-3.12,3.14-6.66,2.7-10.07-.17-1.31-1.5-1.95-2.56-1.06-1.27,1.07-2.24,2.45-3.24,3.76-.82,1.08-1.81,2.62-3.12,3.14l1.9,1.45c-.05-.57-.16-1.13-.22-1.7-.13-1.05-1.2-1.97-2.26-1.3-1.6,1.02-2.73,2.45-3.55,4.15l2.74,1.16c.87-2.37,1.6-4.82,1.94-7.32.16-1.18-.98-2.48-2.2-1.69-5.73,3.66-9.3,9.67-13.02,15.18l1.3-.74.35.2.44,1.06c.23-2.82,1.66-5.4,2.8-7.93s2.2-5.31,2.17-8.23c-.02-1.38-1.59-1.87-2.56-1.06-4.65,3.88-6.9,9.85-11.55,13.69l2.51,1.46c.79-3.34,1.35-7.04,3.77-9.66.99-1.06.03-2.95-1.46-2.51-4.46,1.32-7.3,4.85-10.9,7.53-1.53,1.14-.04,3.74,1.51,2.59h0Z"/><path d="m41.21,97.39c-2.56,4.15-2.83,9.29,1.23,12.57,2.23,1.8,4.94,2.81,7.58,3.82s5.6,1.97,8.47,2.7c9.95,2.52,20.8,3.01,30.7-.06,4.28-1.33,8.68-3.43,11.64-6.89,1.57-1.83,1.42-4.63.86-6.87-.53-2.09-1.65-3.95-3-5.61-2.56-3.16-6.17-5.53-9.82-7.26-3.96-1.88-8.01-3.06-12.38-3.44-6.93-.6-13.94.79-20.52,2.92-5.42,1.75-11.43,3.11-14.78,8.12-.9,1.35-.26,3.32,1.08,4.1,1.47.86,3.2.28,4.1-1.08s2.36-2.26,3.72-2.82c1.99-.81,4.1-1.41,6.13-2.1,5.04-1.72,10.26-3.07,15.6-3.26,4.03-.14,7.9.36,11.69,1.76.41.15.83.31,1.23.48.46.19-.35-.15.11.05.23.1.46.21.69.31.84.39,1.67.81,2.48,1.27.72.41,1.43.84,2.12,1.3.92.61,1.14.78,1.83,1.38.74.64,1.45,1.32,2.08,2.07.12.14.25.29.36.44-.35-.45.18.27.19.29.25.38.49.77.7,1.17.08.16.16.32.24.48-.27-.56.07.19.09.27.14.42.24.84.34,1.27.03.14.05.57,0-.02.02.22.03.44.04.66s-.01.45-.01.67c0,.65.09-.42-.03.29l.77-1.32c-2.24,2.67-5.25,4.29-8.53,5.37-3.81,1.26-7.41,1.84-11.26,2.05-9.48.52-19.09-1.65-27.76-5.43-1.01-.44-2.05-.93-2.93-1.6.11.08.32.29-.1-.1-.21-.19-.41-.39-.6-.6.35.39-.25-.42-.34-.59-.2-.4.14.44.02,0-.08-.28-.12-.51-.07-.08-.02-.17-.03-.36-.03-.53,0-.09.12-.89,0-.33.23-1.14.56-1.81,1.16-2.79,2.03-3.3-3.16-6.31-5.18-3.03Z"/><path d="m190.11,108.29c-.25,1.57-1.66,2.22-3.09,2.7-1.89.63-3.56.89-5.33,1.04-5.01.42-9.98-.2-14.93-.86-4.26-.57-8.48-1.02-12.78-.98-1.28.01-2.56.02-3.84-.02-.63-.02-1.26-.05-1.89-.09-.32-.02-.64-.05-.95-.08-.21-.02-1.37-.17-.62-.06-1.35-.2-2.63-.52-3.92-.96.62.21.05.02-.21-.12-.23-.12-.45-.26-.67-.39-.66-.38.14.23-.13-.09-.09-.11-.21-.22-.32-.31-.34-.3-.05-.1.08.13-.07-.13-.48-.89-.27-.41.24.56-.08-.41-.1-.42-.2-.22-.01.56.02.23.02-.16-.01-.35-.02-.5,0-.14.02-.28.02-.42,0,.38-.08.41.01,0,.24-1.03.29-1,.88-1.82.45-.63,1.16-1.44,1.83-2.12,5.98-6.07,14.56-8.36,22.89-7.46,5.05.55,10,2.18,14.38,4.74,2.18,1.27,4.16,2.69,5.99,4.4.83.77,1.63,1.59,2.21,2.49.13.2.25.4.36.61.18.34.1.16.17.36.09.25.17.52.21.78-.06-.49-.06.39-.06.45-.13,1.62,1.47,3,3,3,1.73,0,2.87-1.38,3-3,.42-5.42-5.11-9.68-9.03-12.46-4.45-3.15-9.61-5.39-14.94-6.55-5.37-1.17-10.89-1.46-16.28-.3-4.99,1.08-9.71,3.34-13.7,6.51-3.42,2.71-7.27,6.66-6.89,11.37.29,3.73,3.06,6.05,6.39,7.22,3.07,1.08,6.5,1.25,9.72,1.29,3.71.05,7.36,0,11.06.41,6.44.72,12.84,1.98,19.35,1.43,5.14-.43,13.2-1.87,14.21-8.14.26-1.6-.41-3.23-2.1-3.69-1.43-.39-3.43.49-3.69,2.1Z"/><path d="m140.88,109.9c-2.02.09-3.56,1.57-4.93,2.91-.66.64-1.25,1.29-1.81,2.02s-1.02,1.58-1.46,2.42c-.37.71-.52,1.53-.3,2.31.19.7.73,1.45,1.38,1.79.7.37,1.54.55,2.31.3.72-.23,1.43-.68,1.79-1.38.44-.83.88-1.67,1.46-2.42l-.47.61c.41-.52.89-.98,1.37-1.44s.99-.95,1.53-1.37l-.61.47c.28-.21.56-.41.88-.55l-.72.3c.1-.04.2-.07.3-.09l-.8.11s.05,0,.08,0c.79-.04,1.55-.31,2.12-.88.52-.52.91-1.37.88-2.12s-.29-1.58-.88-2.12-1.32-.92-2.12-.88h0Z"/><path d="m153.16,113.48c-1.48,3.07-2.4,6.31-3.3,9.59-.42,1.51.52,3.33,2.1,3.69s3.24-.48,3.69-2.1c.7-2.53,1.37-5.07,2.38-7.5l-.3.72c.2-.46.4-.92.62-1.37.36-.74.53-1.5.3-2.31-.19-.7-.73-1.45-1.38-1.79-1.34-.71-3.38-.43-4.1,1.08h0Z"/><path d="m169.73,116.18c.17-.67.13-1.09,0-1.76v1.6-.05c-.69.7-1.39,1.4-2.09,2.1l.08-.03-3.8-2.89c.22,3.09-.22,6.16-.23,9.25,0,1.57,1.38,3.07,3,3s3-1.32,3-3c0-3.09.45-6.16.23-9.25-.07-.97-.4-1.75-1.18-2.36-.69-.53-1.76-.88-2.62-.54-.92.37-1.62.81-2.03,1.77-.29.68-.28,1.35-.15,2.08v-1.6l-.02.09c-.38,1.52.49,3.32,2.1,3.69s3.28-.47,3.69-2.1h0Z"/><path d="m175.29,116.83c.27.95.42,1.92.55,2.9l-.11-.8c.36,2.67.6,5.35,1.94,7.75.77,1.37,2.76,1.95,4.1,1.08s1.9-2.64,1.08-4.1c-.16-.28-.3-.57-.43-.87l.3.72c-.53-1.3-.75-2.68-.94-4.06l.11.8c-.22-1.67-.37-3.38-.83-5.01-.43-1.51-2.14-2.6-3.69-2.1s-2.55,2.07-2.1,3.69h0Z"/><path d="m188.28,117.06c.34.2.67.42.99.66l-.61-.47c1.38,1.07,2.48,2.45,3.55,3.83l-.47-.61c.93,1.2,1.82,2.43,2.84,3.55s3.18,1.16,4.24,0c1.14-1.24,1.13-3,0-4.24-.59-.65-1.14-1.34-1.67-2.03l.47.61c-1.85-2.39-3.64-4.93-6.32-6.48-.68-.39-1.56-.51-2.31-.3-.7.19-1.45.73-1.79,1.38-.76,1.43-.38,3.27,1.08,4.1h0Z"/><path d="m44.25,107.87c-.08.12-.17.24-.26.36l.47-.61c-1.15,1.48-2.69,2.62-4,3.95-1.74,1.76-3.21,3.86-3.27,6.42-.04,1.57,1.41,3.07,3,3s2.96-1.32,3-3c0-.13.01-.25.03-.38l-.11.8c.05-.39.16-.75.31-1.11l-.3.72c.24-.54.55-1.03.91-1.5l-.47.61c1.77-2.26,4.28-3.81,5.88-6.22.87-1.31.3-3.38-1.08-4.1-1.51-.8-3.17-.32-4.1,1.08h0Z"/><path d="m57.55,112.43c-1.59,2.83-3.57,5.66-4.09,8.93-.13.82-.13,1.56.3,2.31.36.62,1.08,1.22,1.79,1.38.77.17,1.63.14,2.31-.3.61-.4,1.26-1.04,1.38-1.79.15-.97.45-1.89.82-2.79l-.3.72c.81-1.9,1.95-3.63,2.96-5.43.77-1.37.37-3.34-1.08-4.1s-3.28-.38-4.1,1.08h0Z"/><path d="m68.49,115.77c0,1.8.15,3.64-.09,5.43l.11-.8c-.19,1.36-.52,2.73-.41,4.11.07.81.29,1.53.88,2.12.52.52,1.37.91,2.12.88,1.51-.07,3.14-1.33,3-3-.05-.58,0-1.15.06-1.73l-.11.8c.18-1.36.44-2.71.46-4.09.02-1.24-.02-2.48-.03-3.72,0-1.57-1.38-3.07-3-3s-3,1.32-3,3h0Z"/><path d="m81.9,116.31c.51,1.69,1.12,3.37,1.36,5.13l-.11-.8c.05.42.08.84.07,1.26-.02.76.35,1.59.88,2.12s1.37.91,2.12.88c1.65-.07,2.96-1.32,3-3,.05-2.48-.84-4.85-1.54-7.19-.22-.73-.71-1.4-1.38-1.79s-1.59-.54-2.31-.3-1.43.68-1.79,1.38-.54,1.53-.3,2.31h0Z"/><path d="m91.59,113.5c.67,1.2,1.4,2.38,1.94,3.65l-.3-.72c.79,1.93,1.31,4.12,3.01,5.5.64.52,1.27.88,2.12.88.74,0,1.61-.33,2.12-.88s.91-1.32.88-2.12c-.03-.75-.27-1.63-.88-2.12-.24-.19-.45-.41-.64-.65l.47.61c-.32-.43-.57-.89-.78-1.38l.3.72c-.47-1.12-.83-2.28-1.35-3.38s-1.13-2.09-1.71-3.13c-.76-1.37-2.76-1.94-4.1-1.08s-1.89,2.64-1.08,4.1h0Z"/><path d="m72.8,89.23c1.77.22,3.72.76,5.05,2.02,1.42,1.35,1.47,3.61,1.79,5.41.41,2.35.36,4.64-.35,6.95-1.61,5.27-3.89,11.23-10.65,10.94-3.83-1.47-5.21-6.71-5.37-10.41-.2-4.59,1.33-8.63,4.04-12.26,1.38-1.85,2.56-2.93,4.96-2.7.18.02.35.04.53.06Z"/><path d="m164.41,92.6c-1.72.41-3.34,1.4-4.29,2.7-1.95,2.67-1.79,7.14-.84,10.14,1.22,3.91,2.08,7.81,6.08,7.81,1,0,2.62-1.39,3.27-2.28.54-.74.98-1.67,1.32-2.51.78-1.9,1.03-3.8,1.21-5.86.24-2.76.49-8.04-2.44-9.6-1.28-.68-2.84-.76-4.32-.4Z"/><path d="m99.92,281.95c3.9-.38,7.98-.16,11.89.05,1.74.09,3.47.18,5.21.25s3.56.16,5.22-.41c1.53-.53,2.54-2.06,2.1-3.69-.41-1.49-2.15-2.62-3.69-2.1-.82.28-.71.23-1.63.25-.77.01-1.54-.04-2.31-.07-1.77-.07-3.53-.18-5.3-.26-3.79-.16-7.7-.4-11.48-.03-1.61.16-3,1.27-3,3,0,1.5,1.38,3.16,3,3h0Z"/><path d="m79.55,364.71c-2.03,6.18-4.21,12.32-5.97,18.58s-2.9,12.55-3.51,18.99c-1.23,13.06.32,26.02,2.12,38.95,1.8,12.96,3.98,25.87,5.26,38.89.5,5.1.66,10.23,1.22,15.32.21,1.9.39,3.8.4,5.71,0,.84-.04,1.68-.13,2.51.07-.65-.1.52-.16.74-.06.24-.13.47-.2.7-.06.2-.39.76-.04.14-.07.12-.12.27-.21.39-.07.12-.15.24-.23.36.24-.3.29-.37.14-.21-.06.02-.69.47.08,0-.17.11-.35.21-.53.31.6-.33.05-.03-.13.01-.29.07-.74-.02.03.02-.82-.05.55.27-.3-.04-.38-.14.71.35.2.06-.44-.25.39.48.07.06-.1-.13-.25-.27-.36-.38.29.28.26.41.04,0-.11-.19-.56-1.06-.4-.71.21.46-.07-.19-.09-.24-.07-.21-.15-.42-.21-.63-.27-.85-.46-1.72-.62-2.6-.08-.42-.14-.85-.21-1.27-.02-.15-.12-.93-.02-.11-.03-.22-.06-.44-.08-.66-.18-1.48-.27-2.99-.56-4.46l-5.79,1.6c.09.45.17.9.24,1.35.05.28.09.57.13.85-.12-.85.02.23.04.38.14,1.3.23,2.6.2,3.9,0,.34-.03.68-.05,1.03-.01.17-.03.33-.05.5.06-.39.06-.42,0-.08-.11.5-.22.99-.39,1.48.26-.8-.03-.07-.13.13.3-.37.35-.43.14-.2-.23.21-.16.16.22-.16-.27.15-.18.12.27-.09-.31.08-.21.08.29,0-.67-.13.04.08-.16.03-.23-.06-.88-.37-.23-.01-.2-.11-.83-.64-.29-.12-.21-.21-.42-.41-.61-.63.5.58-.09-.2-.18-.34-.16-.28-.3-.57-.43-.87.21.49.01-.01-.06-.23-.23-.67-.41-1.35-.57-2.04-.53-2.37-.63-4.82-1.23-7.17-.37-1.43-1.86-2.36-3.29-2.15-1.32.2-2.8,1.45-2.6,2.95.41,3.09,1.1,5.99,1.21,9,.02.59,0,1.67-.03,1.96.02-.13-.1.5-.14.65-.05.19-.25.77-.23.73-.06.14-.14.27-.21.4-.19.33.06-.08.1-.09-.42.11.03-.06.15-.1.4-.14.87-.29,1.29-.24.24.03.43.11.65.22-.27-.14-.07.04,0,.03.19-.03.16.23,0-.02-.08-.11-.21-.22-.3-.32.4.41-.05-.08-.19-.3s-.28-.46-.41-.7-.26-.49-.38-.75c-.07-.15-.41-.91-.21-.43-.5-1.2-.86-2.44-1.22-3.69-1.06-3.63-1.94-7.31-2.61-11.04-.77-4.23-1.23-8.5-1.25-12.8-.02-3.86-6.02-3.87-6,0,.04,9.03,1.84,18.12,4.46,26.74.86,2.82,2.05,6.17,4.48,8.02,1.66,1.27,3.89,1.32,5.49-.11,1.3-1.17,2.05-2.99,2.34-4.69.37-2.14.24-4.27-.03-6.41-.16-1.24-.35-2.47-.55-3.71-.08-.45-.15-.9-.23-1.35-.03-.21-.07-.42-.1-.63-.02-.13-.14-1-.06-.36l-5.89.8c1.19,4.62.7,10.21,4.46,13.79,2.21,2.11,6.04,2.9,8.43.61,1.94-1.85,2.31-4.79,2.34-7.34s-.31-5.35-.82-7.95c-.32-1.59-2.21-2.5-3.69-2.1-1.66.46-2.41,2.1-2.1,3.69.03.15.14.94.06.33s.03.32.05.47c.08.73.15,1.45.24,2.18.22,1.83.46,3.68.94,5.47.92,3.42,3.13,7.19,7.21,6.92,5.04-.34,6.87-5,7.14-9.39.23-3.67-.5-7.27-.69-10.92-.71-13.93-2.79-27.74-4.82-41.53s-4.21-26.73-3.89-40.21c.17-7.42,1.08-14.78,2.9-21.97s4.45-14.54,6.82-21.76c.5-1.54-.59-3.28-2.1-3.69-1.63-.45-3.18.55-3.69,2.1h0Z"/><path d="m159.01,485.03c.27,3.6-.68,7.08-1.44,10.57-.41,1.89-.74,3.8-.94,5.72-.16,1.55-.26,3.1-.6,4.62-.17.74-.36,1.47-.69,2.1-.07.15-.35.92-.29.54-.3.27-.23.25.23-.06.61-.47,1.31-.47,2.1-.02.36.31.43.35.19.11l.22.26c-.08-.14-.16-.28-.23-.42.11.28.12.31.04.11-.23-.58-.39-1.19-.53-1.79-.71-3.13.25-6.78.33-10.2.07-3-4.12-4.05-5.59-1.51-.97,1.67-1.1,3.75-1.36,5.62-.17,1.17-.34,2.34-.57,3.5-.11.53-.23,1.06-.38,1.58-.06.23-.13.45-.21.67-.04.11-.08.21-.11.32-.21.66.19-.35.01-.03-.09.17-.2.35-.28.52-.26.56.27-.24-.01.03-.37.35.54-.31.11-.06-.16.09.32-.1.39-.11.72-.1-.37.17.31,0,.26-.06.31.07.09,0-.48-.14.61.3.18.06.26.14.52.4.17.07.57.53.24.19.04-.09.24.35.15.44.05.02-.06-.23-.11-.46-.16-.69-.13-.6,0,.12-.02-.07-.03-.31-.06-.62-.07-.93-.05-1.08-.02-2.17.05-3.25.13-1.95.5-3.89.58-5.84.15-3.34-5.21-4.13-5.89-.8-.28,1.35-.49,2.72-.78,4.07-.18.83-.38,1.65-.62,2.46-.11.36-.22.71-.34,1.07-.08.21-.15.43-.24.64-.08.2-.07.17.05-.11-.05.12-.11.23-.16.34-.17.31-.36.62-.53.93-.25.47.02,0,.07-.09-.03.05-.52.52-.13.18.36-.32-.08.03-.16.08.05-.03.69-.26.22-.12.47-.14.6-.14,1.06.15-.22-.14.5.56.32.31-.4-.56.02.3-.07-.12-.07-.34-.17-.69-.25-1.02-.04-.15-.07-.58,0,.12-.03-.24-.05-.48-.07-.72-.11-1.55-.02-3.12.12-4.66.03-.34.07-.68.11-1.02.02-.15.14-1.14.07-.58s.04-.26.06-.4c.07-.44.14-.87.21-1.31.99-5.92,2.52-11.73,3.95-17.55,1.44-5.87,2.61-11.79,3.75-17.73s2.11-11.87,2.11-17.96c0-3.03-.06-6.06.16-9.09s.57-5.74.75-8.62c.37-6.06-.7-11.93-2.31-17.75-1.78-6.42-3.56-12.81-5.09-19.29-.72-3.03-1.49-5.97-2.62-8.87s-2.29-5.66-2.92-8.67c-.33-1.59-2.2-2.51-3.69-2.1-1.64.45-2.43,2.1-2.1,3.69.59,2.79,1.64,5.42,2.69,8.07s1.9,5.45,2.58,8.3c1.45,6.11,2.97,12.17,4.72,18.19s3.08,11.61,2.78,17.72c-.15,3.12-.57,6.21-.79,9.32s-.15,6.22-.16,9.33c0,6.3-1.15,12.36-2.36,18.52-1.21,6.16-2.52,12.28-4.03,18.37-1.34,5.38-2.7,10.78-3.48,16.28-.48,3.38-.91,6.95-.17,10.33.44,2.01,1.67,3.97,3.76,4.54,2.46.67,4.67-.73,6.01-2.7,2.16-3.16,2.55-7.26,3.31-10.92l-5.89-.8c-.2,4.52-1.69,9.49.39,13.8,1.32,2.72,4.75,3.75,7.28,2.03,2.31-1.57,3.06-4.62,3.53-7.21.27-1.48.45-2.97.68-4.45.09-.6.19-1.19.32-1.78.05-.22.12-.44.18-.67.19-.74-.3.52.01-.02l-5.59-1.51c-.06,2.33-.54,4.63-.61,6.96-.06,1.99.2,4.05.79,5.96.51,1.66,1.3,3.42,2.91,4.27,2.3,1.21,4.5-.21,5.74-2.17,2.38-3.77,1.97-8.49,2.79-12.7.88-4.56,2.35-9.16,2-13.85-.12-1.62-1.29-3-3-3-1.53,0-3.12,1.38-3,3h0Z"/><path d="m154.18,567.6c-.61-.02-1.13-.15-1.81-.53-1.02-.57-1.4-.92-2.32-1.88-1.44-1.5-2.46-3.08-3.58-5.01-2.56-4.4-4.24-9.25-6.8-13.65-2.72-4.68-6.6-8.19-11.48-10.5-4.51-2.13-9.56-3.43-13.93-5.49-4.43-2.09-7.93-5.07-10.17-9.4-2.06-3.98-2.65-8.57-2.44-13.18.24-5.26,1.73-10.41,3.49-15.51,2.06-5.97,4.12-11.84,5.09-18.1s1.08-12.49,1.1-18.78c0-3.13-.08-6.26-.47-9.36s-1.17-6.39-1.71-9.6-.86-6.14-1.01-9.24c-.04-.82-.04-1.63.02-2.44.02-.27.05-.53.08-.79-.02.13-.11.57,0,0,.11-.54.21-1.08.36-1.61.12-.44.26-.87.43-1.29-.23.56.24-.43.33-.59.11-.18.22-.36.35-.54-.34.49-.04.05.08-.07.15-.14.29-.29.44-.42-.51.45.09-.01.19-.08.51-.37-.45.04.19-.07.17-.03.33-.09.5-.11-.79.13.82.1.46.04.21.03.44.09.64.16-.51-.17.26.15.32.2-.35-.23.07.07.12.12.34.3.65.63.99.93.96.86,2.03,1.6,2.95,2.5.84.83,1.13,1.82,1.39,3.01.59,2.72.92,5.54,1.18,8.32.59,6.3.45,12.67-.38,18.94s-2.36,12.72-3.86,18.98c-.76,3.14-1.5,6.29-2.58,9.33-.99,2.79-2.15,5.53-2.91,8.4s-.99,6.08-1.32,9.13-.52,6.11,0,9.17c.91,5.35,4.47,10.11,8.64,13.42,2.19,1.74,4.56,3.15,6.96,4.56s5.08,2.86,7.79,3.96c2.96,1.2,6.01,1.78,9.14,2.35s6.51,1.11,9.8,1.41c1.43.13,2.89.11,4.31.3.71.09,1.53.34,2.02.86,2.63,2.84,6.87-1.41,4.24-4.24-2.13-2.3-5.21-2.58-8.15-2.74-3.34-.19-6.63-.67-9.92-1.25s-6.27-1.07-9.26-2.24c-2.69-1.05-5.2-2.56-7.67-4.03-4.46-2.64-8.57-5.45-10.91-10.18-1.18-2.38-1.42-4.98-1.3-7.65.13-2.88.46-5.83.87-8.69.44-3.05,1.63-5.98,2.7-8.85,1.14-3.05,2.03-6.12,2.82-9.28,1.65-6.62,3.24-13.32,4.24-20.07s1.36-13.13.89-19.72c-.24-3.39-.72-6.75-1.25-10.11-.46-2.94-1.37-5.69-3.66-7.73-1.07-.95-2.2-1.82-3.25-2.79s-2.21-1.82-3.66-2.18c-2.59-.65-5.25-.18-7.32,1.54-3.2,2.66-4.15,7.5-4.07,11.46.06,3.24.49,6.5.97,9.69s1.3,6.46,1.76,9.72c.88,6.25.61,12.82.31,19.11s-1.33,12.32-3.23,18.26-4.3,11.58-5.43,17.66c-1.98,10.59-.62,22.34,7.75,29.97,4.06,3.7,9.09,5.69,14.19,7.51,4.53,1.62,9.26,3.18,12.73,6.54,3.98,3.85,5.72,9.41,8.11,14.27,2.01,4.08,4.43,8.43,7.98,11.35,2.02,1.66,4.3,2.77,6.96,2.85,3.86.12,3.86-5.88,0-6h0Z"/><path d="m122.23,539.03c-.62,7.55-.61,15.14.82,22.61,1.09,5.69,3.42,10.8,5.48,16.16.89,2.31,1.69,4.65,2.28,7.05.15.6.28,1.2.39,1.81.06.3.1.6.16.9.17.96-.04-.57.05.39.11,1.15.18,2.29.1,3.44,0,.08-.11.99,0,.29-.04.27-.09.53-.14.79-.11.52-.27,1.01-.44,1.51-.26.76.3-.46-.11.23-.13.22-.24.45-.38.67-.09.15-.19.29-.29.43.37-.54-.27.3-.37.39-.19.19-.39.37-.59.55.47-.4-.24.17-.29.2-.25.16-.51.29-.76.45-.7.45.45-.1-.26.13-.22.07-.45.12-.67.19.69-.22.27.01-.01-.03-.67-.1.71.18.07,0-.59-.16.58.26.07.04-.32-.14-.37-.46.04.06-.14-.18-.58-.8-.14-.08-.25-.41-.49-.8-.69-1.24.33.73.03.05-.01-.1-.09-.29-.19-.58-.26-.87-.12-.45-.23-.92-.32-1.38-.05-.23-.09-.47-.13-.7-.03-.15-.17-1.21-.06-.37-.07-.52-.12-1.05-.17-1.57-.08-.86-.14-1.72-.22-2.58-.14-1.48-1.03-2.76-2.6-2.95s-2.84.69-3.29,2.15c-.63,2.01-.36,4.06-.15,6.11.04.43.09.86.1,1.29,0,.19,0,.37,0,.55,0,.44-.07.49.04.03-.04.18-.11.39-.14.57l.16-.37c-.05.11-.11.22-.18.32l.24-.31c-.19.17-.18.18.01.03.21-.15.2-.15-.03,0-.24.12-.26.14-.05.04.4-.17-.28.06-.37.08-.74.18.44.04-.44.06-.36,0-.7.02-1.06,0l-.34-.03c.2.02.19.01-.01-.03-.98-.22-1.43-.47-2.13-1.24-.39-.43.09.21-.25-.33-.13-.21-.26-.43-.38-.65-.21-.38-.24-.45-.42-1.15-.27-1-.32-2.02-.19-3.41.15-1.46-1.25-2.79-2.6-2.95-1.47-.17-2.88.68-3.29,2.15-.46,1.65-.43,3.39-.5,5.08-.02.4-.05.8-.08,1.2.05-.66-.03.03-.08.31,0,.05-.22.72-.04.24.19-.53-.1.21-.11.18.06.24-.17.1.12-.14-.48.42.44-.36-.03.02.47-.38.3-.02-.02-.02-.49,0,.78.04-.12.02-.19,0-1.19-.07-.79,0-.25-.04-.49-.11-.73-.18-.5-.14.54.32-.21-.08-.16-.09-.32-.18-.47-.28-.56-.36.19.22-.23-.21.02.02-.56-.63-.3-.3s-.25-.39-.23-.37c-.09-.15-.52-1.02-.31-.54-.18-.44-.32-.91-.44-1.38-.05-.19-.09-.38-.13-.58,0-.03-.15-.96-.08-.38-.28-2.21,0-4.43.27-6.62.35-2.95.78-5.9.95-8.87.35-6.08-.67-12.18-1.33-18.21-.35-3.21-.66-6.41-1.13-9.6-.39-2.7-.88-5.77-.46-8.37.26-1.6-.41-3.23-2.1-3.69-1.43-.39-3.43.49-3.69,2.1-.53,3.32-.24,6.54.22,9.85.4,2.92.75,5.83,1.06,8.76.71,6.75,1.88,13.54,1.35,20.35-.44,5.54-2.1,11.34-.72,16.87,1.25,5,5.97,9,11.34,7.48,2.5-.71,3.94-2.85,4.31-5.31.17-1.11.21-2.22.25-3.35.02-.49.05-.98.07-1.47.01-.19.13-.72-.01-.02.06-.29.11-.58.19-.87l-5.89-.8c-.34,3.4.56,6.94,2.8,9.56,2.4,2.8,6.33,3.82,9.87,3.03,3.12-.69,4.84-3.22,4.87-6.33.01-1.11-.18-2.22-.28-3.33-.05-.57-.1-1.15-.09-1.73,0-.18.11-1.05-.02-.28.05-.31.13-.61.22-.91l-5.89-.8c.38,3.96.37,8.63,2.8,11.99,3.82,5.28,10.85,1.99,13.57-2.69s1.85-11.1.36-16.25-4.2-10.34-5.85-15.67c-2.68-8.67-2.76-17.77-2.03-26.74.13-1.62-1.47-3-3-3-1.73,0-2.87,1.38-3,3h0Z"/><path d="m88.58,536.16c.14,6.46-1.57,12.77-1.62,19.23s.89,13.57,2.24,20.17c.66,3.23,1.41,6.44,1.95,9.69.21,1.23.3,1.76.34,3.11.02.51.01,1.02-.02,1.53-.01.19-.03.39-.05.59.08-.61-.08.34-.11.46-.04.17-.41,1.25-.18.7-.18.41-.4.8-.66,1.16.37-.51-.18.17-.23.23-.13.13-.27.26-.41.38.44-.37-.32.21-.35.22-.27.17-.55.32-.84.45.34-.16-.32.12-.4.15-.28.1-.56.19-.85.26-.21.05-.41.1-.62.14-.83.18.44.07-.34.03-.16,0-.36,0-.52,0l-.25-.02c.4.06.43.05.09-.01-.05-.04-.35-.11-.43-.13.7.21.04-.03-.16-.14-.34-.19.44.51.02,0-.14-.16-.3-.31-.45-.47.5.55.04.04-.04-.12-.11-.2-.22-.41-.33-.61-.37-.64.13.39-.03-.05-.1-.27-.19-.54-.27-.82-.13-.45-.24-.91-.33-1.37-.04-.21-.08-.43-.12-.65-.13-.71.03.41-.04-.26-.05-.53-.1-1.06-.14-1.59-.06-1-.08-2.01-.08-3.02,0-1.62-1.38-3-3-3-1.71,0-2.9,1.38-3,3-.09,1.42-.06,2.55-.66,3.88-.34.75-1.5,1.88-2.35,2.56-.94.75-1.74,1.03-2.89,1.06-.63.02.22.18-.26-.04-.17-.08-.85-.15-.17-.02-.19-.04-.67-.51-.11,0-.16-.14-.29-.29-.44-.44.32.33.18.26,0-.08-.1-.19-.25-.77-.05-.08-.12-.41-.23-.81-.33-1.22-.02-.12-.04-.23-.06-.35.04.36.05.42.03.19-.02-.21-.04-.41-.06-.62-.04-.51-.05-1.01-.05-1.52-.02-2.04.1-4.04-.2-6.07l-5.79,1.6c-.1-.65-.04-.09-.04.22,0,.2-.11.94,0,.37-.12.73-.32,1.44-.57,2.13-.05.14-.1.29-.16.43.06-.13.19-.4-.07.13-.14.28-.28.55-.44.82-.46.79-.41.71-1.07,1.36-.33.33.35-.21-.03.04-.11.07-.23.14-.33.21-.14.1-.49.16.02.01-.07.02-.29.13-.36.1-.22-.08.08-.05.2-.03-.61-.06.06,0,.1.02-.11-.06-.31-.19-.09,0,.31.26-.22-.13-.3-.18-.39-.26.16.22-.32-.27-.23-.24-.46-.47-.68-.72-.33-.38.04.09-.25-.34-.23-.33-.45-.67-.65-1.02-.35-.59-.67-1.19-.98-1.81-.14-.28-.27-.56-.4-.85-.05-.11-.1-.23-.15-.34-.32-.69.14.36,0,0-.74-1.82-1.27-3.69-1.32-5.65-.12-4.24,1.81-7.77,3.08-11.69.74-2.29,1.11-4.81,1.3-7.21.11-1.3-.01-2.54-.22-3.83-.15-.93-.42-1.83-.18-2.76.95-3.74-4.83-5.34-5.79-1.6-.66,2.6.33,4.95.23,7.54-.09,2.3-.58,4.69-1.34,6.86-.81,2.31-1.89,4.52-2.46,6.91-.65,2.75-.78,5.55-.38,8.34.89,6.13,7.05,19.19,14.92,13,3.36-2.64,5.14-7.63,4.51-11.81-.24-1.6-2.26-2.49-3.69-2.1-1.72.47-2.33,2.08-2.1,3.69-.14-.98-.02-.04,0,.17.02.29.02.58.03.87,0,.56,0,1.11-.01,1.67-.02,1.18-.04,2.36.06,3.54.25,2.89,1.11,5.87,3.78,7.43,3.65,2.13,7.98.6,10.93-1.96,1.54-1.34,2.84-2.87,3.62-4.77s.89-3.83,1.01-5.79h-6c.01,4.23.18,9.13,3,12.55,3.53,4.28,10.27,2.89,13.92-.5,4.36-4.05,3.3-10.51,2.32-15.71-1.33-7.02-2.95-13.9-3.45-21.05-.29-4.14-.19-8.24.33-12.36s1.19-8.08,1.1-12.17c-.08-3.86-6.08-3.87-6,0h0Z"/></g></svg>