<?xml version="1.0" encoding="UTF-8"?><svg id="Livello_2" xmlns="http://www.w3.org/2000/svg" viewBox="0 0 248.64 261.68"><defs><style>.cls-1{fill:#1d1d1b;}</style></defs><g id="Livello_2-2"><path class="cls-1" d="m51.18,118.02c3.89,10.47,6.13,21.52,6.57,32.68.22,5.59-.01,11.19-.68,16.74s-1.63,10.68-2.04,16.06c-.45,5.94-.12,12,2.16,17.56.6,1.47,3.02.82,2.41-.66-4.19-10.19-1.52-21.37-.17-31.86s1.12-22.13-.85-33.03c-1.12-6.19-2.8-12.27-4.99-18.16-.56-1.5-2.97-.85-2.41.66h0Z"/><path class="cls-1" d="m72.32,140.27c-4.88-7.5-8.53-15.7-10.85-24.34-.42-1.55-2.83-.89-2.41.66,2.37,8.84,6.12,17.27,11.1,24.94.87,1.34,3.04.09,2.16-1.26h0Z"/><path class="cls-1" d="m73.19,141.8c3.04-.52,5.03-3.06,6.09-5.79,1.35-3.52.74-7.39,1.66-11s3.43-6.21,6.25-8.33c2.99-2.25,6.32-4.14,9.69-5.77,4.02-1.95,8.26-3.38,12.67-4.11,1.58-.26.91-2.67-.66-2.41-7.6,1.26-14.8,4.63-21.17,8.88-2.83,1.88-5.54,4.09-7.39,6.98-2.08,3.25-2.25,6.89-2.55,10.62-.27,3.35-1.31,7.86-5.23,8.53-1.58.27-.91,2.68.66,2.41h0Z"/><path class="cls-1" d="m116.6,106.54l-1.43,6.74c-.4,1.92-1.27,4.22-.49,6.13.7,1.71,2.53,2.77,3.95,3.83,1.67,1.25,3.36,2.47,5.1,3.61,3.4,2.22,7.07,4.14,11.02,5.16,4.39,1.14,8.87.89,13.31.27,5.42-.76,10.81-1.7,16.21-2.57l-1.22-2.09c-4.77,4.33-6.95,10.5-9.08,16.4-1.11,3.06-2.23,6.13-3.81,8.98s-3.73,5.15-6.15,7.35c-2.71,2.47-5.46,5.06-6.4,8.73-.4,1.56,2.01,2.22,2.41.66.81-3.17,3.28-5.38,5.62-7.5s4.5-4.34,6.15-7.08c3.25-5.39,4.66-11.59,7.22-17.29,1.42-3.17,3.22-6.14,5.81-8.49,1.02-.92-.1-2.27-1.22-2.09-4.27.68-8.54,1.37-12.82,2.05s-8.6,1.38-12.89.75c-7.33-1.07-13.65-5.65-19.37-10.06-.91-.7-1.73-1.34-1.65-2.59.07-1.09.43-2.21.66-3.28l1.47-6.98c.33-1.57-2.08-2.24-2.41-.66h0Z"/><path class="cls-1" d="m139.74,172.56c8.97-1.33,17.96-3.97,25.16-9.71,3.16-2.52,5.92-5.63,7.88-9.18,2.24-4.05,3.16-8.51,3.48-13.1.72-10.28.07-20.71-.85-30.95s-2.32-20.75-3.61-31.11c-.34-2.71-.65-5.42-1.02-8.13-.35-2.51-.91-5-2.32-7.15-1.33-2.03-3.56-3.88-3.83-6.43-.1-.93.11-2,1.02-2.43.46-.22,1.55-.37,1.82.25.32.76,1.43,1.38,2.09.55.93-1.16,1.99-2.11,3.28-2.86h-1.26c.6.43,1.07.94,1.47,1.56.47.74,1.72.88,2.16,0,.49-1,1.01-2.21,1.95-2.88.86-.61,2.36-.65,2.31.73-.04,1.16-.8,2.27-1.26,3.3-.53,1.2-.96,2.43-1.29,3.69-1.29,5.05-1,10.34-.35,15.46.71,5.6,1.67,11.16,2.36,16.76.74,6.03,1.34,12.09,1.78,18.15.86,11.8,1.15,23.64.86,35.47-.12,4.98-.35,10.05-1.97,14.8s-4.96,8.36-9.3,10.96c-5.26,3.15-11.09,5.51-16.91,7.39s-12.19,3.29-18.45,4.01c-1.58.18-1.6,2.69,0,2.5,11.86-1.38,23.48-4.81,34.08-10.33,4.79-2.5,9.19-5.74,11.67-10.68,2.32-4.62,2.99-9.85,3.26-14.95.66-12.69.22-25.52-.66-38.19-.46-6.56-1.1-13.1-1.91-19.62-.75-6.01-1.85-11.98-2.5-18.01-.34-3.13-.5-6.31-.18-9.46.16-1.56.47-3.11.93-4.62s1.16-2.82,1.75-4.25c1.01-2.44.66-5.69-2.54-6.01-2.93-.3-4.64,2.18-5.79,4.5h2.16c-.64-.99-1.41-1.78-2.37-2.46-.36-.25-.9-.21-1.26,0-1.46.85-2.73,1.93-3.78,3.25l2.09.55c-1.38-3.27-6.04-2.77-7.35.32-1.98,4.68,2.9,7.94,4.6,11.68.98,2.17,1.19,4.65,1.48,6.99.34,2.74.68,5.47,1.03,8.21.66,5.3,1.34,10.59,1.96,15.9,1.25,10.73,2.28,21.5,2.41,32.31.06,5.28.2,10.8-.84,16-.88,4.43-2.94,8.45-5.92,11.84-7.15,8.09-17.79,11.41-28.16,12.95-1.59.24-.91,2.65.66,2.41h0Z"/><path class="cls-1" d="m133.68,183.94c-2.58,10.71-10.47,18.92-18.72,25.73-4.54,3.75-9.31,7.22-13.85,10.98s-8.64,7.82-12.46,12.24c-4.31,4.99-8.25,10.3-12.18,15.59-.96,1.29,1.21,2.54,2.16,1.26,7.12-9.58,14.36-19.02,23.55-26.73s18.72-13.72,25.94-22.83c3.66-4.62,6.58-9.81,7.97-15.57.38-1.56-2.03-2.23-2.41-.66h0Z"/><path class="cls-1" d="m82.47,247.62c9.13-2.5,18.06-5.66,26.73-9.44,4.28-1.87,8.47-3.92,12.63-6.05s8.31-4.15,12.91-4.73l-1.08-1.88c-.94,1.52-2.14,2.82-3.61,3.85-1.3.91-.17,2.95,1.26,2.16,1.66-.92,3.73-.77,5.19.48v-1.77c-.76.78-1.53,1.56-2.29,2.34l1.77,1.77c.18-.21.4-.1.69.31.26.37.25.64.04,1.02-.66,1.18-2.46,1.59-3.64,1.97-3.45,1.09-6.91,2.18-10.37,3.27-7.11,2.24-14.21,4.49-21.32,6.72-13.8,4.33-27.68,8.53-41.9,11.26-.36.07-1.84.57-2.17.26-.36-.35.26-1.33.44-1.67.62-1.17,1.36-2.28,2.14-3.34,1.49-2.03,3.23-3.88,5.02-5.65,3.62-3.59,7.56-6.87,10.88-10.76,3.14-3.68,6.19-8.42,6.38-13.42.12-3.03-1.71-5.18-4.09-6.79-2.57-1.74-5.44-3.23-8.35-4.32s-6.51-1.76-9.64-.69c-3.46,1.18-5.56,4.11-7.74,6.86-5.22,6.56-10.45,13.12-15.67,19.68-.99,1.25.77,3.03,1.77,1.77,4.92-6.17,9.83-12.35,14.75-18.52,2.07-2.59,4.14-6.08,7.38-7.3,3.03-1.14,6.41-.27,9.29.93,1.6.66,3.14,1.48,4.64,2.34,1.33.76,2.74,1.53,3.83,2.63,2.34,2.37,1.1,5.96-.1,8.62-2.12,4.71-5.85,8.43-9.55,11.93s-7.81,7.14-10.95,11.42c-1.31,1.79-3.84,4.89-2.74,7.26.54,1.17,1.75,1.61,2.97,1.54,1.91-.12,3.86-.69,5.73-1.08,14.81-3.1,29.25-7.68,43.66-12.22,8.32-2.63,16.65-5.25,24.97-7.88,2.54-.8,7.07-1.83,7.07-5.3,0-2.41-3.28-4.83-5.17-2.63-1.03,1.21.63,2.93,1.77,1.77.76-.78,1.53-1.56,2.29-2.34.45-.45.52-1.32,0-1.77-2.32-1.99-5.53-2.36-8.22-.87l1.26,2.16c1.82-1.28,3.33-2.85,4.5-4.74.46-.74-.12-2-1.08-1.88-4.48.57-8.58,2.28-12.6,4.28-4.3,2.14-8.55,4.33-12.93,6.28-8.87,3.94-18.05,7.18-27.41,9.75-1.55.42-.89,2.84.66,2.41h0Z"/><path class="cls-1" d="m43.86,236.63c9.94-5.39,19.95-10.64,30.03-15.75l-1.84-.75c.18.63,0,1.16-.58,1.51-1.23.73-.41,2.62.96,2.28.38-.09.9-.15,1.11.2.28.47-.15,1.15-.46,1.46-.82.81-2.27,1.29-3.27,1.82-2.19,1.16-4.39,2.33-6.58,3.49-4.39,2.33-8.78,4.65-13.17,6.98s-8.78,4.65-13.17,6.98c-1.06.56-12.56,6.94-12.77,6.6-.85-1.36-3.01-.11-2.16,1.26.92,1.48,2.64,1.36,4.07.71,2.19-1.01,4.29-2.26,6.42-3.39,4.46-2.36,8.92-4.73,13.39-7.09,8.85-4.69,17.7-9.38,26.55-14.07,1.89-1,3.79-2.11,3.69-4.54s-2.19-3.33-4.32-2.82l.96,2.28c1.52-.9,2.22-2.63,1.72-4.33-.23-.81-1.12-1.11-1.84-.75-10.08,5.11-20.09,10.36-30.03,15.75-1.41.77-.15,2.93,1.26,2.16h0Z"/><path class="cls-1" d="m23.96,252.13c-2.25-3.6.13-8.12,1.8-11.46,1.79-3.59,3.8-7.07,6-10.43,4.45-6.8,9.71-13.06,15.62-18.63,3.39-3.19,6.99-6.15,10.78-8.86,1.3-.93.05-3.1-1.26-2.16-14.19,10.13-25.86,23.71-33.57,39.36-2,4.07-4.21,9.15-1.53,13.44.85,1.36,3.02.11,2.16-1.26h0Z"/><path class="cls-1" d="m111.09,149.08c.62,2.38,2.76,4.57,5.29,4.77,1.49.12,2.93-.81,3.05-2.38.11-1.46-1.07-2.67-2.23-3.36-1.35-.8-2.94-1.22-4.51-1.2-.65,0-1.28.57-1.25,1.25s.55,1.26,1.25,1.25c.26,0,.53,0,.79.03.05,0,.1.01.15.02.19.01-.22-.04-.04,0,.15.03.29.05.44.08.24.05.48.12.72.19.11.04.22.07.33.11.06.02.13.04.18.07-.25-.13-.04-.01.02.01.22.1.44.22.66.35.11.07.23.14.33.21.04.03.1.09.14.1-.11-.04-.16-.13-.02,0,.08.07.15.14.22.22.04.04.08.09.12.13.17.18-.03-.04-.03-.04.07.02.15.23.18.29.02.03.07.16,0,0-.07-.19.01.04.02.08,0,0,.03.15.04.16-.07-.04-.02-.28-.02-.1s-.03-.06.03-.1c0,0-.03.16-.04.15,0-.02.12-.21.05-.11-.03.04-.06.09-.08.13-.07.14.16-.21.06-.09-.11.13-.11-.01.07-.04-.02,0-.1.06-.12.07-.11.07-.09-.04.11-.04-.07,0-.17.05-.24.07-.28.08.22,0,0,0-.11,0-.22,0-.34,0-.3,0,.25.06-.04,0-.09-.02-.17-.04-.26-.06-.1-.03-.19-.06-.28-.09-.15-.05-.03.04.06.03-.05,0-.15-.07-.19-.09-.19-.09-.37-.2-.55-.31-.09-.06-.18-.15-.28-.19,0,0,.19.16.09.07-.05-.05-.11-.09-.16-.14-.19-.17-.37-.35-.54-.54-.03-.03-.08-.11-.11-.13.09.05.13.18.02.02-.07-.1-.15-.21-.21-.32-.13-.2-.23-.42-.34-.63-.07-.15.08.23.03.06-.02-.07-.05-.13-.07-.2-.05-.13-.08-.27-.12-.41-.16-.63-.9-1.08-1.54-.87s-1.05.86-.87,1.54h0Z"/><path class="cls-1" d="m86.08,130.34c.06,1.94,1.59,3.79,3.55,4.08,1.17.17,2.46-.09,3.13-1.16.32-.51.4-1.22.18-1.77-.24-.6-.64-1.03-1.17-1.39-.4-.27-.87-.44-1.32-.64-.57-.25-1.14-.5-1.72-.74-.32-.14-.61-.22-.96-.13-.29.08-.6.3-.75.57-.15.29-.23.64-.13.96.09.29.28.62.57.75.79.34,1.58.68,2.37,1.03.27.12.51.28.76.43-.32-.19-.11-.08-.02,0,.18.19,0-.07-.04-.08.02.03.04.06.06.09.06.11.04.06-.05-.15.01.07.04.14.05.21l-.04-.33c0,.08,0,.15,0,.23l.04-.33c-.01.05-.04.11-.04.17.09-.2.11-.26.06-.17-.01.02-.03.05-.05.07,0,0,.23-.26.06-.1-.09.08.29-.18.07-.05-.04.03-.09.05-.13.07-.19.11.29-.09.07-.03-.12.03-.24.06-.36.08l.33-.04c-.21.02-.41.02-.62,0l.33.04c-.16-.02-.33-.06-.49-.11-.06-.02-.12-.04-.18-.06-.2-.07.3.15.01,0-.13-.07-.26-.14-.38-.22-.27-.19.16.15,0,0-.05-.05-.11-.1-.16-.15s-.1-.1-.15-.16c-.07-.08-.22-.32,0,.01-.08-.12-.17-.24-.24-.37-.04-.07-.09-.15-.11-.22l.08.18s-.03-.08-.04-.12c-.05-.16-.09-.32-.12-.48l.04.33c-.01-.1-.02-.21-.03-.31-.02-.65-.56-1.28-1.25-1.25s-1.27.55-1.25,1.25h0Z"/><path class="cls-1" d="m95.49,141.83c2.5-.09,4.93-.74,7.15-1.88l-1.51-1.96c-.95,1.01-1.85,2.11-2,3.54-.13,1.21.45,2.62,1.61,3.16.59.27,1.37.19,1.71-.45.29-.55.19-1.42-.45-1.71-.05-.02-.1-.05-.15-.08-.09-.06-.09-.06-.01,0,.08.07.08.06,0,0-.04-.04-.08-.08-.11-.12,0,.01.16.25,0-.02-.02-.04-.04-.07-.06-.11-.04-.08-.03-.05.04.1-.03-.01-.06-.2-.07-.25-.01-.06-.02-.11-.03-.17.02.17.03.21.02.12,0-.1,0-.2,0-.31,0-.25-.07.25,0-.01.02-.09.04-.18.07-.27s.13-.3.03-.1c.11-.23.25-.43.38-.65s-.12.13.07-.09c.07-.08.14-.17.21-.25.17-.19.34-.38.52-.57.43-.46.48-1.14.1-1.64s-1.05-.61-1.61-.32c-.24.13-.49.25-.74.36-.07.03-.14.06-.21.1.12-.05.11-.05-.03.01-.11.04-.22.09-.33.13-.51.19-1.03.36-1.56.5s-1.07.25-1.61.33c-.38.06.25-.03-.13.02-.16.02-.31.03-.47.05-.27.02-.55.04-.82.05-.65.02-1.28.56-1.25,1.25.03.66.55,1.28,1.25,1.25h0Z"/><path class="cls-1" d="m105.27,127.41c-5.52-.02-10.8-3.72-12.62-8.96l-1.54,1.54c2.98.84,6.08,1.52,8.95,2.69,2.3.93,4.59,2.51,5.38,4.97.49,1.53,2.9.87,2.41-.66-.94-2.93-3.33-5.03-6.07-6.27-3.17-1.44-6.66-2.19-10-3.13-.87-.25-1.85.62-1.54,1.54,2.18,6.29,8.35,10.77,15.03,10.79,1.61,0,1.61-2.49,0-2.5h0Z"/><path class="cls-1" d="m115.58,137.61c4.09,8.64,13.76,14.17,23.28,13.29.97-.09,1.52-.98,1.08-1.88-4.31-8.81-14.27-11.86-23.03-14.23-1.56-.42-2.22,1.99-.66,2.41,8.14,2.2,17.52,4.87,21.53,13.08l1.08-1.88c-8.73.81-17.38-4.12-21.12-12.05-.69-1.45-2.84-.19-2.16,1.26h0Z"/><path class="cls-1" d="m122.15,141.43c0-.13,0-.25,0-.38,0-.04.04-.18,0-.02-.04.18.01-.03.02-.07.02-.11.06-.21.09-.32.02-.08.11-.17-.02.04.03-.05.06-.11.09-.17s.07-.1.1-.16c-.02.04-.18.19-.03.04.03-.03.06-.06.09-.1.04-.04.19-.11.05-.05-.16.08.29-.09-.03,0,.07-.02.14-.04.21-.06-.12.04-.07,0,.03,0,.08,0,.16,0,.25,0,.05,0,.23.05.04,0,.14.03.29.06.43.09.31.08.62.16.93.25.27.08.54.16.8.25.05.02.39.15.2.07.16.07.32.15.48.23.12.07.24.14.35.21.07.04.13.09.19.14-.02-.01-.12-.1-.03-.01s.18.17.27.26c.16.17.03.04,0,0,.02.03.16.28.09.13-.07-.14,0,.06.02.1.04.13-.02-.04-.01-.05-.06.14-.02.14,0,.03-.02.08-.04.16-.06.24,0,.02-.06.19-.01.05.05-.15-.03.05-.04.09-.06.12-.14.24-.22.36-.09.15.13-.13,0,0-.04.03-.07.08-.11.12-.04.04-.36.31-.14.15-.1.07-.2.14-.31.2-.05.03-.09.05-.14.07-.27.14.13-.02-.04.02-.12.03-.24.07-.36.1-.23.06-.04,0,.01,0-.07,0-.14.01-.22.01-.06,0-.41-.02-.27,0,.16.02-.06-.01-.1-.02-.09-.02-.18-.04-.26-.07-.05-.02-.1-.04-.15-.05-.13-.04.14.09-.05-.03-.12-.08-.25-.14-.37-.23.2.14-.11-.14-.16-.18-.1-.09.03.04.04.06-.05-.07-.09-.14-.14-.21-.03-.06-.06-.12-.09-.18-.08-.14.07.26,0-.02-.01-.05-.03-.09-.04-.14-.04-.16,0-.16,0,0,0-.06,0-.13,0-.19,0-.19-.03.01-.01.05-.01-.03.04-.15.05-.18-.04.19-.04.08.04-.05l-.45.45c.07-.04.13-.08.2-.12.09-.05.14-.05.02-.01.15-.04.29-.09.45-.12-.13.02-.09,0,.01.01.08,0,.15,0,.23,0,.12,0,.13.03.01,0,.09.02.18.05.27.07.16.04-.15-.08,0,0,.16.1-.14-.13,0,0,.09.08-.05-.08-.07-.11-.05-.1-.06-.19-.05-.3.04-.33.43-.6.75-.58.07,0,.18.08.1,0-.06-.06-.17-.11-.24-.16-.53-.38-1.42-.11-1.71.45-.34.65-.12,1.3.45,1.71.65.47,1.48.67,2.22.27s1.03-1.26.87-2.04c-.29-1.42-1.94-1.94-3.22-1.77-.7.09-1.6.35-2,.98-.3.48-.44,1.08-.41,1.64.07,1.23.78,2.32,1.82,2.96,2.05,1.26,4.96.48,6-1.73.31-.67.48-1.34.35-2.08-.11-.6-.49-1.17-.92-1.59-.86-.82-1.99-1.28-3.11-1.61-1.27-.37-2.78-.83-3.98-.01-1.06.72-1.58,2-1.55,3.26.02.65.56,1.28,1.25,1.25s1.27-.55,1.25-1.25h0Z"/><path class="cls-1" d="m96.97,123.22c-.09-.05-.17-.1-.26-.15-.17-.1.05.04.07.06-.03-.03-.08-.06-.11-.1-.08-.07-.16-.15-.24-.24-.03-.04-.15-.16-.02-.02.13.15,0-.02-.03-.06-.05-.08-.1-.17-.15-.26-.1-.18.03.06.03.09-.01-.05-.04-.1-.05-.14-.02-.05-.03-.11-.05-.16-.07-.21.02.05,0,.09,0,.01,0-.16,0-.16-.03.2-.03.23,0,.09l-.07.18c.08-.17-.06.08-.08.1.13-.14-.08.06-.1.07,0,0,.11-.06.11-.07-.06.1-.26.09-.11.05.02,0,.11-.02.13-.04-.13.09-.28.02-.13.02,0,0,.15,0,.15,0-.18-.03-.22-.03-.12-.02.04,0,.08.02.12.03.05.01.11.03.16.05.21.06-.04,0-.06-.03.07.07.22.11.31.15.23.13.46.26.69.41.1.06.2.13.3.2.07.05.2.19.29.21-.12-.02-.15-.12-.04-.03.05.04.09.07.14.11.11.09.23.19.34.29.16.15.33.3.47.46.03.04.07.09.1.12-.03-.02-.16-.24-.06-.06.02.04.05.09.08.13.14.22-.09-.26-.01-.01.04.13-.06.05-.01-.14,0,.03,0,.11,0,.13,0,.15-.09,0,.02-.13,0,.01-.04.13-.04.13,0-.02.14-.29.04-.13,0-.01.21-.24.07-.11.09-.09.19-.14.31-.18-.22.07.19.02.04,0-.24-.04-.02.08.03.01,0,0-.18-.04-.17-.04-.11-.03-.22-.06-.33-.1s-.22-.07-.33-.11c-.05-.02-.11-.04-.16-.06-.22-.08.15.08.02,0-.11-.06-.23-.13-.34-.19-.24-.13.14.14.02.02-.05-.05-.09-.09-.14-.14-.15-.13.03.03.04.07-.02-.06-.09-.15-.12-.2-.09-.16.07.05.03.09-.01.01-.04-.33-.03-.06,0,.2.01.03,0-.02,0-.1,0-.05-.02.15l-.43.52c-.29.22-.62.17-.88.03.22.11-.2-.19-.03-.02.15.14-.04-.04-.05-.07.02.05.09.15.12.2.09.16-.07-.05-.03-.08,0,0,.06.21.06.23.14.64.92,1.07,1.54.87.67-.22,1.03-.85.87-1.54-.22-.97-1.05-2.01-2.12-1.98-.73.01-1.33.54-1.48,1.25-.12.58,0,1.15.26,1.67.42.84,1.27,1.32,2.12,1.63.97.35,2.07.59,2.92-.16.77-.68.83-1.79.43-2.67-.31-.69-.94-1.24-1.53-1.7-1.26-1-3.14-2.36-4.77-1.37-1.01.62-1.26,1.81-.83,2.87.36.89.97,1.64,1.83,2.09.58.31,1.39.16,1.71-.45.31-.58.17-1.38-.45-1.71h0Z"/><path class="cls-1" d="m38.89,59.75c-2.56-3.37-.45-7.44,1.47-10.54,2.31-3.71,4.52-7.58,7.06-11.13,1.05-1.47,2.49-2.86,4.45-2.43s3.15,2,3.96,3.66c1.85,3.78,2.66,8.35,3.18,12.49.2,1.57,2.7,1.59,2.5,0-.52-4.11-1.33-8.29-2.84-12.17-1.21-3.13-3.42-6.16-7.02-6.53-3.82-.38-5.98,3.01-7.76,5.82-2.27,3.6-4.74,7.13-6.79,10.86-1.87,3.41-2.96,7.86-.39,11.23.96,1.26,3.13.02,2.16-1.26h0Z"/><path class="cls-1" d="m52.48,42.6c-.4,2.99-.81,5.98-1.21,8.97-.19,1.44-.38,2.88-.58,4.32-.07.51-.25,2.47-1.03,2.42l.63.17c.16.09.01-.01-.04-.2-.06-.2-.13-.4-.19-.6-.13-.45-.23-.91-.31-1.37-.14-.87-.14-1.75-.08-2.62h-2.5c.14,1.4-.39,2.8-1.57,3.62-.13.09-.27.17-.4.24-.3.16-.4.06-.17.29.34.34.11-.22.08-.38-.04-.2-.07-.4-.09-.61-.13-1.05-.12-2.11-.03-3.16.05-.62-.52-1.15-1.08-1.23-.65-.09-1.15.31-1.37.9-.8,2.08-1.94,5.14-4.55,5.42-.68.08-1.24.52-1.25,1.25,0,.62.58,1.32,1.25,1.25,3.95-.44,5.68-3.93,6.96-7.26l-2.46-.33c-.13,1.6-.13,3.4.32,4.95s1.84,1.88,3.23,1.27c2.36-1.04,3.9-3.65,3.64-6.22-.16-1.59-2.39-1.63-2.5,0-.08,1.21,0,2.41.23,3.59.19.98.44,2.34,1.2,3.05,1.81,1.7,3.82-.93,4.26-2.52.28-1.01.35-2.07.49-3.1l.52-3.82c.34-2.55.69-5.1,1.03-7.64.09-.67-.16-1.33-.87-1.54-.58-.17-1.45.2-1.54.87h0Z"/><path class="cls-1" d="m52.31,49.32c.54,1.56,1.09,3.11,1.63,4.67.22.62.86,1.09,1.54.87.61-.2,1.1-.88.87-1.54-.54-1.56-1.09-3.11-1.63-4.67-.22-.62-.86-1.09-1.54-.87-.61.2-1.1.88-.87,1.54h0Z"/><path class="cls-1" d="m119.82,68.15c3.32,5.73,7.2,12.14,13.71,14.59,3.45,1.3,7.26,1.3,10.88.99,4.08-.35,8.15-.91,12.21-1.38,4.79-.56,9.59-1.11,14.38-1.67l-1.08-1.88c-3.37,6.6-7.59,12.73-12.61,18.18-2.42,2.63-5.03,5.58-8.38,7.02s-7.63,1.68-11.36,2.07c-4.02.42-8.15.67-12.16,0-3.79-.64-7.36-2.2-11.18-2.73s-7.7.15-11.47.95c-4.1.87-8.2,1.77-12.3,2.65-8.23,1.77-16.46,3.54-24.68,5.31-4.08.88-8.16,1.86-12.32,2.28s-8.31.11-12.45-.38c-8.32-.99-16.62-2.07-24.93-3.11-1.76-.22-3.87-.22-5.45-1.12-1.47-.84-2.29-2.51-3.05-3.94-1.88-3.56-3.45-7.28-4.69-11.11-.29-.9-.49-1.56-.21-2.48.23-.76.64-1.46,1.1-2.1.98-1.36,2.3-2.49,3.61-3.53,2.92-2.33,5.9-4.57,8.76-6.99,5.84-4.95,11.37-10.26,16.54-15.9,1.27-1.38,2.51-2.79,3.74-4.21,1.05-1.21-.71-2.99-1.77-1.77-5.25,6.08-10.88,11.82-16.88,17.16-2.97,2.64-6.03,5.19-9.17,7.63-2.73,2.13-5.86,4.17-7.58,7.27-.79,1.43-1.33,3.09-.84,4.69.6,1.94,1.28,3.85,2.04,5.73s1.61,3.79,2.54,5.62c.8,1.59,1.61,3.23,2.79,4.58,2.5,2.88,6.73,2.75,10.21,3.18,4.4.55,8.8,1.1,13.2,1.65s8.63,1.16,12.95,1.56,8.63.29,12.96-.39,8.47-1.68,12.69-2.59,8.71-1.88,13.07-2.81,8.55-1.84,12.83-2.76,8.64-2.11,13.01-2.6c2.06-.23,4.14-.26,6.18.12s3.92.99,5.86,1.55c4.04,1.16,8.11,1.62,12.3,1.45s8.13-.64,12.12-1.29,7.01-2.07,9.89-4.64c5.67-5.07,10.5-11.32,14.41-17.82,1-1.67,1.94-3.38,2.83-5.11.38-.75-.07-2-1.08-1.88-5.12.59-10.25,1.19-15.37,1.78-4.74.55-9.53,1.36-14.31,1.43-4.49.07-8.58-1.04-11.89-4.16-3.1-2.92-5.34-6.7-7.46-10.35-.81-1.39-2.97-.13-2.16,1.26h0Z"/><path class="cls-1" d="m52.85,55.51c6.79-1.21,13.59-2.38,20.37-3.63,2.94-.54,5.9-1.2,8.55-2.62,2.29-1.22,4.16-3.05,5.84-5s3.18-4,5.03-5.76c2.08-1.99,4.5-3.15,7.33-3.66,3.17-.58,6.49-.6,9.71-.71,3.4-.11,6.8-.12,10.2-.04,7.82.19,15.63.88,23.37,2.07v-2.41c-6.42,2.01-12.88,4.06-18.86,7.18-2.78,1.45-5.69,3.11-7.98,5.28-2.52,2.39-2.8,5.34-2.11,8.61.33,1.57,2.74.91,2.41-.66-.31-1.48-.57-3.11.15-4.52.59-1.16,1.66-2.03,2.69-2.79,2.39-1.76,4.98-3.25,7.65-4.54,5.35-2.59,11.05-4.37,16.71-6.15,1.07-.34,1.3-2.21,0-2.41-13.58-2.1-27.58-2.92-41.29-1.75-3.01.26-6.05.78-8.68,2.35-2.16,1.29-3.91,3.14-5.52,5.05-1.72,2.04-3.33,4.2-5.36,5.96-2.23,1.93-4.96,2.92-7.8,3.57-3.63.83-7.33,1.37-11,2.02-4.03.72-8.05,1.43-12.08,2.15-1.58.28-.91,2.69.66,2.41h0Z"/><path class="cls-1" d="m31.48,94.86c15.72-5.43,31.43-10.85,47.27-15.93,14.89-4.78,29.91-9.1,44.97-13.33s28.94-8.15,43.17-13.01,27.8-10.31,40.9-17.23c3.32-1.75,6.59-3.59,9.81-5.53,1.62-.98,3.23-2.1,5.02-2.76s3.69-.87,5.55-1.22c6.33-1.17,12.22-4.57,16.42-9.45,1.02-1.18,1.93-2.44,2.75-3.77.44-.71,0-1.61-.75-1.84-1.14-.35-2.27-.7-3.41-1.05l.87,1.54c.37-2.44-.87-7.14-4.1-6.59-3.62.61-7.25,1.33-10.78,2.37s-6.85,2.44-9.9,4.42-5.96,4.52-9.1,6.56c-6.28,4.1-13.68,6.42-20.63,9.13-7.43,2.89-14.86,5.78-22.31,8.63-29.46,11.3-59.12,22.16-89.37,31.19-17.08,5.1-34.34,9.6-51.79,13.26-.72.15-.96.9-.87,1.54.61,4.3,1.83,8.43,3.58,12.4.65,1.47,2.8.2,2.16-1.26-1.66-3.76-2.75-7.74-3.33-11.8l-.87,1.54c29.61-6.22,58.66-14.86,87.26-24.69,28.49-9.79,56.57-20.71,84.62-31.68,3.58-1.4,7.16-2.83,10.52-4.71,3.54-1.98,6.61-4.62,9.91-6.95,6.58-4.64,14.21-6.22,22-7.62l-.96-.13c1.14.84,1.77,2.32,1.55,3.72-.1.68.16,1.32.87,1.54,1.14.35,2.27.7,3.41,1.05l-.75-1.84c-3.35,5.44-8.67,9.56-14.8,11.39-3.46,1.03-7.09,1.09-10.36,2.76s-6.37,3.79-9.6,5.59c-12.89,7.16-26.52,12.88-40.41,17.77-14.03,4.94-28.33,9.07-42.65,13.11-14.75,4.15-29.49,8.28-44.1,12.89-15.62,4.93-31.12,10.23-46.61,15.57-1.94.67-3.87,1.34-5.81,2-1.51.52-.86,2.94.66,2.41h0Z"/><path class="cls-1" d="m32.21,94.1c2.28,7.34,10.68,8.49,17.18,9.33,2.07.27,4.14.6,6.11,1.29s3.73,1.89,5.54,2.96c3.55,2.11,7.47,3.16,11.6,2.64,1.55-.2,1.63-2.63,0-2.5-4.43.35-8.69-1.78-12.98-2.58s-8.57-1.04-12.87-.69c-8.42.7-16.82,4.66-25.28,2.14-3.66-1.09-6.93-3.34-8.81-6.72-1.72-3.09-2.14-6.91-.53-10.14s4.53-5.53,7.2-7.84,5.19-5.03,7.79-7.55c2.98-2.89,6.18-5.29,10.28-6.27,3.55-.85,7.57-1.23,10.04-4.26l-1.96-1.51c-1.32,1.93-2.68,3.85-4.7,5.1-1.8,1.11-3.83,1.79-5.66,2.85-3.39,1.97-5.8,5.31-6.61,9.14-.33,1.57,2.08,2.24,2.41.66.88-4.15,3.61-6.85,7.34-8.61,1.89-.89,3.79-1.7,5.4-3.06s2.8-3.11,3.97-4.82c.79-1.16-1.06-2.62-1.96-1.51-2.31,2.84-6.34,2.92-9.63,3.79-3.68.97-6.78,3.12-9.56,5.67s-5.42,5.56-8.34,8.12-5.81,4.8-7.72,8.04c-4.01,6.81-.71,15.29,5.7,19.26,3.4,2.1,7.47,3.03,11.44,3.03,4.66,0,9.19-1.3,13.73-2.21,5.29-1.06,10.73-1.28,16.07-.48,2.54.38,5.01,1.03,7.47,1.75s5.12,1.41,7.78,1.2v-2.5c-4.01.51-7.5-.57-10.91-2.64-1.61-.98-3.19-1.96-4.95-2.65s-3.5-1.04-5.31-1.32c-5.7-.87-14.74-.98-16.85-7.78-.48-1.53-2.89-.88-2.41.66h0Z"/><path class="cls-1" d="m63.35,86.81c4.17,6.4,11.49,9.46,18.84,10.4,9.55,1.22,19.09-1.25,28.63-1.28,1.29,0,1.63-1.66.63-2.33-7.1-4.76-15.31-7.69-23.82-8.54-4.37-.44-8.79.13-13.12-.73-3.75-.74-7.85-1.84-11.3.43-1.34.88-.09,3.05,1.26,2.16,3.28-2.16,7.46-.44,10.99.11,4.02.63,8.12.11,12.17.52,8.06.81,15.84,3.7,22.55,8.2l.63-2.33c-9.07.02-18.09,2.26-27.16,1.44-6.9-.62-14.23-3.29-18.15-9.32-.87-1.34-3.04-.09-2.16,1.26h0Z"/><path class="cls-1" d="m58.86,72.73c.15-7.74,8.5-11.2,14.78-12.94,6.73-1.87,13.95-3.46,18.41-9.33l-2.33-.63c-.17,3.47-1.35,6.89-3.89,9.35-2.36,2.28-5.52,3.55-8.63,4.45-3.49,1.01-7.1,1.61-10.53,2.87s-6.7,3.27-9.73,5.47c-1.29.94-.04,3.11,1.26,2.16,3.36-2.44,6.86-4.57,10.85-5.79,3.66-1.12,7.47-1.72,11.07-3.02,3.14-1.14,6.22-2.77,8.41-5.36,2.4-2.84,3.5-6.44,3.68-10.12.07-1.37-1.65-1.52-2.33-.63-4.74,6.23-13.48,6.87-20.34,9.22-6.4,2.2-13.05,6.86-13.2,14.31-.03,1.61,2.47,1.61,2.5,0h0Z"/><path class="cls-1" d="m125.86,98.98c13.34,4.06,26.21-3.34,35.87-11.97.98-.87-.07-2.35-1.22-2.09-9.9,2.29-21.12,4.66-30.36-1.05-1.37-.85-2.63,1.31-1.26,2.16,9.84,6.09,21.71,3.74,32.28,1.3l-1.22-2.09c-9,8.03-20.99,15.11-33.44,11.33-1.54-.47-2.2,1.94-.66,2.41h0Z"/><path class="cls-1" d="m108.39,49.31c3.82-5.64,10.42-8.42,16.52-10.83,1-.4,1.36-2.19,0-2.41-10.5-1.73-21.41.53-30.28,6.45-1.33.89-.08,3.05,1.26,2.16,8.28-5.52,18.52-7.82,28.36-6.19v-2.41c-6.78,2.67-13.79,5.73-18.02,11.97-.9,1.34,1.26,2.59,2.16,1.26h0Z"/><path class="cls-1" d="m44.85,106.64c1.34-1.03,2.25-2.24,2.82-3.84.32-.9-.67-1.8-1.54-1.54-5.94,1.8-11.88,3.61-17.81,5.41l1.41,1.84c2.08-2.74,4.17-5.47,6.25-8.21.65-.85-.43-2.2-1.41-1.84-6.05,2.27-12.28,3.96-18.65,5.06l1.54,1.54c.38-2.63,2.9-4,4.99-5.23,3.01-1.77,6.01-3.53,9.02-5.3,1.26-.74.39-2.56-.96-2.28-7.53,1.51-15.07,3.01-22.6,4.52l1.58,1.21c.01-.39,1.19-.74,1.44-.86.76-.33,1.51-.65,2.27-.97,1.51-.65,3.03-1.29,4.54-1.94,3.03-1.29,6.06-2.59,9.09-3.88.97-.41.72-2.11-.3-2.28-4.4-.75-8.8-1.51-13.21-2.26v2.41c4.39-1.52,8.77-3.05,13.16-4.57,1.1-.38,1.27-2.11,0-2.41-2.18-.52-4.36-1.03-6.54-1.55v2.41c2.94-.89,5.93-1.57,8.97-2.04.95-.15,1.17-1.49.55-2.09-1.06-1.02-1.96-2.12-2.75-3.36l-.75,1.84c1.75-.24,3.51-.49,5.26-.73.81-.11,1.12-1.22.75-1.84-.52-.85-1.04-1.71-1.56-2.56l-.75,1.84c2.35-.44,4.7-.89,7.05-1.33,1.58-.3.91-2.71-.66-2.41-2.35.44-4.7.89-7.05,1.33-.79.15-1.14,1.19-.75,1.84.52.85,1.04,1.71,1.56,2.56l.75-1.84c-1.75.24-3.51.49-5.26.73-.8.11-1.14,1.22-.75,1.84.89,1.41,1.94,2.7,3.14,3.86l.55-2.09c-3.04.47-6.03,1.15-8.97,2.04-1.14.35-1.24,2.12,0,2.41,2.18.52,4.36,1.03,6.54,1.55v-2.41c-4.39,1.52-8.77,3.05-13.16,4.57-1.05.37-1.32,2.18,0,2.41,4.4.75,8.8,1.51,13.21,2.26l-.3-2.28c-3.63,1.55-7.27,3.1-10.9,4.66-1.81.77-3.66,1.49-5.45,2.33-1.22.57-2.19,1.39-2.23,2.82-.02.86.81,1.36,1.58,1.21,7.53-1.51,15.07-3.01,22.6-4.52l-.96-2.28c-3.35,1.97-6.74,3.88-10.05,5.91-2.3,1.41-4.69,3.27-5.1,6.11-.14.98.53,1.71,1.54,1.54,6.37-1.09,12.6-2.78,18.65-5.06l-1.41-1.84c-2.08,2.74-4.17,5.47-6.25,8.21-.68.89.44,2.13,1.41,1.84,5.94-1.8,11.88-3.61,17.81-5.41l-1.54-1.54c-.33.93-.89,1.74-1.67,2.34-1.26.97-.01,3.14,1.26,2.16h0Z"/><path class="cls-1" d="m223.62,25.22c.06,1.39.12,2.78.17,4.17.03.65.56,1.28,1.25,1.25.65-.03,1.28-.55,1.25-1.25-.06-1.39-.12-2.78-.17-4.17-.03-.65-.56-1.28-1.25-1.25-.65.03-1.28.55-1.25,1.25h0Z"/><path class="cls-1" d="m228.2,25.55l.77,2.61c.09.31.3.59.57.75s.66.22.96.13.59-.29.75-.57.22-.64.13-.96l-.77-2.61c-.09-.31-.3-.59-.57-.75s-.66-.22-.96-.13-.59.29-.75.57-.22.64-.13.96h0Z"/><path class="cls-1" d="m233.23,25.26s.07.05.1.07c.19.13-.18-.15-.08-.06.06.05.13.11.19.16.14.13.26.27.38.41.1.11-.17-.23-.08-.11.02.03.05.07.07.1.05.08.1.15.15.23.1.16.18.33.25.5l-.13-.3c.13.33.23.66.28,1.01l-.04-.33c.04.31.04.62.01.93-.05.46.28.84.62,1.08.48.35,1.18.31,1.69.04.26-.14.47-.34.63-.58.18-.28.21-.52.25-.84l-1.58,1.21c.08.01.15.03.22.06l-.3-.13s.07.04.1.05c.17.09-.19-.17-.1-.07s-.15-.24-.09-.12c.02.04.05.08.07.12l-.13-.3c.03.07.05.14.06.22l-.04-.33v.06c.04.34.12.64.37.88.22.22.57.38.88.37.63-.03,1.31-.55,1.25-1.25-.05-.53-.21-.98-.57-1.38-.27-.29-.67-.54-1.07-.6s-.75-.04-1.09.22-.44.57-.49.98v.05c0-.11.02-.22.04-.33,0,.03-.01.06-.03.08l.13-.3-.02.04c.05-.11.13-.19.23-.25.18-.14.06-.05.01-.02l.3-.13s-.08.03-.13.04l.33-.04s-.09,0-.13,0l.33.04s-.06-.01-.08-.03l.3.13s-.05-.03-.08-.05l.62,1.08c.2-1.88-.8-3.74-2.34-4.77-.54-.37-1.41-.12-1.71.45-.33.63-.13,1.32.45,1.71h0Z"/><path class="cls-1" d="m238.82,21.71c.13-.01.25-.01.38,0l-.33-.04c.09.02.17.04.26.06.16.04-.16-.05-.15-.07,0,0,.11.06.12.06.04.02.08.05.12.07.15.09-.13-.1-.12-.1.03,0,.18.16.2.19s.05.06.07.08c-.23-.21-.14-.2-.08-.1.04.07.09.14.13.21.02.04.1.22,0,0s-.02-.04,0,0c.03.09.04.17.06.26l-.04-.33c.02.14.02.28,0,.43l.04-.33c-.02.11-.05.21-.08.32-.23.6.25,1.42.87,1.54.12.02.24.05.35.09.11.04.24.14-.07-.04.04.02.09.04.14.07.1.05.19.11.28.17s.19.19-.06-.05c.04.04.09.08.14.12.08.08.15.16.23.24.1.11-.18-.25-.07-.09.03.05.07.1.1.15s.06.1.09.16c.05.11.07.25-.03-.08.03.12.08.23.11.34.16.63.91,1.08,1.54.87s1.04-.86.87-1.54c-.34-1.38-1.54-2.56-2.95-2.83l.87,1.54c.32-.84.1-1.89-.43-2.59-.59-.78-1.52-1.39-2.54-1.29-.34.04-.63.12-.88.37-.22.22-.38.57-.37.88.03.62.55,1.32,1.25,1.25h0Z"/><path class="cls-1" d="m242.67,17.4c.08.04.16.09.24.14.05.03.28.2.1.06s.06.05.1.1c.07.06.13.13.19.19.04.04.22.26.08.08s.04.06.08.12c.1.15.18.31.25.48l-.13-.3c.11.26.19.53.23.81l-.04-.33c.06.43.09.82.29,1.22.27.53.85.86,1.44.88.39.01.82-.11,1.21-.18.34-.06.68-.12,1.02-.18.29-.05.6-.33.75-.57.16-.27.22-.66.13-.96s-.29-.59-.57-.75c-.31-.17-.62-.19-.96-.13-.59.1-1.18.23-1.78.31l.33-.04c-.07,0-.12,0-.19,0l.33.04-.06-.02.3.13c-.08-.04-.07-.02.04.05.1.08.11.09.05.03l.14.17s-.03-.06-.04-.09l.13.3c-.04-.12-.06-.25-.08-.37l.04.33c-.1-.77-.27-1.49-.71-2.14s-.97-1.17-1.64-1.53c-.58-.31-1.39-.16-1.71.45-.31.58-.17,1.38.45,1.71h0Z"/><path class="cls-1" d="m237.79,6.18c-.02-1.47-.65-2.8-1.7-3.81-.14-.13-.03-.04.02.05.13.22.12.61-.01.83.12-.19-.22.21-.04.04.04-.04.08-.08.12-.12.31-.29.55-.57.69-.98.12-.35.13-.75.03-1.1-.19-.68-.77-1.01-1.43-1.08s-1.28.62-1.25,1.25c.03.73.55,1.18,1.25,1.25-.38-.04-.76-.24-.92-.61-.06-.11-.08-.22-.08-.35v.05c0-.05.09-.34.02-.15-.05.12.15-.32.05-.13-.09.17.2-.21.08-.11-.04.03-.08.08-.12.12-.08.08-.17.16-.24.24-.3.36-.52.76-.52,1.24,0,.51.24.97.6,1.32.08.08.17.16.25.24.04.05.09.1.13.14.13.15.02.06-.03-.04.12.23.28.44.4.67.1.2-.07-.19-.02-.05.02.06.05.12.07.18.04.12.08.25.11.38.01.05.02.1.03.15,0,.03.05.29.01.07s0,.02,0,.07c0,.08,0,.16,0,.23,0,.65.57,1.28,1.25,1.25s1.26-.55,1.25-1.25h0Z"/><path class="cls-1" d="m232.95,5.07c-.14-.08-.27-.17-.39-.26l.25.2c-.25-.19-.47-.42-.67-.66l.2.25c-.2-.26-.37-.55-.5-.85l.13.3c-.12-.29-.21-.59-.25-.91l.04.33c-.02-.16-.03-.31-.03-.47,0-.67-.57-1.26-1.25-1.25-.43,0-.86.02-1.3.03-.32,0-.65.13-.88.37-.22.22-.38.57-.37.88.03.67.55,1.26,1.25,1.25.43,0,.86-.02,1.3-.03l-1.25-1.25c.02,1.72.97,3.37,2.46,4.24.57.33,1.39.15,1.71-.45s.16-1.36-.45-1.71h0Z"/><path class="cls-1" d="m228.43,7.18c-.46-1.46-1.3-2.81-2.47-3.81-.26-.22-.54-.37-.88-.37-.31,0-.67.14-.88.37s-.38.55-.37.88.12.67.37.88c.38.32.71.68,1.02,1.07l-.2-.25c.36.48.66.99.9,1.55l-.13-.3c.09.21.17.43.23.64.1.31.29.58.57.75s.66.22.96.13c.63-.2,1.08-.87.87-1.54h0Z"/><path class="cls-1" d="m223.96,7.81l-.81-.04,1.25,1.25c.03-.34.06-.69.08-1.03s.08-.66.07-.99c-.03-.69-.46-1.32-1.15-1.51-.44-.12-.86,0-1.29.07l.33-.04c-.08,0-.15.01-.23,0l.33.04s-.07-.02-.11-.03c.21.1.26.11.15.05.17.14.21.17.12.08-.06-.07-.05-.06.02.03.07.1.08.11.03.03-.06-.11-.04-.07.05.13,0-.08-.04-.16-.06-.23l.04.33c-.01-.13,0-.26.01-.39l-.04.33c.05-.29.15-.55.26-.82.11-.28.02-.71-.13-.96s-.45-.51-.75-.57c-.32-.07-.68-.06-.96.13s-.45.43-.57.75c-.34.84-.49,1.81.02,2.62.28.44.69.77,1.2.93.46.14.91,0,1.37-.06l-.33.04c.06,0,.11,0,.16,0l-.33-.04c.21.05.08-.03-.37-.24-.19-.43-.26-.54-.22-.32l-.04-.33c.02.33-.04.67-.07.99-.03.34-.06.69-.08,1.03-.02.29.15.69.37.88.25.23.54.35.88.37l.81.04c.65.03,1.28-.6,1.25-1.25-.03-.7-.55-1.22-1.25-1.25h0Z"/><path class="cls-1" d="m221.34,9.58c-.62-.51-1.24-1.02-1.86-1.53-.35-.29-.73-.56-1.18-.66-.32-.07-.62-.08-.94,0-.4.1-.72.39-.94.73l2.33.63c-.02-.43-.04-.86-.06-1.29-.01-.33-.13-.65-.37-.88-.22-.22-.57-.38-.88-.37s-.66.12-.88.37-.38.55-.37.88c.02.43.04.86.06,1.29.02.53.37,1.08.92,1.21s1.09-.09,1.41-.57l.02-.03-.2.25s.04-.05.07-.07l-.25.2s.05-.03.09-.05l-.3.13s.06-.02.1-.02l-.33.04s.09,0,.14,0l-.33-.04c.09.01.18.04.26.08l-.3-.13c.12.06.24.13.35.21l-.25-.2c.65.52,1.29,1.06,1.94,1.59.26.22.53.37.88.37.31,0,.67-.14.88-.37s.38-.55.37-.88c-.01-.31-.11-.68-.37-.88h0Z"/><path class="cls-1" d="m30.45,90.99c29.26-9.14,58.51-18.28,87.77-27.41,26.5-8.28,53.16-16.31,78.75-27.15,14.23-6.03,28.09-12.96,41.17-21.22.68-.43.05-1.51-.63-1.08-23.39,14.76-49.15,25.17-75.25,34.05-27.47,9.35-55.32,17.61-83.01,26.26-16.38,5.12-32.75,10.23-49.13,15.35-.77.24-.44,1.45.33,1.21h0Z"/><path class="cls-1" d="m239.61,13.42c1.61,0,1.61-2.5,0-2.5s-1.61,2.5,0,2.5h0Z"/><path class="cls-1" d="m239.55,10.99c-.62.24-1.24.47-1.85.71-.16.04-.3.11-.43.22-.14.09-.24.21-.32.35-.09.14-.14.3-.15.46-.04.17-.03.33.02.5.1.3.29.59.57.75s.65.24.96.13c.62-.24,1.24-.47,1.85-.71.16-.04.3-.11.43-.22.14-.09.24-.21.32-.35.09-.14.14-.3.15-.46.04-.17.03-.33-.02-.5-.1-.3-.29-.59-.57-.75s-.65-.24-.96-.13h0Z"/><path class="cls-1" d="m235.61,13.84c-12.79,4.12-24.81,10.18-36.8,16.17-6.02,3.01-12.05,6-18.21,8.72-6.55,2.9-13.27,5.37-20.08,7.6-13.95,4.57-28.02,8.76-42.04,13.11-14.17,4.4-28.33,8.79-42.5,13.19-15.92,4.94-31.83,9.88-47.75,14.82-.77.24-.44,1.44.33,1.21,28.49-8.84,56.98-17.68,85.47-26.52,14.08-4.37,28.18-8.68,42.24-13.12,6.68-2.11,13.32-4.34,19.8-7s12.26-5.43,18.27-8.39c13.62-6.72,27.09-13.9,41.59-18.57.76-.25.44-1.45-.33-1.21h0Z"/><path class="cls-1" d="m26.94,85.46c28.85-7.15,57.2-16.1,85.45-25.3,14.06-4.58,28.16-9.08,42.09-14.04s26.69-10,39.77-15.65c14.84-6.41,29.43-13.39,43.75-20.89.71-.37.08-1.45-.63-1.08-25.52,13.37-51.92,25.05-78.99,34.89-13.7,4.98-27.58,9.44-41.44,13.97s-28.19,9.16-42.36,13.49c-15.88,4.85-31.85,9.4-47.97,13.4-.78.19-.45,1.4.33,1.21h0Z"/></g></svg>