<?xml version="1.0" encoding="UTF-8"?><svg id="Livello_2" xmlns="http://www.w3.org/2000/svg" viewBox="0 0 404.71 571"><g id="Livello_1-2"><path d="m266.85,404.39c11.45-2.15,23.02-3.44,34.57-4.88,5.91-.73,11.81-1.5,17.69-2.45,3.64-.58,7.08-1.54,10.61-2.55.72-.21,1.44-.41,2.16-.58.31-.07.61-.14.92-.2.19-.04.37-.07.56-.1.7-.13-.17,0,.08-.01.59-.05,1.17-.01,1.76-.04s-.44-.18-.12-.03c.11.05.26.04.38.07.3.08,1.16.51.45.1.21.13.45.27.67.38.42.2-.04-.03-.13-.11.13.12.26.23.38.35.13.13.72.93.32.32.23.35.46.69.65,1.06.05.09.48,1.04.28.57.2.5.37,1.01.52,1.53.32,1.1.61,2.25.75,3.39,1.15,9.41-5.67,17.79-10.95,24.87-6.95,9.32-13.88,18.66-20.98,27.86s-14.39,17.91-21.76,26.74c-14.11,16.92-25.11,36.22-39.77,52.69-7.51,8.44-16.07,15.86-23.72,24.17-1.28,1.39-2.55,2.8-3.93,4.11-.66.63-1.49,1.36-2.04,1.76-.4.29-.82.57-1.25.82-.18.11-.37.21-.56.31-.14.07-.28.15-.42.21.2-.07.2-.08.01,0-.41.16-.84.28-1.27.36.56-.1-.38-.01-.59-.03.49.05-.21-.06-.33-.08-.21-.05-.42-.11-.62-.17-.13-.04-.7-.32-.25-.09-.24-.13-.48-.26-.71-.42.54.4-.42-.58,0,.02-.09-.13-.16-.28-.25-.41-.43-.62.27.3-.02-.05-.09-.11-.14-.77-.06-.04-.02-.17-.03-.34-.03-.5s0-.35.03-.52c-.06.67.07-.19.1-.28.17-.62.48-1.28,1.09-2.13.56-.78,1.4-1.57,2.18-2.26,2.54-2.22-.81-6.64-3.64-4.71-.88.6-1.72,1.26-2.56,1.92-.9.7-1.32,1.04-2.09,1.61-.96.73-1.94,1.43-2.96,2.08-.44.28-.89.55-1.35.8-.26.14-.53.27-.79.41-.48.26.11-.02-.17.08-.4.15-.79.25-1.2.36-.31.09.53.08.02-.02,0,0-.68-.03-.27,0-.5-.05-1.01-.18-1.49-.33-.12-.04-.83-.39-.29-.09-.18-.1-.35-.2-.53-.3-.34-.2.46.3.01-.03.22.32.28.38.16.2-.11-.2-.08-.11.09.27-.04-.42.01.08,0,.2.01-.27,0-.28-.02-.04-.04.25-.03.24.04-.06l.08-.24c-.11.26-.11.29,0,.09.15-.22.27-.46.43-.67.31-.4,1.06-1.07,1.54-1.5,2.53-2.24-.79-6.61-3.64-4.71-1.1.74-2.06,1.26-3.14,1.56-.25.07-.5.13-.75.18-.53.11.66,0-.22.03-.27,0-.55,0-.82.01-.67.03.38.18-.23-.02-.23-.08-.47-.13-.7-.2.62.2.13.02-.03-.04-.18-.06-.54-.43-.05.02-.17-.15-.33-.31-.48-.48.55.59-.25-.81-.03-.08-.07-.24-.14-.48-.2-.72.12.53,0-.02,0-.27,0-.29,0-.59.04-.88-.06.46.03-.07.05-.14.16-.57.28-1.14.52-1.69.51-1.2.9-1.69,1.76-2.51,1.27-1.21,3.66-2.37,5.32-3.03,2.36-.94,4.78-1.75,7.06-2.89,2.56-1.29,4.99-2.89,7.28-4.61,4.68-3.5,8.86-7.56,12.75-11.91s7.56-8.98,11.31-13.49c4.01-4.82,8.22-9.47,12.35-14.19,8.46-9.67,16.78-19.46,24.54-29.7,8.68-11.45,16.55-23.51,23.05-36.33.97-1.91-.18-4.64-2.59-4.51-10.06.54-19.48,4.73-29.53,5.41s-20.03-.16-30.02-.23c-14.47-.1-29.33-.93-43.44,2.94-7.79,2.14-15.3,5.95-20.62,12.16-1.11,1.3-1.3,3.88.61,4.71,11.56,5.02,23.76,8.39,36.12,10.76,13.14,2.52,26.54,3.99,39.92,4.19,6.84.1,13.7-.14,20.51-.91,1.61-.18,3-1.25,3-3,0-1.48-1.38-3.18-3-3-12.32,1.39-24.81,1.14-37.14,0-12.77-1.18-25.49-3.4-37.85-6.83-6.25-1.73-12.85-3.93-18.53-6.4l.61,4.71c4.34-5.07,9.98-8.18,16.24-10.11,7.06-2.18,13.75-2.88,21.07-3.2s13.92-.12,20.89-.05c4.37.05,8.73.07,13.1.22,5.06.17,10.13.36,15.2.19,5.77-.19,11.36-1.05,16.96-2.43,5.24-1.29,10.49-2.86,15.91-3.15l-2.59-4.51c-12.06,23.81-28.88,44.5-46.36,64.49-4.31,4.93-8.71,9.79-12.9,14.83-3.91,4.72-7.72,9.54-11.86,14.07s-8.16,8.42-13,11.7c-1.22.82-2.47,1.6-3.75,2.31-1.12.63-2.32,1.19-3.19,1.54-2.48.99-5.02,1.84-7.41,3.05-2.7,1.37-5.2,3.37-6.65,6.07s-2.28,5.97-1.31,8.92c.88,2.68,3.2,4.62,5.98,5.06,3.31.52,6.54-.62,9.28-2.45l-3.64-4.71c-2.51,2.22-5.07,5.72-3.14,9.13,1.43,2.53,4.98,3.67,7.75,3.59s5.51-1.78,7.77-3.36c1.28-.89,2.51-1.85,3.74-2.81.28-.22.55-.43.83-.65.11-.09.23-.18.34-.27-.24.19-.23.18.04-.03.43-.33.86-.65,1.3-.95l-3.64-4.71c-3.48,3.04-6.73,8.18-4.33,12.84,2.27,4.4,8.05,5.19,12.18,3.27,3.91-1.82,6.85-5.31,9.72-8.41,4.09-4.42,8.45-8.58,12.74-12.8s8.52-8.5,12.45-13.06,7.45-9.11,10.95-13.84c6.92-9.34,13.36-19.03,20.34-28.32s15.39-18.63,22.89-28.11,15.07-19.55,22.45-29.45c3.33-4.46,6.78-8.85,9.89-13.46,2.91-4.31,5.53-9.06,6.59-14.2,1.53-7.48-.19-20.45-10.02-20.8-3.26-.12-6.5,1.09-9.58,1.99-4.68,1.37-9.5,2.02-14.32,2.7-12.21,1.72-24.5,2.92-36.69,4.8-3.03.47-6.05.98-9.06,1.54-1.59.3-2.5,2.22-2.1,3.69.46,1.67,2.09,2.4,3.69,2.1h0Z"/><path d="m308.88,463.6c.6-.5-.53.32.15-.12.14-.09.28-.19.42-.28.37-.24.75-.46,1.13-.66.41-.22.83-.42,1.26-.61-.55.24.35-.14.37-.15.28-.11.57-.22.86-.32,2.19-.78,4.45-1.34,6.72-1.81,4.62-.98,9.31-1.57,13.98-2.33,2.12-.35,4.11-.82,6.08-.95.91-.06,1.79-.03,2.69.01.8.03-.59-.16.14.01.14.03.29.05.43.08.2.04.39.11.59.16.27.06.62.34-.03-.05.21.13.49.3.71.4-.59-.24-.41-.37-.15-.1.05.06.13.16.19.2-.5-.36-.34-.52-.16-.17s-.16-.36-.14-.37c.01,0,.11.35.11.37.09.49-.1-.81-.04-.28.01.11,0,.23,0,.34-.05.36.26-.79.04-.31-.08.19-.17.52-.21.73-.1.5.3-.39.08-.19-.08.07-.14.28-.2.38-.18.32-.39.62-.61.92.51-.72-.28.3-.46.48-.28.29-.58.57-.88.84-.15.13-.3.25-.45.38-.51.44.36-.24-.16.12-.42.29-.84.59-1.27.85-2.16,1.33-3.52,1.86-5.99,2.52-1.57.42-2.52,2.14-2.1,3.69.46,1.66,2.1,2.41,3.69,2.1s2.81-.49,4.55-.45c.36,0,.71.04,1.07.06.79.04-.55-.16.17.02.55.14,1.08.27,1.62.44-.86-.27.23.21.5.35-.74-.39-.24-.24-.04.02.34.45-.42-.63-.12-.17.42.64-.13-.08,0-.14.02-.01.13.49.14.49-.17-.02-.05-.88-.06-.29-.01.71.23-.58.04-.15-.06.13-.13.38-.15.52.03-.26.36-.65.07-.19-.1.16-.23.34-.31.51-.18.39.51-.5-.04.02-.23.21-1.2.93-.46.47-.39.25-.77.51-1.18.72-.16.08-1.03.41-.26.14-.29.1-.57.21-.86.3-.55.17-1.11.28-1.68.4s.38,0-.39.05c-.33.03-.65.05-.98.07-.81.03-1.61,0-2.42-.06v6c2.37.05,4.9,1.42,7.34,1.93l-2.1-2.1c.04.14.41,1.19.3,1.27,0,0-.04-.93-.03-.07,0,.21,0,.42,0,.63,0,.86-.03-.18.04-.13.03.02-.08.41-.09.46-.05.17-.15.38-.17.56-.04.24.42-.73.02-.08-.11.18-.66,1.07-.34.58s-.04.04-.16.15c-.15.14-.29.29-.44.43-.11.1-.67.52-.19.17s-.12.07-.24.15c-.35.23-.72.45-1.09.64-.22.12-.44.22-.67.33-.4.2-.5.2,0,0-.48.18-.96.37-1.45.53-1.05.35-2.12.62-3.19.86-1.16.25-2.33.45-3.51.62-.87.13.4-.04-.34.05-.32.04-.63.08-.95.11-.69.08-1.37.15-2.06.21-10.95.99-21.94.26-32.9.68-2.33.09-4.67.24-6.97.65-1.65.29-3.43.82-4.64,2.04-2.72,2.75,1.52,6.99,4.24,4.24.51-.51-.72.52-.07.06.1-.07.25-.1.35-.18.19-.15-.85.28-.23.11s1.28-.37,1.95-.49c.19-.03.38-.06.57-.09.73-.12-.72.08-.06,0,.47-.05.93-.1,1.4-.15,1.06-.09,2.13-.15,3.19-.2,5.34-.22,10.69-.11,16.03-.11,5.83,0,11.67-.06,17.48-.61,4.98-.47,10.22-1.13,14.73-3.44s6.76-6.72,5.27-11.62c-.29-.96-1.07-1.88-2.1-2.1-3.02-.63-5.8-2.08-8.94-2.14-1.62-.03-3,1.4-3,3,0,1.73,1.38,2.87,3,3,4.83.38,10.56-.81,13.45-5.08,1.08-1.59,1.48-3.67.87-5.51-.74-2.25-2.72-3.66-4.89-4.38-3.25-1.07-6.95-.59-10.23.06l1.6,5.79c4.29-1.15,8.77-3.26,11.76-6.65,2.41-2.73,4.09-6.92,1.24-10-3.16-3.41-8.93-2.67-12.99-1.95-5.02.89-10.07,1.56-15.08,2.48-5.51,1.02-11.54,2.29-15.97,5.96-1.25,1.04-1.07,3.17,0,4.24,1.23,1.23,2.99,1.04,4.24,0h0Z"/><path d="m246.33,485.67c.76-.33-.29.09-.45.14-.35.11-.7.21-1.05.3-.33.08-.67.15-1,.22-.22.04-.44.08-.66.12-.13.02-.27.04-.4.06.29-.04.33-.04.1-.02-1.83.21-3.68.27-5.52.26-4.26-.04-8.51-.46-12.74-.95-3.97-.46-7.92-1.02-11.89-1.44-5.13-.55-10.3-.78-15.44-1.14-5.82-.41-11.64-.87-17.43-1.57-4.12-.49-8.19-1.22-12.28-1.92s-8.45-1.35-12.67-2.07c-5.57-.96-11.12-2.03-16.6-3.39-2.81-.69-5.6-1.46-8.35-2.34-1.34-.43-2.67-.89-3.99-1.38-.59-.22-1.17-.45-1.75-.68-.15-.06-1.17-.49-.39-.15-.33-.14-.65-.28-.98-.43-2.16-.97-4.28-2.06-6.24-3.4-.25-.17-.49-.34-.74-.52-.19-.14-.76-.65-.09-.06-.4-.35-.83-.68-1.23-1.04-.34-.31-.66-.64-.98-.97-.16-.17-.31-.35-.47-.53-.58-.67.27.44-.14-.18-.24-.35-.47-.69-.68-1.06-.11-.19-.2-.38-.31-.58-.04-.08-.08-.18-.12-.26-.26-.46.22.69.08.19-.11-.39-.26-.76-.36-1.15-.05-.2-.07-.42-.13-.62-.13-.47.08.41.05.37-.04-.03-.04-.38-.04-.43-.02-.44-.02-.87,0-1.32.02-.49.09-.47-.02.05.06-.25.09-.51.14-.77.11-.48.25-.95.42-1.42.04-.11.09-.21.12-.32.19-.57-.28.49-.06.15.16-.25.26-.56.4-.83.25-.49.53-.97.83-1.44.17-.26.34-.52.52-.78.11-.15.86-1.13.39-.54,1.03-1.29,2.14-2.51,3.36-3.62,2.81-2.55,6.5-4.57,10.15-6.25,7.5-3.45,16.12-5.79,23.13-10.67,1.75-1.21,3.41-2.56,4.89-4.09,2.69-2.78-1.55-7.02-4.24-4.24-5.75,5.95-14.2,8.56-21.86,11.7s-15.5,7.17-20.69,14.26c-2.79,3.81-4.5,8.8-2.83,13.43s5.5,7.7,9.55,10.03c4.89,2.82,10.34,4.71,15.74,6.27,5.7,1.65,11.51,2.9,17.34,3.99,4.86.91,9.74,1.67,14.62,2.46,8.39,1.35,16.72,2.71,25.2,3.45,10.13.88,20.29,1.29,30.38,2.57,8.39,1.06,17.14,2.47,25.58,1.17,1.71-.26,3.28-.73,4.86-1.42,1.48-.65,1.83-2.82,1.08-4.1-.9-1.53-2.61-1.73-4.1-1.08h0Z"/><path d="m141.6,430.42c.2-20.31-7.9-39.69-10.13-59.72-.98-8.86-.71-17.9-1.08-26.81s-.74-18.37-.3-27.54,1.55-19.01,5.82-27.37l-5.48-2.31c-6.32,28.93-10.65,58.25-14.12,87.64-.88,7.42-1.71,14.86-2.71,22.26-.93,6.85-2.49,13.44-4.39,20.08s-3.66,12.98-4.43,19.71c-.5,4.34-.2,8.62.17,12.96.46,5.44,1.03,10.89,1.01,16.35-.01,3.67.11,9.02-2.67,11.82l3.64-.47c-4.96-2.33-6.07-9.01-8.29-13.51-1.1-2.22-3.96-1.64-5.18,0-2.66,3.56-4.15,8.7-7.85,11.36l3.64.47c-2.21-2.38-2.36-5.47-1.53-8.48.9-3.25-3.8-5.31-5.48-2.31-.72,1.28-2.8,5.22-4.64,4.92s-2.74-4.78-2.82-6.28c-.19-3.42.98-6.89,2.14-10.06s2.55-6.55,3.91-9.78c6.52-15.39,14.53-29.93,17.63-46.54s2.3-32.79,5.53-48.95c1.58-7.93,3.43-15.82,4.13-23.89.76-8.71.43-17.51,1.06-26.24,1.25-17.27,3.74-34.44,4.84-51.72s.02-33.55-2.62-50.33-6.27-33.59-7.7-50.61-.77-33.66,3.08-49.89c3.2-13.52,9.48-26.03,14.96-38.73,4.81-11.14,9.97-23.12,18.56-31.94,1.86-1.91,3.88-3.59,6.15-4.98l-4.51-2.59c.47,16.24-3.87,35.18,6.72,49.23,4.36,5.79,10.66,8.87,17.89,8.94s14.32-2.28,21.24-4.12c9.07-2.41,18.33-4.37,27.68-5.35s18.21-.59,27.41-.51c14.62.13,31.66-1.99,42.63-12.59,12.71-12.27,18.19-30.61,22-47.35h-5.79c7.73,32.26,14.66,64.92,16.62,98.12.98,16.53.73,33.19-1.45,49.62s-6.84,33.3-10.33,49.91c-3.44,16.38-5.68,32.72-6,49.46-.2,10.6-2.62,21.22-.85,31.81.68,4.05,2.68,8.94,6.98,10.3,3.84,1.22,7.36-1.19,9.81-3.97,5.58-6.34,8.07-14.51,12.61-21.49s10.08-12.91,15.03-19.46c2.49-3.3,4.76-6.75,7.05-10.18,1.96-2.94,4.18-5.74,6.08-8.72,2.55-4.01,4.22-8.53,6.77-12.54.25-.4.53-.78.79-1.18-.17.25.64-.61.23-.26-.59.5-.38.09.32.1.34,0,.71-.05,1.03.09,1.34.56,1.56,2.67,1.62,3.91.1,1.91-.18,3.78-.84,5.57-1,2.74,2.28,4.33,4.41,3.39,2.24-.99,3.88-3.59,5.58-5.27.11-.11.97-.73.98-.9,0-.06-1.09-.31-.49.17.25.2.85.18,1.17.29.38.13.73.27,1.04.52.05.04.2.26.17.14.76,3.27-4.42,8.05.1,10.91,2,1.27,4.78.88,7.03,1,.98.05,2.24.07,3.11.58.22.13.57.59.75.65-.13-.05.17-.65.13-.64-.28.1-1.06,1.36-1.54,1.8-.94.86-1.96,1.62-3,2.35-2.53,1.77-5.17,3.38-7.8,5-6.13,3.78-11.39,8.18-16.55,13.22-6.64,6.49-13.69,12.8-19.7,19.89-11.34,13.39-19.31,29.26-30.8,42.53-2.78,3.21-5.85,6.73-10.17,7.73-3.27.76-6.47-.37-9.11-2.33-6.94-5.15-10.47-14.44-11.97-22.64-.69-3.79-6.48-2.19-5.79,1.6,2.53,13.82,14.39,36.03,31.76,27.94,4.33-2.02,7.55-5.71,10.57-9.29s5.98-7.54,8.73-11.48c5.6-8,10.7-16.35,16.54-24.19s13.55-14.95,20.75-22.14c3.79-3.78,7.59-7.58,11.73-10.98,1.99-1.63,4.64-3.22,7.02-4.68,2.92-1.8,5.88-3.59,8.65-5.61,2.13-1.56,4.57-3.29,5.84-5.69,1.4-2.65.38-5.56-1.86-7.41-2.57-2.11-6.06-2.19-9.22-2.27-.54-.01-1.47-.12-1.84-.07.24-.03-.56-.05-.53-.14l1.12.91c.2,1.07.29,1.33.28.78.15.07-.31.7.01.07.12-.24.17-.58.25-.84.17-.54.38-1.07.57-1.6.93-2.67,1.49-5.65-.09-8.2-1.74-2.81-6.77-4.85-9.78-3.16-2.59,1.46-4.31,5.2-6.7,6.26l4.41,3.39c1.47-4,1.68-9.31-.44-13.12s-8.39-5.78-11.79-2.28c-3.22,3.31-4.98,8.27-7.1,12.29-1.21,2.3-2.65,4.28-4.15,6.4-2.38,3.37-4.6,6.84-6.93,10.24-4.75,6.95-10.44,13.16-15.44,19.92-2.91,3.94-5.24,7.96-7.39,12.32-1.93,3.93-3.93,7.97-6.59,11.47-.95,1.25-2.14,2.59-3.35,3.3-.6.35-.73.31-1.03.35-.2.02-.34-.02-.8-.43-3.08-2.75-2.85-8.53-2.86-12.26-.03-5.75.56-11.49,1.05-17.22.54-6.29.4-12.59.84-18.89.59-8.54,1.81-17.01,3.36-25.42,3.09-16.77,7.63-33.25,10.73-50.01s4.09-33.08,3.73-49.73c-.74-33.62-7.02-66.9-14.57-99.58-.9-3.88-1.81-7.75-2.74-11.62-.68-2.84-5.13-2.88-5.79,0-3.19,14.04-7.39,28.99-16.56,40.42-4.36,5.43-9.54,9.29-16.16,11.49-6.96,2.31-14.32,3.29-21.63,3.56-8.02.29-16.02-.45-24.05-.04-8.78.45-17.52,1.72-26.11,3.55-7.62,1.62-15.04,4.03-22.66,5.62-5.79,1.21-12.27,1.74-17.35-1.86-6.94-4.92-9.07-14.38-9.55-22.35-.54-9.01.56-18.03.3-27.04-.06-2.22-2.52-3.81-4.51-2.59-10.79,6.6-17.34,18.57-22.62,29.65-2.85,5.98-5.38,12.1-7.98,18.19s-5.86,12.59-8.21,19.12c-5.87,16.34-7.78,34.03-7.55,51.32s3.54,35.44,6.59,52.96,5.42,34.94,4.75,52.78-3.27,35.96-4.8,53.95c-.79,9.25-.9,18.47-1.24,27.74-.31,8.47-2.23,16.71-3.92,24.98s-2.58,17.11-3.16,25.84-1.21,17.45-2.95,26.04c-3.47,17.18-12.29,32.29-18.76,48.4-2.54,6.33-5.81,13.27-4.52,20.27,1.03,5.62,5.64,12.27,12.05,8.97,2.83-1.46,4.8-4.3,6.31-7l-5.48-2.31c-1.42,5.12-.6,10.36,3.08,14.32.83.89,2.6,1.22,3.64.47,4.79-3.45,6.59-8.93,10-13.52h-5.18c2.78,5.64,4.2,12.72,10.44,15.66,1.22.57,2.64.54,3.64-.47,2.9-2.93,3.77-7.07,4.18-11.03.5-4.8.18-9.67-.19-14.46s-.9-9.22-1.03-13.85c-.17-5.99,1.15-11.91,2.68-17.68,1.73-6.49,3.85-12.89,5.12-19.5,1.43-7.45,2.15-15.07,3.03-22.6,1.77-15.01,3.62-30,5.87-44.94,2.49-16.56,5.44-33.05,9.01-49.41.69-3.17-3.86-5.49-5.48-2.31-8.15,15.96-7.19,35.59-6.54,52.98.33,8.85.32,17.75.83,26.59.62,10.64,2.98,21.1,5.35,31.45,2.5,10.98,5.34,22.12,5.23,33.45-.04,3.86,5.96,3.87,6,0h0Z"/><path d="m273.77,263.33c0,17.52.33,35.03.72,52.54s.86,34.75,1.15,52.13c.16,9.38.26,18.76.27,28.14,0,3.86,6,3.87,6,0,0-16.89-.34-33.78-.72-50.66s-.87-35.1-1.15-52.66c-.16-9.83-.26-19.66-.27-29.5,0-3.86-6-3.87-6,0h0Z"/><path d="m364.27,426.41c-1.31-4.86-1.77-9.85-2.47-14.82-.73-5.21-1.94-10.22-4.2-14.99l-4.71,3.64c3.78,3.05,7.57,6.11,11.02,9.54,1.7,1.68,3.47,3.6,4.74,5.39.66.93,1.28,1.91,1.8,2.93.43.85.65,1.37.94,2.59.78,3.28,5.99,2.59,5.89-.8-.01-.42.03-.83.05-1.25.03-.5-.14.73.02-.13.04-.2.07-.4.11-.6.23-1.17.54-2.33.89-3.47.41-1.34.87-2.66,1.37-3.97.28-.74.58-1.48.88-2.22.14-.33.15-.37.05-.12.08-.19.16-.37.24-.56.14-.32.29-.65.43-.97,1.18-2.6,2.48-5.16,4.03-7.55.33-.51.69-1,1.03-1.49.3-.43-.33.37.21-.26.16-.18.31-.36.47-.54.31-.34.65-.62.97-.94-.61.62-.24.15.01.02.16-.08.31-.18.48-.25l-4.41-3.39c-1.89,6.94-1.34,14.18-1.5,21.29-.07,2.84,4.31,4.27,5.59,1.51.77-1.65,1.58-3.07,2.7-4.25s1.6-1.51,2.92-2.33c2.69-1.66,5.56-2.96,8.14-4.8l-4.1-4.1c-3.15,4.51-5.75,9.44-7.76,14.56-1.89,4.81-3.73,11.05-1.61,16.08.63,1.49,1.98,2.56,3.69,2.1,1.41-.39,2.73-2.19,2.1-3.69-.19-.46-.35-.92-.47-1.4-.06-.25-.11-.5-.15-.75.12.7-.01-.24-.02-.39-.03-.56-.03-1.12,0-1.68.02-.29.04-.58.07-.87.01-.15.03-.3.05-.44-.03.25-.03.27,0,.05.43-2.65,1.26-5.23,2.26-7.72.84-2.1,2.12-4.68,3.36-6.89,1.13-2.03,2.34-4.01,3.67-5.91,1.69-2.41-1.69-5.83-4.1-4.1-2.74,1.96-5.83,3.29-8.64,5.12-3.22,2.1-5.65,4.92-7.27,8.42l5.59,1.51c.15-6.56-.45-13.29,1.29-19.69.74-2.72-2.12-4.43-4.41-3.39-1.67.76-2.93,2.34-4.01,3.76-1.31,1.73-2.42,3.6-3.44,5.52-2.35,4.44-4.35,9.18-5.72,14.02-.56,1.98-1.1,4.11-1.04,6.18l5.89-.8c-1.21-5.08-4.9-9.4-8.48-13.03s-7.58-6.86-11.55-10.06c-2.65-2.14-6.22.46-4.71,3.64,4.22,8.89,3.55,19.03,6.07,28.38,1,3.72,6.79,2.14,5.79-1.6h0Z"/><path d="m125.89,527.17c0-10.96.15-22.01-2.34-32.75l-5.48,2.31c2.62,3.5,5.11,7.12,7.17,10.99,1.05,1.96,1.88,3.72,2.54,5.8.32,1.01.59,2.04.76,3.08.08.51,0,0,.04.3.02.25.04.51.05.76.02.49,0,.99-.03,1.48-.22,2.96,4.25,4.09,5.59,1.51,2.36-4.56,6.13-8.02,9.45-11.86l-5.12-2.12c-.08,1.06-.07.96-.23,1.93-.13.8-.29,1.59-.46,2.37-.39,1.78-.85,3.54-1.36,5.28s-1.08,3.5-1.69,5.23c-.27.77-.56,1.54-.86,2.31-.35.89-.52,1.32-.77,1.88-.65,1.48-.43,3.22,1.08,4.1,1.27.74,3.45.42,4.1-1.08,3.02-6.88,5.61-14.49,6.19-22.02.19-2.53-3.46-4.04-5.12-2.12-3.64,4.22-7.8,8.07-10.39,13.08l5.59,1.51c.36-4.8-1.67-9.61-3.83-13.78s-4.75-7.95-7.52-11.65c-.9-1.2-2.27-1.87-3.75-1.23-1.39.61-2.08,2.05-1.74,3.54,2.37,10.21,2.13,20.74,2.12,31.16,0,3.86,6,3.87,6,0h0Z"/><path d="m23.67,474.25c-1.42-7.19-4.48-14.32-8.55-20.41-1.76-2.63-3.69-5.13-5.46-7.75-1.66-2.46-3.18-4.84-3.8-7.52l-3.69,3.69c4.8,1.85,9.12,5.94,12.73,9.91,3.83,4.22,7.2,8.81,10.79,13.23,1.69,2.09,5.13.3,5.12-2.12-.02-5.41-1.35-10.82-2.94-15.96s-3.55-10.14-5.84-14.99l-4.71,3.64c4.22,4.36,8.7,8.68,12,13.65s5.13,10.5,5.01,16.64c-.05,2.47,3.41,4.14,5.12,2.12,2.48-2.92,4.88-5.93,7.13-9.03s4.38-6.2,5.68-9.75l-5.79-1.6c-.31.98-.68,1.94-1.07,2.89-.11.27-.22.53-.33.8-.25.61.08-.18-.16.39-.3.72-.61,1.43-.91,2.15-1.03,2.46-2.03,4.96-2.67,7.55-1.36,5.5-.91,11.53,3.74,15.37,1.25,1.03,3.02,1.22,4.24,0,1.06-1.06,1.25-3.2,0-4.24-.5-.42-.99-.86-1.4-1.36.24.29-.1-.14-.17-.25-.13-.21-.27-.42-.38-.64-.01-.03-.39-.85-.19-.35-.11-.27-.2-.55-.27-.83-.07-.23-.12-.47-.17-.71-.04-.19-.1-.65-.05-.22-.29-2.5.09-4.06.79-6.45,1.35-4.61,3.38-7.99,4.8-12.53.48-1.55-.57-3.27-2.1-3.69-1.67-.46-3.13.57-3.69,2.1-.05.15-.11.3-.17.45.14-.33.14-.33,0,0-.16.34-.32.67-.49,1.01-.39.74-.8,1.46-1.24,2.18-.98,1.61-2.06,3.16-3.17,4.68-1.96,2.7-3.98,5.21-6.2,7.82l5.12,2.12c.14-6.92-1.85-13.58-5.63-19.37-3.67-5.62-8.49-10.36-13.13-15.16-1.03-1.06-2.8-1.14-3.94-.23-1.23.98-1.43,2.48-.77,3.87,2.05,4.34,3.77,8.81,5.23,13.55s2.7,9.53,2.72,14.36l5.12-2.12c-7.48-9.22-14.62-20.24-26.17-24.69-2.26-.87-4.16,1.66-3.69,3.69,1.41,6.09,6.03,11.1,9.47,16.12,4.02,5.86,6.96,12.58,8.34,19.56.32,1.59,2.21,2.5,3.69,2.1,1.66-.46,2.41-2.1,2.1-3.69h0Z"/><path d="m63.05,443.63c-.04-14.98-4.12-29.44-8.6-43.62l-5.01,2.92c4.72,4.59,8.25,10.5,10.72,16.67s4.2,12.98,3.88,19.76l5.89-.8c-1.48-6.31,1.22-13.45,2.35-19.79,1.47-8.21,1.91-16.53,1.52-24.85-.8-16.83-2.03-33.69-4.54-50.36-1.35-8.99-3.42-17.79-6.32-26.41-.52-1.54-2.07-2.54-3.69-2.1-1.5.41-2.61,2.15-2.1,3.69,5.2,15.49,7.36,31.58,8.8,47.81.74,8.38,1.26,16.77,1.73,25.16s.36,16.23-.98,24.25-4.45,16.12-2.56,24.19c.8,3.4,5.74,2.48,5.89-.8.35-7.39-1.46-14.91-4.24-21.71s-6.69-13.68-12.12-18.96c-2.08-2.02-5.94-.01-5.01,2.92,4.32,13.67,8.35,27.57,8.39,42.02.01,3.86,6.01,3.87,6,0h0Z"/><path d="m77.33,440.77c-.59-4.9,1.65-9.17,4.03-13.55,2.58-4.75,5.24-9.48,5.84-14.94.24-2.17-2.76-3.87-4.51-2.59-8.64,6.31-14.71,15-17.67,25.28-1.07,3.72,4.72,5.3,5.79,1.6,2.51-8.68,7.56-16.32,14.92-21.7l-4.51-2.59c-.04.33-.11.74-.26,1.36s-.32,1.22-.52,1.81c-.39,1.18-.72,1.93-1.25,3.04-1.14,2.38-2.47,4.67-3.7,7-2.48,4.67-4.79,9.85-4.14,15.27.19,1.61,1.24,3,3,3,1.47,0,3.19-1.38,3-3h0Z"/><path d="m74.37,389.45c.56-3.94,1.58-7.86,2.6-11.7.72-2.72,1.51-5.42,2.42-8.07.43-1.27.9-2.54,1.4-3.78.06-.14.11-.28.17-.42.18-.43-.3.66,0,0,.12-.26.23-.53.35-.79.24-.52.49-1.04.76-1.56.25-.47.5-.93.78-1.37.12-.19.24-.39.37-.58.15-.22.76-.88.09-.16.25-.28.5-.56.76-.83.52-.55-.12.12-.13.07-.01-.08.42-.24.48-.3.29-.26-.81.24-.23.11.6-.14-.66.05-.31.03.55-.03-.04-.02-.31-.07.65.12-.31-.18-.14-.09.62.32-.21-.04-.12-.15,0,0,.35.32.38.35.27.25.32.45.04.01.19.3.39.59.56.9.07.12.12.25.19.38-.05-.1-.19-.62-.06-.13.07.27.18.53.24.81.07.29.15.94.08.26.04.37.07.73.07,1.1,0,.3,0,.61-.03.91-.02.24-.13,1.05-.02.37-.12.74-.27,1.46-.47,2.18-.19.68-.41,1.34-.66,2-.4,1.06-.29.79-.78,1.84-.71,1.5-1.51,2.95-2.36,4.37-.97,1.62-2.02,3.19-3.11,4.73-.56.79-1.12,1.57-1.7,2.34-.25.34-.51.67-.76,1-.05.06-.4.52-.18.24s-.22.28-.26.33c-1.67,2.14-3.43,4.21-5.14,6.31-1.02,1.26-1.23,3.01,0,4.24,1.06,1.06,3.21,1.26,4.24,0,3.94-4.84,7.96-9.62,11.3-14.91s7.5-12.84,5.41-19.43c-.82-2.6-2.73-5.43-5.64-5.83-2.31-.31-4.29.98-5.69,2.73-3.56,4.44-5.27,10.43-6.85,15.81-1.44,4.94-2.83,10.04-3.56,15.14-.23,1.6.39,3.22,2.1,3.69,1.41.39,3.46-.48,3.69-2.1h0Z"/><path d="m53.54,300.37c-1.67,1.28-2.77,2.81-3.51,4.79-.57,1.52-.8,3.25-.71,4.86.2,3.73,1.9,7.5,5.63,8.83s8.39-.72,10.07-4.16c1.58-3.21,1.1-7.25-.98-10.15-1.23-1.72-2.82-3.12-4.88-3.74s-4.48-.19-6.33.99c-1.32.85-1.98,2.7-1.08,4.1.85,1.32,2.69,1.98,4.1,1.08.15-.09.3-.19.45-.27.13-.07.63-.29.09-.06s-.05.02.08-.02c.16-.05.33-.1.49-.13.64-.14-.35.03-.26.03.12,0,.25-.02.37-.02.14,0,.28.02.42.02.35,0-.88-.18-.29-.03.13.03.27.06.4.11.14.04.58.23.03,0s-.11-.04.02.02c.14.07.28.15.41.23.12.07.23.16.35.24.09.05-.64-.54-.23-.17.22.2.43.39.62.61.02.02.3.32.29.34,0-.01-.54-.74-.17-.2.17.25.33.5.47.77.07.13.14.27.21.4.02.05.05.1.07.15.19.37-.2-.41-.17-.4.09.02.26.76.29.86.08.27.13.55.18.83.11.58-.05-.73-.04-.3,0,.17.03.33.03.5,0,.28-.01.55-.03.83-.03.45.17-.89.03-.26-.03.14-.06.28-.1.42s-.08.28-.13.41c-.18.54.21-.44.12-.27-.14.25-.29.5-.44.75-.17.28.49-.59.27-.34-.05.05-.1.11-.15.17-.09.1-.18.19-.28.29-.27.26-.55.27.16-.09-.14.07-.27.19-.4.27-.14.09-.29.17-.44.25-.54.28.34-.11.17-.06-.35.12-.69.25-1.06.33-.14.03-.31.04-.44.08.77-.27.59-.06.19-.05-.15,0-.31,0-.46,0-.06,0-.11-.01-.17-.01-.35,0,.85.16.42.06-.26-.06-.5-.13-.75-.21-.18-.06.77.39.3.11-.13-.08-.26-.16-.39-.23-.46-.26.52.47.24.2-.1-.09-.2-.18-.3-.27s-.18-.21-.28-.3c-.08-.08-.24-.3.1.14s.12.16.05.05c-.15-.22-.29-.45-.41-.69-.06-.11-.11-.23-.17-.34-.18-.35.2.4.17.41,0,0-.09-.23-.1-.26-.2-.57-.31-1.15-.42-1.74.21,1.08.06.43.04.15-.01-.18-.02-.36-.03-.54,0-.34,0-.68.03-1.03.01-.17,0-.38.05-.54.03-.1-.14.81-.07.5.02-.1.03-.2.05-.3.07-.35.15-.7.25-1.05.05-.15.1-.3.15-.45.03-.07.06-.15.08-.22.15-.42-.3.65-.14.34s.28-.58.46-.86c.09-.14.19-.28.28-.42.18-.28-.49.59-.26.34.06-.07.12-.14.18-.21.23-.26,1.11-.97.2-.28.65-.5,1.15-.97,1.38-1.79.2-.72.11-1.67-.3-2.31-.79-1.23-2.77-2.1-4.1-1.08h0Z"/><path d="m58.89,317.33c3.29,4.34,8.13,7.87,13.52,9.03s11.13-.36,14.36-5.01c2.22-3.19,1.18-6.94-1.75-9.21s-6.48-3.24-9.94-3.82-7.93-1.16-11.37.23l2.31,5.48c.52-.37,1.11-.63,1.69-.9s-.54.21-.04.02c.19-.07.38-.15.57-.23.48-.19.96-.37,1.45-.55,2.22-.83,4.45-1.63,6.64-2.52,4.68-1.91,9.94-4.14,12.92-8.44,2.64-3.81,1.94-10.8-3.26-12.03-4.68-1.11-9.68,2.6-13.2,5.2-2.48,1.84-4.87,3.81-7.22,5.81-.88.75-1.75,1.51-2.63,2.26-.34.29-.68.57-1.02.85-.1.08-.34.2-.4.32.21-.42.57-.42.11-.1l4.1,4.1c2.49-3.99,4.87-8.05,6.93-12.28,2.39-4.91,4.58-10.15,5.02-15.65.21-2.62-.19-5.38-1.57-7.66-.73-1.2-2.06-1.66-3.39-1.38-13.83,2.92-14.79,19.37-17.73,30.44l5.89.8c0-3.63-.55-7.36-1.48-10.86-1.01-3.82-2.72-8.12-6.25-10.29-3.8-2.33-9.32-.89-11.64,2.88s-1.05,8.61.59,12.39,4.23,7.9,7.69,10.5l3.03-5.18c-2.07-1.01-4.3-1.37-6.56-1.64-2.62-.31-5.27-.36-7.9-.22-5.26.27-11.44,1.04-15.8,4.28-2.21,1.65-3.73,3.85-3.92,6.66-.17,2.6,1.01,5.01,3.17,6.44,1.97,1.3,4.53,1.59,6.83,1.61,2.79.02,5.59-.4,8.32-.87,2.97-.51,5.91-1.18,8.86-1.79,1.17-.24,2.34-.47,3.52-.67.88-.15-.28,0,.12-.02.22-.02.45-.05.67-.07.39-.03.77-.04,1.16-.02l-.8-5.89c-2.83.61-5.56,1.87-8.12,3.19-3.26,1.69-6.32,3.74-9.17,6.06-5.18,4.2-10.46,10.42-9.3,17.57.4,2.44,1.7,5.07,4.02,6.2,2.44,1.2,5.04.73,7.43-.31,4.93-2.15,9.06-6.45,12.45-10.51,2.06-2.46,4.01-5.06,5.61-7.85,1.22-2.13,2.4-4.5,2.51-6.99.15-3.38-5.08-4.07-5.89-.8-.43,1.74-1.24,3.41-1.91,5.06-1.11,2.7-2.21,5.4-3.21,8.14-1.98,5.43-4.27,11.81-3.11,17.67.54,2.71,2.37,4.97,5.02,5.84s5.91.45,8.18-1.2c5.18-3.76,5.87-11.37,6.14-17.23.17-3.61.07-7.23-.08-10.85-.1-2.49-.35-5.02-.17-7.51.12-1.62-1.46-3-3-3-1.72,0-2.88,1.38-3,3-.14,1.97.02,3.98.1,5.95.12,2.83.23,5.66.23,8.49,0,1.56-.04,3.13-.13,4.69-.04.73-.1,1.45-.17,2.18-.04.38-.08.75-.12,1.13-.02.14-.08.59.01-.06-.03.2-.06.4-.09.61-.21,1.37-.5,2.73-.92,4.05-.09.27-.18.54-.28.81-.06.16-.13.32-.19.48.03-.08.3-.61.06-.16-.28.51-.54,1.02-.84,1.51-.42.69.33-.28-.13.19-.16.17-.31.35-.48.51-.29.28-.78.44-.11.14-.24.11-.49.3-.72.44-.61.36.35-.05-.07.03-.25.05-.52.14-.77.2-.67.18.6,0-.12,0-.32,0-.65-.02-.97,0-.68.03.59.2-.16-.02-.2-.06-.42-.14-.62-.17-.34-.05.68.3-.03-.04-.67-.31.14.24-.03.02-.05-.07-.35-.42-.44-.45.24.09.28.51.03-.03-.21-.44-.15-.42-.01.05-.07-.25-.17-.48-.24-.73-.05-.21-.07-.43-.14-.64-.11-.33.04.72-.01-.14-.03-.59-.05-1.18-.02-1.78.02-.55.08-1.09.14-1.63-.1.91.04-.2.07-.38.06-.37.13-.74.21-1.11.58-2.84,1.46-5.61,2.42-8.33,1.04-2.94,2.21-5.83,3.4-8.72.73-1.77,1.6-3.57,2.07-5.43l-5.89-.8c-.03.68-.02-.25.05-.24,0,0-.09.45-.1.49-.1.37-.21.73-.34,1.09-.06.17-.15.34-.2.52.03-.09.25-.54-.04.07-.22.45-.44.9-.68,1.34-1.12,2.08-2.47,4.03-3.9,5.91.41-.54-.21.26-.29.37-.18.23-.37.45-.55.68-.45.55-.92,1.1-1.39,1.63-.86.97-1.75,1.92-2.67,2.83s-1.86,1.77-2.85,2.59c-.21.17-.42.34-.62.5.59-.48-.15.11-.28.21-.46.33-.92.65-1.4.95-.42.26-.84.51-1.28.74-.22.11-.44.21-.66.33-.59.3.58-.17-.17.06-.38.12-.78.21-1.16.33-.59.18.61.02.14,0-.2,0-.44,0-.63.02-.63.05,0-.08.13.03-.06-.06-.36-.11-.44-.11-.27-.02.62.39.12.04s-.07-.17.06.09c-.05-.1-.3-.32-.4-.39-.23-.17.34.59.02,0-.09-.16-.18-.34-.28-.5-.3-.48.14.54-.08-.2-.09-.31-.18-.62-.26-.93-.04-.15-.06-.31-.09-.47,0,.02.06.56.04.21-.02-.32-.04-.63-.03-.94,0-.24.15-1.24.01-.5.11-.6.25-1.19.44-1.76.07-.19.34-.87.11-.33.16-.35.33-.7.51-1.04.32-.59.67-1.16,1.05-1.72.21-.31.43-.61.65-.9-.31.4.33-.38.43-.5,1.03-1.21,2.17-2.32,3.37-3.37.35-.3.7-.6,1.05-.89.12-.1.24-.19.36-.29,0,0,.73-.56.37-.29.7-.53,1.41-1.04,2.13-1.53,1.44-.98,2.93-1.88,4.46-2.71.73-.4,1.48-.78,2.23-1.13.36-.17.71-.33,1.07-.49.08-.04.58-.25.22-.1s.32-.13.32-.13c1.17-.46,2.36-.87,3.59-1.13,1.44-.31,2.36-1.9,2.15-3.29-.23-1.53-1.42-2.49-2.95-2.6-1.74-.12-3.56.3-5.26.62-2.25.43-4.48.94-6.72,1.4-1.23.25-2.46.5-3.7.71-.59.1-1.19.2-1.79.29-.14.02-1.2.16-.46.07-.33.04-.66.08-.99.12-1.13.12-2.27.21-3.41.22-.5,0-1,0-1.5-.04-.24-.02-.47-.06-.71-.06.64.02.23.04-.15-.04-.41-.08-.8-.2-1.2-.32-.58-.18.05.03.04.02-.1-.11-.4-.24-.54-.31-.6-.29.47.31.07.06-.07-.04-.59-.54-.16-.12.37.36,0-.04-.09-.18-.05-.07-.08-.2-.13-.27.11.13.14.63.14.29,0-.14-.09-.5-.15-.63.18.43.02.55.05,0,0-.2.04-.43.03-.63.03.54-.04.45.06-.04.01-.06.08-.18.08-.24-.03-.31-.31.51-.11.25.11-.15.18-.36.28-.52.07-.11.49-.65.16-.26s.19-.18.3-.29c.15-.15.32-.28.48-.44.35-.35-.49.29.08-.05.44-.27.86-.55,1.31-.79.22-.12.45-.22.68-.33.67-.33-.31.09.21-.09.59-.21,1.18-.43,1.78-.61,1.17-.35,2.35-.62,3.55-.83.3-.05.6-.1.9-.15.13-.02.26-.04.39-.06.47-.07-.48.06-.01,0,.66-.08,1.32-.15,1.98-.21,2.78-.23,5.59-.25,8.37,0,.3.03.6.06.9.09.11.01.22.03.33.04.39.04-.62-.1-.06,0,.52.09,1.04.17,1.56.28.48.1.95.22,1.41.36.19.06.38.13.57.19.59.18-.67-.32-.05-.01,1.45.71,3.24.39,4.1-1.08s.22-3.13-1.08-4.1c.83.62.05.02-.14-.15-.23-.21-.45-.44-.67-.67s-.43-.47-.63-.71c-.12-.14-.88-1.12-.47-.56-1-1.37-1.92-2.79-2.7-4.3-.19-.36-.37-.73-.54-1.1-.11-.25-.23-.49-.33-.74.05.11.19.51,0-.03-.3-.82-.59-1.63-.8-2.48-.1-.4-.17-.81-.25-1.21.14.76-.02-.39-.03-.61,0-.3.03-.6.02-.89-.03-.69-.19.59,0-.05.06-.2.1-.41.15-.61.03-.13.09-.26.13-.39-.22.69-.13.26,0,.07.09-.14.18-.29.27-.43-.33.57-.24.25-.09.13s.31-.3.45-.44c-.11.1-.52.29-.08.08.13-.06.27-.16.39-.23.14-.08.28-.15.43-.21-.3.12-.34.15-.13.07.36-.11.72-.2,1.09-.3-.79.21.22.05.47.02.48-.05-.08,0-.2-.04.17.05.39.12.57.14.16.02.54.27-.17-.1.17.09.35.17.52.27.14.08.27.18.41.27.33.21-.47-.52-.06-.03.22.26.49.52.73.75.11.11.32.45-.06-.09.09.12.18.24.26.37.25.4.5.79.72,1.2.17.32.33.65.48.98.07.14.27.67.04.09.06.16.12.32.18.48.32.86.59,1.73.83,2.61.25.93.46,1.87.64,2.82.09.46.17.92.24,1.38.03.16.05.33.08.49.11.64-.05-.52.04.28.17,1.47.3,2.94.3,4.41,0,3.36,5.02,4.1,5.89.8,1.43-5.39,2.12-10.96,3.98-16.24.57-1.62.71-1.99,1.49-3.46.3-.57.62-1.12.98-1.66.2-.3.4-.6.62-.89-.37.5.29-.35.37-.44.41-.47.84-.91,1.31-1.32.13-.12.27-.23.4-.34-.26.19-.25.19.02-.02.29-.2.59-.4.89-.59,1.31-.79,1.81-.95,3.49-1.3l-3.39-1.38c.15.25.28.5.41.76-.37-.71.03.13.09.32.09.29.13.6.22.89.06.34.06.31,0-.1.02.16.04.32.05.48.03.59.05,1.17.02,1.76-.02.35-.05.7-.08,1.06-.04.35-.04.36,0,.02-.03.18-.06.37-.09.55-.25,1.47-.64,2.91-1.1,4.32-.23.7-.47,1.4-.73,2.09-.15.4-.31.8-.47,1.2-.21.53-.18.44-.33.79-2.32,5.37-5.28,10.45-8.37,15.4-1.52,2.45,1.61,5.87,4.1,4.1,3.16-2.23,5.94-5.01,8.95-7.44.44-.36.89-.71,1.34-1.06-.46.36.22-.17.33-.25.28-.21.56-.42.84-.63.96-.7,1.94-1.38,2.94-2.02.91-.58,1.85-1.12,2.83-1.59.22-.11.45-.21.67-.31-.53.23-.18.07.12-.03.44-.14.87-.27,1.31-.38.49-.12.19.05-.15,0,.16.02.37-.02.54-.03.71-.04-.16-.04-.15-.05.01-.02.53.12.53.14,0,.05-.74-.42-.23-.07.37.25-.63-.42-.13-.1.38.24.1.3-.06-.11.07.18.21.38.3.55-.4-.72.04.5.16.7.18.29.04-.58-.03-.25-.02.08.02.19.02.27,0,.22-.05.49-.01.7-.07-.42.13-.56-.02-.03-.06.19-.13.39-.18.58-.12.47.3-.48.02-.07-.13.2-.23.42-.36.63-.07.12-.48.66-.2.3.3-.38-.2.22-.26.29-.32.35-.66.68-1.02.99-.11.09-.67.55-.36.31s-.29.21-.4.29c-.44.31-.89.6-1.35.88-1,.61-2.04,1.16-3.1,1.67-.49.24-.98.46-1.48.68-.27.12-.54.24-.81.35-.32.14.1-.04.14-.06-.19.08-.39.16-.58.24-2.26.93-4.57,1.75-6.86,2.61-1.67.63-3.54,1.19-5,2.23-1.21.87-1.86,2.3-1.23,3.75.54,1.24,2.13,2.31,3.54,1.74.43-.17.87-.3,1.32-.39.22-.05,1.24-.14.26-.06.33-.03.65-.07.98-.08,1.42-.08,2.84-.02,4.25.12.18.02,1.16.14.8.09s.63.1.81.13c.8.14,1.6.31,2.39.51.69.17,1.37.37,2.05.6.32.11.64.23.96.35.17.06.64.3,0,0,.19.09.39.18.58.27.54.26,1.04.57,1.55.89.62.39-.18-.22.11.08.15.16.46.54.65.64.24.13-.31-.63-.14-.18.03.07.11.19.16.25.39.58-.1-.59.02.08.08.44.04-.8-.02-.1s.3-.63-.04.16c-.25.58.39-.53-.08.14-.06.09-.15.22-.2.32-.29.57.32-.35.03-.04-.52.58-1.1,1.14-1.64,1.49-1.66,1.08-3.14,1.32-5.21,1.11-.68-.07-2.19-.46-3.2-.84-.76-.29-1.87-.85-2.76-1.39-1.11-.67-1.82-1.19-2.73-2-.41-.37-.81-.75-1.19-1.15-.18-.19-.36-.39-.54-.59-.07-.08-.68-.83-.4-.46-.98-1.29-2.59-1.96-4.1-1.08-1.27.74-2.06,2.81-1.08,4.1h0Z"/><path d="m209.34,108.94c-.41,1.85-.62,3.72-1.33,5.49-.41,1.01-1.43,2.48-2.28,3.04-1.61,1.05-3.92,1.33-5.96,1.86-2.31.59-4.62,1.19-6.95,1.7-4.67,1.02-9.47,1.63-14.25,1.12-4.28-.45-8.65-2.38-12.02-5.05-1.86-1.47-3.19-3.48-4.74-5.24-1.36-1.53-3.55-2.98-4.16-4.88l-.3,2.31c3.61-6.88,10.59-12.48,18.2-14.31,2.01-.48,3.76-.47,5.94-.52,2.45-.06,4.9-.19,7.34.04,4.68.44,8.71,3.06,12.44,5.72,2.13,1.52,4.17,3.08,6.06,4.89.56.53,1.12,1.07,1.66,1.62.05.05.31.28.33.32.05.06.51.72.31.47-.15-.18.01.07.03.17-.09-.68-.05.13-.06.25.01-.16.12-.53-.03.05-.08.31-.14.64-.21.95-.36,1.58.48,3.25,2.1,3.69,1.51.42,3.33-.51,3.69-2.1.56-2.46.73-4.67-.86-6.8-1.67-2.24-4.01-4.19-6.2-5.9-4.33-3.39-9.01-6.8-14.32-8.42-2.91-.89-6.01-1.07-9.04-1.02-2.52.04-5.1-.03-7.6.27-5.03.62-9.81,2.64-13.95,5.54s-7.65,6.42-10.21,10.68c-.79,1.31-1.44,2.48-.96,4.06.44,1.45,1.37,2.73,2.36,3.85,1.61,1.84,3.39,3.48,4.95,5.37,3.48,4.25,8.28,7.19,13.51,8.84,5.5,1.74,11.4,1.51,17.03.66,3.01-.45,5.97-1.15,8.92-1.89s6.22-1.24,8.99-2.56c2.31-1.1,4.18-3.14,5.3-5.42s1.54-4.74,2.1-7.26c.35-1.58-.48-3.25-2.1-3.69-1.5-.41-3.34.51-3.69,2.1Z"/><path d="m298.41,117.46c.1.36.21.78.24,1.12.03.25.02.51.01.75,0,.06-.08.59,0,.17-.15.87-.21,1.01-.82,1.79.25-.32-.08.07-.12.1-.14.15-.29.3-.44.44-.42.4-.33.32-.63.53-.71.5-1.48.92-2.27,1.3-.56.26-.4.19-.78.34s-.79.3-1.19.43c-1.12.38-2.26.67-3.42.88-2.19.4-4.44.43-6.65.48-2.48.07-4.97.33-7.45.31-2.33-.02-4.09-1.04-6.22-1.84-1.84-.69-3.87-.82-5.78-1.26-.76-.18-1.52-.38-2.24-.67-.04-.02-.2-.09-.56-.29-.28-.16-1.01-.62-1.03-.64-2.7-2.09-4.93-6.12-4.7-9.61.06-.88.49-1.93.7-2.92-.12.6.2-.51.12-.32.08-.19.47-.8.7-1.14,1.07-1.54,2.51-3.04,3.71-4.56,2.54-3.24,6.1-5.46,9.74-7.28,1.73-.87,3.58-1.47,5.5-1.47.91,0,1.9.06,2.76.42.9.38,1.71,1.02,2.54,1.53,2.2,1.35,4.78,1.89,6.98,3.24,2.08,1.27,3.87,3.03,5.5,4.82,1.42,1.55,3.32,3.5,4,5.52.4,1.19.39,2.53.59,3.76.24,1.4.79,2.71,1.19,4.07,1.1,3.69,6.89,2.12,5.79-1.6-.38-1.28-.92-2.53-1.16-3.86-.22-1.25-.24-2.54-.57-3.78-.69-2.59-2.64-4.86-4.31-6.88s-3.39-3.74-5.36-5.31c-2.27-1.81-4.62-2.99-7.31-4.04-2.22-.87-4.02-2.48-6.28-3.25-2.56-.87-5.52-.79-8.13-.18-2.44.57-4.74,1.74-6.89,2.99s-4.27,2.6-6.16,4.24c-2.08,1.81-3.39,3.81-5.08,5.77-1.87,2.17-3.62,4.36-3.88,7.31l.41-1.51c-2.22,5.23-.65,10.94,2.68,15.36,1.54,2.05,3.39,3.86,5.76,4.92,2.05.92,4.17,1.33,6.37,1.73,1.03.19,2.04.37,3.02.76,1.39.56,2.7,1.29,4.17,1.61,3.06.67,6.19.19,9.28.1,5.61-.17,11.01-.45,16.2-2.79,2.37-1.07,4.54-2.59,6.06-4.73,1.77-2.49,1.94-5.58,1.17-8.46-.99-3.73-6.78-2.15-5.79,1.6Z"/><path d="m193.85,126.41c.27.55.52,1.11.76,1.68l-.3-.72c1.05,2.5,1.93,5.14,3.56,7.34.48.65.98,1.16,1.79,1.38.72.2,1.67.11,2.31-.3s1.2-1.03,1.38-1.79.17-1.68-.3-2.31c-.94-1.27-1.62-2.68-2.23-4.12l.3.72c-.69-1.63-1.31-3.3-2.09-4.89-.32-.65-1.12-1.19-1.79-1.38-.72-.2-1.67-.11-2.31.3s-1.2,1.03-1.38,1.79c-.19.82-.07,1.55.3,2.31h0Z"/><path d="m207.24,122.4c.82.35,1.56.83,2.26,1.37l-.61-.47c1.12.87,2.12,1.89,3.09,2.92.52.55,1.37.88,2.12.88s1.61-.33,2.12-.88.91-1.32.88-2.12-.31-1.53-.88-2.12c-.81-.85-1.63-1.69-2.52-2.45-1.05-.89-2.17-1.76-3.44-2.3-.34-.22-.72-.34-1.12-.36-.4-.09-.8-.07-1.2.05-.7.19-1.45.73-1.79,1.38-.37.7-.55,1.54-.3,2.31.22.69.68,1.5,1.38,1.79h0Z"/><path d="m183.64,138.28c-.1-2.29.22-4.6.31-6.89.02-.54.05-1.08.09-1.61.01-.13.02-.26.04-.39-.07.48-.08.56-.03.23.02-.11.03-.23.05-.34.04-.3.08-.6.13-.9.02-.14.06-.27.08-.41.01-.05.03-.11.04-.16-.2.68-.62,1.21-1.26,1.6l-2.31.3h.02c-.44-.25-.88-.51-1.32-.77-.62-1.26-.84-1.64-.67-1.12.47,1.5,2.11,2.61,3.69,2.1s2.6-2.09,2.1-3.69c-.48-1.52-1.77-2.58-3.42-2.36-1.34.18-2.28,1.15-2.63,2.42-.27.97-.36,2.1-.47,3.09-.16,1.38-.14,2.78-.24,4.16-.11,1.57-.28,3.15-.21,4.73s1.33,3.07,3,3c1.56-.07,3.08-1.32,3-3h0Z"/><path d="m164.52,135.33c.19-.45.38-.91.57-1.36.24-.57-.29.68-.08.19.05-.12.1-.24.16-.36.13-.3.26-.59.39-.89.53-1.19,1.1-2.37,1.73-3.51.32-.57.66-1.13,1.02-1.67.18-.27.36-.6.59-.82l-.3.39c.06-.07.12-.14.17-.22.09-.1.17-.21.26-.31.2-.23.41-.45.63-.65.09-.08.19-.16.28-.25.37-.33-.62.42-.23.18.22-.14.45-.27.67-.41.38-.23-.74.24-.32.13.13-.03.26-.09.4-.12,1.53-.37,2.58-2.18,2.1-3.69s-2.06-2.5-3.69-2.1c-3.05.75-5.14,3.68-6.61,6.25-1.39,2.43-2.44,5.05-3.52,7.63-.28.67-.04,1.72.3,2.31.36.62,1.08,1.22,1.79,1.38.77.17,1.63.14,2.31-.3s1.06-1.03,1.38-1.79h0Z"/><path d="m151.36,125.34c1.61-.75,2.98-2.03,4.33-3.16.33-.27.66-.55.99-.82.13-.1.73-.57.27-.22s.09-.07.22-.16c.65-.47,1.33-.91,2.06-1.23l-.72.3c.35-.14.71-.26,1.08-.32l-.8.11c.25-.03.5-.04.75-.01l-.8-.11c.06,0,.12.02.18.03.81.15,1.58.12,2.31-.3.62-.36,1.22-1.08,1.38-1.79.34-1.47-.45-3.39-2.1-3.69s-3.01-.02-4.48.67c-1.15.53-2.16,1.33-3.15,2.11-.88.69-1.73,1.43-2.6,2.13-.1.08-.2.16-.3.24-.52.41.35-.26.16-.12-.21.15-.42.31-.63.46-.38.26-.78.51-1.21.7-.65.3-1.2,1.13-1.38,1.79-.2.72-.11,1.67.3,2.31.95,1.47,2.58,1.79,4.1,1.08h0Z"/><path d="m246.96,133.37c1.21-2.35,2.45-4.72,3.94-6.91.07-.11.16-.22.23-.33.21-.33-.47.57-.04.04.2-.24.4-.48.6-.71.41-.47.84-.92,1.26-1.38.94-1.02,1.88-2.09,2.58-3.3.79-1.36.36-3.35-1.08-4.1s-3.26-.37-4.1,1.08c-.14.24-.29.48-.45.7-.25.36-.13.13.07-.07-.09.09-.17.21-.25.31-.39.47-.8.92-1.22,1.37-.99,1.07-1.96,2.15-2.78,3.36-1.49,2.19-2.73,4.56-3.94,6.91-.72,1.39-.41,3.32,1.08,4.1,1.37.73,3.34.41,4.1-1.08h0Z"/><path d="m260.61,137.92c.99-1.93,1.43-3.99,1.87-6.09.2-.93.41-1.86.71-2.77.04-.13.09-.26.14-.39.04-.1.2-.48,0-.03s-.03.07.02-.03c.06-.13.12-.25.18-.38.24-.46.51-.88.82-1.29.44-.58.49-1.65.3-2.31s-.73-1.45-1.38-1.79c-.7-.37-1.54-.55-2.31-.3s-1.3.72-1.79,1.38c-1.31,1.73-1.96,3.89-2.41,5.99-.2.93-.37,1.86-.6,2.79-.12.48-.25.96-.41,1.42-.04.13-.12.54-.22.61.1-.07.31-.69.08-.2-.06.12-.12.24-.18.36-.71,1.4-.41,3.32,1.08,4.1,1.37.72,3.34.42,4.1-1.08h0Z"/><path d="m276.68,139.18c-.2-.44.29.78.13.31-.02-.07-.05-.15-.08-.22-.07-.21-.13-.43-.19-.65-.11-.46-.19-.93-.26-1.39l.11.8c-.25-1.94-.21-3.92.05-5.85l-.11.8c.09-.65.21-1.29.38-1.91.42-1.51-.52-3.33-2.1-3.69s-3.24.48-3.69,2.1c-.54,1.97-.72,4.1-.7,6.14.02,2.28.32,4.53,1.27,6.62.29.64,1.14,1.2,1.79,1.38.72.2,1.67.11,2.31-.3s1.2-1.03,1.38-1.79c.19-.83.05-1.54-.3-2.31h0Z"/><path d="m296.56,137.77c-.17-.18-.34-.37-.51-.56-.07-.08-.14-.17-.22-.26-.07-.08-.32-.41-.03-.02.32.42-.03-.04-.07-.1-.07-.09-.13-.18-.2-.27-.13-.18-.25-.37-.38-.56-.54-.82-1.02-1.68-1.47-2.56-.89-1.73-1.67-3.51-2.55-5.24-.71-1.4-2.8-1.92-4.1-1.08-1.43.92-1.84,2.61-1.08,4.1,1.91,3.75,3.43,7.67,6.36,10.78,1.08,1.14,3.17,1.17,4.24,0,1.13-1.23,1.15-3.02,0-4.24h0Z"/><path d="m308.88,129.74c-.96-.87-1.81-1.84-2.6-2.87l.47.61c-1.08-1.4-2.04-2.89-3.02-4.36-.43-.65-1.02-1.17-1.79-1.38-.72-.2-1.67-.11-2.31.3s-1.2,1.03-1.38,1.79-.14,1.64.3,2.31c1.82,2.75,3.63,5.61,6.09,7.84.59.53,1.31.88,2.12.88.74,0,1.61-.33,2.12-.88s.91-1.32.88-2.12-.29-1.59-.88-2.12h0Z"/><path d="m221.78,176.4c-.46-.3.3.3.03.05-.12-.12-.26-.22-.38-.35-.1-.1-.19-.2-.28-.3-.45-.49.22.36.02.03-.36-.58-.72-1.15-1-1.78-.04-.09-.27-.67-.11-.24.14.39-.02-.07-.05-.15-.13-.33-.25-.67-.37-1-.21-.6-.43-1.2-.58-1.81-.69-2.78-.57-5.73-2.02-8.3-1.28-2.26-4.8-1.74-5.48.72-.37,1.32-.73,2.64-1.17,3.94-.12.35-.25.7-.38,1.05-.02.06-.23.55-.08.21s-.07.13-.09.19c-.3.63-.65,1.22-1.03,1.8-.23.34.33-.37.05-.07-.11.11-.2.23-.3.34-.23.26-.47.5-.72.74-.47.46-.96.89-1.44,1.34-1.09,1-2.11,2.06-2.89,3.33-.83,1.34-.33,3.36,1.08,4.1s3.22.35,4.1-1.08c.07-.12.15-.24.23-.36.37-.58-.28.3-.01,0,.22-.25.43-.5.67-.74.45-.46.93-.9,1.41-1.33,1.16-1.06,2.25-2.14,3.14-3.44,1.69-2.47,2.44-5.59,3.23-8.44l-5.48.72c.07.12.13.28.21.4.19.27-.2-.62-.05-.1.09.33.2.64.28.97.17.71.29,1.43.39,2.16.21,1.41.36,2.84.8,4.19,1.05,3.2,2.33,6.47,5.26,8.39,1.32.86,3.37.31,4.1-1.08.79-1.5.33-3.19-1.08-4.1h0Z"/><path d="m197.35,166.25c2.28-.6,4.07-1.43,5.45-3.42,1.09-1.57,1.76-3.69,1.72-5.61-.08-4.13-3.27-7.1-7.01-8.26-4.29-1.33-9.11-1.62-13.57-1.66-4.73-.05-10.5.16-14.56,2.9-2.12,1.43-3.55,3.49-3.72,6.08-.24,3.61,1.55,7.08,4.44,9.16,3.25,2.34,7.74,3.01,11.64,3.26,5.34.34,10.49-1.12,15.61-2.44,3.74-.96,2.15-6.75-1.6-5.79-3.62.93-7.39,2.16-11.14,2.28-3.05.1-6.19-.24-9.09-1.23-.15-.05-.77-.28-.62-.22s-.44-.21-.57-.28c-.25-.13-.5-.28-.74-.43-.06-.04-.53-.38-.27-.17.23.18-.19-.18-.23-.21-.2-.19-.4-.39-.58-.6-.22-.26,0,0,.04.05-.08-.12-.16-.24-.23-.36-.07-.13-.36-.69-.31-.56.11.26-.06-.21-.06-.21-.06-.2-.12-.41-.17-.62-.14-.59-.06-.72-.14-1.36-.06-.52-.07.19-.04.14.06-.11.12-.41.13-.54.03-.4-.31.44-.07.14.08-.1.19-.29.23-.41.13-.35-.45.42-.04.04.14-.13.27-.27.4-.41.3-.31.25-.14-.08.04.15-.08.29-.2.44-.3.37-.23.77-.41,1.15-.61-.42.22-.33.13.02,0,.19-.07.39-.14.59-.21.45-.15.9-.27,1.36-.38.48-.12.97-.22,1.46-.31.23-.04.47-.07.7-.12.51-.09-.43.04.29-.04,1.09-.12,2.18-.2,3.28-.24,2.18-.08,4.37-.02,6.55.15,1.03.08,2.06.19,3.1.31.6.07-.5-.08.09.01.21.03.43.06.64.09.46.07.93.15,1.39.23,1.75.32,3.54.68,4.59,1.7.84.82.86,1.47.45,2.74-.14.44-.42,1.04-.83,1.37-.02.02-.36.17-.18.12-.5.15-1.01.28-1.51.41-3.73.98-2.15,6.77,1.6,5.79Z"/><path d="m275.38,160.17c.16.21.29.43.44.65.46.68-.38-.47.05.18l-.04-.34c0,.34,0,.31.06-.1l-.06.24c.16-.32.16-.32,0,0-.46.74.21-.19-.15.25-.19.22-.4.43-.62.62-.66.57-1.45,1-2.22,1.41-2.61,1.4-5.59,2.27-8.54,2.51-1.59.13-3.19.09-4.78-.08-.36-.04-.71-.08-1.07-.12-.79-.09.67.11-.15-.02-.34-.05-.67-.1-1.01-.16-.99-.17-1.97-.37-2.94-.63-.54-.14-1.07-.31-1.6-.49-.17-.06-.34-.13-.52-.19-.33-.13-.34-.13-.03-.01-.16-.07-.32-.15-.48-.23-.46-.23-.89-.5-1.32-.78.54.36-.32-.34-.49-.47-.5-.4.17.45-.1-.12-.1-.2-.23-.39-.33-.6.32.68.05-.01,0-.16-.06-.34-.06-.31,0,.08-.01-.17-.01-.34,0-.51-.02-.86-.09.26.03-.22.06-.23.12-.47.21-.69-.2.53.71-1.07.42-.71.84-1.07,1.55-1.57,2.54-2.18s1.94-1.07,2.69-1.36c.53-.2,1.06-.38,1.6-.52.19-.05.38-.09.57-.14.8-.2-.43-.02.13-.02,2.04.02,3.95.07,5.4.32,2.66.45,5.31,1.14,7.83,2.1.89.34,1.75.72,2.9,1.4.22.13.44.27.65.41.13.09.93.74.36.24.38.33.74.66,1.06,1.05,1.04,1.25,3.17,1.07,4.24,0,1.23-1.23,1.04-2.99,0-4.24-1.73-2.07-4.34-3.3-6.78-4.3-2.68-1.11-5.51-1.88-8.37-2.38-2.5-.44-5.14-.83-7.68-.54-2.88.32-5.78,1.56-8.17,3.17-2.89,1.95-5.35,4.71-5.6,8.33-.22,3.12,1.58,5.73,4.09,7.39,2.23,1.48,4.99,2.23,7.59,2.7,2.99.55,6.08.93,9.12.69,4.56-.36,9.21-1.68,13.06-4.2,1.85-1.21,3.63-2.8,4.27-5,.52-1.79.07-3.79-1.05-5.25-.98-1.29-2.58-1.97-4.1-1.08-1.27.74-2.06,2.81-1.08,4.1Z"/><path d="m172.02,161c3.57-1.95,5.43-5.84,8.8-8.01l-2.26-1.3c.06,1.82-.91,3.41-1.64,5.02-.77,1.69-1.42,3.45-1.21,5.34.16,1.42,1.96,2.12,2.8.76,1.63-2.67,3.11-5.64,5.79-7.42l-2.26-1.3c.14,3.26-.28,6.56.62,9.75.28,1.01,1.76,1.56,2.51.66,1.34-1.61,2.06-3.55,2.78-5.49.68-1.84,1.34-3.86,2.86-5.2l-2.51-.66c.73,2.89.25,6,1.75,8.69.52.93,2.09,1.02,2.59,0,.97-1.99,2.11-3.82,3.73-5.35l-2.51-.66c.46,1.68.53,3.42,1.54,4.9,1.08,1.58,3.68.08,2.59-1.51-.85-1.24-.86-2.78-1.24-4.19-.3-1.11-1.7-1.43-2.51-.66-1.79,1.7-3.12,3.75-4.2,5.96h2.59c-1.32-2.35-.8-5.41-1.45-7.97-.29-1.16-1.69-1.38-2.51-.66-1.58,1.38-2.42,3.35-3.16,5.26-.7,1.8-1.22,3.91-2.48,5.43l2.51.66c-.82-2.91-.38-5.97-.51-8.95-.05-1.07-1.26-1.96-2.26-1.3-3.15,2.1-4.94,5.34-6.86,8.5l2.8.76c-.41-3.69,2.97-6.62,2.84-10.35-.04-1.09-1.26-1.94-2.26-1.3-3.37,2.18-5.28,6.09-8.8,8.01-1.69.93-.18,3.52,1.51,2.59h0Z"/><path d="m250.75,165.02c1.75-3,4.01-5.63,6.55-7.98l-2.51-1.46c-.59,3.57-1.71,7.08-1.5,10.74.08,1.44,2.02,2.1,2.8.76,1.95-3.38,2.8-8.48,6.4-10.6l-2.26-1.3c-.28,3.4-1.19,7.32,1.06,10.28.62.82,2.03,1.11,2.59,0,1.53-3.04,3.58-5.78,5.85-8.3l-2.51-.66c.52,1.4.36,2.82.35,4.29s.21,2.84.85,4.17c.52,1.08,2.01.86,2.59,0,.7-1.04,1.39-2.08,2.13-3.09.45-.62,1.44-1.97,1.88-2.04,1.9-.3,1.09-3.19-.8-2.89-1.3.2-2.32,1.66-3.07,2.62-.97,1.25-1.84,2.57-2.73,3.89h2.59c-.59-1.22-.44-2.59-.41-3.91s-.03-2.6-.49-3.83c-.37-.99-1.69-1.57-2.51-.66-2.44,2.7-4.68,5.65-6.32,8.91h2.59c-1.87-2.46-.89-5.94-.65-8.77.1-1.16-1.34-1.84-2.26-1.3-4.25,2.5-5.18,7.7-7.47,11.67l2.8.76c-.2-3.4.84-6.63,1.39-9.94.24-1.44-1.34-2.54-2.51-1.46-2.72,2.52-5.15,5.38-7.02,8.59-.97,1.67,1.62,3.18,2.59,1.51h0Z"/><path d="m276.71,119.69c-1.81.5-3.77.5-5.68-.16-4.17-1.44-5.17-6.85-4.43-10.67,1.78-9.16,15.13-11.28,17.63-1.36,1.4,5.52-2.48,10.79-7.52,12.19Z"/><path d="m188.71,114.32c-1.78,1.46-3.94,2.5-6.17,2.85-9.35,1.45-10.33-8.73-6.19-14.1,3.19-4.13,9.51-7.1,14.02-2.87,4.77,4.46,2.71,10.54-1.65,14.12Z"/></g></svg>