<?xml version="1.0" encoding="UTF-8"?><svg id="Livello_2" xmlns="http://www.w3.org/2000/svg" viewBox="0 0 539.63 290.24"><g id="Livello_1-2"><path d="m262.45,172.68c-.93-4.52-.52-9.5.05-14.16.6-4.92,1.52-9.8,2.07-14.72.59-5.27,1.05-10.58,1.42-15.87s.56-10.93.07-16.37-1.69-11.21-2.91-16.72-2.66-11.2-4.13-16.77c-2.91-11-6.04-21.94-8.48-33.06-2.75-12.57-4.31-25.33-4.12-38.21.05-3.48-4.86-3.94-5.89-.8-2.61,7.92-6.86,15.27-11.71,22.02-2.42,3.37-5.05,6.58-7.87,9.62-2.44,2.63-5.1,5.3-7.87,7.19-5.97,4.06-12.72,6.3-19.75,7.92s-13.84,2.45-21.04,3.03c-9.44.76-18.93,1.11-28.4.96-7.96-.12-15.86-.92-23.8-1.3-3.03-.15-6.05-.27-9.08-.47-1.6-.1-3.19-.23-4.79-.39-.8-.08-1.6-.17-2.39-.26-.12-.01-1.08-.14-.63-.08-.42-.06-.84-.12-1.26-.19-3-.47-5.99-1.11-8.85-2.12-.36-.13-.71-.27-1.07-.4-.47-.18.18.1-.44-.19s-1.22-.58-1.82-.91-1.13-.66-1.66-1.04c-.16-.11-.76-.58-.31-.22-.26-.21-.51-.43-.76-.65-.46-.42-.87-.87-1.28-1.34-.22-.26.07.1.09.13-.1-.13-.2-.26-.29-.4-.2-.3-.39-.6-.58-.91-.91-1.52-1.73-3.1-2.49-4.71-1.54-3.29-2.77-6.81-3.77-10.38-2.05-7.31-3.15-14.82-2.81-22.43.08-1.69.24-3.36.45-4.72s-.14-2.66-1.38-3.39c-1.15-.67-2.69-.47-3.64.47-8.81,8.77-13.26,20.89-18.03,32.1-2.69,6.31-5.71,12.42-9.03,18.43-3.47,6.27-7.1,12.46-10.27,18.89s-5.73,13.31-7.4,20.44-2.71,14.32-4.02,21.49c-2.67,14.62-4.56,29.39-1.97,44.18,1.29,7.35,4.16,14.42,7.65,20.99s7.98,13.1,13.05,18.81c1.08,1.21,3.14,1.1,4.24,0,1.2-1.2,1.08-3.03,0-4.24-8.35-9.4-15.21-21-18.32-33.24-3.4-13.38-2.01-27.91.46-41.32,2.52-13.67,4-27.96,9.88-40.71,5.81-12.6,13.62-24.15,19.25-36.84,2.75-6.21,5.2-12.55,8.16-18.66,2.81-5.82,6.02-11.5,10.59-16.05l-5.01-2.92c-1.28,7.98-.71,16.1.85,24s4.15,15.66,8.2,22.55c3.18,5.41,8.78,8.25,14.67,9.84,6.49,1.76,13.31,2.23,20,2.57,7.15.37,14.28.99,21.43,1.33,9.91.47,19.85.34,29.76-.24,15.62-.92,32.32-2.38,46.42-9.74,7.1-3.71,12.68-9.54,17.68-15.7,5.71-7.03,10.76-14.71,14.35-23.05.87-2.02,1.68-4.07,2.37-6.17l-5.89-.8c-.17,11.78,1.08,23.56,3.36,35.11s5.26,22.12,8.22,33.1,5.95,22.22,7.72,33.56c1.66,10.68.1,21.71-.87,32.38-1,11-4.44,22.27-2.18,33.31.33,1.59,2.2,2.5,3.69,2.1,1.65-.45,2.42-2.1,2.1-3.69h0Z"/><path d="m22.95,159.59c-7.3,6.92-12.91,15.81-16.92,24.99-3.95,9.04-7.11,19.4-5.67,29.36,1.25,8.65,6.51,16.1,12.7,22.01s13.89,10.99,21.43,15.54c8.69,5.25,17.43,10.42,26.68,14.62,10.43,4.73,21.34,8.37,32.68,10.14,3.08.48,6.18.77,9.28,1.15s5.93.86,8.89,1.31c6.27.95,12.61,1.8,18.97,1.26s11.94-2.03,17.85-3.4c4.97-1.15,10.02-1.72,15.01-2.78,9.63-2.06,19.41-5.67,25.5-13.8,2.35-3.14,4.64-7.58,3.4-11.61s-5.6-5.11-9.4-4.28c-2.43.53-4.74,1.74-6.85,3.03l4.1,4.1c.17-.3.36-.58.56-.86-.33.46.27-.31.35-.4.52-.6,1.07-1.17,1.61-1.75,1.15-1.22,2.28-2.44,3.27-3.8,2.05-2.84,2.69-6.48.43-9.4-4.31-5.56-12.87-.86-15.97,3.65l5.18,3.03c2.21-3.8,5.13-9.89,1.34-13.72-2.98-3.01-7.82-2.54-11.63-1.91-5.14.84-10.12,2.64-14.87,4.74-6.04,2.67-11.75,6.06-17.93,8.42-3.11,1.19-6.36,2.17-9.66,2.63-3.52.49-7.13.43-10.67.21-7.06-.45-14.02-1.78-21.01-2.8-7.04-1.03-14.04-2.46-20.8-4.7-5.76-1.91-11.06-4.6-16.18-7.82-5.38-3.39-10.3-6.94-14.82-11.39-2.21-2.18-3.87-4.04-5.37-6.53-.34-.57-.66-1.15-.95-1.75-.03-.06-.39-.89-.14-.28-.13-.33-.26-.66-.37-1-.19-.57-.31-1.15-.44-1.74-.17-.78-.01.6-.02-.19,0-.33-.04-.65-.04-.98,0-3.86-6.01-3.87-6,0,.01,5.28,3.03,9.94,6.35,13.8,3.76,4.37,8.34,8.03,13.01,11.37,4.3,3.08,8.81,6,13.56,8.32,6.58,3.22,13.64,5.38,20.78,6.92s13.76,2.39,20.65,3.41,14.42,2.02,21.61,1.25c7.22-.77,13.85-3.42,20.33-6.58,5.66-2.76,11.2-5.77,17.22-7.69,2.32-.74,4.68-1.38,7.08-1.79.25-.04.49-.08.74-.12.35-.05.32-.05-.07,0,.16-.02.32-.04.48-.05.46-.04.92-.08,1.38-.1.5-.02,1-.02,1.51,0,.2.01.4.04.6.05.54.02-.67-.17.14.04.17.04.35.08.52.13.28.08.85.43.08-.02.11.06.35.12.43.22.45.57-.33-.32.01-.03.11.09.2.23.31.32-.59-.44-.22-.37-.05.01.23.54-.36-.66-.07-.14.15.27.04.94.05.04,0,.19.02.38.02.56,0,.21-.16,1.07,0,.25-.12.58-.25,1.14-.43,1.7-.38,1.14-1.1,2.53-1.91,3.92s-.32,3.29,1.08,4.1c1.49.87,3.18.26,4.1-1.08.38-.55-.47.42.06-.08.17-.17.33-.36.5-.53.19-.18.38-.36.57-.53.05-.04.61-.48.34-.28s.33-.22.39-.26c.24-.16.48-.31.73-.46s.51-.29.76-.41c.03-.02.87-.37.33-.16.48-.18.96-.3,1.45-.43.34-.09-.46-.03.1-.01.25,0,.49,0,.74,0-.74-.05-.02-.01.13.08-.46-.31-.05-.06.11.12-.38-.41-.03.2-.14-.09-.2-.48.33.72.16.28-.12-.31.08.35.09.42-.12-.66-.05.08-.07.23.07-.69-.08.12-.12.23-.16.51.08-.12-.08.18-.63,1.18-.97,1.56-1.85,2.53-1.65,1.83-3.56,3.53-4.82,5.68-1.49,2.56,1.52,5.69,4.1,4.1,1.97-1.21,3.61-2.02,5.83-2.5.58-.13.11,0-.02,0,.2-.01.4-.03.61-.03.31,0,1.15.23.4,0,.25.08.5.14.75.21-.71-.23-.37-.12-.15-.02.58.27-.24-.2-.06-.05.43.37-.18-.54.1.13.2.46-.07-.2-.08-.24.03.13.07.32.14.44.1.19.04.69,0-.13,0,.14.03.27.03.41-.01.27-.14,1.25,0,.54-.16.78-.36,1.54-.67,2.28.2-.46-.08.14-.13.24-.12.24-.24.47-.37.71-.27.5-.57.99-.89,1.46-4.84,7.28-13.57,10.19-21.91,12.06-4.68,1.05-9.46,1.54-14.15,2.58-5.22,1.16-10.4,2.63-15.72,3.33-5.75.76-11.55.35-17.26-.46s-11.88-1.69-17.85-2.43c-10.49-1.29-20.8-4.33-30.53-8.42-9.21-3.87-17.85-8.83-26.42-13.92-6.84-4.06-14-8.4-19.92-13.28-3.11-2.57-6.06-5.37-8.61-8.51-.92-1.13-2.18-2.95-3.11-4.56-.98-1.7-1.61-3.04-2.15-4.58-1.39-3.99-1.62-7.24-1.25-11.53s1.53-8.83,2.98-13.07c3.02-8.82,7.74-17.44,13.69-24.5,1.37-1.62,2.82-3.18,4.36-4.64,2.81-2.66-1.44-6.9-4.24-4.24h0Z"/><path d="m209.57,202.82c-7.42-.23-14.78,1.87-21.67,4.44-7.29,2.72-14.31,6.11-21.45,9.19-15.61,6.73-32.89,10.17-49.29,15.11-4.52,1.36-9.06,2.59-13.65,3.7s-8.83,2.1-13.09,3.68c-1.52.56-2.55,2.03-2.1,3.69.4,1.46,2.16,2.66,3.69,2.1,7.61-2.82,15.7-4.03,23.45-6.37,8.5-2.56,17.06-4.86,25.62-7.21s16.55-4.66,24.5-7.89c6.89-2.8,13.57-6.1,20.47-8.88,7.5-3.03,15.45-5.81,23.5-5.56,3.86.12,3.86-5.88,0-6h0Z"/><path d="m44.18,251.33c-9.68-.45-19.27,2.16-28.94,2.23-3.72.03-8.16.06-10.98,2.88-1.65,1.65-2.19,4.09-1.78,6.34.39,2.1,1.74,3.75,3.42,4.98,3.41,2.51,8.27,3.21,12.38,2.66l-2.31-5.48c.86-.38-.26.06-.61.16-.55.16-1.11.29-1.66.42-1.18.27-2.37.52-3.55.84-2.52.69-5.16,1.69-6.8,3.82-2,2.6-1.63,6.31.33,8.83,2.13,2.73,5.58,3.04,8.78,2.55s5.96-1.76,8.75-3.06l-3.03-5.18c-2.5,1.6-4.99,3.59-6.04,6.47-.84,2.3-.31,4.74,1.26,6.58,3.39,4.01,9.79,4.26,14.56,3.59,6.36-.9,12.13-3.9,18.33-5.43s12.68-2.77,19.02-4.15c7.25-1.58,14.47-3.27,21.55-5.51,1.54-.49,2.54-2.09,2.1-3.69-.42-1.52-2.14-2.59-3.69-2.1-11.31,3.58-22.98,5.77-34.55,8.3-2.78.61-5.59,1.17-8.32,1.99s-5.52,1.91-8.28,2.84c-2.53.85-5.15,1.68-7.81,1.95-2.35.24-4.33.14-6.44-.56-.19-.06-.39-.13-.57-.21.5.21-.3-.17-.33-.18-.2-.11-.38-.23-.58-.34-.11-.07-.22-.14-.32-.22.24.19.29.21.13.08-.14-.14-.28-.28-.41-.42.33.34.16.12-.04-.12-.09-.11-.22-.57.05.13-.14-.36-.15-.51-.06-.03-.01-.06.03-.75-.02-.26-.05.46.1-.29.13-.4.13-.4-.38.53.07-.11.05-.07.47-.74.2-.38.8-1.1,1.97-1.9,3.1-2.63,1.36-.87,1.92-2.67,1.08-4.1s-2.63-1.76-4.1-1.08c-.37.17-.74.35-1.12.51-.21.1-.43.19-.65.28-.44.19.3-.11-.34.14-1.08.42-2.17.82-3.29,1.12-.54.15-1.09.26-1.65.36s.29.01-.28.03c-.31.01-.61.04-.92.04-.12,0-.85-.05-.48,0s-.31-.08-.43-.1-.22-.07-.34-.1c.03,0,.48.25.19.08-.22-.12-.72-.45-.24-.09-.2-.15-.45-.51-.16-.09-.14-.21-.27-.43-.38-.66.2.44,0-.13-.06-.3-.03-.12-.05-.24-.08-.36-.1-.4,0,.49.03.12.03-.4.03-.72-.03-.12.04-.39.18-.42-.06,0,.09-.16.2-.33.28-.49-.24.46-.15.25.1-.05.34-.43-.09.03.02-.04.18-.11.35-.23.54-.34s.39-.21.58-.31c.6-.32-.24.05.24-.11.97-.33,1.93-.64,2.93-.89,2.17-.54,4.35-.9,6.4-1.81,1.35-.59,1.77-2.52,1.23-3.75-.65-1.49-2.01-1.94-3.54-1.74.93-.13.05-.03-.19-.02-.34.01-.68.01-1.02,0s-.65-.03-.98-.06c-.17-.02-.34-.03-.51-.05-.22-.03-.17-.02.15.02-.13-.02-.26-.04-.4-.07-.76-.15-1.51-.31-2.25-.55-.34-.11-.69-.23-1.02-.37.55.23-.46-.25-.59-.33-.17-.09-1.04-.72-.54-.31-.25-.21-.46-.45-.7-.66-.14-.12-.25-.43.04.06-.07-.11-.16-.3-.24-.39-.29-.34-.03-.11.02.09-.07-.23-.13-.45-.18-.68.13.67.04-.22.07-.46-.1.87.12-.75-.02.13.01-.09.16-.3.22-.38-.56.73-.08.08-.06.1,0,0,.28-.26.32-.3-.54.48-.03.04.14-.03.14-.06.28-.14.42-.21-.57.27-.18.07-.04.04.33-.07.64-.2.97-.27.21-.05.42-.09.64-.13.09-.02.64-.1.26-.05s.18-.02.27-.02c.22-.02.45-.04.67-.06,1.45-.1,2.9-.07,4.35-.1,4.46-.1,8.92-.72,13.35-1.23,4.74-.55,9.57-1.22,14.35-.99,1.62.08,3-1.43,3-3,0-1.69-1.38-2.92-3-3h0Z"/><path d="m190.46,250.72c19.3,1.42,36.13-10.51,53.17-17.59,9.72-4.04,19.85-6.91,29.23-11.78,9.38-4.87,18.47-10.27,28.19-14.45,5.24-2.26,10.73-4.14,16.38-5.03,2.47-.39,4.96-.46,7.45-.37.88.03,1.77.01,2.65.01.44,0,.88,0,1.32.02.14,0,.29.03.42.02l.18.02c-.63,0-1.17-.25-1.63-.73l-.88-2.12v.04c.03,3.86,6.03,3.87,6,0-.02-2.75-2.58-3.22-4.72-3.24-1.66-.02-3.32-.07-4.98-.07-5.47-.01-10.94,1.11-16.13,2.78-10.45,3.38-20.17,8.7-29.78,13.93-4.69,2.55-9.37,5.17-14.29,7.25s-9.87,3.72-14.81,5.53c-9.28,3.41-17.99,7.97-26.95,12.1-9.61,4.43-20.05,8.47-30.82,7.67-1.62-.12-3,1.46-3,3,0,1.72,1.38,2.88,3,3h0Z"/><path d="m258.86,83.45c15.2-6.84,30.18-13.92,43.93-23.43,12.88-8.91,25.23-18.95,39.91-24.79s29.83-10.46,45.5-11.64c7.74-.58,15.58-.35,23.2,1.19,3.88.78,7.7,1.87,11.4,3.28,3.9,1.48,7.61,3.43,11.33,5.3,7.91,3.95,15.74,8.05,23.51,12.26,7.25,3.93,14.7,7.66,21.13,12.89,5.85,4.75,11.04,10.25,16.04,15.88s10.34,11.48,15.08,17.56c9.25,11.88,16.82,25.39,20.81,39.97,1.99,7.28,3.04,14.76,2.92,22.31-.13,7.85-1.65,15.44-4.29,22.82s-6.38,14.69-10.42,21.58c-3.65,6.22-7.49,12.41-12.27,17.84-8.81,10.02-20.2,16.84-32.64,21.41-15.9,5.84-32.72,7.51-49.53,6.05-8.5-.74-16.91-2.24-25.23-4.11-8.58-1.93-16.98-4.52-25.46-6.83s-16.94-4.25-25.64-4.63c-8.9-.39-17.8.89-26.49,2.7-4.19.87-8.33,1.93-12.5,2.88-.7.16-1.4.3-2.1.41.52-.08-.49.05-.48.05-.3.03-.59.05-.89.06-.54.03-1.08,0-1.62,0-.15,0-.95-.13-.16,0-.29-.05-.58-.1-.87-.17-.2-.05-.39-.14-.59-.18-.61-.12.49.35,0,0-.25-.17-1.08-.84-.44-.19-.18-.18-.39-.41-.59-.58.55.46.23.38.08.09-.09-.19-.2-.39-.31-.57.48.78.04-.05-.06-.38-.08-.25-.03-.76,0,.12,0-.18-.04-.36-.04-.53,0-.37.03-.75.03-1.12,0-.67-.16.69,0,.02.06-.27.1-.54.16-.8.2-.85.48-1.69.82-2.5-.29.71.29-.58.39-.78.26-.51.54-1.01.84-1.5,1.24-2.04,1.91-2.88,3.69-4.65.37-.37.76-.73,1.15-1.07.2-.17.4-.34.6-.51.06-.05.74-.58.21-.17.88-.66,1.8-1.26,2.78-1.78.2-.11,1.48-.7.84-.43.7-.3,1.42-.57,2.13-.83,1.66-.62,3.33-1.19,5.02-1.71,6.83-2.11,13.93-3.62,21.07-4.12,3.46-.25,6.97-.29,10.42.13,3.68.44,7.61,1.49,11.26,2.6,7.6,2.32,14.93,5.44,22.59,7.53,8.44,2.3,17.35,3.12,26.04,3.99,14.98,1.51,30.58,2.68,45.37-.89,12.09-2.92,23.69-8.8,32.5-17.65s14.52-21.14,15.7-33.97c.57-6.17.57-13.58-2.89-18.98-2.07-3.24-7.27-.24-5.18,3.03,1.61,2.52,2.09,5.71,2.24,8.76s.02,6.27-.42,9.35c-.88,6.26-2.89,12.22-6.04,17.63-5.96,10.27-15.73,17.92-26.57,22.5-5.77,2.44-11.93,4.06-18.13,4.93-7.13,1.01-14.87.74-22.21.39-8.9-.43-17.77-1.33-26.6-2.54-4.29-.59-8.52-1.29-12.7-2.45-3.91-1.09-7.73-2.43-11.55-3.79-7.7-2.74-15.45-5.53-23.62-6.44-7.44-.83-15.09.11-22.39,1.57-3.61.72-7.18,1.63-10.7,2.72-3.03.94-6.17,1.94-9,3.4-4.15,2.13-7.61,5.64-10.18,9.49-2.16,3.24-4.03,7.38-3.59,11.37.52,4.76,4.22,7.33,8.79,7.68,3.01.23,6.02-.53,8.92-1.23,4.3-1.04,8.61-2.05,12.95-2.89,8.68-1.68,17.53-2.58,26.36-1.68,8.72.89,17.23,3.3,25.63,5.69s17.07,4.78,25.78,6.53c17.01,3.4,34.39,4.82,51.6,2.11,8.48-1.34,16.77-3.71,24.7-6.98,6.46-2.66,12.7-5.82,18.38-9.9s10.46-8.59,14.72-13.87c4.84-6,8.92-12.62,12.7-19.33,4.13-7.34,7.81-15.02,10.39-23.04s3.65-15.67,3.57-23.71c-.17-15.79-5.11-31.18-12.59-44.98-7.59-14.01-18.04-25.91-28.59-37.72-5.17-5.78-10.56-11.41-16.69-16.19-6.8-5.31-14.46-9.25-22.03-13.33-8.01-4.33-16.09-8.53-24.25-12.59-7.54-3.75-15.09-6.95-23.41-8.52-16.06-3.02-32.6-1.13-48.29,3.03-7.79,2.07-15.42,4.71-22.9,7.69s-14.64,6.97-21.44,11.48c-6.75,4.48-13.22,9.36-19.88,13.96s-14.09,9.03-21.55,12.85-14.72,7.09-22.18,10.45c-1.48.67-1.83,2.81-1.08,4.1.89,1.52,2.62,1.74,4.1,1.08h0Z"/><path d="m487.42,199.14c-27.89-.98-55.81-.04-83.69.88-13.97.46-27.93.92-41.91,1.15-6.03.1-12.12-.14-18.14.2-1.73.1-3.47.25-5.2.26-.83,0-1.65-.06-2.48-.11s.61.16-.15-.02c-.15-.04-.31-.05-.46-.09-.44-.09-.87-.25-1.3-.36-.66-.17.49.33-.07-.04-.16-.11-.36-.23-.54-.31-.54-.25.33.44-.03-.03-.05-.07-.58-.69-.3-.3s-.07-.18-.1-.21c-.3-.31.06.46-.07-.19-.04-.19-.09-.38-.13-.57.16.75,0-.31.01-.5s.01-.35.03-.53c-.06.8.1-.17.13-.34.09-.48.03-.05-.05.08.15-.27.3-.53.46-.79-.31.5-.16.18-.04.06.23-.22.44-.46.67-.68,0,0,.62-.49.27-.23-.3.22.45-.29.53-.33.45-.27.91-.51,1.38-.73.77-.37-.55.16.27-.11.26-.08.51-.18.77-.27.52-.17,1.04-.31,1.57-.43.26-.06.53-.11.79-.16.08-.01.96-.14.25-.05.98-.12,1.98-.17,2.97-.11.22.01.44.04.67.06-.81-.07-.17-.03.02.02.42.1.82.2,1.21.37,1.5.62,3.3-.67,3.69-2.1.47-1.73-.59-3.07-2.1-3.69-3.58-1.49-8.49-.63-11.95.77-4.67,1.89-8.31,5.67-7.4,11.04.81,4.8,5.41,6.53,9.72,6.82,1.88.12,3.77,0,5.65-.13,2.36-.16,4.71-.14,7.07-.15,29.57-.14,59.11-1.65,88.67-2.29,16.43-.36,32.88-.45,49.31.13,3.86.14,3.86-5.86,0-6h0Z"/><path d="m339.98,191.12c0-.09.07-.55.02-.6-.08.55-.1.67-.05.36.01-.07.03-.15.05-.22.04-.17.09-.34.14-.5.2-.74-.27.43-.02.01.19-.31.35-.64.55-.95.28-.44.15-.08-.08.09.16-.12.3-.35.44-.5.27-.29.56-.56.87-.82.63-.53-.35.23.08-.08.15-.1.29-.21.44-.31.74-.5,1.54-.86,2.33-1.29.21-.09.11-.05-.29.12.11-.05.23-.09.35-.14.23-.09.46-.17.7-.25.41-.14.82-.26,1.24-.36s.82-.18,1.24-.25c.61-.11-.67.06-.1.02.23-.02.46-.04.69-.05.39-.02.78-.01,1.17.01.11,0,.22.02.32.03.32.04.21.02-.32-.04,0,0,.44.08.46.09.18.04.87.37,1.01.31-.49-.21-.59-.25-.32-.12.09.04.17.09.26.13.17.09.32.2.48.31,1.29.9,3.39.28,4.1-1.08.81-1.54.3-3.14-1.08-4.1-2.8-1.96-6.73-1.8-9.88-.94-3.51.95-6.8,2.9-9.01,5.81-1.15,1.51-1.83,3.41-1.8,5.32.02,1.57,1.36,3.07,3,3s3.03-1.32,3-3h0Z"/><path d="m349.92,183.34c-.14.37.13-.27.19-.38.07-.12.46-.7.18-.34.2-.26.44-.48.68-.71s-.02-.01-.07.03c.15-.11.31-.22.46-.32.24-.15.49-.28.74-.42.47-.25-.17.03.34-.15.65-.23,1.31-.41,1.99-.53.14-.03.86-.12.38-.07.3-.03.59-.06.89-.08.68-.04,1.37-.04,2.06-.02.56.02,1.12.07,1.67.14-.62-.07.29.05.47.08.54.09,1.09.19,1.63.28,3.94.68,7.94,1.33,11.95,1.14,2.04-.1,4.05-.47,6.09-.59s4.11-.12,6.16-.06c4.13.11,8.26.43,12.39.32s8-.79,11.99-1.24c3.01-.34,6.01-.29,9.02-.55s6.6-1.06,7.65-4.29c.78-2.4-.24-4.92-1.37-7.03-1.27-2.36-2.93-4.5-4.57-6.61-.64-.82-1.27-1.64-1.93-2.45-.15-.19.37.52.04.05-.17-.23-.34-.46-.51-.7-.58-.8-1.14-1.62-1.67-2.45-1.93-2.98-3.58-6.12-4.51-9.56-1.69-6.23-1.03-13.64,1.89-19.4s7.81-10.4,13.35-13.86c2.95-1.84,6.08-3.35,9.08-5.11,1.49-.87,2.96-1.78,4.53-2.51s3.32-1.13,5.03-1.53c3.61-.86,7.28-1.79,10.92-.65,1.78.56,3.5,1.29,5.29,1.83s3.54.94,5.21,1.65c1.14.49,2.66,1.26,3.05,2.06.71,1.46,2.78,1.85,4.1,1.08,1.49-.87,1.78-2.64,1.08-4.1-1.66-3.43-6.47-4.89-9.83-5.88-3.69-1.08-7.3-2.83-11.16-3.17-2.17-.19-4.44.21-6.57.6s-4.13.85-6.15,1.41c-3.69,1.02-6.83,3.14-10.13,4.97-6.19,3.43-12.38,6.77-17.23,12.06-5.2,5.66-8.42,12.52-9.1,20.19-.34,3.84-.19,7.82.77,11.57s2.7,7.38,4.76,10.68c1.48,2.36,3.17,4.55,4.89,6.74.19.25.39.49.58.74.21.27,0,0-.04-.05.09.11.17.23.26.34.41.55.83,1.1,1.22,1.66.76,1.07,1.49,2.17,2.12,3.33.13.24.25.48.37.72.08.16.15.31.22.47-.01-.03-.18-.46-.06-.14.08.22.16.44.23.66.05.17.2,1,.15.53-.06-.5.02.16-.02.26-.03.09.13-.67-.03-.05,0,.03.29-.62.13-.35-.14.23.14-.2.13-.19.08-.13.4-.13.15-.1-.16.02-.38.23-.55.3.47-.21-.13,0-.31.06-.28.08-.57.13-.86.19-.61.11-.25.03-.11.02-.15.02-.31.03-.47.04-.36.03-.72.05-1.09.07-1.23.05-2.46.02-3.69.09-4.26.25-8.46,1-12.7,1.42s-8.56.19-12.83,0-8.58-.23-12.87.32c-3.85.49-7.67.16-11.47-.48-5.95-.99-12.84-2.11-17.77,2.36-1.23,1.12-2.02,2.54-2.6,4.07s.63,3.29,2.1,3.69c1.68.46,3.12-.57,3.69-2.1h0Z"/><path d="m117.81,182.52c1.38-.59,3.56-1.35,5.2-2.11,1.87-.86,3.65-2.02,5.05-3.55,2.69-2.93,3.4-6.56,4.32-10.29h-5.79c.44,1.6.29,3.29.7,4.9s1.36,3.11,2.56,4.31c2.15,2.14,5.04,3.51,7.98,4.15,4.94,1.08,11.65,1.35,15.38-2.72l-5.12-2.12v.44c-.11,3.86,5.89,3.86,5.99,0v-.44c.08-2.54-3.36-4.04-5.11-2.12-.16.17-.32.34-.49.49-.34.3.53-.3-.18.12-.17.1-.33.19-.5.28-.77.42.25-.07-.23.11s-.98.3-1.48.41c-.07.02-.73.14-.31.07-.21.03-.43.05-.65.07-2.18.18-3.9.01-5.71-.38-1.92-.42-3.74-1.09-5.19-2.47-1.8-1.71-1.22-4.36-1.86-6.69-.77-2.81-5.07-2.91-5.79,0s-1.03,5.88-3.05,7.93c-2.29,2.32-5.81,3.17-8.77,4.44-1.49.64-1.82,2.83-1.08,4.1.9,1.54,2.61,1.72,4.1,1.08h0Z"/><path d="m60.04,111.44c-.92,5.03.43,10.43,4.47,13.81,2.26,1.88,4.96,3.03,7.67,4.08,2.5.97,4.76,1.31,7.42,1.08,2.84-.25,5.6.21,8.44.26,3.03.06,6.08-.14,9.11-.19,5.51-.09,11.21-.75,16.1-3.47,3.9-2.17,7.21-5.78,8.31-10.18.6-2.4.66-5.17-.1-7.54s-2.23-4.37-3.79-6.19c-3.31-3.84-7.9-5.81-12.42-7.88-2.7-1.24-5.45-2.19-8.32-2.98s-5.67-.84-8.58-.61c-6.43.52-12.19,2.93-17.67,6.24-2.49,1.5-4.76,2.71-6.48,5.16s-3.49,5.32-4.16,8.41c-.34,1.58.47,3.24,2.1,3.69,1.5.41,3.34-.51,3.69-2.1.5-2.29,1.7-4.18,2.98-6.11,1.09-1.64,2.04-2.25,3.75-3.21,3.93-2.2,7.61-4.42,12.05-5.48,2.33-.55,4.67-.73,7.06-.74s4.68.76,6.93,1.48,4.32,1.73,6.41,2.77c1.85.92,3.87,1.69,5.56,2.88,1.12.79,2.62,2.32,3.53,3.57,1.16,1.6,1.79,2.69,1.88,4.45.16,3.26-1.48,6.12-3.86,7.94-3.32,2.55-7.6,3.46-11.7,3.75-2.41.17-4.82.11-7.23.19-2.66.09-5.29.19-7.95-.04-1.38-.12-2.76-.26-4.14-.2-1.17.05-2.34.24-3.51.24-2.02.01-4.43-1.13-6.4-2.12-2.08-1.04-3.64-2.16-4.67-4.18-.78-1.52-1-3.56-.7-5.21s-.44-3.23-2.1-3.69c-1.46-.4-3.4.49-3.69,2.1Z"/><path d="m206.57,112.05c.38.9.7,1.8.65,2.79-.02.48-.19.91-.58,1.53-.26.42.24-.27-.07.12-.13.16-.27.31-.41.45-.19.2-.7.65-.76.69-.46.35-1.45.91-2.17,1.25-.6.28-1.06.45-1.93.72-1.18.37-2.39.69-3.58,1.02-2.54.7-5.08,1.37-7.66,1.88-4.88.96-9.81.54-14.68-.35-2.43-.44-4.81-1.16-7.14-1.99-1.17-.42-2.33-.87-3.49-1.33-.42-.17-.84-.34-1.26-.51-.13-.05-.51-.22.07.03-.19-.08-.39-.17-.58-.25-1.47-.65-2.92-1.39-4.25-2.28-.76-.51-.72-.46-1.44-1.18-.15-.15-.69-.88-.39-.42-.09-.14-.17-.3-.27-.43-.33-.46.11.23-.04-.06-.04-.08-.18-.6-.08-.18s0-.07,0-.19c0-.34-.05.16-.05.19.03-.35.16-.69.16-1.05,0-1.22-.09-.89-.24-.45.18-.51.59-1.02.88-1.48,1.04-1.59,2.32-3,3.74-4.29,6.29-5.74,15.05-8.44,23.47-7.92,2.18.13,4.41.45,6.35,1.41,2.19,1.08,4.14,2.57,6.11,3.98,1.74,1.24,3.66,2.24,5.36,3.52,1.93,1.45,3.57,3.3,4.6,5.49.69,1.47,2.8,1.84,4.1,1.08,1.5-.88,1.77-2.63,1.08-4.1-1.06-2.27-2.74-4.29-4.62-5.94s-4.02-2.83-6.08-4.23c-3.92-2.67-7.63-5.83-12.45-6.68-10.1-1.76-20.9.58-29.18,6.72-2.17,1.61-4.17,3.38-5.86,5.49-.89,1.11-1.76,2.27-2.46,3.51-.87,1.54-1.01,2.96-.7,4.69v-1.6c-1.05,4.76,2.76,8.15,6.53,10.25,4.25,2.37,9.12,4.17,13.81,5.39,2.95.77,6.01,1.16,9.03,1.49s6.29.34,9.44-.16,6.09-1.25,9.09-2.07c2.49-.68,4.98-1.33,7.34-2.4s4.57-2.71,5.94-4.94c1.65-2.67,1.65-5.97.45-8.81-.63-1.49-1.98-2.56-3.69-2.1-1.41.39-2.73,2.19-2.1,3.69Z"/><path d="m54.53,137.74c1.68-.68,3.05-1.68,4.48-2.8.62-.49,1.23-.99,1.85-1.49.28-.23.55-.45.83-.67.14-.11.67-.53-.04.02.31-.24.62-.47.92-.71,1.31-1.06,2.31-2.44,3.56-3.56s2.66-2.3,3.43-3.89l-5.48-2.31.21-.5,5.48.72h0c-.1.76-.2,1.53-.3,2.3l.03-.05-1.08,1.08.06-.04c1.29-.89,2-2.67,1.08-4.1-.83-1.28-2.72-2.03-4.1-1.08-1.12.77-1.92,2.07-1.46,3.49.37,1.15,1.28,1.99,2.49,2.15s2.35-.4,2.99-1.43c.17-.28.28-.62.39-.93.52-1.4-.47-3-1.74-3.54s-3.09-.12-3.75,1.23c-.09.18-.18.35-.28.52-.06.09-.42.54-.12.19s-.09.09-.16.17c-.14.15-.28.3-.43.45-.5.5-1.05.95-1.58,1.42-1.18,1.05-2.14,2.31-3.32,3.35-.43.38.3-.23.05-.03-.27.21-.55.42-.82.63s-.54.43-.81.65c-.56.45-1.11.91-1.67,1.35-.16.13-.34.25-.49.39.23-.22.37-.28.04-.04-.29.21-.57.42-.87.63-.25.17-.5.33-.75.48s-1.24.58-.25.18c-.75.31-1.37.65-1.79,1.38-.38.64-.54,1.59-.3,2.31.45,1.4,2.13,2.73,3.69,2.1h0Z"/><path d="m77.86,139.4c.39-1.77,1.23-3.38,1.7-5.13.49-1.83.78-3.69,1.4-5.49.51-1.49-.58-3.35-2.1-3.69-1.67-.38-3.14.51-3.69,2.1-.62,1.8-.91,3.66-1.4,5.49s-1.31,3.36-1.7,5.13c-.34,1.53.46,3.32,2.1,3.69,1.52.35,3.33-.46,3.69-2.1h0Z"/><path d="m103.78,141.38c-.01-2.82-.42-5.6-.55-8.41-.05-.99-.08-1.99-.17-2.98-.11-1.17-.2-2.48-.83-3.52-.81-1.34-2.73-1.96-4.1-1.08s-1.95,2.67-1.08,4.1c.25.41-.22-.78-.13-.3.03.17.08.34.11.51.14.69-.06-.67,0-.03.02.24.05.47.06.71.07.95.11,1.9.15,2.86.14,2.72.53,5.41.54,8.13,0,1.57,1.38,3.07,3,3s3.01-1.32,3-3h0Z"/><path d="m119.56,132.72c-.43-.45.25.43.15.21-.06-.13-.15-.25-.22-.38-.12-.23-.17-.64.08.22-.04-.13-.1-.27-.15-.4-.21-.62-.37-1.26-.52-1.89-.28-1.15-.65-2.19-1.12-3.27-.17-.4-.35-.8-.52-1.2-.1-.24-.21-.48-.31-.72-.24-.57.28.68.09.21-.05-.11-.09-.22-.14-.33-.17-.42-.34-.84-.49-1.27-.05-.14-.09-.29-.14-.43-.02-.05-.02-.11-.04-.16-.05-.28-.02-.06.09.68,0-.53-.13-.06-.39,1.42l-1.08,1.08h.01c.65-.48,1.16-1,1.38-1.8.2-.72.11-1.67-.3-2.31-.81-1.26-2.74-2.05-4.1-1.08-1.28.92-1.75,2.21-1.37,3.71.1.38.25.76.39,1.13.49,1.25,1.03,2.48,1.57,3.7.08.19.17.39.25.58.22.5-.3-.76-.17-.41.02.07.05.14.08.2.24.65.39,1.33.56,2,.42,1.7.93,3.45,2.17,4.74,1.09,1.13,3.16,1.18,4.24,0s1.16-3.03,0-4.24h0Z"/><path d="m147.7,130.74c1.42-.63,2.61-1.76,3.71-2.84.51-.5,1.01-1.01,1.54-1.48.13-.11.26-.23.39-.34.09-.07.17-.14.26-.21l-.35.27c.29-.17.58-.43.84-.63.49-.38.98-.77,1.46-1.17.23-.19.46-.37.68-.56.12-.09.23-.19.35-.28.09-.07.55-.43.11-.09s.01,0,.11-.08c.11-.08.23-.17.35-.25.22-.15.44-.3.67-.44.2-.12.41-.22.61-.34.28-.16-.84.29-.36.16.29-.08.65-.1-.45.03.82-.09,1.51-.27,2.12-.88.52-.52.91-1.37.88-2.12-.07-1.47-1.33-3.19-3-3-1.45.17-2.63.77-3.79,1.62s-2.24,1.77-3.36,2.66c-.1.08-.49.39-.02.02s.08-.06-.03.02c-.41.3-.81.6-1.2.92-.57.46-1.09.97-1.61,1.49s-1.06,1.05-1.63,1.54c-.13.11-.27.22-.4.33.65-.56.25-.19.06-.07-.31.21-.64.39-.98.54-.64.29-1.2,1.14-1.38,1.79-.2.72-.11,1.67.3,2.31s1.03,1.2,1.79,1.38c.83.19,1.54.04,2.31-.3h0Z"/><path d="m166.01,137.3c.05-.52-.12.59-.02.22.03-.11.05-.23.08-.35.07-.27.15-.54.25-.81.04-.12.09-.25.14-.37.23-.64-.2.42-.03.06.13-.29.26-.57.4-.85.52-1.07,1.11-2.1,1.65-3.16.62-1.21,1.08-2.49,1.52-3.78.2-.58.39-1.15.59-1.73.05-.15.11-.29.17-.44.14-.39-.04.12-.1.22.14-.22.22-.49.35-.72.75-1.38.38-3.33-1.08-4.1s-3.3-.39-4.1,1.08c-.65,1.19-1.08,2.51-1.51,3.8-.21.62-.42,1.25-.66,1.86-.06.15-.14.31-.19.47.04-.15.24-.53.07-.18-.13.27-.26.53-.4.8-1.34,2.55-2.83,5.07-3.11,7.99-.15,1.57,1.49,3.07,3,3,1.76-.08,2.84-1.32,3-3h0Z"/><path d="m188.61,138.78c-.36-.96-.63-1.95-.83-2.96-.05-.26-.1-.53-.15-.79-.03-.18-.19-.64-.12-.8.06.46.07.52.03.19-.02-.14-.03-.27-.05-.41-.03-.24-.05-.48-.07-.72-.18-2.04-.21-4.09-.17-6.13.03-1.57-1.4-3.07-3-3s-2.96,1.32-3,3c-.05,2.11-.01,4.23.19,6.34.22,2.32.56,4.68,1.39,6.88.55,1.46,2.05,2.63,3.69,2.1,1.43-.46,2.69-2.12,2.1-3.69h0Z"/><path d="m203.87,125.32l.06.02-.72-.3c.09.04.16.08.24.13.46.26-.51-.44-.31-.25.18.17.36.34.52.52.19.22.78,1.02.12.11.17.24.35.47.52.71.62.88,1.18,1.8,1.76,2.71,1.44,2.24,2.36,5.27,5.16,6.15,1.5.47,3.34-.55,3.69-2.1.37-1.63-.49-3.19-2.1-3.69-.05-.01-.1-.03-.14-.05l.72.3c-.33-.16-.29-.35.25.25-.07-.08-.17-.15-.25-.23-.09-.09-.16-.19-.24-.28.67.72.32.42.16.19-.35-.5-.65-1.04-.95-1.58-.46-.85-.93-1.68-1.45-2.5-.6-.96-1.2-1.91-1.88-2.82-.99-1.31-1.97-2.52-3.57-3.09-1.48-.52-3.35.59-3.69,2.1-.38,1.68.51,3.13,2.1,3.69h0Z"/><path d="m89.54,95c.35.02.7.05,1.06.07,2.28.14,4.22-.37,6.14,1.2,3.6,2.94,4.98,8.11,4.52,12.61-.31,3.03-1.27,4.72-3.61,6.59-.97.77-2.05,1.73-3.25,2.14-.49.17-1.8.18-2.54.24-.58,0-1.13,0-1.13,0-1.1,0-2.14-.12-3.21-.24-1.59-.17-2.37-.88-3.53-1.97-1.9-1.79-3.77-3.63-4.41-6.22-1.25-5.05-.25-11.92,5.28-13.99,1.61-.6,3.09-.54,4.69-.44Z"/><path d="m180.69,95.47c1.92-.18,3.09-.99,4.98.14,4.15,2.48,5.71,7.91,4.79,13.04-1.03,5.72-5.41,9.64-10.57,8.93-4.08.63-9.51-2.83-10.37-7.73s1.53-10.9,5.48-13.05c1.77-.96,3.32-1.22,5.27-1.3.14,0,.27-.01.41-.03Z"/><path d="m70.51,167.96c-3.34.43-7.18.74-10.35-.69-.32-.15-.64-.32-.94-.51-.14-.09-.28-.18-.42-.28-.43-.31.23.22-.13-.12-.11-.1-.58-.59-.46-.45.09.12-.28-.46-.37-.62-.25-.44,0,.23-.08-.26-.03-.17-.08-.34-.12-.5,0,.04.04.51.03.16-.01-.26,0-.52,0-.78,0-.34-.03.09-.04.14.02-.18.06-.35.1-.53.06-.27.14-.53.23-.79.03-.09.21-.52,0-.06.06-.13.12-.26.19-.38.14-.25.27-.51.43-.75.07-.12.56-.8.3-.47.9-1.15,1.58-1.68,2.64-2.3,2.96-1.75,6.41-2.74,9.82-3.12,1.82-.21,3.66-.27,5.5-.23.42,0,.84.06,1.26.04,1.49-.06.86-.09.53-.08.15,0,.29-.02.44-.02.82.02,1.01.04,1.69.18,2.85.58,5.22,1.38,7.51,2.93.84.57,1.71,1.5,1.96,2.36.05.17.07.35.13.51.19.55,0-.49,0-.08,0,.12-.01.8.03.32.05-.54-.1.24-.09.28.04.2.07-.14.13-.26-.06.12-.12.23-.18.35s-.15.22-.21.33c0,0,.38-.45.16-.21-.14.15-.28.31-.43.45-.08.08-.59.49-.28.26s-.33.21-.45.28c-.45.28-.92.52-1.39.75-.11.06-.23.11-.35.16.04-.02.45-.18.12-.05-.29.11-.57.22-.86.33-2.4.86-4.9,1.37-7.4,1.88-3.14.64-6.23,1.48-9.42,1.92-1.61.22-2.48,2.27-2.1,3.69.48,1.73,2.08,2.32,3.69,2.1,3.26-.45,6.42-1.32,9.64-1.97,2.59-.52,5.2-1.07,7.67-2.02,2.62-1,5.4-2.4,6.82-4.96,1.83-3.3.54-7.29-1.98-9.84s-6.15-3.98-9.56-4.92c-1.77-.49-3.72-.92-5.57-.73-.02,0-1.13,0-.67.03-.21,0-.42-.01-.63-.02-.49-.01-.98-.02-1.47-.02-1.13,0-2.26.05-3.39.15-7.69.67-17.23,3.49-20.01,11.58-1.39,4.04.18,8.13,3.61,10.52,4.17,2.91,9.91,2.91,14.74,2.29,1.61-.21,3-1.23,3-3,0-1.46-1.38-3.21-3-3Z"/><path d="m188.23,167.86c-3.68.02-7.37-.38-11.02-.78-.86-.09-2.04-.26-3.14-.71-.58-.24-1.4-.72-1.33-1.59.14-1.95,2.83-4.09,4.42-5.07,2.37-1.46,5.01-2.5,7.82-2.86-.46.06.64-.04.56-.04.33-.02.66-.03.98-.02.5,0,.99.06,1.48.12.62.08,1.29.26,1.92.25.87,0,1.46-.36,2.12-.88-.31.25-1.3.53-.53.42.72-.1-.72,0,.11-.02.27,0,.54-.03.81-.03.6,0,1.2.02,1.8.05,1.13.07,2.24.2,3.36.33.8.09-.97-.17.13.02.34.06.68.11,1.02.18.68.14,1.36.31,2.02.53,1,.34,2.01.9,2.73,1.77-.2-.24.43.66.37.56-.03-.05.49.96.29.49.12.27.17.56.27.83.22.6.15-.36.04.22-.06.32.18.75.03.12.04.16-.34.85.02.12-.1.2-.22.38-.33.57.33-.59.06-.06-.1.09-.17.16-.34.32-.52.48.53-.48-.27.18-.4.26-.52.33-1.07.62-1.63.89-.25.12-.5.23-.75.35-.32.14-.34.15-.05.03-.17.07-.34.14-.51.21-.51.21-1.02.4-1.53.6-1.5.59-2.96,1.28-4.52,1.72-1.95.55-3.91.75-5.93.78-3.86.07-3.87,6.07,0,6,2.53-.05,5.09-.31,7.53-1,1.15-.32,2.24-.77,3.33-1.24.51-.22.07-.03-.03.01.16-.07.32-.13.48-.19.37-.15.75-.3,1.12-.44,2.78-1.09,5.97-2.2,7.96-4.55,2.5-2.96,2.19-6.9.02-9.99-2.53-3.59-6.58-4.83-10.74-5.37-3.13-.41-7.48-1.27-10.1.96l2.12-.88c-3.23-.43-6.2-.4-9.36.54-3.35.99-6.56,2.6-9.23,4.87-2.8,2.39-5.19,6.08-4.43,9.89s4.54,5.74,8.01,6.31c4.34.72,8.92,1.11,13.32,1.09,3.86-.02,3.87-6.02,0-6Z"/><path d="m57.56,161.49c-.16-.06-1.14-.09-.8-.07l1.3,2.26c-.25.35.43-.18.53-.25.26-.17.51-.34.76-.52.64-.44,1.27-.89,1.9-1.34,1.21-.85,2.42-1.69,3.68-2.47l-2.05-2.05c-1.73,3.5-4.13,7.2-4.24,11.22-.04,1.6,1.99,1.89,2.8.76,3.55-4.96,6.05-11.19,11.16-14.82l-2.2-1.69c-1.99,5.65-4.39,11.17-5.13,17.17-.18,1.48,2.16,2.04,2.8.76,2.76-5.59,5.62-11.1,10.22-15.42l-2.56-1.06c-.31,5.21-4.81,9.3-4.09,14.75.19,1.45,1.91,2.08,2.8.76,2.42-3.59,4.97-7.08,7.51-10.58l-2.8-.76c.07,2.35-.84,4.6-.65,6.96.1,1.17,1.64,2.13,2.56,1.06,2.41-2.82,3.79-6.31,6.04-9.24l-2.8-.76c.18,3.49-.97,6.88-1.14,10.35-.08,1.54,2.05,1.97,2.8.76,1.81-2.94,3.9-5.71,5.53-8.76l-2.74-.36c.65,1.84-.32,5.01,1.43,6.36.65.5,1.49.62,2.12,0,.52-.51.64-1.63,0-2.12-.25-.19.06.39-.05-.08-.04-.16-.07-.31-.1-.47-.08-.49-.07-1.01-.1-1.51-.06-.99-.08-2.03-.41-2.97-.4-1.15-2.09-1.57-2.74-.36-1.63,3.05-3.72,5.82-5.53,8.76l2.8.76c.17-3.47,1.32-6.85,1.14-10.35-.08-1.59-1.91-1.91-2.8-.76-2.09,2.72-3.34,6.02-5.57,8.63l2.56,1.06c-.19-2.36.72-4.61.65-6.96-.05-1.57-1.95-1.93-2.8-.76-2.54,3.51-5.09,6.99-7.51,10.58l2.8.76c-.69-5.25,3.79-9.58,4.09-14.75.08-1.35-1.67-1.9-2.56-1.06-4.78,4.5-7.81,10.22-10.69,16.03l2.8.76c.7-5.68,3.14-11.02,5.02-16.37.42-1.19-1.15-2.44-2.2-1.69-5.61,3.99-8.34,10.45-12.24,15.9l2.8.76c.1-3.42,2.37-6.73,3.84-9.7.63-1.28-.7-2.89-2.05-2.05-1.46.9-2.85,1.89-4.25,2.87-1.18.84-2.85,1.6-3.7,2.78-.71.98.26,2.21,1.3,2.26.1,0,.19,0,.29-.02.36-.04.27-.05-.29-.01,1.82.65,2.61-2.25.8-2.89h0Z"/><path d="m172.79,166.28c.84-3.87,4.98-6.33,7.22-9.38l-2.8-.76c.06,2.33-1.39,4.57-2.26,6.65-.94,2.28-1.45,4.56-.45,6.9.38.89,1.76.94,2.36.3,1.87-1.99,2.88-4.52,4.28-6.83,1.55-2.55,3.74-4.63,5.43-7.07l-2.8-.76c-.29,5.28-4,9.84-3.3,15.27.16,1.23,1.55,2.05,2.56,1.06,2.11-2.07,3.11-4.92,4.22-7.59s2.24-5.31,4.84-6.57l-2.26-1.3c.28,2.1-.77,4.13-1.05,6.19s-.1,4.18.24,6.3c.18,1.11,1.8,1.44,2.51.66,1.82-1.99,2.55-4.71,3.39-7.21.68-2.03,1.52-5.19,3.73-6.08l-1.9-1.45c-.23,4.75-2.61,9.1-2.63,13.9,0,1.39,1.6,1.86,2.56,1.06,1.97-1.63,2.87-4.16,3.72-6.49s1.58-4.94,3.61-6.36l-2.2-.9c.41,2.92-1.07,5.82-.84,8.77.09,1.16,1.2,1.83,2.26,1.3s1.67-1.5,2.19-2.48c.39-.74.76-2.09,1.47-2.6,1.56-1.11.06-3.71-1.51-2.59-.94.67-1.5,1.59-2.01,2.61-.41.81-.79,2.04-1.64,2.48l2.26,1.3c-.26-3.24,1.18-6.3.73-9.57-.13-.93-1.48-1.4-2.2-.9-2.32,1.62-3.47,4.1-4.44,6.67-.87,2.3-1.52,5.01-3.49,6.65l2.56,1.06c.01-4.76,2.4-9.14,2.63-13.9.04-.89-1.01-1.81-1.9-1.45-2.85,1.16-4.21,3.76-5.24,6.5-.92,2.44-1.4,5.58-3.21,7.56l2.51.66c-.32-1.98-.47-3.95-.03-5.93s1.21-3.77.95-5.76c-.15-1.16-1.15-1.83-2.26-1.3-2.81,1.36-4.39,4.12-5.59,6.87s-2,5.71-4.09,7.77l2.56,1.06c-.68-5.31,3.02-10.02,3.3-15.27.09-1.6-2.01-1.89-2.8-.76-1.63,2.35-3.71,4.35-5.24,6.76-1.36,2.15-2.24,4.66-4,6.53l2.36.3c-.77-1.8.57-4.19,1.29-5.79.89-1.97,1.89-4.03,1.83-6.25-.04-1.58-1.94-1.92-2.8-.76-2.47,3.37-6.57,5.75-7.52,10.1-.41,1.88,2.48,2.69,2.89.8h0Z"/></g></svg>